<?xml version="1.0" encoding="UTF-8" standalone="no"?>
<!-- Created with Inkscape (http://www.inkscape.org/) -->

<svg
   xmlns:dc="http://purl.org/dc/elements/1.1/"
   xmlns:cc="http://creativecommons.org/ns#"
   xmlns:rdf="http://www.w3.org/1999/02/22-rdf-syntax-ns#"
   xmlns:svg="http://www.w3.org/2000/svg"
   xmlns="http://www.w3.org/2000/svg"
   xmlns:sodipodi="http://sodipodi.sourceforge.net/DTD/sodipodi-0.dtd"
   xmlns:inkscape="http://www.inkscape.org/namespaces/inkscape"
   version="1.0"
   width="256"
   height="256"
   id="svg2"
   sodipodi:docname="Black_-_replace_this_image_female.svg"
   inkscape:version="0.92.3 (2405546, 2018-03-11)">
  <metadata
     id="metadata7">
    <rdf:RDF>
      <cc:Work
         rdf:about="">
        <dc:format>image/svg+xml</dc:format>
        <dc:type
           rdf:resource="http://purl.org/dc/dcmitype/StillImage" />
        <dc:title></dc:title>
      </cc:Work>
    </rdf:RDF>
  </metadata>
  <sodipodi:namedview
     pagecolor="#ffffff"
     bordercolor="#666666"
     borderopacity="1"
     objecttolerance="10"
     gridtolerance="10"
     guidetolerance="10"
     inkscape:pageopacity="0"
     inkscape:pageshadow="2"
     inkscape:window-width="1366"
     inkscape:window-height="711"
     id="namedview5"
     showgrid="false"
     inkscape:zoom="1.18"
     inkscape:cx="100"
     inkscape:cy="100"
     inkscape:window-x="0"
     inkscape:window-y="0"
     inkscape:window-maximized="1"
     inkscape:current-layer="svg2" />
  <defs
     id="defs7" />
  <path
     d="m 153.37517,6.3923995 c 8.83725,5.3337225 16.32201,7.0303975 25.25649,26.3631435 12.99155,28.111538 12.84896,34.404941 18.3,24.605429 -1.04104,2.538469 -2.01317,5.051317 -1.25342,6.920282 1.08628,1.148009 2.17259,0.70898 3.25891,0 -0.63873,0.932884 0.22305,4.617233 1.75478,1.794151 1.08768,-2.004688 1.00272,-2.050471 1.00272,-2.050471 0.75682,1.768873 0.3525,3.961188 0.50138,4.61353 1.50412,1.892367 3.00821,-1.329831 4.51234,-4.61353 0.3353,2.762346 0.11158,5.784939 -2.00548,8.71442 4.9962,2.119165 5.10742,-3.958874 4.01094,-8.201805 1.66228,2.721164 2.98213,5.770568 2.0055,11.021171 0.58492,1.030557 1.16985,-1.263067 1.75478,-2.050444 -0.1689,1.514892 -0.003,4.242733 -1.37874,4.677584 0.8944,0.322912 2.03004,1.249635 3.69758,-0.640762 0.1697,4.600548 -1.16426,7.737605 -7.45787,6.407655 1.87316,1.25097 2.17152,10.069489 5.6404,3.652382 1.24109,1.914061 -0.9197,3.190983 -1.94279,7.112496 -0.61315,9.189959 -6.45195,7.991029 -9.77672,11.790109 -0.85774,4.12347 -1.57953,5.28248 -2.86195,8.32973 -0.81779,1.94319 4.96658,6.25452 5.19226,-2.14011 0.95008,8.45161 -6.35973,5.2593 -8.94392,9.25559 -0.92674,0.91124 -1.95519,1.62494 -3.10043,2.11179 -7.84981,4.84719 -12.14279,18.00322 -15.54245,19.60744 -1.1425,1.18623 -8.45493,1.0466 -12.28355,0.38446 -1.92686,4.67794 -3.44359,6.96675 -6.20446,9.48335 -3.04663,6.65836 -5.44574,22.07738 3.94829,29.73156 15.59298,12.70503 20.35187,16.44495 40.29757,20.69676 44.22405,9.42716 40.10958,33.01231 48.48854,52.03169 L 5.75413,255.79677 c 7.22493,-17.9611 3.8452873,-41.80013 48.349873,-52.78961 16.171708,-3.99328 22.797561,-7.74204 36.41197,-19.54338 8.491709,-7.36086 6.770275,-22.38248 4.888353,-30.50048 -6.768312,-0.75475 -10.273947,-2.62144 -11.53151,-5.25428 -3.241979,0.003 -6.759762,0.5964 -6.768481,-6.34359 -8.775648,4.11949 -12.742036,-2.78212 -16.79588,-9.48334 -4.011499,-2.00115 -8.97968,-1.2405 -10.340745,-10.89303 l -1.128087,-3.13976 c -1.854461,-2.64545 -0.995024,-6.35812 -0.814725,-9.80373 1.190756,1.81973 1.880138,2.26852 3.070893,2.94752 -8.937387,-10.79047 -3.601798,-17.371418 -4.825687,-25.886948 2.211154,1.241756 4.039486,0.61871 5.891094,-0.448534 l -3.885613,-0.897069 c 0,0 16.091766,-0.304774 7.520544,-1.281536 -6.615587,-0.753903 -6.26712,-4.549437 -6.26712,-4.549437 1.924168,1.094412 3.649303,2.563548 5.577739,0.832988 -0.01243,-2.286656 0.666712,-4.138145 2.820201,-5.062038 -2.722443,-4.073602 1.690908,-14.053522 -0.376025,-18.518149 1.224689,0.869953 2.048614,2.900871 4.198967,1.089309 1.372092,-3.683066 2.098926,-5.016573 4.136303,-5.638746 1.22081,-3.677021 3.064224,-6.271875 5.953762,-7.048435 0,0 3.775945,-12.17456 6.392459,-16.467697 6.376212,-10.461949 9.08732,-12.714819 21.120195,-20.4040151 11.83991,-7.56588923 21.06757,-7.9930341 27.01129,-4.9339019 3.39369,1.7466836 5.60906,1.9863752 7.14452,1.9863765 4.41831,0 7.81976,-4.64382401 19.86675,2.627142 z"
     id="path4"
     style="fill:#000000;fill-opacity:1;stroke-width:1.32205725"
     inkscape:connector-curvature="0" />
</svg>
