<?xml version="1.0" encoding="utf-8"?>
<!-- Generator: Adobe Illustrator 22.1.0, SVG Export Plug-In . SVG Version: 6.00 Build 0)  -->
<svg version="1.1" xmlns="http://www.w3.org/2000/svg" xmlns:xlink="http://www.w3.org/1999/xlink" x="0px" y="0px"
	 viewBox="0 0 1000 1000" style="enable-background:new 0 0 1000 1000;" xml:space="preserve">
<style type="text/css">
	.st0{clip-path:url(#SVGID_2_);}
	.st1{opacity:0;fill:#FFFFFF;}
	.st2{opacity:5.882353e-02;fill:#F8F8F8;}
	.st3{opacity:0.1176;fill:#F3F3F3;}
	.st4{opacity:0.1765;fill:#EDEDED;}
	.st5{opacity:0.2353;fill:#E8E8E8;}
	.st6{opacity:0.2941;fill:#E2E2E2;}
	.st7{opacity:0.3529;fill:#DDDDDD;}
	.st8{opacity:0.4118;fill:#D7D7D7;}
	.st9{opacity:0.4706;fill:#D2D2D2;}
	.st10{opacity:0.5294;fill:#CCCCCC;}
	.st11{opacity:0.5882;fill:#C7C7C7;}
	.st12{opacity:0.6471;fill:#C1C1C1;}
	.st13{opacity:0.7059;fill:#BCBCBC;}
	.st14{opacity:0.7647;fill:#B6B6B6;}
	.st15{opacity:0.8235;fill:#B1B1B1;}
	.st16{opacity:0.8824;fill:#ABABAB;}
	.st17{opacity:0.9412;fill:#A6A6A6;}
	.st18{fill:#A0A0A0;}
	.st19{fill:#FFFFFF;}
	.st20{clip-path:url(#SVGID_4_);fill:#9FACAF;}
	.st21{clip-path:url(#SVGID_4_);}
	.st22{opacity:0.2;fill:#D6DDDE;}
	.st23{opacity:0.5;}
	.st24{fill:#D6DDDE;}
	.st25{opacity:0.24;}
	.st26{opacity:0.21;fill:#F5FDFF;}
	.st27{opacity:0.11;fill:#F5FDFF;}
	.st28{fill:url(#SVGID_5_);}
	.st29{opacity:7.000000e-02;fill:#2B2B2B;}
	.st30{fill:#F3AB88;}
	.st31{opacity:0.1;fill:#1E1E1E;}
	.st32{fill:#ECA489;}
	.st33{fill:url(#SVGID_6_);}
	.st34{fill:url(#SVGID_7_);}
	.st35{fill:url(#SVGID_8_);}
	.st36{fill:#BEBDBD;}
	.st37{opacity:0.2;fill:#D5B3B3;}
	.st38{fill:#CDCBCB;}
	.st39{fill:#9F9F9F;}
	.st40{fill:#141313;}
	.st41{opacity:0.3;fill:#FFFFFF;}
	.st42{opacity:0.2;fill:#FFFFFF;}
	.st43{fill:#373737;}
	.st44{clip-path:url(#SVGID_10_);}
	.st45{fill:#EFEFF1;}
	.st46{fill:none;stroke:#EAEAED;stroke-width:2;stroke-miterlimit:10;}
	.st47{fill:#8DA8B1;}
	.st48{fill:#2F3A3F;}
	.st49{fill:#EE2047;}
	.st50{fill:#9A248D;}
	.st51{fill:#0094D7;}
	.st52{fill:#FFD401;}
	.st53{fill:#05C890;}
	.st54{fill:#C6C8C8;}
	.st55{fill:#6B6BD5;}
	.st56{fill:#78C1C4;}
	.st57{fill:#FBEC7E;}
	.st58{fill:#6DB4B4;}
	.st59{fill:#6666CB;}
	.st60{opacity:0.1;fill:#2B2B2B;}
	.st61{clip-path:url(#SVGID_4_);fill:none;}
	.st62{opacity:0.24;clip-path:url(#SVGID_4_);}
	.st63{fill:#279F6E;}
	.st64{opacity:0.83;clip-path:url(#SVGID_4_);fill:#BAC8CB;}
	.st65{clip-path:url(#SVGID_12_);fill:#9FACAF;}
	.st66{opacity:0.83;clip-path:url(#SVGID_12_);fill:#BAC8CB;}
	.st67{clip-path:url(#SVGID_12_);}
	.st68{clip-path:url(#SVGID_12_);fill:none;}
	.st69{fill:#1E1E1E;}
	.st70{fill:#F1C4AC;}
	.st71{fill:#F3C6AD;}
	.st72{clip-path:url(#SVGID_14_);}
	.st73{fill:#7E879A;}
	.st74{fill:#FFAAAD;}
	.st75{fill:#FF4349;}
	.st76{fill:#3089DB;}
	.st77{fill:#84B9E9;}
	.st78{fill:#C7C7CE;}
	.st79{fill:#C5C5C5;}
	.st80{fill:#4C4C4C;}
	.st81{fill:#8A8A8A;}
	.st82{fill:#4D4D4D;}
	.st83{fill:#A4CEE7;}
	.st84{fill:#FFF261;}
	.st85{fill:#BEBEC7;}
	.st86{fill:#FFE08F;}
	.st87{fill:#FF9B2F;}
	.st88{fill:#FFC45E;}
	.st89{fill:#EEC2AA;}
	.st90{fill:#ED509B;}
	.st91{opacity:5.000000e-02;fill:#2B2B2B;}
	.st92{fill:#D74C95;}
	.st93{opacity:0.24;fill:#FFFFFF;}
	.st94{opacity:0.24;fill:#4C4C4C;}
	.st95{fill:#83E6A2;}
	.st96{fill:#E67E74;}
	.st97{clip-path:url(#SVGID_16_);fill:#9FACAF;}
	.st98{clip-path:url(#SVGID_16_);}
	.st99{clip-path:url(#SVGID_16_);fill:none;}
	.st100{opacity:0.24;clip-path:url(#SVGID_16_);}
	.st101{opacity:0.83;clip-path:url(#SVGID_16_);fill:#BAC8CB;}
	.st102{opacity:0.2;clip-path:url(#SVGID_16_);fill:#D6DDDE;}
	.st103{opacity:0.5;clip-path:url(#SVGID_16_);}
	.st104{opacity:0.11;clip-path:url(#SVGID_16_);fill:#F5FDFF;}
	.st105{clip-path:url(#SVGID_18_);}
	.st106{clip-path:url(#SVGID_20_);fill:#9FACAF;}
	.st107{opacity:0.83;clip-path:url(#SVGID_20_);fill:#BAC8CB;}
	.st108{clip-path:url(#SVGID_20_);}
	.st109{clip-path:url(#SVGID_20_);fill:none;}
	.st110{clip-path:url(#SVGID_22_);}
	.st111{fill:#905EB0;}
	.st112{clip-path:url(#SVGID_24_);fill:#9FACAF;}
	.st113{clip-path:url(#SVGID_24_);}
	.st114{clip-path:url(#SVGID_24_);fill:none;}
	.st115{opacity:0.24;clip-path:url(#SVGID_24_);}
	.st116{opacity:0.83;clip-path:url(#SVGID_24_);fill:#BAC8CB;}
	.st117{opacity:0.2;clip-path:url(#SVGID_24_);fill:#D6DDDE;}
	.st118{opacity:0.5;clip-path:url(#SVGID_24_);}
	.st119{opacity:0.11;clip-path:url(#SVGID_24_);fill:#F5FDFF;}
	.st120{clip-path:url(#SVGID_26_);}
	.st121{clip-path:url(#SVGID_28_);fill:#9FACAF;}
	.st122{clip-path:url(#SVGID_28_);}
	.st123{clip-path:url(#SVGID_28_);fill:none;}
	.st124{opacity:0.24;clip-path:url(#SVGID_28_);}
	.st125{opacity:0.83;clip-path:url(#SVGID_28_);fill:#BAC8CB;}
	.st126{opacity:0.2;clip-path:url(#SVGID_28_);fill:#D6DDDE;}
	.st127{opacity:0.5;clip-path:url(#SVGID_28_);}
	.st128{opacity:0.11;clip-path:url(#SVGID_28_);fill:#F5FDFF;}
	.st129{clip-path:url(#SVGID_30_);}
	.st130{fill:#818181;}
	.st131{clip-path:url(#SVGID_32_);fill:#9FACAF;}
	.st132{opacity:0.83;clip-path:url(#SVGID_32_);fill:#BAC8CB;}
	.st133{clip-path:url(#SVGID_32_);}
	.st134{clip-path:url(#SVGID_32_);fill:none;}
	.st135{clip-path:url(#SVGID_34_);}
	.st136{fill:none;stroke:#000000;}
	.st137{fill:none;stroke:#000000;stroke-width:1.5;}
	.st138{fill:none;stroke:#000000;stroke-width:0.5;stroke-miterlimit:10;}
	.st139{fill:#221F20;}
</style>
<g id="BACKGROUND">
</g>
<g id="CHARACTERS">
</g>
<g id="FOREGROUND">
</g>
<g id="NAVIGATION">
</g>
<g id="JUST_x5F_FRAME">
	<g>
		<g>
			<g>
				<defs>
					<path id="SVGID_19_" d="M131.9,265.4c2.5-7,3.5-15,2.5-24.4c-2.9-25.3-20.8-55.4-3.8-77.5c16.4-21.3,40-37.6,66.8-42.1
						c34.4-5.8,70.2-2.8,102.5-17.9c40.9-19.1,71.6-45.1,118.8-47.2c25.3-1.2,48.9,1.9,72.9,10.1c23.5,8.1,41,23.5,62.8,34.6
						c57.9,29.4,132.4,19.2,195.3,19.1c22.1,0,43.3,0.6,62.2,13.9c19.1,13.4,26.3,37.9,38.3,57c12.3,19.6,26.1,37,43.9,51.9
						c21.5,17.9,44.8,32.7,58.1,58.5c24.7,48.2-4.5,98.7-0.5,148.8c3.9,50.4,55.8,121.3,27.7,170c-12.8,22.2-28.3,34.9-31.3,61.9
						c-3.8,34.6,4.9,70.7-3.1,104.9c-23,98.6-138.6,108.8-219.1,132.9c-32.1,9.6-63.6,23.1-97.6,24c-33.4,0.9-63.6-12.3-95.9-18.3
						c-72.8-13.5-147.6-2.3-220.8-0.1c-65.2,2-142.1-32.1-170-95.7c-29-66.1,27.9-116.5,37.4-178c4.9-31.7-3.2-61.7-33.6-76.7
						c-28.8-14.2-61.9-9.8-91.5-21.4c-30.9-12.1-42.8-38.9-41.6-70.5c1.5-39.3,26.9-68.6,42.4-102.9c12.3-27.2,9.9-54,36.7-72.9
						C108.8,295.1,125.4,283.4,131.9,265.4z"/>
				</defs>
				<clipPath id="SVGID_2_">
					<use xlink:href="#SVGID_19_"  style="overflow:visible;"/>
				</clipPath>
				<path style="clip-path:url(#SVGID_2_);fill:#9FACAF;" d="M131.9,265.4c2.5-7,3.5-15,2.5-24.4c-2.9-25.3-20.8-55.4-3.8-77.5
					c16.4-21.3,40-37.6,66.8-42.1c34.4-5.8,70.2-2.8,102.5-17.9c40.9-19.1,71.6-45.1,118.8-47.2c25.3-1.2,48.9,1.9,72.9,10.1
					c23.5,8.1,41,23.5,62.8,34.6c57.9,29.4,132.4,19.2,195.3,19.1c22.1,0,43.3,0.6,62.2,13.9c19.1,13.4,26.3,37.9,38.3,57
					c12.3,19.6,26.1,37,43.9,51.9c21.5,17.9,44.8,32.7,58.1,58.5c24.7,48.2-4.5,98.7-0.5,148.8c3.9,50.4,55.8,121.3,27.7,170
					c-12.8,22.2-28.3,34.9-31.3,61.9c-3.8,34.6,4.9,70.7-3.1,104.9c-23,98.6-138.6,108.8-219.1,132.9c-32.1,9.6-63.6,23.1-97.6,24
					c-33.4,0.9-63.6-12.3-95.9-18.3c-72.8-13.5-147.6-2.3-220.8-0.1c-65.2,2-142.1-32.1-170-95.7c-29-66.1,27.9-116.5,37.4-178
					c4.9-31.7-3.2-61.7-33.6-76.7c-28.8-14.2-61.9-9.8-91.5-21.4c-30.9-12.1-42.8-38.9-41.6-70.5c1.5-39.3,26.9-68.6,42.4-102.9
					c12.3-27.2,9.9-54,36.7-72.9C108.8,295.1,125.4,283.4,131.9,265.4z"/>
				<path style="opacity:0.83;clip-path:url(#SVGID_2_);fill:#BAC8CB;" d="M979.4,620.2c28.1-48.7-23.8-119.6-27.7-170
					c-3.9-50.1,25.3-100.5,0.5-148.8c-13.2-25.8-36.5-40.5-58.1-58.5c-17.8-14.8-31.6-32.3-43.9-51.9c-12-19.1-19.2-43.6-38.3-57
					c-18.9-13.3-40.1-13.9-62.2-13.9c-62.9,0-137.4,10.2-195.3-19.1c-21.9-11.1-39.3-26.5-62.8-34.6c-24-8.2-47.6-11.3-72.9-10.1
					c-47.2,2.2-78,28.1-118.8,47.2c-32.3,15.1-68.1,12.1-102.5,17.9c-26.8,4.5-50.4,20.7-66.8,42.1c-17,22.1,0.9,52.2,3.8,77.5
					c1.1,9.4,0.1,17.4-2.5,24.4c-6.5,18-23.1,29.8-40.5,42c-26.7,18.9-24.3,45.7-36.7,72.9c-15.5,34.2-40.9,63.5-42.4,102.9
					c-1.2,31.7,10.6,58.4,41.6,70.5c29.6,11.6,62.7,7.1,91.5,21.4c30.5,15,38.6,44.9,33.6,76.7c-9.6,61.4-66.4,111.8-37.4,178
					c27.9,63.7,104.7,97.7,170,95.7c73.1-2.2,147.9-13.4,220.8,0.1c32.4,6,62.5,19.2,95.9,18.3c34-0.9,65.5-14.4,97.6-24
					C806.4,895.8,921.9,885.6,945,787c8-34.2-0.7-70.3,3.1-104.9C951.1,655.1,966.6,642.4,979.4,620.2z M944.7,611.5
					c-11.9,20.6-26.3,32.4-29.1,57.4c-3.6,32.1,4.5,65.6-2.9,97.3c-21.4,91.5-128.5,100.9-203.2,123.3c-29.8,8.9-59,21.4-90.5,22.2
					c-31,0.8-59-11.4-89-17c-67.5-12.5-136.9-2.2-204.8-0.1c-60.5,1.8-131.8-29.7-157.6-88.8c-26.9-61.3,25.9-108.1,34.7-165.1
					c4.6-29.4-0.1-72.1-28.3-86.1c-26.7-13.2-50.8-6.3-78.2-17.1c-28.7-11.2-49.2-23.9-48.1-53.2c1.4-36.5,25-63.7,39.4-95.4
					c11.5-25.3,9.2-50.1,34-67.6c16.1-11.4,31.5-22.3,37.5-39c2.4-6.5,3.3-13.9,2.3-22.6c-2.7-23.5-19.3-51.4-3.5-71.9
					c15.2-19.8,37.1-34.8,61.9-39c31.9-5.4,65.1-2.6,95.1-16.6c37.9-17.8,66.5-41.8,110.2-43.8c23.5-1.1,45.4,1.8,67.6,9.4
					c21.8,7.5,38,21.8,58.3,32.1c53.7,27.3,122.8,17.8,181.2,17.8c20.5,0,40.2,0.5,57.7,12.8c17.7,12.4,24.4,35.2,35.5,52.9
					c11.4,18.1,24.2,34.4,40.7,48.1c20,16.6,41.6,30.3,53.9,54.2c22.9,44.7-4.1,91.6-0.5,138C922.6,500.5,970.7,566.3,944.7,611.5z"
					/>
				<g class="st0">
					<polygon class="st22" points="567.1,473.8 402,374.2 567.1,274.6 					"/>
					<g class="st23">
						<rect x="713.3" y="259.6" class="st24" width="12.7" height="2.6"/>
						<rect x="718.3" y="254.6" class="st24" width="2.6" height="12.7"/>
					</g>
					<g class="st23">
						
							<rect x="203.6" y="328.7" transform="matrix(0.7071 -0.7071 0.7071 0.7071 -176.917 243.0055)" class="st24" width="2.6" height="12.7"/>
						
							<rect x="198.6" y="333.8" transform="matrix(0.707 -0.7072 0.7072 0.707 -176.9301 243.0598)" class="st24" width="12.7" height="2.6"/>
					</g>
					<g class="st25">
						<rect x="786.9" y="458.6" class="st19" width="28.3" height="2.6"/>
						<rect x="771.7" y="444.5" class="st19" width="59.1" height="2.6"/>
						<rect x="785.1" y="421.8" class="st19" width="15.9" height="2.6"/>
						<rect x="785.1" y="406.7" class="st19" width="15.9" height="2.6"/>
						<rect x="792.6" y="427.9" class="st19" width="15.9" height="2.6"/>
						<rect x="785.1" y="434" class="st19" width="15.9" height="2.6"/>
						<g>
							
								<rect x="788.5" y="454.9" transform="matrix(0.7071 -0.7071 0.7071 0.7071 -90.0751 694.9127)" class="st19" width="10.5" height="2.6"/>
							
								<rect x="806.9" y="450.9" transform="matrix(0.7071 -0.7071 0.7071 0.7071 -85.8472 705.1198)" class="st19" width="2.6" height="10.5"/>
						</g>
					</g>
					<g>
						
							<rect x="221.5" y="239.6" transform="matrix(0.7071 -0.7071 0.7071 0.7071 -101.145 237.7393)" class="st26" width="29.7" height="2.6"/>
						
							<rect x="211" y="239.6" transform="matrix(0.7071 -0.7071 0.7071 0.7071 -104.2202 230.2988)" class="st26" width="29.7" height="2.6"/>
						
							<rect x="190" y="239.6" transform="matrix(0.7071 -0.7071 0.7071 0.7071 -110.3709 215.4496)" class="st26" width="29.7" height="2.6"/>
					</g>
					<polygon class="st27" points="1090,584.4 1011,607.4 779.9,232.6 764.3,237.1 713.4,422.4 620.6,449.4 536.4,374.4 
						505.2,383.5 482.1,364.4 422.1,381.9 408,499.6 337.6,520.1 218,454.5 196.2,460.8 87,831.3 22.7,850 22,847.5 84.9,829.2 
						194.1,458.7 218.3,451.6 337.9,517.3 405.7,497.6 419.7,379.9 482.8,361.5 505.8,380.6 537.1,371.5 621.3,446.5 711.2,420.3 
						762.2,235 781.1,229.5 1012.2,604.3 1089.2,581.9 					"/>
					
						<rect x="-21.7" y="432.5" transform="matrix(0.9796 0.2008 -0.2008 0.9796 109.4355 -90.0949)" class="st27" width="1040.8" height="123.7"/>
				</g>
				<polygon style="clip-path:url(#SVGID_2_);fill:none;" points="1002.5,952.2 -5,952.2 -5,144.6 1002.5,144.6 1002.5,144.6 
					1002.5,952.2 				"/>
			</g>
		</g>
		<g class="st25">
			<g>
				<path class="st19" d="M102.5,466.9L102.5,466.9c3.4-3.4,5.3-7.9,5.3-12.7l0,0c0-7.5,6.1-13.6,13.6-13.6h7.4v0
					C134.2,456.9,118.8,472.3,102.5,466.9L102.5,466.9z"/>
				<path class="st19" d="M109.2,469.2c-2.3,0-4.7-0.4-7-1.1c-0.4-0.1-0.7-0.5-0.8-0.9c-0.1-0.4,0-0.9,0.3-1.2
					c3.2-3.2,4.9-7.3,4.9-11.8c0-8.2,6.6-14.8,14.8-14.8h7.4c0.5,0,1,0.3,1.2,0.8c2.7,8,0.6,16.6-5.3,22.5
					C120.4,467,114.9,469.2,109.2,469.2z M104.8,466.3c6.6,1.5,13.2-0.4,18.1-5.2c5.1-5.1,7-12.2,5-19.1h-6.5
					c-6.8,0-12.3,5.5-12.3,12.3C109,458.7,107.5,462.9,104.8,466.3z"/>
			</g>
			<g>
				
					<rect x="126.4" y="433.8" transform="matrix(0.7071 0.7071 -0.7071 0.7071 348.7805 36.6861)" class="st19" width="7.4" height="11.1"/>
				<path class="st19" d="M128.8,447.2c-0.3,0-0.6-0.1-0.9-0.4l-5.3-5.3c-0.5-0.5-0.5-1.3,0-1.8l7.9-7.9c0.5-0.5,1.3-0.5,1.8,0
					l5.3,5.3c0.5,0.5,0.5,1.3,0,1.8l-7.9,7.9C129.4,447,129.1,447.2,128.8,447.2z M125.3,440.7l3.5,3.5l6.1-6.1l-3.5-3.5
					L125.3,440.7z"/>
			</g>
			<g>
				<path class="st19" d="M134,435.4l-2.6-2.6l3.5-4.4c9.9-12.7,21.7-23.8,34.9-33l9.6-6.6c0.9-0.6,2,0.5,1.4,1.4l-6.6,9.6
					c-9.2,13.2-20.3,25-33,34.9l-4.4,3.5L134,435.4z"/>
				<path class="st19" d="M136.7,439.3c-0.3,0-0.6-0.1-0.9-0.4l-2.6-2.6v0l-2.6-2.6c-0.4-0.4-0.5-1.1-0.1-1.6l3.5-4.4
					c10-12.8,21.8-24,35.2-33.3l9.6-6.6c0.9-0.6,2.1-0.5,2.9,0.3c0.8,0.8,0.9,2,0.3,2.9l-6.6,9.6c-9.3,13.4-20.4,25.2-33.3,35.2
					l-4.4,3.5C137.2,439.2,136.9,439.3,136.7,439.3z M134.9,434.5l1.9,1.9l3.6-2.8c12.6-9.8,23.7-21.5,32.8-34.6l5.9-8.6l-8.6,5.9
					c-13.2,9.1-24.8,20.1-34.6,32.8l-2.8,3.6L134.9,434.5L134.9,434.5z"/>
			</g>
		</g>
		<g>
			<g>
				
					<rect x="730.3" y="679.5" transform="matrix(-0.6682 0.744 -0.744 -0.6682 1824.0225 741.5914)" class="st93" width="32.7" height="196.1"/>
				<path class="st94" d="M806.8,857.2L661,726.2c-1.1-1-1.2-2.7-0.2-3.8l21.8-24.3c1-1.1,2.7-1.2,3.8-0.2l145.9,131
					c1.1,1,1.2,2.7,0.2,3.8L810.7,857C809.7,858.2,808,858.3,806.8,857.2z M666.6,724l141.8,127.4l18.2-20.3L684.8,703.7L666.6,724z
					"/>
			</g>
			<g class="st25">
				<path class="st80" d="M811.1,828.1c-1.1-1-1.2-2.7-0.2-3.8l5.5-6.1c1-1.1,2.7-1.2,3.8-0.2c1.1,1,1.2,2.7,0.2,3.8l-5.5,6.1
					C813.9,829,812.2,829.1,811.1,828.1z"/>
			</g>
			<g class="st25">
				<path class="st80" d="M793.4,823.3c-1.1-1-1.2-2.7-0.2-3.8l10.9-12.2c1-1.1,2.7-1.2,3.8-0.2c1.1,1,1.2,2.7,0.2,3.8L797.3,823
					C796.3,824.2,794.6,824.3,793.4,823.3z"/>
			</g>
			<g class="st25">
				<path class="st80" d="M786.7,806.3c-1.1-1-1.2-2.7-0.2-3.8l5.5-6.1c1-1.1,2.7-1.2,3.8-0.2c1.1,1,1.2,2.7,0.2,3.8l-5.5,6.1
					C789.6,807.2,787.9,807.3,786.7,806.3z"/>
			</g>
			<g class="st25">
				<path class="st80" d="M769.1,801.4c-1.1-1-1.2-2.7-0.2-3.8l10.9-12.2c1-1.1,2.7-1.2,3.8-0.2c1.1,1,1.2,2.7,0.2,3.8L773,801.2
					C772,802.3,770.2,802.4,769.1,801.4z"/>
			</g>
			<g class="st25">
				<path class="st80" d="M762.4,784.4c-1.1-1-1.2-2.7-0.2-3.8l5.5-6.1c1-1.1,2.7-1.2,3.8-0.2c1.1,1,1.2,2.7,0.2,3.8l-5.5,6.1
					C765.3,785.3,763.5,785.4,762.4,784.4z"/>
			</g>
			<g class="st25">
				<path class="st80" d="M744.8,779.6c-1.1-1-1.2-2.7-0.2-3.8l10.9-12.2c1-1.1,2.7-1.2,3.8-0.2c1.1,1,1.2,2.7,0.2,3.8l-10.9,12.2
					C747.7,780.5,745.9,780.6,744.8,779.6z"/>
			</g>
			<g class="st25">
				<path class="st80" d="M738.1,762.6c-1.1-1-1.2-2.7-0.2-3.8l5.5-6.1c1-1.1,2.7-1.2,3.8-0.2c1.1,1,1.2,2.7,0.2,3.8l-5.5,6.1
					C741,763.5,739.2,763.6,738.1,762.6z"/>
			</g>
			<g class="st25">
				<path class="st80" d="M720.5,757.8c-1.1-1-1.2-2.7-0.2-3.8l10.9-12.2c1-1.1,2.7-1.2,3.8-0.2c1.1,1,1.2,2.7,0.2,3.8l-10.9,12.2
					C723.3,758.7,721.6,758.8,720.5,757.8z"/>
			</g>
			<g class="st25">
				<path class="st80" d="M713.8,740.8c-1.1-1-1.2-2.7-0.2-3.8l5.5-6.1c1-1.1,2.7-1.2,3.8-0.2c1.1,1,1.2,2.7,0.2,3.8l-5.5,6.1
					C716.6,741.7,714.9,741.8,713.8,740.8z"/>
			</g>
			<g class="st25">
				<path class="st80" d="M696.2,735.9c-1.1-1-1.2-2.7-0.2-3.8l10.9-12.2c1-1.1,2.7-1.2,3.8-0.2s1.2,2.7,0.2,3.8L700,735.7
					C699,736.8,697.3,736.9,696.2,735.9z"/>
			</g>
			<g class="st25">
				<path class="st80" d="M689.5,718.9c-1.1-1-1.2-2.7-0.2-3.8l5.5-6.1c1-1.1,2.7-1.2,3.8-0.2c1.1,1,1.2,2.7,0.2,3.8l-5.5,6.1
					C692.3,719.8,690.6,719.9,689.5,718.9z"/>
			</g>
		</g>
		<g class="st25">
			<g>
				<path class="st19" d="M813.2,771.6c0,0,16.3-54.3,18-60.6c1-3.4,0.9-2.6,3.4-7.9c0,0,0-0.1,0-0.2l-1.8-9.7l-6.7,7.4
					c-0.9,4.9-0.4,5.8-1.3,8.7c-1.4,4.7-16.2,61-16.2,61c-0.3,1.1,0.5,2.2,1.7,2.5l0,0C811.6,773.1,812.9,772.6,813.2,771.6z"/>
				<path class="st82" d="M833.2,692c0.4,0.1,0.8,0.5,0.8,0.9l1.8,9.7c0,0,0,0.1,0,0.1c0,0.3,0,0.5-0.1,0.8
					c-0.7,1.6-1.3,2.6-1.7,3.4c-0.9,1.8-1,2.1-1.7,4.4c-1.7,6.2-17.9,60.1-18,60.6c0,0,0,0,0,0c-0.5,1.6-2.4,2.5-4.2,2
					c-1.8-0.5-2.9-2.2-2.5-3.9c0.6-2.3,14.9-56.4,16.2-61.1c0.4-1.4,0.5-2.3,0.6-3.6c0.1-1.2,0.2-2.6,0.6-5c0-0.2,0.1-0.4,0.3-0.6
					l6.7-7.4C832.3,692.1,832.8,691.9,833.2,692C833.2,692,833.2,692,833.2,692z M833.4,702.8l-1.3-7l-4.8,5.4
					c-0.4,2-0.5,3.4-0.6,4.4c-0.1,1.3-0.2,2.4-0.7,4c-1.3,4.6-16.1,60.4-16.2,61c-0.1,0.4,0.3,0.9,0.9,1.1c0.6,0.2,1.2,0,1.3-0.4
					c0.4-1.3,16.3-54.4,18-60.6c0.7-2.4,0.9-2.8,1.8-4.8C832.3,705.1,832.8,704.2,833.4,702.8z"/>
			</g>
			<g>
				
					<rect x="822.4" y="706.4" transform="matrix(-0.9621 -0.2728 0.2728 -0.9621 1427.332 1627.5801)" class="st19" width="8.7" height="16.3"/>
				<path class="st82" d="M825.2,704.4l8.4,2.4c0.6,0.2,1,0.8,0.8,1.5l-4.4,15.7c-0.2,0.6-0.8,1-1.5,0.8l-8.4-2.4
					c-0.6-0.2-1-0.8-0.8-1.5l4.4-15.7C823.9,704.6,824.5,704.2,825.2,704.4z M831.8,708.7l-6.1-1.7l-3.8,13.4l6.1,1.7L831.8,708.7z"
					/>
			</g>
			<g>
				<polygon class="st19" points="819.7,723.9 828,726.3 814.9,770.1 808.1,768.1 				"/>
				<path class="st82" d="M820,722.8l8.3,2.3c0.3,0.1,0.6,0.3,0.7,0.6c0.2,0.3,0.2,0.6,0.1,0.9L816,770.4c-0.2,0.6-0.8,1-1.5,0.8
					l-6.8-1.9c-0.6-0.2-1-0.8-0.8-1.4l11.6-44.2c0.1-0.3,0.3-0.6,0.6-0.7C819.4,722.8,819.7,722.7,820,722.8z M826.5,727.1l-6-1.7
					l-11,41.9l4.6,1.3L826.5,727.1z"/>
			</g>
			<g>
				<path class="st82" d="M827.6,711.7c0.6,0.2,1,0.8,0.8,1.5l-1,3.5c-0.2,0.6-0.8,1-1.5,0.8c-0.6-0.2-1-0.8-0.8-1.5l1-3.5
					C826.4,711.9,827,711.5,827.6,711.7z"/>
			</g>
		</g>
		<g class="st25">
			<g>
				<rect x="563.2" y="249.6" class="st19" width="39.7" height="15.9"/>
				<path class="st82" d="M602.9,267.5h-39.7c-1.1,0-2-0.9-2-2v-15.9c0-1.1,0.9-2,2-2h39.7c1.1,0,2,0.9,2,2v15.9
					C604.9,266.6,604,267.5,602.9,267.5z M565.2,263.5h35.6v-11.8h-35.6V263.5z"/>
			</g>
			<g>
				<rect x="610.8" y="249.6" class="st19" width="39.7" height="15.9"/>
				<path class="st82" d="M650.5,267.5h-39.7c-1.1,0-2-0.9-2-2v-15.9c0-1.1,0.9-2,2-2h39.7c1.1,0,2,0.9,2,2v15.9
					C652.6,266.6,651.6,267.5,650.5,267.5z M612.9,263.5h35.6v-11.8h-35.6V263.5z"/>
			</g>
			<g>
				<rect x="658.5" y="249.6" class="st95" width="39.7" height="15.9"/>
				<path class="st80" d="M698.2,267.5h-39.7c-1.1,0-2-0.9-2-2v-15.9c0-1.1,0.9-2,2-2h39.7c1.1,0,2,0.9,2,2v15.9
					C700.2,266.6,699.3,267.5,698.2,267.5z M660.5,263.5h35.6v-11.8h-35.6V263.5z"/>
			</g>
			<g>
				<rect x="563.2" y="273.4" class="st83" width="87.3" height="55.6"/>
				<path class="st80" d="M650.5,331.1h-87.3c-1.1,0-2-0.9-2-2v-55.6c0-1.1,0.9-2,2-2h87.3c1.1,0,2,0.9,2,2V329
					C652.6,330.1,651.6,331.1,650.5,331.1z M565.2,327h83.2v-51.5h-83.2V327z"/>
			</g>
			<g>
				<rect x="658.5" y="273.4" class="st84" width="39.7" height="23.8"/>
				<path class="st80" d="M698.2,299.3h-39.7c-1.1,0-2-0.9-2-2v-23.8c0-1.1,0.9-2,2-2h39.7c1.1,0,2,0.9,2,2v23.8
					C700.2,298.4,699.3,299.3,698.2,299.3z M660.5,295.2h35.6v-19.7h-35.6V295.2z"/>
			</g>
			<g>
				<rect x="658.5" y="305.2" class="st84" width="39.7" height="23.8"/>
				<path class="st80" d="M698.2,331.1h-39.7c-1.1,0-2-0.9-2-2v-23.8c0-1.1,0.9-2,2-2h39.7c1.1,0,2,0.9,2,2V329
					C700.2,330.1,699.3,331.1,698.2,331.1z M660.5,327h35.6v-19.7h-35.6V327z"/>
			</g>
			<g>
				<rect x="563.2" y="217.9" class="st96" width="135" height="23.8"/>
				<path class="st80" d="M698.2,243.7h-135c-1.1,0-2-0.9-2-2v-23.8c0-1.1,0.9-2,2-2h135c1.1,0,2,0.9,2,2v23.8
					C700.2,242.8,699.3,243.7,698.2,243.7z M565.2,239.6h130.9v-19.7H565.2V239.6z"/>
			</g>
		</g>
		<g>
			<g>
				<path class="st19" d="M321.3,664.2L321.3,664.2c1.1,1.1,3,1.1,4.1,0l12.3-12.3l-4.1-4.1l-12.3,12.3
					C320.2,661.2,320.2,663.1,321.3,664.2z"/>
				<path class="st82" d="M323.4,666c-1,0-2-0.4-2.7-1.1c-1.5-1.5-1.5-4,0-5.5l12.3-12.3c0.4-0.4,1-0.4,1.4,0l4.1,4.1
					c0.4,0.4,0.4,1,0,1.4l-12.3,12.3C325.4,665.6,324.4,666,323.4,666z M333.6,649.2L322,660.8c-0.8,0.8-0.8,2,0,2.7
					c0.8,0.8,2,0.8,2.7,0l11.6-11.6L333.6,649.2z"/>
			</g>
			<g>
				
					<rect x="329.9" y="647" transform="matrix(-0.7071 -0.7071 0.7071 -0.7071 113.522 1346.7555)" class="st83" width="11.6" height="5.8"/>
				<path class="st80" d="M337.7,657c-0.3,0-0.5-0.1-0.7-0.3l-8.2-8.2c-0.4-0.4-0.4-1,0-1.4l4.1-4.1c0.4-0.4,1-0.4,1.4,0l8.2,8.2
					c0.4,0.4,0.4,1,0,1.4l-4.1,4.1C338.2,656.9,338,657,337.7,657z M330.9,647.8l6.8,6.8l2.7-2.7l-6.8-6.8L330.9,647.8z"/>
			</g>
			<g>
				<path class="st83" d="M348,637.6L348,637.6c1.7,1.7,1.7,4.4,0,6.1l-7.2,7.2l-6.1-6.1l7.2-7.2C343.5,635.9,346.3,635.9,348,637.6
					z"/>
				<path class="st80" d="M340.8,651.9c-0.2,0-0.5-0.1-0.7-0.3l-6.1-6.1c-0.4-0.4-0.4-1,0-1.4l7.2-7.2c2.1-2.1,5.4-2.1,7.5,0l0,0
					c1,1,1.6,2.3,1.6,3.8c0,1.4-0.6,2.8-1.6,3.8l-7.2,7.2C341.3,651.8,341,651.9,340.8,651.9z M336,644.7l4.8,4.8l6.5-6.5
					c0.6-0.6,1-1.5,1-2.4c0-0.9-0.4-1.8-1-2.4l0,0c-1.3-1.3-3.5-1.3-4.8,0L336,644.7z"/>
			</g>
			<g>
				<line class="st19" x1="321.3" y1="664.2" x2="320.2" y2="665.3"/>
				<path class="st82" d="M320.2,666.3c-0.2,0-0.5-0.1-0.7-0.3c-0.4-0.4-0.4-1,0-1.4l1.1-1.1c0.4-0.4,1-0.4,1.4,0
					c0.4,0.4,0.4,1,0,1.4l-1.1,1.1C320.7,666.2,320.5,666.3,320.2,666.3z"/>
			</g>
		</g>
		<g>
			<g>
				<g>
					<g>
						<g>
							<path class="st36" d="M226.4,723h619.8c11.2,0,21-6.3,26.3-15.6H200.1C205.4,716.7,215.2,723,226.4,723z"/>
							<path class="st37" d="M196,691.9c0,5.7,1.5,11,4.1,15.6h672.4c2.6-4.6,4.1-9.9,4.1-15.6H196z"/>
						</g>
						<g>
							<path class="st38" d="M583.7,691.9c-2.3,3.5-6.3,5.8-10.7,5.8h-73.3c-4.4,0-8.4-2.3-10.7-5.8H196c0,5.7,1.5,11,4.1,15.6
								h672.4c2.6-4.6,4.1-9.9,4.1-15.6H583.7z"/>
							<path class="st39" d="M499.7,697.7H573c4.4,0,8.4-2.3,10.7-5.8H489C491.3,695.4,495.2,697.7,499.7,697.7z"/>
						</g>
					</g>
					<g>
						<path class="st40" d="M821.8,679c0,7.1-5.6,12.8-12.5,12.8H263.4c-6.9,0-12.5-5.7-12.5-12.8V315.2c0-7.1,5.6-12.8,12.5-12.8
							h545.9c6.9,0,12.5,5.7,12.5,12.8V679z"/>
						<g>
							<polygon class="st41" points="411.5,302.4 617.3,691.9 722.9,691.9 450.9,302.4 							"/>
							<path class="st42" d="M821.8,679V560.5L687.4,302.4H485.7l270.1,389.5h53.6C816.2,691.9,821.8,686.1,821.8,679z"/>
						</g>
						<g>
							<path d="M540.4,316.2c0,2.3-1.8,4.1-4,4.1c-2.2,0-4-1.8-4-4.1s1.8-4.1,4-4.1C538.6,312.1,540.4,314,540.4,316.2z"/>
							<path class="st42" d="M537.4,316.2c0,0.6-0.4,1-1,1c-0.6,0-1-0.5-1-1s0.4-1,1-1C536.9,315.2,537.4,315.7,537.4,316.2z"/>
						</g>
					</g>
					<g>
						<rect x="283.2" y="332.4" class="st43" width="505.2" height="329.6"/>
						<g>
							<defs>
								<rect id="SVGID_21_" x="283.2" y="332.4" width="505.2" height="329.6"/>
							</defs>
							<clipPath id="SVGID_4_">
								<use xlink:href="#SVGID_21_"  style="overflow:visible;"/>
							</clipPath>
							<g class="st21">
								<rect x="283.9" y="398.2" class="st45" width="502.3" height="258.8"/>
								<rect x="283.7" y="332.4" class="st45" width="502.3" height="329.6"/>
								<path class="st46" d="M349.5,389.7c0,3.2-2.6,5.7-5.7,5.7c-3.2,0-5.7-2.6-5.7-5.7c0-3.2,2.6-5.7,5.7-5.7
									C346.9,383.9,349.5,386.5,349.5,389.7z"/>
								<path class="st46" d="M328.8,389.7c0,3.2-2.6,5.7-5.7,5.7c-3.2,0-5.7-2.6-5.7-5.7c0-3.2,2.6-5.7,5.7-5.7
									C326.3,383.9,328.8,386.5,328.8,389.7z"/>
								<path class="st46" d="M308.2,389.7c0,3.2-2.6,5.7-5.7,5.7c-3.2,0-5.7-2.6-5.7-5.7c0-3.2,2.6-5.7,5.7-5.7
									C305.6,383.9,308.2,386.5,308.2,389.7z"/>
								<path class="st73" d="M379.5,407.5c0,1.4-1.1,2.5-2.5,2.5h-77.8c-1.4,0-2.5-1.1-2.5-2.5l0,0c0-1.4,1.1-2.5,2.5-2.5H377
									C378.4,405.1,379.5,406.2,379.5,407.5L379.5,407.5z"/>
								<path class="st73" d="M348.6,419c0,1.4-1.1,2.5-2.5,2.5h-46.9c-1.4,0-2.5-1.1-2.5-2.5l0,0c0-1.4,1.1-2.5,2.5-2.5h46.9
									C347.5,416.5,348.6,417.7,348.6,419L348.6,419z"/>
								<g>
									<path class="st74" d="M409.9,546.9c0,5.1-4.1,9.3-9.3,9.3h-59.2c-5.1,0-9.3-4.1-9.3-9.3l0,0c0-5.1,4.1-9.3,9.3-9.3h59.2
										C405.8,537.7,409.9,541.8,409.9,546.9L409.9,546.9z"/>
									<rect x="293.1" y="546.9" class="st75" width="133.7" height="71.8"/>
									<rect x="436.3" y="428.6" class="st76" width="130" height="100"/>
									<path class="st77" d="M559.7,452.2c0,3.1-2.5,5.6-5.6,5.6h-78.4c-3.1,0-5.6-2.5-5.6-5.6v-9.2c0-3.1,2.5-5.6,5.6-5.6H554
										c3.1,0,5.6,2.5,5.6,5.6V452.2z"/>
									<path class="st77" d="M534.1,479.8c0,3.1-2.5,5.6-5.6,5.6h-78.4c-3.1,0-5.6-2.5-5.6-5.6v-9.2c0-3.1,2.5-5.6,5.6-5.6h78.4
										c3.1,0,5.6,2.5,5.6,5.6V479.8z"/>
									<rect x="293.1" y="428.8" class="st78" width="134.3" height="100"/>
									<polygon class="st75" points="415.8,519.6 293.1,528.8 293.1,428.8 415.8,419.6 									"/>
									<g>
										<path class="st19" d="M367.9,483.4c0,3.2-2.5,6-5.5,6.3l-23.6,1.8c-3.1,0.2-5.5-2.2-5.5-5.4v-9.2c0-3.2,2.5-6,5.5-6.3
											l23.6-1.8c3-0.2,5.5,2.2,5.5,5.4V483.4z"/>
										<path class="st19" d="M342.3,500.8c-0.9,1-2.3,1.1-3.2,0.2l0,0c-0.9-0.9-0.9-2.4,0-3.4l10-11.3c0.9-1,2.3-1.1,3.2-0.2l0,0
											c0.9,0.9,0.9,2.4,0,3.4L342.3,500.8z"/>
										<path class="st19" d="M358.8,499.6c0.9,0.9,2.3,0.8,3.2-0.2l0,0c0.9-1,0.9-2.5,0-3.4l-10-9.8c-0.9-0.9-2.3-0.8-3.2,0.2
											l0,0c-0.9,1-0.9,2.5,0,3.4L358.8,499.6z"/>
										<path class="st19" d="M370.6,457.9c0,6.2-4.8,11.7-10.7,12.1c-5.9,0.4-10.7-4.3-10.7-10.5c0-6.2,4.8-11.7,10.7-12.1
											C365.8,446.9,370.6,451.6,370.6,457.9z"/>
										<path class="st19" d="M351.9,459.3c0,6.2-4.8,11.7-10.7,12.1c-5.9,0.4-10.7-4.3-10.7-10.5c0-6.2,4.8-11.7,10.7-12.1
											C347.1,448.3,351.9,453,351.9,459.3z"/>
										<path class="st19" d="M376.8,467.2c-0.9-0.3-2,0-2.7,0.8l-8,9.1c-0.5,0.5-0.7,1.2-0.7,1.9c0,0.7,0.3,1.3,0.7,1.8l8,7.9
											c0.5,0.5,1.1,0.7,1.7,0.6c0.3,0,0.6-0.1,1-0.3c0.9-0.5,1.5-1.5,1.5-2.5v-17C378.3,468.4,377.7,467.5,376.8,467.2z"/>
									</g>
									<path class="st77" d="M454.7,437.4c-5.6,0-10.2,4.6-10.2,10.2c0,5.6,4.6,10.2,10.2,10.2s10.2-4.6,10.2-10.2
										C464.9,442,460.4,437.4,454.7,437.4z M454.7,454.8c-3.5,0-6.4-2.5-7.1-5.8h14.1C461.1,452.4,458.2,454.8,454.7,454.8z"/>
									<path class="st75" d="M370.7,546.9c0,5.1-4.1,9.3-9.3,9.3h-59.2c-5.1,0-9.3-4.1-9.3-9.3l0,0c0-5.1,4.1-9.3,9.3-9.3h59.2
										C366.6,537.7,370.7,541.8,370.7,546.9L370.7,546.9z"/>
									<g>
										<g>
											<g>
												<path class="st79" d="M487.3,651.1h59.1c4.5,0,8.1-3.6,8.1-8.1v-59.1c0-4.5-3.6-8.1-8.1-8.1h-59.1
													c-4.5,0-8.1,3.6-8.1,8.1v59.1C479.2,647.5,482.8,651.1,487.3,651.1z"/>
												<path class="st80" d="M544.6,652.8H489c-6.4,0-11.5-5.2-11.5-11.5v-55.6c0-6.4,5.2-11.5,11.5-11.5h55.6
													c6.4,0,11.5,5.2,11.5,11.5v55.6C556.2,647.7,551,652.8,544.6,652.8z M489,577.5c-4.5,0-8.1,3.7-8.1,8.1v55.6
													c0,4.5,3.7,8.1,8.1,8.1h55.6c4.5,0,8.1-3.7,8.1-8.1v-55.6c0-4.5-3.7-8.1-8.1-8.1H489z"/>
											</g>
											<g>
												<path class="st81" d="M524.6,627.5l11.7-13.4l18.2,22.3v5.3c0,0,0.2,8.9-9.5,9.5h-1.4L524.6,627.5z"/>
												<path class="st80" d="M545,652.8h-1.4c-0.5,0-1-0.2-1.3-0.6l-19-23.7c-0.5-0.6-0.5-1.6,0-2.2L535,613
													c0.3-0.4,0.8-0.6,1.3-0.6c0.5,0,1,0.2,1.3,0.6l18.2,22.3c0.2,0.3,0.4,0.7,0.4,1.1v5.3
													C556.2,641.7,556.3,652.2,545,652.8C545.1,652.8,545.1,652.8,545,652.8z M544.4,649.4h0.6c7.9-0.5,7.8-7.4,7.8-7.7
													l0-4.7l-16.6-20.2l-9.4,10.8L544.4,649.4z"/>
											</g>
											<g>
												<g>
													<circle class="st19" cx="536.3" cy="614.5" r="9.5"/>
												</g>
												<g>
													<path class="st82" d="M536.3,625.7c-6.2,0-11.2-5-11.2-11.2c0-6.2,5-11.2,11.2-11.2c6.2,0,11.2,5,11.2,11.2
														C547.5,620.6,542.5,625.7,536.3,625.7z M536.3,606.6c-4.3,0-7.8,3.5-7.8,7.8c0,4.3,3.5,7.8,7.8,7.8
														c4.3,0,7.8-3.5,7.8-7.8C544.1,610.2,540.6,606.6,536.3,606.6z"/>
												</g>
											</g>
											<g>
												<g>
													<circle class="st19" cx="506.6" cy="605.9" r="18.4"/>
												</g>
												<g>
													<path class="st82" d="M506.6,625.9c-11.1,0-20.1-9-20.1-20.1c0-11.1,9-20.1,20.1-20.1c11.1,0,20.1,9,20.1,20.1
														C526.6,616.9,517.6,625.9,506.6,625.9z M506.6,589.2c-9.2,0-16.7,7.5-16.7,16.7c0,9.2,7.5,16.7,16.7,16.7
														c9.2,0,16.7-7.5,16.7-16.7C523.2,596.7,515.8,589.2,506.6,589.2z"/>
												</g>
											</g>
											<g>
												<path class="st83" d="M488.6,575.8h56.4c5.2,0,9.4,4.2,9.4,9.4v51.9l-18.2-22.8l-11.7,13.2l-18-22.4
													c0,0-27.4,31.4-27.4,30.9v-50.7C479.2,580.1,483.4,575.8,488.6,575.8z"/>
												<path class="st80" d="M554.5,638.8c-0.5,0-1-0.2-1.3-0.6l-17-21.3l-10.3,11.6c-0.3,0.4-0.8,0.6-1.3,0.6
													c-0.5,0-1-0.2-1.3-0.6l-16.7-20.8c-2.3,2.6-7.3,8.3-12.2,14c-4,4.5-7.1,8.1-9.4,10.6c-5.1,5.7-5.1,5.7-6.3,5.2
													c-0.7-0.2-1.1-0.9-1.1-1.6v-50.7c0-6.1,5-11.1,11.1-11.1h56.4c6.1,0,11.1,5,11.1,11.1v51.9c0,0.7-0.5,1.4-1.1,1.6
													C554.9,638.8,554.7,638.8,554.5,638.8z M536.3,612.6C536.3,612.6,536.3,612.6,536.3,612.6c0.5,0,1,0.2,1.3,0.6l15.2,19
													v-47c0-4.3-3.5-7.7-7.7-7.7h-56.4c-4.3,0-7.7,3.5-7.7,7.7v46.4c5.2-5.8,16.4-18.6,24.4-27.7c0.3-0.4,0.8-0.6,1.3-0.6
													c0.5,0,1,0.2,1.3,0.6l16.8,20.8l10.3-11.7C535.3,612.8,535.8,612.6,536.3,612.6z"/>
											</g>
											<g>
												<path class="st84" d="M532.1,607.7L532.1,607.7c5.7,0,10.3-4.6,10.3-10.3l0,0c0-5.7-4.6-10.3-10.3-10.3l0,0
													c-5.7,0-10.3,4.6-10.3,10.3l0,0C521.8,603.1,526.4,607.7,532.1,607.7z"/>
											</g>
										</g>
										<g>
											<g>
												<g>
													<g>
														<g>
															<path class="st82" d="M448.5,628.4h-3.4c-0.5,0-0.9-0.4-0.9-0.9v-3.4c0-0.5,0.4-0.9,0.9-0.9c0.5,0,0.9,0.4,0.9,0.9
																v2.6h2.6c0.5,0,0.9,0.4,0.9,0.9S449,628.4,448.5,628.4z"/>
														</g>
														<g>
															<path class="st82" d="M517.6,628.4h-6.9c-0.5,0-0.9-0.4-0.9-0.9s0.4-0.9,0.9-0.9h6.9c0.5,0,0.9,0.4,0.9,0.9
																S518.1,628.4,517.6,628.4z M503.8,628.4h-6.9c-0.5,0-0.9-0.4-0.9-0.9s0.4-0.9,0.9-0.9h6.9c0.5,0,0.9,0.4,0.9,0.9
																S504.3,628.4,503.8,628.4z M490,628.4h-6.9c-0.5,0-0.9-0.4-0.9-0.9s0.4-0.9,0.9-0.9h6.9c0.5,0,0.9,0.4,0.9,0.9
																S490.4,628.4,490,628.4z M476.2,628.4h-6.9c-0.5,0-0.9-0.4-0.9-0.9s0.4-0.9,0.9-0.9h6.9c0.5,0,0.9,0.4,0.9,0.9
																S476.6,628.4,476.2,628.4z M462.3,628.4h-6.9c-0.5,0-0.9-0.4-0.9-0.9s0.4-0.9,0.9-0.9h6.9c0.5,0,0.9,0.4,0.9,0.9
																S462.8,628.4,462.3,628.4z"/>
														</g>
														<g>
															<path class="st82" d="M527.9,628.4h-3.4c-0.5,0-0.9-0.4-0.9-0.9s0.4-0.9,0.9-0.9h2.6v-2.6c0-0.5,0.4-0.9,0.9-0.9
																s0.9,0.4,0.9,0.9v3.4C528.8,628,528.4,628.4,527.9,628.4z"/>
														</g>
														<g>
															<path class="st82" d="M527.9,618.1c-0.5,0-0.9-0.4-0.9-0.9v-6.9c0-0.5,0.4-0.9,0.9-0.9s0.9,0.4,0.9,0.9v6.9
																C528.8,617.7,528.4,618.1,527.9,618.1z M527.9,604.3c-0.5,0-0.9-0.4-0.9-0.9v-6.9c0-0.5,0.4-0.9,0.9-0.9
																s0.9,0.4,0.9,0.9v6.9C528.8,603.9,528.4,604.3,527.9,604.3z M527.9,590.5c-0.5,0-0.9-0.4-0.9-0.9v-6.9
																c0-0.5,0.4-0.9,0.9-0.9s0.9,0.4,0.9,0.9v6.9C528.8,590.1,528.4,590.5,527.9,590.5z M527.9,576.6
																c-0.5,0-0.9-0.4-0.9-0.9v-6.9c0-0.5,0.4-0.9,0.9-0.9s0.9,0.4,0.9,0.9v6.9C528.8,576.2,528.4,576.6,527.9,576.6z
																 M527.9,562.8c-0.5,0-0.9-0.4-0.9-0.9V555c0-0.5,0.4-0.9,0.9-0.9s0.9,0.4,0.9,0.9v6.9
																C528.8,562.4,528.4,562.8,527.9,562.8z"/>
														</g>
														<g>
															<path class="st82" d="M527.9,549c-0.5,0-0.9-0.4-0.9-0.9v-2.6h-2.6c-0.5,0-0.9-0.4-0.9-0.9s0.4-0.9,0.9-0.9h3.4
																c0.5,0,0.9,0.4,0.9,0.9v3.4C528.8,548.6,528.4,549,527.9,549z"/>
														</g>
														<g>
															<path class="st82" d="M517.6,545.6h-6.9c-0.5,0-0.9-0.4-0.9-0.9s0.4-0.9,0.9-0.9h6.9c0.5,0,0.9,0.4,0.9,0.9
																S518.1,545.6,517.6,545.6z M503.8,545.6h-6.9c-0.5,0-0.9-0.4-0.9-0.9s0.4-0.9,0.9-0.9h6.9c0.5,0,0.9,0.4,0.9,0.9
																S504.3,545.6,503.8,545.6z M490,545.6h-6.9c-0.5,0-0.9-0.4-0.9-0.9s0.4-0.9,0.9-0.9h6.9c0.5,0,0.9,0.4,0.9,0.9
																S490.4,545.6,490,545.6z M476.2,545.6h-6.9c-0.5,0-0.9-0.4-0.9-0.9s0.4-0.9,0.9-0.9h6.9c0.5,0,0.9,0.4,0.9,0.9
																S476.6,545.6,476.2,545.6z M462.3,545.6h-6.9c-0.5,0-0.9-0.4-0.9-0.9s0.4-0.9,0.9-0.9h6.9c0.5,0,0.9,0.4,0.9,0.9
																S462.8,545.6,462.3,545.6z"/>
														</g>
														<g>
															<path class="st82" d="M445.1,549c-0.5,0-0.9-0.4-0.9-0.9v-3.4c0-0.5,0.4-0.9,0.9-0.9h3.4c0.5,0,0.9,0.4,0.9,0.9
																s-0.4,0.9-0.9,0.9H446v2.6C446,548.6,445.6,549,445.1,549z"/>
														</g>
														<g>
															<path class="st82" d="M445.1,618.1c-0.5,0-0.9-0.4-0.9-0.9v-6.9c0-0.5,0.4-0.9,0.9-0.9c0.5,0,0.9,0.4,0.9,0.9v6.9
																C446,617.7,445.6,618.1,445.1,618.1z M445.1,604.3c-0.5,0-0.9-0.4-0.9-0.9v-6.9c0-0.5,0.4-0.9,0.9-0.9
																c0.5,0,0.9,0.4,0.9,0.9v6.9C446,603.9,445.6,604.3,445.1,604.3z M445.1,590.5c-0.5,0-0.9-0.4-0.9-0.9v-6.9
																c0-0.5,0.4-0.9,0.9-0.9c0.5,0,0.9,0.4,0.9,0.9v6.9C446,590.1,445.6,590.5,445.1,590.5z M445.1,576.6
																c-0.5,0-0.9-0.4-0.9-0.9v-6.9c0-0.5,0.4-0.9,0.9-0.9c0.5,0,0.9,0.4,0.9,0.9v6.9C446,576.2,445.6,576.6,445.1,576.6z
																 M445.1,562.8c-0.5,0-0.9-0.4-0.9-0.9V555c0-0.5,0.4-0.9,0.9-0.9c0.5,0,0.9,0.4,0.9,0.9v6.9
																C446,562.4,445.6,562.8,445.1,562.8z"/>
														</g>
													</g>
												</g>
											</g>
											<g>
												
													<rect x="522.6" y="539.4" transform="matrix(-1 -1.224647e-16 1.224647e-16 -1 1055.8716 1089.4604)" class="st19" width="10.7" height="10.7"/>
												<path class="st82" d="M533.3,551.8h-10.7c-0.9,0-1.7-0.8-1.7-1.7v-10.7c0-0.9,0.8-1.7,1.7-1.7h10.7
													c0.9,0,1.7,0.8,1.7,1.7v10.7C535,551,534.2,551.8,533.3,551.8z M524.3,548.4h7.3v-7.3h-7.3V548.4z"/>
											</g>
											<g>
												
													<rect x="522.6" y="622.2" transform="matrix(-1 -1.224647e-16 1.224647e-16 -1 1055.8716 1255.1177)" class="st19" width="10.7" height="10.7"/>
												<path class="st82" d="M533.3,634.6h-10.7c-0.9,0-1.7-0.8-1.7-1.7v-10.7c0-0.9,0.8-1.7,1.7-1.7h10.7
													c0.9,0,1.7,0.8,1.7,1.7v10.7C535,633.8,534.2,634.6,533.3,634.6z M524.3,631.2h7.3v-7.3h-7.3V631.2z"/>
											</g>
											<g>
												
													<rect x="439.8" y="539.4" transform="matrix(-1 -1.224647e-16 1.224647e-16 -1 890.2144 1089.4604)" class="st19" width="10.7" height="10.7"/>
												<path class="st82" d="M450.5,551.8h-10.7c-0.9,0-1.7-0.8-1.7-1.7v-10.7c0-0.9,0.8-1.7,1.7-1.7h10.7
													c0.9,0,1.7,0.8,1.7,1.7v10.7C452.2,551,451.4,551.8,450.5,551.8z M441.5,548.4h7.3v-7.3h-7.3V548.4z"/>
											</g>
											<g>
												
													<rect x="439.8" y="622.2" transform="matrix(-1 -1.224647e-16 1.224647e-16 -1 890.2144 1255.1177)" class="st19" width="10.7" height="10.7"/>
												<path class="st82" d="M450.5,634.6h-10.7c-0.9,0-1.7-0.8-1.7-1.7v-10.7c0-0.9,0.8-1.7,1.7-1.7h10.7
													c0.9,0,1.7,0.8,1.7,1.7v10.7C452.2,633.8,451.4,634.6,450.5,634.6z M441.5,631.2h7.3v-7.3h-7.3V631.2z"/>
											</g>
										</g>
									</g>
								</g>
								<polygon class="st85" points="296,553.7 283.7,557.1 283.7,544.9 296,544.9 								"/>
								<g>
									<g>
										<path class="st86" d="M751,453.8c0.4,0,0.9,0,1.3,0.1v0l-175.3-25.3l158.2,38.2C736.6,459.4,743.1,453.8,751,453.8z"/>
										<path class="st87" d="M742.4,468.9c0-6.8,4.3-12.6,10.3-15c-0.6-0.1-1.1-0.1-1.7-0.1c-7.8,0-14.3,5.5-15.8,12.9
											l-158.2-38.2L742.4,474V468.9z"/>
									</g>
									<g>
										<path class="st88" d="M751,453.8c-7.8,0-14.3,5.5-15.8,12.9l-158.2-38.2v0.1v148.1v42.1h190.2v-71v-65.4V470
											C767.1,461.1,759.9,453.8,751,453.8z"/>
										<path class="st19" d="M620.6,523.2c0,3.5-2.8,6.3-6.3,6.3c-3.5,0-6.3-2.8-6.3-6.3c0-3.5,2.8-6.3,6.3-6.3
											C617.8,516.9,620.6,519.7,620.6,523.2z"/>
										<path class="st19" d="M642.6,523.2c0,3.5-2.8,6.3-6.3,6.3c-3.5,0-6.3-2.8-6.3-6.3c0-3.5,2.8-6.3,6.3-6.3
											C639.8,516.9,642.6,519.7,642.6,523.2z"/>
										<path class="st19" d="M664.7,523.2c0,3.5-2.8,6.3-6.3,6.3c-3.5,0-6.3-2.8-6.3-6.3c0-3.5,2.8-6.3,6.3-6.3
											C661.9,516.9,664.7,519.7,664.7,523.2z"/>
									</g>
								</g>
								<g>
									<polygon class="st88" points="348.4,595.6 320.5,595.6 347.2,613.1 									"/>
									<path class="st88" d="M429.7,640.2c0,2.4-2,4.4-4.4,4.4h-79.7c-2.4,0-4.4-2-4.4-4.4V600c0-2.4,2-4.4,4.4-4.4h79.7
										c2.4,0,4.4,2,4.4,4.4V640.2z"/>
									<g>
										<path class="st19" d="M421,608.6c0,1.4-1.1,2.5-2.5,2.5h-66.2c-1.4,0-2.5-1.1-2.5-2.5l0,0c0-1.4,1.1-2.5,2.5-2.5h66.2
											C419.9,606.1,421,607.2,421,608.6L421,608.6z"/>
										<path class="st19" d="M421,620.1c0,1.4-1.1,2.5-2.5,2.5h-66.2c-1.4,0-2.5-1.1-2.5-2.5l0,0c0-1.4,1.1-2.5,2.5-2.5h66.2
											C419.9,617.6,421,618.7,421,620.1L421,620.1z"/>
										<path class="st19" d="M379.5,631.6c0,1.4-1.1,2.5-2.5,2.5h-24.7c-1.4,0-2.5-1.1-2.5-2.5l0,0c0-1.4,1.1-2.5,2.5-2.5H377
											C378.4,629.1,379.5,630.2,379.5,631.6L379.5,631.6z"/>
									</g>
								</g>
							</g>
						</g>
						<g>
							<rect x="283.2" y="332.2" class="st54" width="505.2" height="24.6"/>
							<g>
								<path class="st55" d="M302.9,344.5c0,3.3-2.6,6-5.9,6s-5.9-2.7-5.9-6c0-3.3,2.6-6,5.9-6S302.9,341.2,302.9,344.5z"/>
								<path class="st56" d="M322,344.5c0,3.3-2.6,6-5.9,6s-5.9-2.7-5.9-6c0-3.3,2.6-6,5.9-6S322,341.2,322,344.5z"/>
								<path class="st57" d="M341,344.5c0,3.3-2.6,6-5.9,6c-3.2,0-5.9-2.7-5.9-6c0-3.3,2.6-6,5.9-6
									C338.3,338.5,341,341.2,341,344.5z"/>
							</g>
						</g>
						<g>
							<rect x="578.3" y="332.4" class="st43" width="210.2" height="329.6"/>
							<g>
								<path class="st19" d="M624.7,382.4c0,4-1.6,7.3-3.6,7.3h-20.2c-2,0-3.6-3.3-3.6-7.3l0,0c0-4,1.6-7.3,3.6-7.3H621
									C623,375,624.7,378.3,624.7,382.4L624.7,382.4z"/>
								<path class="st58" d="M635.8,402.2c0,4-1.6,7.3-3.6,7.3H612c-2,0-3.6-3.3-3.6-7.3l0,0c0-4,1.6-7.3,3.6-7.3h20.2
									C634.2,394.9,635.8,398.2,635.8,402.2L635.8,402.2z"/>
								<path class="st19" d="M703.4,422c0,4-1.6,7.3-3.6,7.3h-71.7c-2,0-3.6-3.3-3.6-7.3l0,0c0-4,1.6-7.3,3.6-7.3h71.7
									C701.8,414.7,703.4,418,703.4,422L703.4,422z"/>
								<path class="st59" d="M740.9,441.9c0,4-1.6,7.3-3.6,7.3H628.1c-2,0-3.6-3.3-3.6-7.3l0,0c0-4,1.6-7.3,3.6-7.3h109.2
									C739.3,434.6,740.9,437.8,740.9,441.9L740.9,441.9z"/>
								<path class="st54" d="M769.1,461.7c0,4-1.6,7.3-3.6,7.3H628.1c-2,0-3.6-3.3-3.6-7.3l0,0c0-4,1.6-7.3,3.6-7.3h137.3
									C767.4,454.4,769.1,457.7,769.1,461.7L769.1,461.7z"/>
								<path class="st58" d="M659.3,481.6c0,4-1.6,7.3-3.6,7.3H612c-2,0-3.6-3.3-3.6-7.3l0,0c0-4,1.6-7.3,3.6-7.3h43.6
									C657.6,474.2,659.3,477.5,659.3,481.6L659.3,481.6z"/>
								<g>
									<path class="st54" d="M651.9,501.4c0,4-1.6,7.3-3.6,7.3h-20.2c-2,0-3.6-3.3-3.6-7.3l0,0c0-4,1.6-7.3,3.6-7.3h20.2
										C650.3,494.1,651.9,497.4,651.9,501.4L651.9,501.4z"/>
									<path class="st19" d="M681.3,501.4c0,4-1.6,7.3-3.6,7.3h-20.2c-2,0-3.6-3.3-3.6-7.3l0,0c0-4,1.6-7.3,3.6-7.3h20.2
										C679.7,494.1,681.3,497.4,681.3,501.4L681.3,501.4z"/>
								</g>
								<path class="st59" d="M670.6,521.2c0,4-1.6,7.3-3.6,7.3h-38.9c-2,0-3.6-3.3-3.6-7.3l0,0c0-4,1.6-7.3,3.6-7.3H667
									C669,513.9,670.6,517.2,670.6,521.2L670.6,521.2z"/>
								<path class="st19" d="M689.4,541.1c0,4-1.6,7.3-3.6,7.3h-57.7c-2,0-3.6-3.3-3.6-7.3l0,0c0-4,1.6-7.3,3.6-7.3h57.7
									C687.8,533.8,689.4,537,689.4,541.1L689.4,541.1z"/>
								<path class="st54" d="M651.9,560.9c0,4-1.6,7.3-3.6,7.3h-20.2c-2,0-3.6-3.3-3.6-7.3l0,0c0-4,1.6-7.3,3.6-7.3h20.2
									C650.3,553.6,651.9,556.9,651.9,560.9L651.9,560.9z"/>
								<g>
									<path class="st58" d="M651.9,580.8c0,4-1.6,7.3-3.6,7.3h-20.2c-2,0-3.6-3.3-3.6-7.3l0,0c0-4,1.6-7.3,3.6-7.3h20.2
										C650.3,573.4,651.9,576.7,651.9,580.8L651.9,580.8z"/>
									<path class="st59" d="M744.6,580.8c0,4-1.6,7.3-3.6,7.3h-83.4c-2,0-3.6-3.3-3.6-7.3l0,0c0-4,1.6-7.3,3.6-7.3h83.4
										C742.9,573.4,744.6,576.7,744.6,580.8L744.6,580.8z"/>
									<path class="st19" d="M778.6,580.8c0,4-1.6,7.3-3.6,7.3h-24.8c-2,0-3.6-3.3-3.6-7.3l0,0c0-4,1.6-7.3,3.6-7.3h24.8
										C776.9,573.4,778.6,576.7,778.6,580.8L778.6,580.8z"/>
								</g>
								<path class="st54" d="M635.8,600.6c0,4-1.6,7.3-3.6,7.3H612c-2,0-3.6-3.3-3.6-7.3l0,0c0-4,1.6-7.3,3.6-7.3h20.2
									C634.2,593.3,635.8,596.6,635.8,600.6L635.8,600.6z"/>
								<path class="st59" d="M651.9,620.4c0,4-1.6,7.3-3.6,7.3h-20.2c-2,0-3.6-3.3-3.6-7.3l0,0c0-4,1.6-7.3,3.6-7.3h20.2
									C650.3,613.1,651.9,616.4,651.9,620.4L651.9,620.4z"/>
								<path class="st54" d="M703.4,640.3c0,4-1.6,7.3-3.6,7.3h-71.7c-2,0-3.6-3.3-3.6-7.3l0,0c0-4,1.6-7.3,3.6-7.3h71.7
									C701.8,633,703.4,636.2,703.4,640.3L703.4,640.3z"/>
							</g>
						</g>
					</g>
				</g>
			</g>
		</g>
	</g>
</g>
</svg>
