<?xml version="1.0" encoding="UTF-8" standalone="no"?>
<svg
   xmlns:dc="http://purl.org/dc/elements/1.1/"
   xmlns:cc="http://creativecommons.org/ns#"
   xmlns:rdf="http://www.w3.org/1999/02/22-rdf-syntax-ns#"
   xmlns:svg="http://www.w3.org/2000/svg"
   xmlns="http://www.w3.org/2000/svg"
   xmlns:xlink="http://www.w3.org/1999/xlink"
   xmlns:sodipodi="http://sodipodi.sourceforge.net/DTD/sodipodi-0.dtd"
   xmlns:inkscape="http://www.inkscape.org/namespaces/inkscape"
   width="128"
   height="128"
   viewBox="0 0 128 128"
   version="1.1"
   id="svg255"
   sodipodi:docname="logo.svg"
   inkscape:version="0.92.3 (2405546, 2018-03-11)">
  <metadata
     id="metadata259">
    <rdf:RDF>
      <cc:Work
         rdf:about="">
        <dc:format>image/svg+xml</dc:format>
        <dc:type
           rdf:resource="http://purl.org/dc/dcmitype/StillImage" />
        <dc:title>yesil_Veri_A_Atolye1</dc:title>
      </cc:Work>
    </rdf:RDF>
  </metadata>
  <sodipodi:namedview
     pagecolor="#ffffff"
     bordercolor="#666666"
     borderopacity="1"
     objecttolerance="10"
     gridtolerance="10"
     guidetolerance="10"
     inkscape:pageopacity="0"
     inkscape:pageshadow="2"
     inkscape:window-width="1366"
     inkscape:window-height="711"
     id="namedview257"
     showgrid="false"
     inkscape:zoom="3.9765625"
     inkscape:cx="64"
     inkscape:cy="64"
     inkscape:window-x="0"
     inkscape:window-y="0"
     inkscape:window-maximized="1"
     inkscape:current-layer="svg255" />
  <!-- Generator: Sketch 56.3 (81716) - https://sketch.com -->
  <title
     id="title2">yesil_Veri_A_Atolye1</title>
  <desc
     id="desc4">Created with Sketch.</desc>
  <defs
     id="defs7">
    <circle
       id="path-1"
       cx="269.5"
       cy="269.5"
       r="269.5" />
    <mask
       id="mask-2"
       fill="white">
      <use
         xlink:href="#path-1"
         id="use238"
         x="0"
         y="0"
         width="100%"
         height="100%" />
    </mask>
  </defs>
  <rect
     style="fill:#ffffff;fill-rule:evenodd;stroke:none;stroke-width:1"
     id="rect9"
     height="128"
     width="124.39511"
     y="0"
     x="0" />
  <path
     d="m 32.287091,1.7600636 c -0.251135,0.8735902 -0.601867,1.680516 -1.043576,2.4422615 -0.366613,0.6318917 0.507657,1.2255541 0.871307,0.5980855 0.489891,-0.8442074 0.867539,-1.7579226 1.145594,-2.725349 0.208069,-0.7241479 -0.766601,-1.0350386 -0.973325,-0.314998"
     id="Fill-1"
     inkscape:connector-curvature="0"
     style="fill:#000000;fill-rule:evenodd;stroke:none;stroke-width:1" />
  <path
     d="m 34.975705,1.9199198 c 9.21e-4,0.8363334 -0.296487,1.5693806 -0.861782,2.1476562 -0.513772,0.5258477 0.267632,1.357472 0.780519,0.832566 0.767567,-0.7851612 1.186534,-1.8469027 1.185359,-2.9802222 -6.91e-4,-0.7575347 -1.104686,-0.7587904 -1.104096,0"
     id="Fill-3"
     inkscape:connector-curvature="0"
     style="fill:#000000;fill-rule:evenodd;stroke:none;stroke-width:1" />
  <path
     d="m 7.0828351,3.7160688 h 3.3342399 c 0.731145,0 0.732357,-1.1823856 0,-1.1823856 H 7.0828351 c -0.7311451,0 -0.7323571,1.1823856 0,1.1823856"
     id="Fill-17"
     inkscape:connector-curvature="0"
     style="fill:#000000;fill-rule:evenodd;stroke:none;stroke-width:1" />
  <path
     d="M 7.0886683,3.715456 C 8.2511118,3.669044 9.4132485,3.622632 10.575385,3.5764973 c 0.737534,-0.029459 0.741522,-1.071927 0,-1.0421897 -1.1621365,0.046134 -2.3242732,0.092546 -3.4867167,0.1389587 -0.7375333,0.029459 -0.7415217,1.0716489 0,1.0421897"
     id="Fill-20"
     inkscape:connector-curvature="0"
     style="fill:#000000;fill-rule:evenodd;stroke:none;stroke-width:1" />
  <path
     d="m 63.245838,1.1173417 c 0.454204,0.3444234 0.908405,0.6891563 1.362921,1.0338891 0.23965,0.1816501 1.106649,0.6356206 1.178167,0.9224854 0.137077,-0.237971 0.27384,-0.4759417 0.410916,-0.7139127 0.250627,-0.063748 -0.221142,0.083553 -0.30803,0.1494668 -0.217064,0.1637016 -0.378921,0.5192654 -0.533249,0.735265 -0.514429,0.7210301 -1.028858,1.4417507 -1.543285,2.1627809 -0.436638,0.6121019 0.582809,1.1923302 1.015681,0.5857984 0.661543,-0.9271272 1.323085,-1.8539449 1.984628,-2.7807626 -0.169698,0.095622 -0.33877,0.1915528 -0.508154,0.2871742 0.06556,0.00526 0.14178,-0.00464 0.205143,-0.020734 0.313363,-0.07953 0.485885,-0.4128131 0.410603,-0.7136034 C 66.790062,2.2415914 66.377264,2.0401363 65.959448,1.7232543 65.252737,1.1875877 64.546338,0.65130222 63.839627,0.11532617 63.239563,-0.33957267 62.653303,0.66770333 63.245838,1.1173415"
     id="Fill-82"
     inkscape:connector-curvature="0"
     style="fill:#000000;fill-rule:evenodd;stroke:none;stroke-width:1" />
  <path
     d="M 94.497372,1.7600636 C 94.246235,2.6336538 93.895505,3.4405796 93.453794,4.2023251 93.087183,4.8342168 93.96145,5.4278792 94.325101,4.8004106 94.814994,3.9562032 95.192642,3.042488 95.470695,2.0750616 95.678764,1.3509137 94.704096,1.040023 94.497372,1.7600636"
     id="Fill-146"
     inkscape:connector-curvature="0"
     style="fill:#000000;fill-rule:evenodd;stroke:none;stroke-width:1" />
  <path
     d="m 97.350125,1.9199198 c 9.22e-4,0.8363334 -0.296486,1.5693806 -0.861781,2.1476562 -0.513773,0.5258477 0.267631,1.357472 0.780814,0.832566 0.767273,-0.7851612 1.186241,-1.8469027 1.185066,-2.9802222 -6.91e-4,-0.7575347 -1.104686,-0.7587904 -1.104099,0"
     id="Fill-148"
     inkscape:connector-curvature="0"
     style="fill:#000000;fill-rule:evenodd;stroke:none;stroke-width:1" />
  <path
     d="m 123.81468,1.1173417 c 0.45421,0.3444234 0.90841,0.6891563 1.36293,1.0338891 0.23965,0.1816501 1.10664,0.6356206 1.17816,0.9224854 0.13708,-0.237971 0.27384,-0.4759417 0.41092,-0.7139127 0.25094,-0.063748 -0.22114,0.083553 -0.30803,0.1494668 -0.21706,0.1637016 -0.37892,0.5192654 -0.53325,0.735265 -0.51443,0.7210301 -1.02886,1.4417507 -1.54329,2.1627809 -0.43663,0.6121019 0.58281,1.1923302 1.01569,0.5857984 0.66154,-0.9271272 1.32308,-1.8539449 1.98463,-2.7807626 -0.1697,0.095622 -0.33877,0.1915528 -0.50816,0.2871742 0.0656,0.00526 0.14178,-0.00464 0.20514,-0.020734 0.31337,-0.07953 0.48589,-0.4128131 0.41061,-0.7136034 -0.13112,-0.5235978 -0.54392,-0.7250529 -0.96174,-1.0419349 -0.70671,-0.5356666 -1.41311,-1.07195208 -2.11982,-1.60792813 -0.60006,-0.45489884 -1.18632,0.55237716 -0.59379,1.00201533"
     id="Fill-160"
     inkscape:connector-curvature="0"
     style="fill:#000000;fill-rule:evenodd;stroke:none;stroke-width:1" />
  <path
     d="m 48.54288,16.498876 c -1.066485,0.79093 -2.08049,1.645957 -3.146657,2.436887 -0.338744,0.251094 -0.428122,0.773195 0,1.007177 1.35402,0.740213 2.534375,1.625109 3.491444,2.825818 0.471379,0.591797 1.310126,-0.239271 0.843203,-0.824845 -1.01655,-1.275695 -2.296779,-2.223442 -3.732542,-3.00815 v 1.007177 c 1.066485,-0.790931 2.080489,-1.645646 3.146657,-2.436577 0.604014,-0.447737 0.01018,-1.461448 -0.602105,-1.007487"
     id="Fill-5"
     inkscape:connector-curvature="0"
     style="fill:#000000;fill-rule:evenodd;stroke:none;stroke-width:1" />
  <path
     d="m 25.726975,32.54556 c -1.066486,0.790929 -2.080492,1.645952 -3.14666,2.436878 -0.338744,0.251094 -0.428121,0.773194 0,1.007173 1.353702,0.740212 2.53406,1.625105 3.49113,2.825809 0.471695,0.591796 1.310445,-0.23927 0.843519,-0.824842 -1.01655,-1.27569 -2.296778,-2.223433 -3.732544,-3.00814 v 1.007173 c 1.066169,-0.790926 2.080492,-1.645639 3.146659,-2.436568 0.604014,-0.448047 0.01018,-1.461442 -0.602104,-1.007483"
     id="Fill-7"
     inkscape:connector-curvature="0"
     style="fill:#000000;fill-rule:evenodd;stroke:none;stroke-width:1" />
  <path
     d="m 0.69699883,17.700918 c 0.43527757,0.354051 0.87055517,0.707784 1.30613337,1.061836 0.2296631,0.18656 1.0605382,0.653119 1.1290765,0.947421 0.1313649,-0.244404 0.262429,-0.488807 0.3937939,-0.733211 0.2401844,-0.06547 -0.2119274,0.08581 -0.2951951,0.153507 -0.2080195,0.168127 -0.3631322,0.533302 -0.5110303,0.75514 -0.492994,0.740521 -0.985988,1.481041 -1.478982,2.221243 -0.41844363,0.628648 0.5585261,1.22456 0.9733625,0.601633 0.6339782,-0.95187 1.2679564,-1.904058 1.9019347,-2.855929 -0.1626279,0.09821 -0.3246546,0.196731 -0.4869819,0.294937 0.062827,0.0054 0.135874,-0.0044 0.1965963,-0.02129 0.3003057,-0.08168 0.465639,-0.423972 0.3934935,-0.732893 C 4.093547,18.855557 3.6976487,18.648656 3.297542,18.323527 2.6202765,17.773063 1.9433116,17.222281 1.2660461,16.671817 0.69098669,16.204622 0.12915393,17.239443 0.69699883,17.700918"
     id="Fill-9"
     inkscape:connector-curvature="0"
     style="fill:#000000;fill-rule:evenodd;stroke:none;stroke-width:1" />
  <path
     d="m 34.453602,17.691404 c -0.756568,1.610183 -1.555602,3.192562 -2.39822,4.748386 -0.350347,0.646698 0.555132,1.235912 0.904362,0.591088 0.842896,-1.555511 1.642209,-3.13789 2.398499,-4.748074 0.313187,-0.667005 -0.590614,-1.259967 -0.904641,-0.5914"
     id="Fill-11"
     inkscape:connector-curvature="0"
     style="fill:#000000;fill-rule:evenodd;stroke:none;stroke-width:1" />
  <path
     d="m 17.095571,20.269467 h 3.33424 c 0.731146,0 0.732357,-1.013474 0,-1.013474 h -3.33424 c -0.731145,0 -0.732357,1.013474 0,1.013474"
     id="Fill-13"
     inkscape:connector-curvature="0"
     style="fill:#fc7b69;fill-rule:evenodd;stroke:none;stroke-width:1" />
  <path
     d="m 18.188247,17.284176 c 0.02035,1.655031 0.159296,3.293924 0.402666,4.928782 0.109737,0.737983 1.176139,0.424542 1.066696,-0.309406 -0.22803,-1.531516 -0.343962,-3.06955 -0.363137,-4.619376 -0.0091,-0.748224 -1.11537,-0.750086 -1.106225,0"
     id="Fill-15"
     inkscape:connector-curvature="0"
     style="fill:#fc7b69;fill-rule:evenodd;stroke:none;stroke-width:1" />
  <path
     d="m 7.9387066,34.669694 c 0.6220401,0 0.6230712,-1.00822 0,-1.00822 -0.62204,0 -0.6230711,1.00822 0,1.00822"
     id="Fill-22"
     inkscape:connector-curvature="0"
     style="fill:#000000;fill-rule:evenodd;stroke:none;stroke-width:1" />
  <path
     d="m 7.9387066,34.669694 c 0.6220401,0 0.6230712,-1.00822 0,-1.00822 -0.62204,0 -0.6230711,1.00822 0,1.00822"
     id="Fill-24"
     inkscape:connector-curvature="0"
     style="fill:#000000;fill-rule:evenodd;stroke:none;stroke-width:1" />
  <path
     d="m 7.9387066,36.938188 c 0.6220401,0 0.6230712,-1.008218 0,-1.008218 -0.62204,0 -0.6230711,1.008218 0,1.008218"
     id="Fill-26"
     inkscape:connector-curvature="0"
     style="fill:#000000;fill-rule:evenodd;stroke:none;stroke-width:1" />
  <path
     d="m 7.9387066,36.938188 c 0.6220401,0 0.6230712,-1.008218 0,-1.008218 -0.62204,0 -0.6230711,1.008218 0,1.008218"
     id="Fill-28"
     inkscape:connector-curvature="0"
     style="fill:#000000;fill-rule:evenodd;stroke:none;stroke-width:1" />
  <path
     d="m 46.396309,32.885367 c -0.765949,1.434965 -1.35293,2.955935 -1.758924,4.557551 -0.185876,0.733393 0.854574,1.046848 1.04045,0.313771 0.3824,-1.507738 0.92881,-2.923802 1.650161,-4.27497 0.351036,-0.657783 -0.581225,-1.253191 -0.931687,-0.596352"
     id="Fill-30"
     inkscape:connector-curvature="0"
     style="fill:#000000;fill-rule:evenodd;stroke:none;stroke-width:1" />
  <path
     d="m 47.925477,32.991128 c -0.537357,1.436793 -1.054377,2.897477 -1.624029,4.319687 -0.276604,0.690629 0.807977,0.992199 1.081291,0.309327 0.569951,-1.423142 1.086075,-2.881966 1.624029,-4.31969 0.261352,-0.698385 -0.82263,-1.000884 -1.081291,-0.309324"
     id="Fill-32"
     inkscape:connector-curvature="0"
     style="fill:#000000;fill-rule:evenodd;stroke:none;stroke-width:1" />
  <path
     d="m 44.338657,36.144041 c 1.876867,-0.187625 3.764643,-0.1238 5.641507,-0.311104 0.722012,-0.07217 0.729285,-1.275857 0,-1.202731 -1.876864,0.187304 -3.76464,0.12348 -5.641507,0.311106 -0.72201,0.07216 -0.728983,1.275535 0,1.202729"
     id="Fill-34"
     inkscape:connector-curvature="0"
     style="fill:#000000;fill-rule:evenodd;stroke:none;stroke-width:1" />
  <path
     d="m 44.336287,36.817868 c 1.710591,-0.212134 3.422095,-0.347072 5.145739,-0.357262 0.732506,-0.0046 0.734024,-1.162569 0,-1.157952 -1.723644,0.01022 -3.435449,0.145143 -5.145739,0.357277 -0.717933,0.08924 -0.726735,1.248101 0,1.157937"
     id="Fill-36"
     inkscape:connector-curvature="0"
     style="fill:#000000;fill-rule:evenodd;stroke:none;stroke-width:1" />
  <path
     d="M 94.912702,1.7414834 C 94.642537,2.575365 94.264537,3.3456124 93.78885,4.072733 93.394036,4.6759024 94.335557,5.24258 94.727471,4.6436327 95.254759,3.8377984 95.661745,2.9656157 95.960899,2.0421633 96.184974,1.3509312 95.135328,1.0541719 94.912702,1.7414834"
     id="Fill-74"
     inkscape:connector-curvature="0"
     style="fill:#000000;fill-rule:evenodd;stroke:none;stroke-width:1" />
  <path
     d="m 97.593557,1.8940733 c 9.22e-4,0.7983181 -0.319271,1.4980453 -0.928331,2.0500355 -0.55294,0.5019454 0.288519,1.2957687 0.840826,0.7947222 0.826557,-0.7494723 1.277725,-1.7629528 1.276458,-2.8447577 -9.22e-4,-0.7231012 -1.189902,-0.7242999 -1.188953,0"
     id="Fill-76"
     inkscape:connector-curvature="0"
     style="fill:#000000;fill-rule:evenodd;stroke:none;stroke-width:1" />
  <path
     d="m 113.05117,17.174525 c -1.06649,0.79093 -2.08049,1.645957 -3.14666,2.436887 -0.33875,0.251094 -0.42812,0.773195 0,1.007176 1.3537,0.740214 2.53406,1.62511 3.49113,2.825819 0.47169,0.591798 1.31044,-0.239271 0.84352,-0.824845 -1.01655,-1.275695 -2.29678,-2.223442 -3.73255,-3.00815 v 1.007176 c 1.06617,-0.79093 2.08049,-1.645645 3.14666,-2.436576 0.6037,-0.447737 0.0102,-1.461448 -0.6021,-1.007487"
     id="Fill-78"
     inkscape:connector-curvature="0"
     style="fill:#000000;fill-rule:evenodd;stroke:none;stroke-width:1" />
  <path
     d="m 84.490359,32.54556 c -1.066522,0.790929 -2.080558,1.645952 -3.146763,2.436878 -0.338755,0.251094 -0.428135,0.773194 0,1.007173 1.353748,0.740212 2.534143,1.625105 3.491243,2.825809 0.471396,0.591796 1.310171,-0.23927 0.843549,-0.824842 -1.016582,-1.27569 -2.296854,-2.223433 -3.732666,-3.00814 v 1.007173 c 1.066204,-0.790926 2.080558,-1.645639 3.146763,-2.436568 0.603715,-0.448047 0.01018,-1.461442 -0.602126,-1.007483"
     id="Fill-80"
     inkscape:connector-curvature="0"
     style="fill:#000000;fill-rule:evenodd;stroke:none;stroke-width:1" />
  <path
     d="m 97.156357,17.691404 c -0.75653,1.610183 -1.555526,3.192562 -2.398382,4.748386 -0.35005,0.646698 0.555385,1.235912 0.904597,0.591088 0.842857,-1.555511 1.641852,-3.13789 2.398384,-4.748074 0.313171,-0.667005 -0.590587,-1.259967 -0.904599,-0.5914"
     id="Fill-84"
     inkscape:connector-curvature="0"
     style="fill:#000000;fill-rule:evenodd;stroke:none;stroke-width:1" />
  <path
     d="m 79.962424,20.269467 h 3.33424 c 0.731146,0 0.732358,-1.013474 0,-1.013474 h -3.33424 c -0.731144,0 -0.732358,1.013474 0,1.013474"
     id="Fill-86"
     inkscape:connector-curvature="0"
     style="fill:#000000;fill-rule:evenodd;stroke:none;stroke-width:1" />
  <path
     d="m 81.055099,17.284176 c 0.02036,1.655031 0.159297,3.293924 0.402667,4.928782 0.110032,0.737983 1.176137,0.424542 1.066695,-0.309406 -0.22803,-1.531516 -0.343962,-3.06955 -0.363137,-4.619376 -0.0091,-0.748224 -1.115371,-0.750086 -1.106225,0"
     id="Fill-88"
     inkscape:connector-curvature="0"
     style="fill:#000000;fill-rule:evenodd;stroke:none;stroke-width:1" />
  <path
     d="m 63.383958,20.269467 h 3.334241 c 0.731146,0 0.732357,-1.013474 0,-1.013474 h -3.334241 c -0.731144,0 -0.732355,1.013474 0,1.013474"
     id="Fill-90"
     inkscape:connector-curvature="0"
     style="fill:#000000;fill-rule:evenodd;stroke:none;stroke-width:1" />
  <path
     d="m 63.4096,20.437678 c 1.20396,-0.05304 2.407603,-0.106085 3.611243,-0.15881 0.763873,-0.03367 0.768006,-1.225059 0,-1.191074 -1.20364,0.05273 -2.407283,0.105768 -3.611243,0.15881 -0.763874,0.03367 -0.768004,1.224742 0,1.191074"
     id="Fill-92"
     inkscape:connector-curvature="0"
     style="fill:#000000;fill-rule:evenodd;stroke:none;stroke-width:1" />
  <path
     d="m 68.732084,34.669694 c 0.666472,0 0.667578,-1.00822 0,-1.00822 -0.66647,0 -0.667576,1.00822 0,1.00822"
     id="Fill-94"
     inkscape:connector-curvature="0"
     style="fill:#000000;fill-rule:evenodd;stroke:none;stroke-width:1" />
  <path
     d="m 68.732084,34.669694 c 0.666472,0 0.667578,-1.00822 0,-1.00822 -0.66647,0 -0.667576,1.00822 0,1.00822"
     id="Fill-96"
     inkscape:connector-curvature="0"
     style="fill:#000000;fill-rule:evenodd;stroke:none;stroke-width:1" />
  <path
     d="m 68.481951,36.938188 c 0.666472,0 0.667575,-1.008218 0,-1.008218 -0.666472,0 -0.667576,1.008218 0,1.008218"
     id="Fill-98"
     inkscape:connector-curvature="0"
     style="fill:#000000;fill-rule:evenodd;stroke:none;stroke-width:1" />
  <path
     d="m 68.481951,36.938188 c 0.666472,0 0.667575,-1.008218 0,-1.008218 -0.666472,0 -0.667576,1.008218 0,1.008218"
     id="Fill-100"
     inkscape:connector-curvature="0"
     style="fill:#000000;fill-rule:evenodd;stroke:none;stroke-width:1" />
  <path
     style="fill:#ffd600;fill-rule:evenodd;stroke:none;stroke-width:1"
     inkscape:connector-curvature="0"
     id="Fill-102"
     d="m 103.59582,30.689508 c -0.76593,1.434965 -1.3529,2.955935 -1.75889,4.557551 -0.18615,0.733393 0.85456,1.046848 1.04043,0.313771 0.3824,-1.507738 0.92879,-2.9238 1.65013,-4.274968 0.35103,-0.657785 -0.58121,-1.253193 -0.93167,-0.596354" />
  <path
     style="fill:#ffd600;fill-rule:evenodd;stroke:none;stroke-width:1"
     inkscape:connector-curvature="0"
     id="Fill-104"
     d="m 105.4533,30.795269 c -0.53737,1.436795 -1.05441,2.897477 -1.62407,4.31969 -0.27661,0.690628 0.808,0.992196 1.08132,0.309324 0.56996,-1.423142 1.0861,-2.881963 1.62407,-4.319688 0.26106,-0.698384 -0.82265,-1.000884 -1.08132,-0.309326" />
  <path
     style="fill:#ffd600;fill-rule:evenodd;stroke:none;stroke-width:1"
     inkscape:connector-curvature="0"
     id="Fill-106"
     d="m 101.53816,33.441446 c 1.87689,-0.187624 3.7647,-0.123799 5.6416,-0.311106 0.72202,-0.07216 0.729,-1.275854 0,-1.202728 -1.8769,0.187304 -3.76471,0.123479 -5.6416,0.311106 -0.72202,0.07216 -0.729,1.275534 0,1.202728" />
  <path
     style="fill:#ffd600;fill-rule:evenodd;stroke:none;stroke-width:1"
     inkscape:connector-curvature="0"
     id="Fill-108"
     d="m 101.53577,34.790922 c 1.71058,-0.212134 3.42206,-0.347072 5.14598,-0.357262 0.7322,-0.0046 0.73371,-1.16257 0,-1.157952 -1.72392,0.01019 -3.4354,0.145142 -5.14598,0.357276 -0.71792,0.08924 -0.72672,1.248102 0,1.157938" />
  <path
     d="m 123.78866,20.776203 h 3.33424 c 0.73115,0 0.73236,-1.013473 0,-1.013473 h -3.33424 c -0.73114,0 -0.73235,1.013473 0,1.013473"
     id="Fill-168"
     inkscape:connector-curvature="0"
     style="fill:#000000;fill-rule:evenodd;stroke:none;stroke-width:1" />
  <path
     d="m 123.8143,20.944415 c 1.20396,-0.05304 2.40761,-0.106085 3.61125,-0.15881 0.76387,-0.03367 0.768,-1.225059 0,-1.191074 -1.20364,0.05272 -2.40729,0.105767 -3.61125,0.15881 -0.76387,0.03367 -0.768,1.224742 0,1.191074"
     id="Fill-170"
     inkscape:connector-curvature="0"
     style="fill:#000000;fill-rule:evenodd;stroke:none;stroke-width:1" />
  <path
     d="m 121.14481,34.669694 c 0.62204,0 0.62308,-1.00822 0,-1.00822 -0.62204,0 -0.62307,1.00822 0,1.00822"
     id="Fill-172"
     inkscape:connector-curvature="0"
     style="fill:#000000;fill-rule:evenodd;stroke:none;stroke-width:1" />
  <path
     d="m 121.14481,34.669694 c 0.62204,0 0.62308,-1.00822 0,-1.00822 -0.62204,0 -0.62307,1.00822 0,1.00822"
     id="Fill-174"
     inkscape:connector-curvature="0"
     style="fill:#000000;fill-rule:evenodd;stroke:none;stroke-width:1" />
  <path
     d="m 121.14481,36.938188 c 0.62204,0 0.62308,-1.008218 0,-1.008218 -0.62204,0 -0.62307,1.008218 0,1.008218"
     id="Fill-176"
     inkscape:connector-curvature="0"
     style="fill:#000000;fill-rule:evenodd;stroke:none;stroke-width:1" />
  <path
     d="m 121.14481,36.938188 c 0.62204,0 0.62308,-1.008218 0,-1.008218 -0.62204,0 -0.62307,1.008218 0,1.008218"
     id="Fill-178"
     inkscape:connector-curvature="0"
     style="fill:#000000;fill-rule:evenodd;stroke:none;stroke-width:1" />
  <path
     d="m 32.287091,89.932244 c -0.251135,0.873588 -0.601867,1.680514 -1.043576,2.442261 -0.366613,0.631891 0.507657,1.225553 0.871307,0.598085 0.489891,-0.844207 0.867539,-1.757923 1.145594,-2.72535 0.208069,-0.724148 -0.766601,-1.035039 -0.973325,-0.314996"
     id="path57"
     inkscape:connector-curvature="0"
     style="fill:#000000;fill-rule:evenodd;stroke:none;stroke-width:1" />
  <path
     d="m 34.975705,90.092099 c 9.21e-4,0.836334 -0.296487,1.56938 -0.861782,2.147656 -0.513772,0.525847 0.267632,1.357473 0.780519,0.832566 0.767567,-0.785161 1.186534,-1.846902 1.185359,-2.980222 -6.91e-4,-0.757534 -1.104686,-0.758791 -1.104096,0"
     id="path59"
     inkscape:connector-curvature="0"
     style="fill:#000000;fill-rule:evenodd;stroke:none;stroke-width:1" />
  <path
     d="m 7.0828351,92.394985 h 3.3342399 c 0.731145,0 0.732357,-1.182385 0,-1.182385 H 7.0828351 c -0.7311451,0 -0.7323571,1.182385 0,1.182385"
     id="path61"
     inkscape:connector-curvature="0"
     style="fill:#38d68d;fill-rule:evenodd;stroke:none;stroke-width:1" />
  <path
     d="m 6.9245251,94.499208 c 1.1624434,-0.04641 2.3245801,-0.09282 3.4867169,-0.138958 0.737533,-0.02946 0.741522,-1.071926 0,-1.04219 -1.1621368,0.04613 -2.3242735,0.09255 -3.4867169,0.138958 -0.7375333,0.02946 -0.7415216,1.071649 0,1.04219"
     id="path63"
     inkscape:connector-curvature="0"
     style="fill:#38d68d;fill-rule:evenodd;stroke:none;stroke-width:1" />
  <path
     d="m 63.245838,89.458433 c 0.454204,0.344424 0.908405,0.689157 1.362921,1.033889 0.23965,0.181651 1.106649,0.635622 1.178167,0.922487 0.137077,-0.237971 0.27384,-0.475942 0.410916,-0.713913 0.250627,-0.06375 -0.221142,0.08355 -0.30803,0.149466 -0.217064,0.163703 -0.378921,0.519265 -0.533249,0.735265 -0.514429,0.721029 -1.028858,1.441752 -1.543285,2.162781 -0.436638,0.612103 0.582809,1.192329 1.015681,0.585799 0.661543,-0.927128 1.323085,-1.853945 1.984628,-2.780762 -0.169698,0.09562 -0.33877,0.191552 -0.508154,0.287172 0.06556,0.0053 0.14178,-0.0046 0.205143,-0.02074 0.313363,-0.07953 0.485885,-0.412812 0.410603,-0.713603 -0.131117,-0.523598 -0.543915,-0.725053 -0.961731,-1.041934 -0.706711,-0.535668 -1.41311,-1.071953 -2.119821,-1.607929 -0.600064,-0.4549 -1.186324,0.552377 -0.593789,1.002015"
     id="path65"
     inkscape:connector-curvature="0"
     style="fill:#000000;fill-rule:evenodd;stroke:none;stroke-width:1" />
  <path
     d="m 94.497372,89.932244 c -0.251137,0.873588 -0.601867,1.680514 -1.043578,2.442261 -0.366611,0.631891 0.507656,1.225553 0.871307,0.598085 0.489893,-0.844207 0.867541,-1.757923 1.145594,-2.72535 0.208069,-0.724148 -0.766599,-1.035039 -0.973323,-0.314996"
     id="path67"
     inkscape:connector-curvature="0"
     style="fill:#000000;fill-rule:evenodd;stroke:none;stroke-width:1" />
  <path
     d="m 97.350125,90.092099 c 9.22e-4,0.836334 -0.296486,1.56938 -0.861781,2.147656 -0.513773,0.525847 0.267631,1.357473 0.780814,0.832566 0.767273,-0.785161 1.186241,-1.846902 1.185066,-2.980222 -6.91e-4,-0.757534 -1.104686,-0.758791 -1.104099,0"
     id="path69"
     inkscape:connector-curvature="0"
     style="fill:#000000;fill-rule:evenodd;stroke:none;stroke-width:1" />
  <path
     d="m 123.81468,89.458433 c 0.45421,0.344424 0.90841,0.689157 1.36293,1.033889 0.23965,0.181651 1.10664,0.635622 1.17816,0.922487 0.13708,-0.237971 0.27384,-0.475942 0.41092,-0.713913 0.25094,-0.06375 -0.22114,0.08355 -0.30803,0.149466 -0.21706,0.163703 -0.37892,0.519265 -0.53325,0.735265 -0.51443,0.721029 -1.02886,1.441752 -1.54329,2.162781 -0.43663,0.612103 0.58281,1.192329 1.01569,0.585799 0.66154,-0.927128 1.32308,-1.853945 1.98463,-2.780762 -0.1697,0.09562 -0.33877,0.191552 -0.50816,0.287172 0.0656,0.0053 0.14178,-0.0046 0.20514,-0.02074 0.31337,-0.07953 0.48589,-0.412812 0.41061,-0.713603 -0.13112,-0.523598 -0.54392,-0.725053 -0.96174,-1.041934 -0.70671,-0.535668 -1.41311,-1.071953 -2.11982,-1.607929 -0.60006,-0.4549 -1.18632,0.552377 -0.59379,1.002015"
     id="path71"
     inkscape:connector-curvature="0"
     style="fill:#000000;fill-rule:evenodd;stroke:none;stroke-width:1" />
  <path
     d="m 48.54288,104.83997 c -1.066485,0.79093 -2.08049,1.64595 -3.146657,2.43689 -0.338744,0.25109 -0.428122,0.77319 0,1.00717 1.35402,0.74022 2.534375,1.62511 3.491444,2.82582 0.471379,0.5918 1.310126,-0.23927 0.843203,-0.82484 -1.01655,-1.2757 -2.296779,-2.22345 -3.732542,-3.00815 v 1.00717 c 1.066485,-0.79093 2.080489,-1.64565 3.146657,-2.43657 0.604014,-0.44774 0.01018,-1.46145 -0.602105,-1.00749"
     id="path73"
     inkscape:connector-curvature="0"
     style="fill:#000000;fill-rule:evenodd;stroke:none;stroke-width:1" />
  <path
     d="m 25.726975,120.88665 c -1.066486,0.79093 -2.080492,1.64595 -3.14666,2.43688 -0.338744,0.25109 -0.428121,0.77319 0,1.00717 1.353702,0.74021 2.53406,1.62511 3.49113,2.82581 0.471695,0.5918 1.310445,-0.23927 0.843519,-0.82484 -1.01655,-1.27569 -2.296778,-2.22343 -3.732544,-3.00814 v 1.00717 c 1.066169,-0.79092 2.080492,-1.64564 3.146659,-2.43656 0.604014,-0.44805 0.01018,-1.46145 -0.602104,-1.00749"
     id="path75"
     inkscape:connector-curvature="0"
     style="fill:#000000;fill-rule:evenodd;stroke:none;stroke-width:1" />
  <path
     d="m 0.69699883,106.04201 c 0.43527757,0.35405 0.87055517,0.70778 1.30613337,1.06183 0.2296631,0.18656 1.0605382,0.65312 1.1290765,0.94743 0.1313649,-0.24441 0.262429,-0.48881 0.3937939,-0.73321 0.2401844,-0.0655 -0.2119274,0.0858 -0.2951951,0.1535 -0.2080195,0.16813 -0.3631322,0.53331 -0.5110303,0.75514 -0.492994,0.74052 -0.985988,1.48104 -1.478982,2.22125 -0.41844363,0.62864 0.5585261,1.22456 0.9733625,0.60163 0.6339782,-0.95187 1.2679564,-1.90406 1.9019347,-2.85593 -0.1626279,0.0982 -0.3246546,0.19673 -0.4869819,0.29494 0.062827,0.005 0.135874,-0.004 0.1965963,-0.0213 0.3003057,-0.0817 0.465639,-0.42397 0.3934935,-0.73289 -0.1256533,-0.53775 -0.5215516,-0.74466 -0.9216583,-1.06979 -0.6772655,-0.55046 -1.3542304,-1.10124 -2.0314959,-1.6517 -0.57505941,-0.4672 -1.13689217,0.56762 -0.56904727,1.0291"
     id="path77"
     inkscape:connector-curvature="0"
     style="fill:#000000;fill-rule:evenodd;stroke:none;stroke-width:1" />
  <path
     d="m 34.453602,106.0325 c -0.756568,1.61018 -1.555602,3.19256 -2.39822,4.74838 -0.350347,0.6467 0.555132,1.23591 0.904362,0.59109 0.842896,-1.55551 1.642209,-3.13789 2.398499,-4.74808 0.313187,-0.667 -0.590614,-1.25996 -0.904641,-0.59139"
     id="path79"
     inkscape:connector-curvature="0"
     style="fill:#000000;fill-rule:evenodd;stroke:none;stroke-width:1" />
  <path
     d="m 17.095571,108.61056 h 3.33424 c 0.731146,0 0.732357,-1.01347 0,-1.01347 h -3.33424 c -0.731145,0 -0.732357,1.01347 0,1.01347"
     id="path81"
     inkscape:connector-curvature="0"
     style="fill:#000000;fill-rule:evenodd;stroke:none;stroke-width:1" />
  <path
     d="m 18.188247,105.62527 c 0.02035,1.65503 0.159296,3.29392 0.402666,4.92878 0.109737,0.73798 1.176139,0.42454 1.066696,-0.30941 -0.22803,-1.53151 -0.343962,-3.06955 -0.363137,-4.61937 -0.0091,-0.74823 -1.11537,-0.75009 -1.106225,0"
     id="path83"
     inkscape:connector-curvature="0"
     style="fill:#000000;fill-rule:evenodd;stroke:none;stroke-width:1" />
  <path
     d="m 7.9387066,123.01078 c 0.6220401,0 0.6230712,-1.00821 0,-1.00821 -0.62204,0 -0.6230711,1.00821 0,1.00821"
     id="path85"
     inkscape:connector-curvature="0"
     style="fill:#000000;fill-rule:evenodd;stroke:none;stroke-width:1" />
  <path
     d="m 7.9387066,123.01078 c 0.6220401,0 0.6230712,-1.00821 0,-1.00821 -0.62204,0 -0.6230711,1.00821 0,1.00821"
     id="path87"
     inkscape:connector-curvature="0"
     style="fill:#000000;fill-rule:evenodd;stroke:none;stroke-width:1" />
  <path
     d="m 7.9387066,125.27928 c 0.6220401,0 0.6230712,-1.00822 0,-1.00822 -0.62204,0 -0.6230711,1.00822 0,1.00822"
     id="path89"
     inkscape:connector-curvature="0"
     style="fill:#000000;fill-rule:evenodd;stroke:none;stroke-width:1" />
  <path
     d="m 7.9387066,125.27928 c 0.6220401,0 0.6230712,-1.00822 0,-1.00822 -0.62204,0 -0.6230711,1.00822 0,1.00822"
     id="path91"
     inkscape:connector-curvature="0"
     style="fill:#000000;fill-rule:evenodd;stroke:none;stroke-width:1" />
  <path
     d="m 46.396309,121.22646 c -0.765949,1.43496 -1.35293,2.95593 -1.758924,4.55755 -0.185876,0.73339 0.854574,1.04685 1.04045,0.31377 0.3824,-1.50774 0.92881,-2.9238 1.650161,-4.27497 0.351036,-0.65778 -0.581225,-1.25319 -0.931687,-0.59635"
     id="path93"
     inkscape:connector-curvature="0"
     style="fill:#000000;fill-rule:evenodd;stroke:none;stroke-width:1" />
  <path
     d="m 47.925477,121.33222 c -0.537357,1.43679 -1.054377,2.89748 -1.624029,4.31969 -0.276604,0.69063 0.807977,0.99219 1.081291,0.30932 0.569951,-1.42314 1.086075,-2.88196 1.624029,-4.31969 0.261352,-0.69838 -0.82263,-1.00088 -1.081291,-0.30932"
     id="path95"
     inkscape:connector-curvature="0"
     style="fill:#000000;fill-rule:evenodd;stroke:none;stroke-width:1" />
  <path
     d="m 44.338657,124.48513 c 1.876867,-0.18762 3.764643,-0.1238 5.641507,-0.3111 0.722012,-0.0722 0.729285,-1.27586 0,-1.20273 -1.876864,0.1873 -3.76464,0.12348 -5.641507,0.3111 -0.72201,0.0722 -0.728983,1.27554 0,1.20273"
     id="path97"
     inkscape:connector-curvature="0"
     style="fill:#000000;fill-rule:evenodd;stroke:none;stroke-width:1" />
  <path
     d="m 44.336287,125.15896 c 1.710591,-0.21214 3.422095,-0.34707 5.145739,-0.35726 0.732506,-0.005 0.734024,-1.16257 0,-1.15795 -1.723644,0.0102 -3.435449,0.14514 -5.145739,0.35727 -0.717933,0.0892 -0.726735,1.24811 0,1.15794"
     id="path99"
     inkscape:connector-curvature="0"
     style="fill:#000000;fill-rule:evenodd;stroke:none;stroke-width:1" />
  <path
     d="m 94.912702,89.913663 c -0.270165,0.833882 -0.648165,1.604129 -1.123852,2.33125 -0.394814,0.603169 0.546707,1.169846 0.938621,0.570899 0.527288,-0.805834 0.934274,-1.678016 1.233428,-2.60147 0.224075,-0.691231 -0.825571,-0.987989 -1.048197,-0.300679"
     id="path101"
     inkscape:connector-curvature="0"
     style="fill:#000000;fill-rule:evenodd;stroke:none;stroke-width:1" />
  <path
     d="m 97.593557,90.066253 c 9.22e-4,0.798317 -0.319271,1.498046 -0.928331,2.050036 -0.55294,0.501945 0.288519,1.295768 0.840826,0.794721 0.826557,-0.749473 1.277725,-1.762953 1.276458,-2.844757 -9.22e-4,-0.7231 -1.189902,-0.7243 -1.188953,0"
     id="path103"
     inkscape:connector-curvature="0"
     style="fill:#000000;fill-rule:evenodd;stroke:none;stroke-width:1" />
  <path
     d="m 113.05117,105.51562 c -1.06649,0.79093 -2.08049,1.64595 -3.14666,2.43688 -0.33875,0.2511 -0.42812,0.7732 0,1.00718 1.3537,0.74021 2.53406,1.62511 3.49113,2.82582 0.47169,0.5918 1.31044,-0.23927 0.84352,-0.82485 -1.01655,-1.27569 -2.29678,-2.22344 -3.73255,-3.00815 v 1.00718 c 1.06617,-0.79093 2.08049,-1.64564 3.14666,-2.43658 0.6037,-0.44773 0.0102,-1.46144 -0.6021,-1.00748"
     id="path105"
     inkscape:connector-curvature="0"
     style="fill:#5a4bd1;fill-rule:evenodd;stroke:none;stroke-width:1" />
  <path
     d="m 84.490359,120.88665 c -1.066522,0.79093 -2.080558,1.64595 -3.146763,2.43688 -0.338755,0.25109 -0.428135,0.77319 0,1.00717 1.353748,0.74021 2.534143,1.62511 3.491243,2.82581 0.471396,0.5918 1.310171,-0.23927 0.843549,-0.82484 -1.016582,-1.27569 -2.296854,-2.22343 -3.732666,-3.00814 v 1.00717 c 1.066204,-0.79092 2.080558,-1.64564 3.146763,-2.43656 0.603715,-0.44805 0.01018,-1.46145 -0.602126,-1.00749"
     id="path107"
     inkscape:connector-curvature="0"
     style="fill:#000000;fill-rule:evenodd;stroke:none;stroke-width:1" />
  <path
     d="m 97.156357,106.0325 c -0.75653,1.61018 -1.555526,3.19256 -2.398382,4.74838 -0.35005,0.6467 0.555385,1.23591 0.904597,0.59109 0.842857,-1.55551 1.641852,-3.13789 2.398384,-4.74808 0.313171,-0.667 -0.590587,-1.25996 -0.904599,-0.59139"
     id="path109"
     inkscape:connector-curvature="0"
     style="fill:#000000;fill-rule:evenodd;stroke:none;stroke-width:1" />
  <path
     d="m 79.962424,108.61056 h 3.33424 c 0.731146,0 0.732358,-1.01347 0,-1.01347 h -3.33424 c -0.731144,0 -0.732358,1.01347 0,1.01347"
     id="path111"
     inkscape:connector-curvature="0"
     style="fill:#000000;fill-rule:evenodd;stroke:none;stroke-width:1" />
  <path
     d="m 81.055099,105.62527 c 0.02036,1.65503 0.159297,3.29392 0.402667,4.92878 0.110032,0.73798 1.176137,0.42454 1.066695,-0.30941 -0.22803,-1.53151 -0.343962,-3.06955 -0.363137,-4.61937 -0.0091,-0.74823 -1.115371,-0.75009 -1.106225,0"
     id="path113"
     inkscape:connector-curvature="0"
     style="fill:#000000;fill-rule:evenodd;stroke:none;stroke-width:1" />
  <path
     d="m 63.383958,108.61056 h 3.334241 c 0.731146,0 0.732357,-1.01347 0,-1.01347 h -3.334241 c -0.731144,0 -0.732355,1.01347 0,1.01347"
     id="path115"
     inkscape:connector-curvature="0"
     style="fill:#000000;fill-rule:evenodd;stroke:none;stroke-width:1" />
  <path
     d="m 63.4096,108.77877 c 1.20396,-0.053 2.407603,-0.10608 3.611243,-0.15881 0.763873,-0.0337 0.768006,-1.22506 0,-1.19107 -1.20364,0.0527 -2.407283,0.10576 -3.611243,0.15881 -0.763874,0.0337 -0.768004,1.22474 0,1.19107"
     id="path117"
     inkscape:connector-curvature="0"
     style="fill:#000000;fill-rule:evenodd;stroke:none;stroke-width:1" />
  <path
     d="m 68.732084,123.01078 c 0.666472,0 0.667578,-1.00821 0,-1.00821 -0.66647,0 -0.667576,1.00821 0,1.00821"
     id="path119"
     inkscape:connector-curvature="0"
     style="fill:#000000;fill-rule:evenodd;stroke:none;stroke-width:1" />
  <path
     d="m 68.732084,123.01078 c 0.666472,0 0.667578,-1.00821 0,-1.00821 -0.66647,0 -0.667576,1.00821 0,1.00821"
     id="path121"
     inkscape:connector-curvature="0"
     style="fill:#000000;fill-rule:evenodd;stroke:none;stroke-width:1" />
  <path
     d="m 68.481951,125.27928 c 0.666472,0 0.667575,-1.00822 0,-1.00822 -0.666472,0 -0.667576,1.00822 0,1.00822"
     id="path123"
     inkscape:connector-curvature="0"
     style="fill:#000000;fill-rule:evenodd;stroke:none;stroke-width:1" />
  <path
     d="m 68.481951,125.27928 c 0.666472,0 0.667575,-1.00822 0,-1.00822 -0.666472,0 -0.667576,1.00822 0,1.00822"
     id="path125"
     inkscape:connector-curvature="0"
     style="fill:#000000;fill-rule:evenodd;stroke:none;stroke-width:1" />
  <path
     d="m 102.8616,121.22646 c -0.76594,1.43496 -1.3529,2.95593 -1.75889,4.55755 -0.18616,0.73339 0.85456,1.04685 1.04043,0.31377 0.38239,-1.50774 0.92879,-2.9238 1.65012,-4.27497 0.35103,-0.65778 -0.58121,-1.25319 -0.93166,-0.59635"
     id="path127"
     inkscape:connector-curvature="0"
     style="fill:#000000;fill-rule:evenodd;stroke:none;stroke-width:1" />
  <path
     d="m 104.71908,121.33222 c -0.53737,1.43679 -1.05441,2.89748 -1.62408,4.31969 -0.27661,0.69063 0.808,0.99219 1.08132,0.30932 0.56997,-1.42314 1.08611,-2.88196 1.62408,-4.31969 0.26106,-0.69838 -0.82266,-1.00088 -1.08132,-0.30932"
     id="path129"
     inkscape:connector-curvature="0"
     style="fill:#000000;fill-rule:evenodd;stroke:none;stroke-width:1" />
  <path
     d="m 100.96808,124.48513 c 1.8769,-0.18762 3.7647,-0.1238 5.6416,-0.3111 0.72202,-0.0722 0.72899,-1.27586 0,-1.20273 -1.8769,0.1873 -3.7647,0.12348 -5.6416,0.3111 -0.72203,0.0722 -0.729,1.27554 0,1.20273"
     id="path131"
     inkscape:connector-curvature="0"
     style="fill:#000000;fill-rule:evenodd;stroke:none;stroke-width:1" />
  <path
     d="m 100.96569,125.15896 c 1.71057,-0.21214 3.42205,-0.34707 5.14598,-0.35726 0.73219,-0.005 0.73371,-1.16257 0,-1.15795 -1.72393,0.0102 -3.43541,0.14514 -5.14598,0.35727 -0.71792,0.0892 -0.72673,1.24811 0,1.15794"
     id="path133"
     inkscape:connector-curvature="0"
     style="fill:#000000;fill-rule:evenodd;stroke:none;stroke-width:1" />
  <path
     d="m 123.78866,109.11729 h 3.33424 c 0.73115,0 0.73236,-1.01347 0,-1.01347 h -3.33424 c -0.73114,0 -0.73235,1.01347 0,1.01347"
     id="path135"
     inkscape:connector-curvature="0"
     style="fill:#000000;fill-rule:evenodd;stroke:none;stroke-width:1" />
  <path
     d="m 123.8143,109.1166 c 1.20396,-0.053 2.40761,-0.10609 3.61125,-0.15881 0.76387,-0.0337 0.768,-1.22506 0,-1.19108 -1.20364,0.0527 -2.40729,0.10577 -3.61125,0.15881 -0.76387,0.0337 -0.768,1.22474 0,1.19108"
     id="path137"
     inkscape:connector-curvature="0"
     style="fill:#000000;fill-rule:evenodd;stroke:none;stroke-width:1" />
  <path
     d="m 121.14481,123.01078 c 0.62204,0 0.62308,-1.00821 0,-1.00821 -0.62204,0 -0.62307,1.00821 0,1.00821"
     id="path139"
     inkscape:connector-curvature="0"
     style="fill:#000000;fill-rule:evenodd;stroke:none;stroke-width:1" />
  <path
     d="m 121.14481,123.01078 c 0.62204,0 0.62308,-1.00821 0,-1.00821 -0.62204,0 -0.62307,1.00821 0,1.00821"
     id="path141"
     inkscape:connector-curvature="0"
     style="fill:#000000;fill-rule:evenodd;stroke:none;stroke-width:1" />
  <path
     d="m 121.14481,125.27928 c 0.62204,0 0.62308,-1.00822 0,-1.00822 -0.62204,0 -0.62307,1.00822 0,1.00822"
     id="path143"
     inkscape:connector-curvature="0"
     style="fill:#000000;fill-rule:evenodd;stroke:none;stroke-width:1" />
  <path
     d="m 121.14481,125.27928 c 0.62204,0 0.62308,-1.00822 0,-1.00822 -0.62204,0 -0.62307,1.00822 0,1.00822"
     id="path145"
     inkscape:connector-curvature="0"
     style="fill:#000000;fill-rule:evenodd;stroke:none;stroke-width:1" />
  <path
     d="m 32.287091,45.846154 c -0.251135,0.873591 -0.601867,1.680514 -1.043576,2.442261 -0.366613,0.631891 0.507657,1.225553 0.871307,0.598085 0.489891,-0.844207 0.867539,-1.757923 1.145594,-2.72535 0.208069,-0.724146 -0.766601,-1.035036 -0.973325,-0.314996"
     id="path147"
     inkscape:connector-curvature="0"
     style="fill:#000000;fill-rule:evenodd;stroke:none;stroke-width:1" />
  <path
     d="m 34.975705,46.006009 c 9.21e-4,0.836334 -0.296487,1.56938 -0.861782,2.147656 -0.513772,0.525847 0.267632,1.357473 0.780519,0.832566 0.767567,-0.785161 1.186534,-1.846902 1.185359,-2.980222 -6.91e-4,-0.757534 -1.104686,-0.758791 -1.104096,0"
     id="path149"
     inkscape:connector-curvature="0"
     style="fill:#000000;fill-rule:evenodd;stroke:none;stroke-width:1" />
  <path
     d="m 7.0828351,47.802158 h 3.3342399 c 0.731145,0 0.732357,-1.182386 0,-1.182386 H 7.0828351 c -0.7311451,0 -0.7323571,1.182386 0,1.182386"
     id="path151"
     inkscape:connector-curvature="0"
     style="fill:#000000;fill-rule:evenodd;stroke:none;stroke-width:1" />
  <path
     d="m 7.0886683,47.801546 c 1.1624435,-0.04641 2.3245802,-0.09282 3.4867167,-0.138958 0.737534,-0.02946 0.741522,-1.071929 0,-1.04219 -1.1621365,0.04613 -2.3242732,0.09255 -3.4867167,0.138958 -0.7375333,0.02946 -0.7415217,1.071649 0,1.04219"
     id="path153"
     inkscape:connector-curvature="0"
     style="fill:#000000;fill-rule:evenodd;stroke:none;stroke-width:1" />
  <path
     d="m 63.245838,45.20343 c 0.454204,0.344425 0.908405,0.689157 1.362921,1.03389 0.23965,0.181651 1.106649,0.635622 1.178167,0.922486 0.137077,-0.237971 0.27384,-0.475942 0.410916,-0.713913 0.250627,-0.06375 -0.221142,0.08355 -0.30803,0.149466 -0.217064,0.163703 -0.378921,0.519266 -0.533249,0.735266 -0.514429,0.721031 -1.028858,1.441751 -1.543285,2.16278 -0.436638,0.612103 0.582809,1.192332 1.015681,0.585799 0.661543,-0.927128 1.323085,-1.853945 1.984628,-2.780762 -0.169698,0.09562 -0.33877,0.191552 -0.508154,0.287173 0.06556,0.0053 0.14178,-0.0046 0.205143,-0.02074 0.313363,-0.07953 0.485885,-0.412814 0.410603,-0.713605 -0.131117,-0.523598 -0.543915,-0.725053 -0.961731,-1.041934 -0.706711,-0.535666 -1.41311,-1.071953 -2.119821,-1.607929 -0.600064,-0.454898 -1.186324,0.552377 -0.593789,1.002015"
     id="path155"
     inkscape:connector-curvature="0"
     style="fill:#000000;fill-rule:evenodd;stroke:none;stroke-width:1" />
  <path
     d="m 94.497372,45.846154 c -0.251137,0.873591 -0.601867,1.680514 -1.043578,2.442261 -0.366611,0.631891 0.507656,1.225553 0.871307,0.598085 0.489893,-0.844207 0.867541,-1.757923 1.145594,-2.72535 0.208069,-0.724146 -0.766599,-1.035036 -0.973323,-0.314996"
     id="path157"
     inkscape:connector-curvature="0"
     style="fill:#000000;fill-rule:evenodd;stroke:none;stroke-width:1" />
  <path
     d="m 97.350125,46.006009 c 9.22e-4,0.836334 -0.296486,1.56938 -0.861781,2.147656 -0.513773,0.525847 0.267631,1.357473 0.780814,0.832566 0.767273,-0.785161 1.186241,-1.846902 1.185066,-2.980222 -6.91e-4,-0.757534 -1.104686,-0.758791 -1.104099,0"
     id="path159"
     inkscape:connector-curvature="0"
     style="fill:#000000;fill-rule:evenodd;stroke:none;stroke-width:1" />
  <path
     d="m 123.81468,45.20343 c 0.45421,0.344425 0.90841,0.689157 1.36293,1.03389 0.23965,0.181651 1.10664,0.635622 1.17816,0.922486 0.13708,-0.237971 0.27384,-0.475942 0.41092,-0.713913 0.25094,-0.06375 -0.22114,0.08355 -0.30803,0.149466 -0.21706,0.163703 -0.37892,0.519266 -0.53325,0.735266 -0.51443,0.721031 -1.02886,1.441751 -1.54329,2.16278 -0.43663,0.612103 0.58281,1.192332 1.01569,0.585799 0.66154,-0.927128 1.32308,-1.853945 1.98463,-2.780762 -0.1697,0.09562 -0.33877,0.191552 -0.50816,0.287173 0.0656,0.0053 0.14178,-0.0046 0.20514,-0.02074 0.31337,-0.07953 0.48589,-0.412814 0.41061,-0.713605 -0.13112,-0.523598 -0.54392,-0.725053 -0.96174,-1.041934 -0.70671,-0.535666 -1.41311,-1.071953 -2.11982,-1.607929 -0.60006,-0.454898 -1.18632,0.552377 -0.59379,1.002015"
     id="path161"
     inkscape:connector-curvature="0"
     style="fill:#000000;fill-rule:evenodd;stroke:none;stroke-width:1" />
  <path
     d="m 48.54288,60.584965 c -1.066485,0.790931 -2.08049,1.645957 -3.146657,2.436888 -0.338744,0.251094 -0.428122,0.773196 0,1.007175 1.35402,0.740215 2.534375,1.625112 3.491444,2.825818 0.471379,0.591799 1.310126,-0.239269 0.843203,-0.824843 -1.01655,-1.275696 -2.296779,-2.223443 -3.732542,-3.00815 v 1.007175 c 1.066485,-0.790928 2.080489,-1.645644 3.146657,-2.436574 0.604014,-0.447737 0.01018,-1.46145 -0.602105,-1.007489"
     id="path163"
     inkscape:connector-curvature="0"
     style="fill:#000000;fill-rule:evenodd;stroke:none;stroke-width:1" />
  <path
     d="m 25.726975,76.800563 c -1.066486,0.790926 -2.080492,1.645949 -3.14666,2.436878 -0.338744,0.251093 -0.428121,0.773191 0,1.007173 1.353702,0.74021 2.53406,1.625104 3.49113,2.825808 0.471695,0.591794 1.310445,-0.23927 0.843519,-0.824843 -1.01655,-1.275689 -2.296778,-2.223434 -3.732544,-3.008138 v 1.007173 c 1.066169,-0.790929 2.080492,-1.645639 3.146659,-2.436568 0.604014,-0.448047 0.01018,-1.461442 -0.602104,-1.007483"
     id="path165"
     inkscape:connector-curvature="0"
     style="fill:#000000;fill-rule:evenodd;stroke:none;stroke-width:1" />
  <path
     d="m 0.69699883,61.787006 c 0.43527757,0.354053 0.87055517,0.707786 1.30613337,1.061836 0.2296631,0.186563 1.0605382,0.653123 1.1290765,0.947423 0.1313649,-0.244404 0.262429,-0.488808 0.3937939,-0.73321 0.2401844,-0.06547 -0.2119274,0.08581 -0.2951951,0.153505 -0.2080195,0.168128 -0.3631322,0.533303 -0.5110303,0.755141 -0.492994,0.74052 -0.985988,1.481041 -1.478982,2.221243 -0.41844363,0.628649 0.5585261,1.22456 0.9733625,0.601633 0.6339782,-0.951872 1.2679564,-1.904059 1.9019347,-2.855928 -0.1626279,0.09821 -0.3246546,0.196728 -0.4869819,0.294935 0.062827,0.0054 0.135874,-0.0045 0.1965963,-0.02129 0.3003057,-0.08168 0.465639,-0.423971 0.3934935,-0.732892 C 4.093547,62.941654 3.6976487,62.734754 3.297542,62.409624 2.6202765,61.85916 1.9433116,61.308376 1.2660461,60.757912 0.69098669,60.29072 0.12915393,61.32554 0.69699883,61.787014"
     id="path167"
     inkscape:connector-curvature="0"
     style="fill:#000000;fill-rule:evenodd;stroke:none;stroke-width:1" />
  <path
     d="m 34.453602,61.777494 c -0.756568,1.610183 -1.555602,3.192562 -2.39822,4.748385 -0.350347,0.646699 0.555132,1.235911 0.904362,0.591088 0.842896,-1.555511 1.642209,-3.137889 2.398499,-4.748073 0.313187,-0.667005 -0.590614,-1.259968 -0.904641,-0.5914"
     id="path169"
     inkscape:connector-curvature="0"
     style="fill:#000000;fill-rule:evenodd;stroke:none;stroke-width:1" />
  <path
     d="m 17.095571,64.524469 h 3.33424 c 0.731146,0 0.732357,-1.013473 0,-1.013473 h -3.33424 c -0.731145,0 -0.732357,1.013473 0,1.013473"
     id="path171"
     inkscape:connector-curvature="0"
     style="fill:#000000;fill-rule:evenodd;stroke:none;stroke-width:1" />
  <path
     d="m 18.188247,61.539179 c 0.02035,1.655031 0.159296,3.293922 0.402666,4.92878 0.109737,0.737984 1.176139,0.424543 1.066696,-0.309404 -0.22803,-1.531518 -0.343962,-3.069552 -0.363137,-4.619376 -0.0091,-0.748224 -1.11537,-0.750087 -1.106225,0"
     id="path173"
     inkscape:connector-curvature="0"
     style="fill:#000000;fill-rule:evenodd;stroke:none;stroke-width:1" />
  <path
     d="m 7.9387066,78.755784 c 0.6220401,0 0.6230712,-1.00822 0,-1.00822 -0.62204,0 -0.6230711,1.00822 0,1.00822"
     id="path175"
     inkscape:connector-curvature="0"
     style="fill:#000000;fill-rule:evenodd;stroke:none;stroke-width:1" />
  <path
     d="m 7.9387066,78.755784 c 0.6220401,0 0.6230712,-1.00822 0,-1.00822 -0.62204,0 -0.6230711,1.00822 0,1.00822"
     id="path177"
     inkscape:connector-curvature="0"
     style="fill:#000000;fill-rule:evenodd;stroke:none;stroke-width:1" />
  <path
     d="m 7.9387066,81.024278 c 0.6220401,0 0.6230712,-1.00822 0,-1.00822 -0.62204,0 -0.6230711,1.00822 0,1.00822"
     id="path179"
     inkscape:connector-curvature="0"
     style="fill:#000000;fill-rule:evenodd;stroke:none;stroke-width:1" />
  <path
     d="m 7.9387066,81.024278 c 0.6220401,0 0.6230712,-1.00822 0,-1.00822 -0.62204,0 -0.6230711,1.00822 0,1.00822"
     id="path181"
     inkscape:connector-curvature="0"
     style="fill:#000000;fill-rule:evenodd;stroke:none;stroke-width:1" />
  <path
     d="m 46.396309,77.14037 c -0.765949,1.434965 -1.35293,2.955934 -1.758924,4.557551 -0.185876,0.73339 0.854574,1.046846 1.04045,0.313771 0.3824,-1.507738 0.92881,-2.923802 1.650161,-4.27497 0.351036,-0.657785 -0.581225,-1.253192 -0.931687,-0.596352"
     id="path183"
     inkscape:connector-curvature="0"
     style="fill:#000000;fill-rule:evenodd;stroke:none;stroke-width:1" />
  <path
     d="m 47.925477,77.077218 c -0.537357,1.436793 -1.054377,2.897477 -1.624029,4.319687 -0.276604,0.690629 0.807977,0.992197 1.081291,0.309327 0.569951,-1.423142 1.086075,-2.881966 1.624029,-4.31969 0.261352,-0.698385 -0.82263,-1.000884 -1.081291,-0.309324"
     id="path185"
     inkscape:connector-curvature="0"
     style="fill:#000000;fill-rule:evenodd;stroke:none;stroke-width:1" />
  <path
     d="m 44.338657,80.230131 c 1.876867,-0.187625 3.764643,-0.1238 5.641507,-0.311107 0.722012,-0.07216 0.729285,-1.275854 0,-1.202728 -1.876864,0.187304 -3.76464,0.12348 -5.641507,0.311106 -0.72201,0.07216 -0.728983,1.275535 0,1.202729"
     id="path187"
     inkscape:connector-curvature="0"
     style="fill:#000000;fill-rule:evenodd;stroke:none;stroke-width:1" />
  <path
     d="m 44.336287,81.072869 c 1.710591,-0.212134 3.422095,-0.347072 5.145739,-0.357263 0.732506,-0.0046 0.734024,-1.162567 0,-1.157949 -1.723644,0.01019 -3.435449,0.145142 -5.145739,0.357276 -0.717933,0.08924 -0.726735,1.248102 0,1.157936"
     id="path189"
     inkscape:connector-curvature="0"
     style="fill:#000000;fill-rule:evenodd;stroke:none;stroke-width:1" />
  <path
     d="m 94.912702,45.827573 c -0.270165,0.833882 -0.648165,1.604129 -1.123852,2.33125 -0.394814,0.603169 0.546707,1.169846 0.938621,0.570898 0.527288,-0.805833 0.934274,-1.678016 1.233428,-2.601469 0.224075,-0.691231 -0.825571,-0.98799 -1.048197,-0.300679"
     id="path191"
     inkscape:connector-curvature="0"
     style="fill:#000000;fill-rule:evenodd;stroke:none;stroke-width:1" />
  <path
     d="m 97.593557,45.980163 c 9.22e-4,0.798317 -0.319271,1.498046 -0.928331,2.050036 -0.55294,0.501945 0.288519,1.295768 0.840826,0.794721 0.826557,-0.749471 1.277725,-1.762953 1.276458,-2.844757 -9.22e-4,-0.723101 -1.189902,-0.7243 -1.188953,0"
     id="path193"
     inkscape:connector-curvature="0"
     style="fill:#000000;fill-rule:evenodd;stroke:none;stroke-width:1" />
  <path
     d="m 113.05117,61.429526 c -1.06649,0.790931 -2.08049,1.645957 -3.14666,2.436888 -0.33875,0.251093 -0.42812,0.773196 0,1.007177 1.3537,0.740212 2.53406,1.62511 3.49113,2.825818 0.47169,0.591797 1.31044,-0.239269 0.84352,-0.824846 -1.01655,-1.275693 -2.29678,-2.22344 -3.73255,-3.008149 v 1.007177 c 1.06617,-0.790931 2.08049,-1.645646 3.14666,-2.436577 0.6037,-0.447737 0.0102,-1.461447 -0.6021,-1.007488"
     id="path195"
     inkscape:connector-curvature="0"
     style="fill:#000000;fill-rule:evenodd;stroke:none;stroke-width:1" />
  <path
     d="m 84.490359,76.800563 c -1.066522,0.790926 -2.080558,1.645949 -3.146763,2.436878 -0.338755,0.251093 -0.428135,0.773191 0,1.007173 1.353748,0.74021 2.534143,1.625104 3.491243,2.825808 0.471396,0.591794 1.310171,-0.23927 0.843549,-0.824843 -1.016582,-1.275689 -2.296854,-2.223434 -3.732666,-3.008138 v 1.007173 c 1.066204,-0.790929 2.080558,-1.645639 3.146763,-2.436568 0.603715,-0.448047 0.01018,-1.461442 -0.602126,-1.007483"
     id="path197"
     inkscape:connector-curvature="0"
     style="fill:#000000;fill-rule:evenodd;stroke:none;stroke-width:1" />
  <path
     d="m 97.156357,61.777494 c -0.75653,1.610183 -1.555526,3.192562 -2.398382,4.748385 -0.35005,0.646699 0.555385,1.235911 0.904597,0.591088 0.842857,-1.555511 1.641852,-3.137889 2.398384,-4.748073 0.313171,-0.667005 -0.590587,-1.259968 -0.904599,-0.5914"
     id="path199"
     inkscape:connector-curvature="0"
     style="fill:#000000;fill-rule:evenodd;stroke:none;stroke-width:1" />
  <path
     d="m 79.962424,64.524469 h 3.33424 c 0.731146,0 0.732358,-1.013473 0,-1.013473 h -3.33424 c -0.731144,0 -0.732358,1.013473 0,1.013473"
     id="path201"
     inkscape:connector-curvature="0"
     style="fill:#000000;fill-rule:evenodd;stroke:none;stroke-width:1" />
  <path
     d="m 81.055099,61.539179 c 0.02036,1.655031 0.159297,3.293922 0.402667,4.92878 0.110032,0.737984 1.176137,0.424543 1.066695,-0.309404 -0.22803,-1.531518 -0.343962,-3.069552 -0.363137,-4.619376 -0.0091,-0.748224 -1.115371,-0.750087 -1.106225,0"
     id="path203"
     inkscape:connector-curvature="0"
     style="fill:#000000;fill-rule:evenodd;stroke:none;stroke-width:1" />
  <path
     d="m 63.383958,64.524469 h 3.334241 c 0.731146,0 0.732357,-1.013473 0,-1.013473 h -3.334241 c -0.731144,0 -0.732355,1.013473 0,1.013473"
     id="path205"
     inkscape:connector-curvature="0"
     style="fill:#000000;fill-rule:evenodd;stroke:none;stroke-width:1" />
  <path
     d="m 63.4096,64.523767 c 1.20396,-0.05304 2.407603,-0.106083 3.611243,-0.15881 0.763873,-0.03367 0.768006,-1.225059 0,-1.191073 -1.20364,0.05272 -2.407283,0.105768 -3.611243,0.15881 -0.763874,0.03367 -0.768004,1.224742 0,1.191073"
     id="path207"
     inkscape:connector-curvature="0"
     style="fill:#000000;fill-rule:evenodd;stroke:none;stroke-width:1" />
  <path
     d="m 68.744302,78.713096 c 0.656028,0 0.657115,-1.013473 0,-1.013473 -0.65603,0 -0.657117,1.013473 0,1.013473"
     id="path209"
     inkscape:connector-curvature="0"
     style="fill:#000000;fill-rule:evenodd;stroke:none;stroke-width:1" />
  <path
     d="m 68.744302,78.713096 c 0.656028,0 0.657115,-1.013473 0,-1.013473 -0.65603,0 -0.657117,1.013473 0,1.013473"
     id="path211"
     inkscape:connector-curvature="0"
     style="fill:#000000;fill-rule:evenodd;stroke:none;stroke-width:1" />
  <path
     d="m 68.416014,81.077865 c 0.65603,0 0.657118,-1.013473 0,-1.013473 -0.656027,0 -0.657114,1.013473 0,1.013473"
     id="path213"
     inkscape:connector-curvature="0"
     style="fill:#000000;fill-rule:evenodd;stroke:none;stroke-width:1" />
  <path
     d="m 68.416014,81.077865 c 0.65603,0 0.657118,-1.013473 0,-1.013473 -0.656027,0 -0.657114,1.013473 0,1.013473"
     id="path215"
     inkscape:connector-curvature="0"
     style="fill:#000000;fill-rule:evenodd;stroke:none;stroke-width:1" />
  <path
     d="m 102.8616,77.14037 c -0.76594,1.434965 -1.3529,2.955934 -1.75889,4.557551 -0.18616,0.73339 0.85456,1.046846 1.04043,0.313771 0.38239,-1.507738 0.92879,-2.923802 1.65012,-4.27497 0.35103,-0.657785 -0.58121,-1.253192 -0.93166,-0.596352"
     id="path217"
     inkscape:connector-curvature="0"
     style="fill:#000000;fill-rule:evenodd;stroke:none;stroke-width:1" />
  <path
     d="m 104.71908,77.077218 c -0.53737,1.436793 -1.05441,2.897477 -1.62408,4.319687 -0.27661,0.690629 0.808,0.992197 1.08132,0.309327 0.56997,-1.423142 1.08611,-2.881966 1.62408,-4.31969 0.26106,-0.698385 -0.82266,-1.000884 -1.08132,-0.309324"
     id="path219"
     inkscape:connector-curvature="0"
     style="fill:#000000;fill-rule:evenodd;stroke:none;stroke-width:1" />
  <path
     d="m 100.96808,80.230131 c 1.8769,-0.187625 3.7647,-0.1238 5.6416,-0.311107 0.72202,-0.07216 0.72899,-1.275854 0,-1.202728 -1.8769,0.187304 -3.7647,0.12348 -5.6416,0.311106 -0.72203,0.07216 -0.729,1.275535 0,1.202729"
     id="path221"
     inkscape:connector-curvature="0"
     style="fill:#000000;fill-rule:evenodd;stroke:none;stroke-width:1" />
  <path
     d="m 100.96569,81.072869 c 1.71057,-0.212134 3.42205,-0.347072 5.14598,-0.357263 0.73219,-0.0046 0.73371,-1.162567 0,-1.157949 -1.72393,0.01019 -3.43541,0.145142 -5.14598,0.357276 -0.71792,0.08924 -0.72673,1.248102 0,1.157936"
     id="path223"
     inkscape:connector-curvature="0"
     style="fill:#000000;fill-rule:evenodd;stroke:none;stroke-width:1" />
  <path
     d="m 123.78866,65.031204 h 3.33424 c 0.73115,0 0.73236,-1.013473 0,-1.013473 h -3.33424 c -0.73114,0 -0.73235,1.013473 0,1.013473"
     id="path225"
     inkscape:connector-curvature="0"
     style="fill:#000000;fill-rule:evenodd;stroke:none;stroke-width:1" />
  <path
     d="m 123.8143,65.030505 c 1.20396,-0.05304 2.40761,-0.106086 3.61125,-0.15881 0.76387,-0.03367 0.768,-1.22506 0,-1.191073 -1.20364,0.05272 -2.40729,0.105766 -3.61125,0.158808 -0.76387,0.03367 -0.768,1.224741 0,1.191075"
     id="path227"
     inkscape:connector-curvature="0"
     style="fill:#000000;fill-rule:evenodd;stroke:none;stroke-width:1" />
  <path
     d="m 121.10599,78.713096 c 0.65603,0 0.65712,-1.013473 0,-1.013473 -0.65603,0 -0.65712,1.013473 0,1.013473"
     id="path229"
     inkscape:connector-curvature="0"
     style="fill:#000000;fill-rule:evenodd;stroke:none;stroke-width:1" />
  <path
     d="m 121.10599,78.713096 c 0.65603,0 0.65712,-1.013473 0,-1.013473 -0.65603,0 -0.65712,1.013473 0,1.013473"
     id="path231"
     inkscape:connector-curvature="0"
     style="fill:#000000;fill-rule:evenodd;stroke:none;stroke-width:1" />
  <path
     d="m 121.10599,81.077865 c 0.65603,0 0.65712,-1.013473 0,-1.013473 -0.65603,0 -0.65712,1.013473 0,1.013473"
     id="path233"
     inkscape:connector-curvature="0"
     style="fill:#000000;fill-rule:evenodd;stroke:none;stroke-width:1" />
  <path
     d="m 121.10599,81.077865 c 0.65603,0 0.65712,-1.013473 0,-1.013473 -0.65603,0 -0.65712,1.013473 0,1.013473"
     id="path235"
     inkscape:connector-curvature="0"
     style="fill:#000000;fill-rule:evenodd;stroke:none;stroke-width:1" />
  <use
     id="Oval-Copy"
     xlink:href="#path-1"
     style="fill:#7d6efa;fill-rule:evenodd;stroke:none;stroke-width:5.08490562;fill-opacity:1"
     x="0"
     y="0"
     width="100%"
     height="100%"
     transform="matrix(0.19666048,0,0,0.19666048,11.000001,11.000001)" />
  <g
     id="g1482"
     transform="translate(-129.09802,-38.223968)">
    <path
       style="stroke-width:1"
       inkscape:connector-curvature="0"
       id="path4"
       d="m 165.18978,99.328521 0.34064,-0.07097 -1.47611,-1.09289 v 1.433531 l 0.46838,-0.113547 v 0.865795 l -2.00126,0.46838 v -0.865794 l 0.58192,-0.141934 v -3.633503 l -0.58192,0.141934 V 95.45373 l 2.00126,-0.468382 v 0.865796 l -0.46838,0.113547 v 1.759978 l 1.53288,-2.114812 -0.38322,0.08516 v -0.865796 l 2.19998,-0.510961 v 0.865796 l -0.66709,0.156127 -1.7174,2.3561 1.7032,1.277403 0.66709,-0.156127 v 0.865796 l -2.19997,0.510965 z" />
    <path
       style="stroke-width:1"
       inkscape:connector-curvature="0"
       id="path6"
       d="m 172.22969,94.673094 v -0.596121 l -1.73159,0.397414 v 1.504498 l 1.2916,-0.298061 v 0.837409 l -1.2916,0.298061 v 1.277403 l 1.73159,-0.397414 v -0.596122 l 0.80902,-0.184514 v 1.461918 l -4.07349,0.936762 v -0.851602 l 0.58193,-0.141934 v -3.633503 l -0.58193,0.141933 v -0.865795 l 4.07349,-0.936763 v 1.461917 z" />
    <path
       style="stroke-width:1"
       inkscape:connector-curvature="0"
       id="path8"
       d="m 178.40381,91.777646 2.12901,-0.496768 v 0.865796 l -0.58193,0.141934 v 4.499299 l -0.70967,0.17032 -2.90964,-2.852868 v 2.654161 l 0.58193,-0.141934 v 0.865796 l -2.12901,0.496768 v -0.865796 l 0.58193,-0.141933 v -3.61931 l -0.58193,0.141933 v -0.865795 l 1.14966,-0.269675 3.06577,2.881255 v -2.710934 l -0.58193,0.141934 v -0.894183 z" />
    <path
       style="stroke-width:1"
       inkscape:connector-curvature="0"
       id="path10"
       d="m 182.20763,90.897657 2.61158,-0.610315 c 0.41161,-0.09935 0.80903,-0.113547 1.14967,-0.07097 0.35483,0.05677 0.65289,0.170321 0.90837,0.340641 0.25548,0.184514 0.45419,0.411608 0.59613,0.709669 0.14193,0.298061 0.2129,0.638702 0.2129,1.021923 0,0.383221 -0.071,0.752248 -0.2129,1.121276 -0.14194,0.354834 -0.34065,0.695475 -0.61032,0.993536 -0.25548,0.298061 -0.56773,0.553542 -0.90838,0.780636 -0.35483,0.2129 -0.72386,0.369027 -1.14966,0.468381 l -2.61158,0.610315 v -0.865796 l 0.58193,-0.141933 v -3.633504 l -0.58193,0.141934 v -0.865796 z m 1.53289,0.525155 v 3.633503 l 1.07869,-0.25548 c 0.25549,-0.05677 0.49677,-0.156127 0.72387,-0.298061 0.22709,-0.141934 0.4258,-0.312254 0.59612,-0.510962 0.17032,-0.198707 0.29806,-0.425801 0.39741,-0.667088 0.0994,-0.241287 0.14194,-0.496768 0.14194,-0.752249 0,-0.269674 -0.0426,-0.496768 -0.14194,-0.695475 -0.0852,-0.198707 -0.2129,-0.369028 -0.38322,-0.482575 -0.17032,-0.12774 -0.35483,-0.2129 -0.58193,-0.241287 -0.22709,-0.04258 -0.48257,-0.02839 -0.75225,0.02839 z" />
    <path
       style="stroke-width:1"
       inkscape:connector-curvature="0"
       id="path12"
       d="m 189.23335,89.279613 2.12901,-0.496769 v 0.865796 l -0.58193,0.141934 v 3.633503 l 0.58193,-0.141933 v 0.865795 l -2.12901,0.496769 v -0.865796 l 0.58193,-0.141934 v -3.633503 l -0.58193,0.141933 z" />
    <path
       style="stroke-width:1"
       inkscape:connector-curvature="0"
       id="path14"
       d="m 196.74165,87.548021 2.129,-0.496768 v 0.865796 l -0.58192,0.141933 v 4.4993 l -0.70967,0.17032 -2.90964,-2.852868 v 2.654161 l 0.58192,-0.141934 v 0.865796 l -2.129,0.496768 v -0.865796 l 0.58193,-0.141933 v -3.633504 l -0.58193,0.141934 V 88.38543 l 1.14966,-0.269674 3.06577,2.881255 v -2.710935 l -0.58193,0.141934 v -0.879989 z" />
    <path
       style="stroke-width:1"
       inkscape:connector-curvature="0"
       id="path16"
       d="m 203.75317,85.929977 2.12901,-0.496769 v 0.865796 l -0.58193,0.141934 v 3.633503 l 0.58193,-0.141933 v 0.865795 l -2.12901,0.496769 v -0.865796 l 0.58193,-0.141934 v -3.633503 l -0.58193,0.141933 z" />
    <path
       style="stroke-width:1"
       inkscape:connector-curvature="0"
       id="path18"
       d="m 209.85632,90.528629 0.2129,-0.624508 c -0.38322,0.05677 -0.73805,0.04258 -1.0645,-0.02839 -0.32645,-0.07097 -0.59612,-0.198707 -0.83741,-0.383221 -0.24128,-0.184514 -0.4116,-0.425801 -0.53935,-0.723862 -0.12774,-0.298061 -0.1987,-0.624508 -0.1987,-1.007729 0,-0.383221 0.071,-0.766443 0.2129,-1.13547 0.14193,-0.369028 0.32645,-0.709669 0.56773,-1.00773 0.24129,-0.298061 0.51096,-0.567735 0.83741,-0.780635 0.31226,-0.212901 0.6529,-0.369028 1.00773,-0.454188 0.32645,-0.07097 0.59612,-0.113547 0.79483,-0.09935 0.19871,0.01419 0.35483,0.04258 0.46838,0.08516 0.11355,0.04258 0.18452,0.09935 0.2271,0.170321 0.0426,0.05677 0.071,0.09935 0.071,0.12774 l -0.0568,-0.539348 0.8516,-0.198707 0.0142,1.816752 -0.8516,0.198707 c -0.0142,-0.156127 -0.0568,-0.283868 -0.12774,-0.397415 -0.071,-0.113547 -0.17032,-0.184513 -0.29806,-0.25548 -0.12774,-0.05677 -0.26967,-0.09935 -0.4258,-0.09935 -0.15613,-0.01419 -0.32645,0 -0.51096,0.04258 -0.26968,0.05677 -0.52516,0.170321 -0.73806,0.312254 -0.2129,0.141934 -0.39741,0.312255 -0.55354,0.525155 -0.15613,0.212901 -0.26967,0.425801 -0.34064,0.681282 -0.0852,0.255481 -0.12774,0.510962 -0.12774,0.794829 0,0.269674 0.0568,0.510961 0.15613,0.709669 0.0993,0.198707 0.24128,0.369027 0.41161,0.496768 0.17032,0.12774 0.36902,0.2129 0.59612,0.25548 0.22709,0.04258 0.45418,0.04258 0.69547,-0.01419 0.26968,-0.07097 0.51096,-0.141934 0.72386,-0.227094 0.19871,-0.08516 0.36903,-0.17032 0.51097,-0.241287 0.15612,-0.09935 0.29806,-0.184514 0.4116,-0.283868 l 0.28387,0.738056 c -0.11355,0.09935 -0.25548,0.198707 -0.41161,0.298061 -0.12774,0.08516 -0.29806,0.17032 -0.48257,0.269674 -0.18452,0.08516 -0.41161,0.17032 -0.6529,0.241287 l -0.11354,0.298061 c 0.0852,-0.01419 0.18451,-0.01419 0.28386,-0.01419 0.0994,0 0.17032,0.02839 0.24129,0.07097 0.071,0.04258 0.12774,0.09935 0.17032,0.170321 0.0426,0.08516 0.071,0.184514 0.071,0.298061 0,0.25548 -0.0852,0.468381 -0.25548,0.667088 -0.17032,0.198707 -0.41161,0.326448 -0.73806,0.397415 -0.12774,0.02839 -0.25548,0.04258 -0.35483,0.04258 -0.11355,0 -0.19871,-0.01419 -0.26968,-0.02839 -0.0852,-0.01419 -0.17032,-0.04258 -0.24128,-0.08516 l 0.22709,-0.496768 c 0.0426,0.02839 0.0993,0.04258 0.15613,0.05677 0.0568,0.01419 0.12774,0.01419 0.1987,0.01419 0.071,0 0.17033,-0.01419 0.26968,-0.04258 0.12774,-0.02839 0.22709,-0.07097 0.28387,-0.12774 0.0568,-0.05677 0.0852,-0.141934 0.0852,-0.241287 0,-0.07097 -0.0568,-0.127741 -0.15613,-0.170321 -0.11355,-0.02839 -0.31225,-0.01419 -0.61032,0.04258 z" />
    <path
       style="stroke-width:1"
       inkscape:connector-curvature="0"
       id="path20"
       d="m 214.05756,83.54549 2.12901,-0.496768 v 0.865796 l -0.58193,0.141933 v 3.633504 l 0.58193,-0.141934 v 0.865796 l -2.12901,0.496768 v -0.865796 l 0.58193,-0.141934 v -3.633503 l -0.58193,0.141934 z" />
    <path
       style="stroke-width:1"
       inkscape:connector-curvature="0"
       id="path22"
       d="m 221.56586,81.813898 2.129,-0.496768 v 0.865796 l -0.58193,0.141934 v 4.499299 l -0.70966,0.17032 -2.90965,-2.852867 v 2.65416 l 0.58193,-0.141933 v 0.865795 l -2.129,0.496768 v -0.865795 l 0.58193,-0.141934 v -3.633504 l -0.58193,0.141934 v -0.865796 l 1.14966,-0.269674 3.06577,2.881255 v -2.710934 l -0.58193,0.141933 v -0.879989 z" />
    <path
       style="stroke-width:1"
       inkscape:connector-curvature="0"
       id="path26"
       d="m 190.97914,87.775115 c 0,0.156127 -0.0568,0.312254 -0.17032,0.439995 -0.11355,0.12774 -0.24129,0.227094 -0.41161,0.25548 -0.15613,0.04258 -0.29806,0.01419 -0.41161,-0.07097 -0.11354,-0.08516 -0.17032,-0.2129 -0.17032,-0.369027 0,-0.156127 0.0568,-0.312254 0.17032,-0.439995 0.11355,-0.141934 0.24129,-0.227094 0.41161,-0.255481 0.15613,-0.04258 0.29806,-0.01419 0.41161,0.07097 0.12774,0.08516 0.17032,0.212901 0.17032,0.369028 z" />
    <path
       style="stroke-width:1"
       inkscape:connector-curvature="0"
       id="path30"
       d="m 205.39961,84.382899 c 0,0.156127 -0.0568,0.312254 -0.17033,0.439994 -0.11354,0.127741 -0.24128,0.227094 -0.4116,0.255481 -0.15613,0.04258 -0.29806,0.01419 -0.41161,-0.07097 -0.11355,-0.08516 -0.17032,-0.2129 -0.17032,-0.369027 0,-0.156128 0.0568,-0.312255 0.17032,-0.439995 0.11355,-0.141934 0.24129,-0.227094 0.41161,-0.255481 0.15612,-0.04258 0.29806,-0.01419 0.4116,0.07097 0.11355,0.08516 0.17033,0.212901 0.17033,0.369028 z" />
    <path
       style="stroke-width:1"
       inkscape:connector-curvature="0"
       id="path34"
       d="m 215.4769,81.785512 c 0,0.156127 -0.0568,0.312254 -0.17032,0.439994 -0.11355,0.127741 -0.24129,0.227094 -0.41161,0.255481 -0.15613,0.04258 -0.29806,0.01419 -0.41161,-0.07097 -0.11354,-0.08516 -0.17032,-0.212901 -0.17032,-0.369028 0,-0.156127 0.0568,-0.312254 0.17032,-0.439994 0.11355,-0.141934 0.24129,-0.227094 0.41161,-0.255481 0.15613,-0.04258 0.29806,-0.01419 0.41161,0.07097 0.11355,0.08516 0.17032,0.212901 0.17032,0.369028 z" />
    <path
       d="M 228.40706,77.243632 V 88.598331 L 159.04405,104.60846 V 93.253757 l 69.36301,-16.010125 m 0.90838,-1.121276 -71.16557,16.421732 v 13.199842 l 71.16557,-16.435931 z"
       id="path38"
       inkscape:connector-curvature="0"
       style="stroke-width:1" />
    <path
       class="st0"
       d="M 219.63556,94.076973"
       id="path40"
       inkscape:connector-curvature="0"
       style="fill:none;stroke:#000000;stroke-width:1" />
    <path
       d="m 217.32204,108.98001 1.33418,-1.97287 0.87998,-2.78191 6.84121,-1.57546 -4.35736,5.25155 z m 3.00899,-3.88898 -0.73805,2.32771 1.87352,-0.4258 2.21417,-2.66835 z"
       id="path44"
       inkscape:connector-curvature="0"
       style="stroke-width:1" />
    <path
       d="m 211.24727,112.69868 5.52123,-15.783033 c 0.0994,-0.269674 0.38322,-0.411608 0.6387,-0.312254 0.26967,0.09935 0.39741,0.383221 0.31225,0.638702 l -4.9109,14.051435 2.90964,-0.66708 c 0.26967,-0.0568 0.53935,0.0994 0.61031,0.38322 0.0568,0.26967 -0.11354,0.53934 -0.38322,0.61031 z m 10.98568,-2.54062 -0.97935,-2.61158 c -0.0994,-0.25548 0.0426,-0.55354 0.29806,-0.65289 0.26968,-0.0994 0.55355,0.0284 0.6529,0.29806 l 0.66709,1.77417 3.36383,-0.78063 c 0.26967,-0.0568 0.53934,0.11354 0.61031,0.38322 0.0568,0.26967 -0.11355,0.53934 -0.38322,0.61031 z"
       id="path48"
       inkscape:connector-curvature="0"
       style="stroke-width:1" />
    <path
       d="m 217.25107,97.582736 c -0.11355,0 -0.22709,-0.04258 -0.32645,-0.113547 -0.2129,-0.184514 -0.24128,-0.496768 -0.0568,-0.709669 l 3.29286,-3.888984 c 0.18452,-0.212901 0.49677,-0.241287 0.70967,-0.05677 0.2129,0.184514 0.24129,0.496768 0.0568,0.709669 l -3.29287,3.888984 c -0.0993,0.113547 -0.24128,0.170321 -0.38322,0.170321 z"
       id="path52"
       inkscape:connector-curvature="0"
       style="stroke-width:1" />
    <line
       style="fill:none;stroke:#000000;stroke-width:1.5"
       id="line56"
       y2="108.10002"
       x2="215.30658"
       y1="112.0032"
       x1="212.02791"
       class="st1" />
    <path
       d="m 215.83173,111.63418 c -0.11354,0 -0.24128,-0.0426 -0.34064,-0.12775 -0.2129,-0.18451 -0.22709,-0.51096 -0.0426,-0.70966 l 3.25029,-3.70447 c 0.18451,-0.2129 0.51096,-0.2271 0.70966,-0.0426 0.2129,0.18451 0.2271,0.51096 0.0426,0.70966 l -3.25028,3.70447 c -0.0994,0.11355 -0.22709,0.17033 -0.36903,0.17033 z"
       id="path58"
       inkscape:connector-curvature="0"
       style="stroke-width:1" />
    <path
       style="fill:none;stroke:#000000;stroke-width:1"
       inkscape:connector-curvature="0"
       id="path62"
       d="M 225.83806,105.67296"
       class="st0" />
    <path
       style="fill:none;stroke:#000000;stroke-width:1"
       inkscape:connector-curvature="0"
       id="path64"
       d="M 225.83806,105.67296"
       class="st0" />
    <path
       d="m 222.55939,110.0729 c -0.17032,0 -0.34064,-0.0852 -0.4258,-0.24128 -0.11354,-0.18452 -0.0993,-0.4258 0.0426,-0.59613 l 3.29286,-3.88898 c 0.18452,-0.2129 0.49677,-0.24129 0.70967,-0.0568 0.2129,0.18451 0.24129,0.49677 0.0568,0.70967 l -2.29933,2.73932 2.17159,-0.49677 3.27867,-3.51996 c 0.18451,-0.1987 0.51096,-0.2129 0.70966,-0.0284 0.19871,0.18451 0.2129,0.51096 0.0284,0.70966 l -3.37802,3.63351 c -0.071,0.071 -0.15613,0.12774 -0.25548,0.14193 l -3.80383,0.87999 c -0.0568,0.0142 -0.0993,0.0142 -0.12774,0.0142 z"
       id="path66"
       inkscape:connector-curvature="0"
       style="stroke-width:1" />
    <path
       style="fill:#ffffff;fill-opacity:1;stroke:#000000;stroke-width:1;stroke-opacity:1"
       inkscape:connector-curvature="0"
       id="path70"
       d="m 224.6884,91.763453 -4.4993,1.036116 -5.578,15.924961 4.83994,-1.12127 0.82322,-2.569 4.45672,-1.03612 0.82321,2.19997 4.69801,-1.07869 z m -1.20644,8.899247 -1.9303,0.43999 0.96515,-2.980606 z" />
    <path
       d="m 186.65016,118.70247 -0.19871,-0.87998 6.61411,-1.53289 c 0.87999,-0.19871 1.7316,-0.58193 2.49804,-1.10708 0.78063,-0.53935 1.46192,-1.17805 2.04384,-1.91611 0.0142,-0.0142 1.36257,-1.81675 2.83868,-4.66962 l 0.79483,0.41161 c -1.5045,2.93803 -2.86706,4.74059 -2.92384,4.81155 -0.6387,0.80903 -1.39095,1.5187 -2.24255,2.10062 -0.8658,0.59613 -1.80256,1.00773 -2.7961,1.24902 z"
       id="path74"
       inkscape:connector-curvature="0"
       style="stroke-width:1" />
    <polygon
       transform="matrix(0.14193373,0,0,0.14193373,120.04066,47.934317)"
       points="465.5,499.5 465.5,397.7 489.4,369.4 494.2,373.4 471.8,400 471.8,491.5 491.1,487.1 492.5,493.2 "
       id="polygon78"
       style="stroke-width:7.04554176" />
    <rect
       x="29.867002"
       y="218.39743"
       transform="rotate(-49.855494)"
       width="5.0952821"
       height="0.89415812"
       id="rect82"
       style="stroke-width:0.99997276" />
    <path
       style="fill:none;stroke:#000000;stroke-width:0.5;stroke-miterlimit:10"
       inkscape:connector-curvature="0"
       id="path90"
       d="M 157.93697,128.32558"
       class="st2" />
    <polygon
       transform="matrix(0.14193373,0,0,0.14193373,120.04066,47.934317)"
       points="271.7,418 275.7,423.1 254.5,449.4 254.5,541 274.7,536.3 297.2,509.7 302,513.7 278.1,542 248.1,548.9 248.1,447.2 "
       id="polygon92"
       style="stroke-width:7.04554176" />
    <rect
       x="4.620347"
       y="199.35185"
       transform="rotate(-49.855494)"
       width="5.0952821"
       height="0.89415812"
       id="rect96"
       style="stroke-width:0.99997276" />
    <polygon
       transform="matrix(0.14193373,0,0,0.14193373,120.04066,47.934317)"
       points="313.7,533.5 280.4,497.6 285.3,493.7 316.2,526.5 348.4,518.7 364.3,497.2 371.1,498.4 351.9,524.4 "
       id="polygon100"
       style="stroke-width:7.04554176" />
    <rect
       x="-3.8038414"
       y="205.21793"
       transform="rotate(-54.323115)"
       width="4.3714571"
       height="0.89416176"
       id="rect104"
       style="stroke-width:0.99997681" />
    <path
       style="stroke-width:1"
       inkscape:connector-curvature="0"
       id="path112"
       d="m 159.31372,104.89232 -4.03091,4.81156 V 96.120818 l 2.88125,-3.562536 c 0,0 0.6387,0.01419 1.09289,0.07097 l -3.02319,3.732857 -0.0426,10.687611 2.41287,-2.69675 z" />
    <polygon
       transform="matrix(0.14193373,0,0,0.14193373,120.04066,47.934317)"
       points="569.4,473 569.4,370.4 575.7,370.4 575.7,465.1 626,453.5 648.5,426.8 653.3,430.9 629.5,459.2 "
       id="polygon116"
       style="stroke-width:7.04554176" />
    <rect
       x="52.691406"
       y="218.30708"
       transform="rotate(-49.855494)"
       width="5.0952821"
       height="0.89415812"
       id="rect122"
       style="stroke-width:0.99997276" />
    <rect
       x="42.240299"
       y="227.25455"
       transform="rotate(-49.855494)"
       width="5.0952821"
       height="0.89415812"
       id="rect126"
       style="stroke-width:0.99997276" />
    <polygon
       transform="matrix(0.14193373,0,0,0.14193373,120.04066,47.934317)"
       style="fill:#ffffff;fill-opacity:1;stroke:#000000;stroke-width:7.04554176;stroke-opacity:1"
       id="polygon120"
       points="654.1,403.6 623.9,410.6 623.9,335.2 592.5,342.5 592.5,445.6 654.1,431.4 " />
    <path
       style="fill:#ffffff;fill-opacity:1;stroke:#000000;stroke-width:1;stroke-opacity:1"
       inkscape:connector-curvature="0"
       id="path86"
       d="m 200.16225,100.03819 c -0.66709,-0.525156 -1.44772,-0.894183 -2.32771,-1.09289 -0.87999,-0.198708 -1.83095,-0.184514 -2.82448,0.04258 l -5.62058,1.2916 v 14.64756 l 5.81928,-1.34837 c 0.99354,-0.2271 1.9445,-0.6529 2.7961,-1.24902 0.8516,-0.58193 1.60385,-1.2916 2.24255,-2.10062 0.6387,-0.80902 1.14966,-1.68901 1.5045,-2.63997 0.36903,-0.95095 0.55354,-1.9303 0.55354,-2.86706 0,-0.96515 -0.19871,-1.87352 -0.56774,-2.68255 -0.36902,-0.79482 -0.90837,-1.47611 -1.57546,-2.00126 z m -6.31605,9.92117 v -6.75605 l 0.46838,-0.11355 c 0.53935,-0.12774 1.03612,-0.15612 1.46192,-0.0852 0.41161,0.071 0.75225,0.2129 1.02192,0.42581 0.26968,0.2129 0.48258,0.49676 0.6387,0.86579 0.15613,0.36903 0.24129,0.80902 0.24129,1.2916 0,0.51096 -0.0852,0.99353 -0.24129,1.44772 -0.15612,0.45419 -0.39741,0.87999 -0.69547,1.24902 -0.29806,0.38322 -0.68128,0.70967 -1.12128,0.97934 -0.43999,0.28387 -0.95095,0.48258 -1.51869,0.61032 z" />
    <path
       style="stroke-width:1"
       inkscape:connector-curvature="0"
       id="path132"
       d="m 171.50583,119.7244 c 0.36903,0.26967 0.78064,0.49677 1.23482,0.65289 0.29806,0.0994 0.62451,0.18452 0.95096,0.24129 0.8658,0.14193 1.83095,0.0994 2.89545,-0.14193 1.05031,-0.24129 2.02965,-0.6529 2.92383,-1.20644 0.89419,-0.55354 1.66063,-1.23482 2.29933,-2.00127 l 4.38575,-5.45025 0.69548,0.56773 -4.38576,5.46445 c -0.70966,0.8516 -1.54707,1.58966 -2.52642,2.19998 -0.96515,0.61031 -2.04384,1.0503 -3.1935,1.31998 -0.72387,0.17032 -1.41934,0.25548 -2.08643,0.25548 -0.39742,0 -0.78064,-0.0284 -1.16386,-0.0994 -0.38322,-0.071 -0.76644,-0.15613 -1.10708,-0.28387 -0.53935,-0.19871 -1.03612,-0.45419 -1.47611,-0.78064" />
    <rect
       style="stroke-width:0.99997276"
       id="rect136"
       height="0.89415812"
       width="5.0952821"
       transform="rotate(-49.855494)"
       y="210.32976"
       x="19.394459" />
    <path
       d="m 169.26328,118.33345 c -0.39742,-0.85161 -0.61032,-1.83095 -0.61032,-2.90964 0,-1.06451 0.19871,-2.12901 0.59612,-3.13674 0.39742,-1.00773 0.93677,-1.94449 1.63224,-2.7819 l 4.39995,-5.03865 0.68128,0.59612 -4.39995,5.03865 c -0.6245,0.75225 -1.12127,1.61805 -1.4903,2.52642 -0.35483,0.90838 -0.53935,1.85933 -0.53935,2.81029 0,0.95095 0.17032,1.80256 0.52516,2.52642"
       id="path144"
       inkscape:connector-curvature="0"
       style="stroke-width:1" />
    <polygon
       transform="matrix(0.14193373,0,0,0.14193373,120.04066,47.934317)"
       style="fill:#ffffff;fill-opacity:1;stroke:#000000;stroke-width:7.04554176;stroke-opacity:1"
       id="polygon108"
       points="302.7,514.2 302.7,477.7 331.2,507.6 371.1,498.4 327,455 368.5,395.9 328.3,405.2 302.7,444.3 302.7,411.1 271.3,418.3 271.3,521.5 " />
    <path
       d="m 185.7134,103.0188 c -0.72387,-0.53935 -1.60385,-0.89418 -2.61158,-1.06451 -0.99354,-0.15612 -2.07224,-0.11354 -3.23609,0.15613 -1.16386,0.26968 -2.24256,0.70967 -3.20771,1.31999 -0.96514,0.61031 -1.80255,1.34837 -2.49803,2.18577 -0.69547,0.83741 -1.24902,1.77418 -1.63224,2.78191 -0.39741,1.00773 -0.59612,2.07223 -0.59612,3.13673 0,1.0787 0.19871,2.05804 0.61032,2.90964 0.4116,0.85161 0.97934,1.56127 1.7032,2.10062 0.72386,0.53935 1.58966,0.90838 2.5832,1.06451 0.36902,0.0568 0.75224,0.0994 1.16385,0.0994 0.6529,0 1.34837,-0.0852 2.08643,-0.25548 1.14966,-0.26968 2.22836,-0.70967 3.19351,-1.31999 0.96515,-0.61031 1.81675,-1.34837 2.51222,-2.18578 0.69548,-0.8374 1.24902,-1.77417 1.64644,-2.7819 0.39741,-1.00773 0.59612,-2.07223 0.59612,-3.13673 0,-1.0787 -0.19871,-2.05804 -0.61032,-2.90964 -0.39741,-0.85161 -0.97934,-1.56127 -1.7032,-2.10062 z m -2.29933,5.87605 c 0,0.48258 -0.0994,0.96515 -0.26967,1.41934 -0.18452,0.46838 -0.45419,0.89418 -0.76645,1.2774 -0.32644,0.38323 -0.70966,0.72387 -1.13547,0.99354 -0.4258,0.26968 -0.87998,0.45419 -1.34837,0.56774 -0.45418,0.11354 -0.89418,0.12774 -1.30579,0.0568 -0.39741,-0.071 -0.73805,-0.2129 -1.03611,-0.4258 -0.29806,-0.2129 -0.52516,-0.49677 -0.69548,-0.8516 -0.17032,-0.35484 -0.25548,-0.76645 -0.25548,-1.23483 0,-0.48257 0.0994,-0.96515 0.26968,-1.41933 0.18451,-0.46839 0.43999,-0.89419 0.76644,-1.27741 0.32645,-0.38322 0.69547,-0.70967 1.12127,-0.97934 0.42581,-0.26968 0.87999,-0.45419 1.34837,-0.56774 0.28387,-0.071 0.55355,-0.0994 0.80903,-0.0994 0.17032,0 0.34064,0.0142 0.49676,0.0426 0.39742,0.071 0.75225,0.2129 1.05031,0.4258 0.29807,0.2129 0.53935,0.49677 0.70967,0.83741 0.14194,0.34064 0.24129,0.75225 0.24129,1.23482 z"
       id="path140"
       inkscape:connector-curvature="0"
       style="fill:#ffffff;fill-opacity:1;stroke:#000000;stroke-width:1;stroke-opacity:1" />
  </g>
</svg>
