<?xml version="1.0" encoding="UTF-8" standalone="no"?>
<svg
   xmlns:dc="http://purl.org/dc/elements/1.1/"
   xmlns:cc="http://creativecommons.org/ns#"
   xmlns:rdf="http://www.w3.org/1999/02/22-rdf-syntax-ns#"
   xmlns:svg="http://www.w3.org/2000/svg"
   xmlns="http://www.w3.org/2000/svg"
   xmlns:xlink="http://www.w3.org/1999/xlink"
   xmlns:sodipodi="http://sodipodi.sourceforge.net/DTD/sodipodi-0.dtd"
   xmlns:inkscape="http://www.inkscape.org/namespaces/inkscape"
   width="540"
   height="540"
   viewBox="0 0 540 540"
   version="1.1"
   id="svg255"
   sodipodi:docname="rozet.svg"
   inkscape:version="0.92.3 (2405546, 2018-03-11)">
  <metadata
     id="metadata259">
    <rdf:RDF>
      <cc:Work
         rdf:about="">
        <dc:format>image/svg+xml</dc:format>
        <dc:type
           rdf:resource="http://purl.org/dc/dcmitype/StillImage" />
        <dc:title>yesil_Veri_A_Atolye1</dc:title>
      </cc:Work>
    </rdf:RDF>
  </metadata>
  <sodipodi:namedview
     pagecolor="#ffffff"
     bordercolor="#666666"
     borderopacity="1"
     objecttolerance="10"
     gridtolerance="10"
     guidetolerance="10"
     inkscape:pageopacity="0"
     inkscape:pageshadow="2"
     inkscape:window-width="1366"
     inkscape:window-height="711"
     id="namedview257"
     showgrid="false"
     inkscape:zoom="0.94259259"
     inkscape:cx="270"
     inkscape:cy="270"
     inkscape:window-x="0"
     inkscape:window-y="0"
     inkscape:window-maximized="1"
     inkscape:current-layer="svg255" />
  <!-- Generator: Sketch 56.3 (81716) - https://sketch.com -->
  <title
     id="title2">yesil_Veri_A_Atolye1</title>
  <desc
     id="desc4">Created with Sketch.</desc>
  <defs
     id="defs7">
    <circle
       id="path-1"
       cx="269.5"
       cy="269.5"
       r="269.5" />
    <mask
       id="mask-2"
       fill="white">
      <use
         xlink:href="#path-1"
         id="use238"
         x="0"
         y="0"
         width="100%"
         height="100%" />
    </mask>
  </defs>
  <rect
     style="fill:#ffffff;fill-rule:evenodd;stroke:none;stroke-width:1"
     id="rect9"
     height="540"
     width="524.79187"
     y="-4.1200001e-05"
     x="0" />
  <path
     d="m 136.21116,7.4252117 c -1.05947,3.6854573 -2.53912,7.0896933 -4.40258,10.3033263 -1.54665,2.665786 2.14167,5.170289 3.67582,2.52315 2.06673,-3.561511 3.65993,-7.416225 4.83298,-11.49757 0.87779,-3.0550078 -3.2341,-4.3665749 -4.10622,-1.3289063"
     id="Fill-1"
     inkscape:connector-curvature="0"
     style="fill:#000000;fill-rule:evenodd;stroke:none;stroke-width:1" />
  <path
     d="m 147.55375,8.0996211 c 0.004,3.5282669 -1.2508,6.6208219 -3.63564,9.0604409 -2.16748,2.218387 1.12907,5.726826 3.29281,3.512362 3.23818,-3.312394 5.00569,-7.791609 5.00074,-12.5728029 -0.003,-3.1958296 -4.6604,-3.2011452 -4.65791,0"
     id="Fill-3"
     inkscape:connector-curvature="0"
     style="fill:#000000;fill-rule:evenodd;stroke:none;stroke-width:1" />
  <path
     d="m 29.88071,15.677129 h 14.066324 c 3.084518,0 3.089631,-4.988208 0,-4.988208 H 29.88071 c -3.084518,0 -3.089632,4.988208 0,4.988208"
     id="Fill-17"
     inkscape:connector-curvature="0"
     style="fill:#000000;fill-rule:evenodd;stroke:none;stroke-width:1" />
  <path
     d="m 29.905319,15.674555 c 4.904058,-0.19575 9.806822,-0.3915 14.709585,-0.586237 3.111472,-0.124453 3.128296,-4.522205 0,-4.396739 -4.902763,0.194484 -9.805527,0.390234 -14.709585,0.586237 -3.111469,0.124453 -3.128295,4.521024 0,4.396739"
     id="Fill-20"
     inkscape:connector-curvature="0"
     style="fill:#000000;fill-rule:evenodd;stroke:none;stroke-width:1" />
  <path
     d="m 266.81837,4.7137368 c 1.91618,1.453064 3.83234,2.9073937 5.74983,4.3617233 1.01102,0.766336 4.66867,2.6815219 4.97039,3.8917549 0.57829,-1.003936 1.15526,-2.007914 1.73355,-3.0118502 1.05733,-0.2687344 -0.93294,0.3526872 -1.2995,0.6305762 -0.91574,0.69061 -1.59858,2.190671 -2.24965,3.101921 -2.17024,3.041845 -4.34049,6.082382 -6.51073,9.124228 -1.84207,2.582296 2.45873,5.030142 4.2849,2.471301 2.79089,-3.911287 5.58177,-7.821309 8.37265,-11.731331 -0.71591,0.403313 -1.42918,0.808102 -2.14377,1.211541 0.27658,0.02109 0.59813,-0.02109 0.86545,-0.08733 1.322,-0.335391 2.04982,-1.741543 1.73223,-3.0105 -0.55315,-2.2089379 -2.29464,-3.058805 -4.05731,-4.3956847 -2.98143,-2.2598156 -5.96155,-4.5222889 -8.94299,-6.78341232 -2.53152,-1.91910938 -5.0048,2.33031092 -2.50505,4.22722962"
     id="Fill-82"
     inkscape:connector-curvature="0"
     style="fill:#000000;fill-rule:evenodd;stroke:none;stroke-width:1" />
  <path
     d="m 398.66078,7.4252117 c -1.05949,3.6854573 -2.53913,7.0896933 -4.4026,10.3033263 -1.54664,2.665786 2.14168,5.170289 3.67583,2.52315 2.06674,-3.561511 3.65994,-7.416225 4.83297,-11.49757 0.8778,-3.0550078 -3.23408,-4.3665749 -4.1062,-1.3289063"
     id="Fill-146"
     inkscape:connector-curvature="0"
     style="fill:#000000;fill-rule:evenodd;stroke:none;stroke-width:1" />
  <path
     d="m 410.69583,8.0996211 c 0.004,3.5282669 -1.2508,6.6208219 -3.63564,9.0604409 -2.16748,2.218387 1.12907,5.726826 3.29406,3.512362 3.23693,-3.312394 5.00445,-7.791609 4.9995,-12.5728029 -0.003,-3.1958296 -4.6604,-3.2011452 -4.65792,0"
     id="Fill-148"
     inkscape:connector-curvature="0"
     style="fill:#000000;fill-rule:evenodd;stroke:none;stroke-width:1" />
  <path
     d="m 522.34317,4.7137368 c 1.9162,1.453064 3.83235,2.9073937 5.74986,4.3617233 1.01102,0.766336 4.66864,2.6815219 4.97036,3.8917549 0.57831,-1.003936 1.15526,-2.007914 1.73357,-3.0118502 1.05865,-0.2687344 -0.93293,0.3526872 -1.2995,0.6305762 -0.91572,0.69061 -1.59857,2.190671 -2.24965,3.101921 -2.17025,3.041845 -4.3405,6.082382 -6.51075,9.124228 -1.84204,2.582296 2.45873,5.030142 4.28494,2.471301 2.79087,-3.911287 5.58174,-7.821309 8.37266,-11.731331 -0.71593,0.403313 -1.42919,0.808102 -2.1438,1.211541 0.27675,0.02109 0.59813,-0.02109 0.86543,-0.08733 1.32203,-0.335391 2.04985,-1.741543 1.73226,-3.0105 -0.55316,-2.2089379 -2.29466,-3.058805 -4.05734,-4.3956847 -2.98143,-2.2598156 -5.96156,-4.5222889 -8.94299,-6.78341232 -2.5315,-1.91910938 -5.00479,2.33031092 -2.50505,4.22722962"
     id="Fill-160"
     inkscape:connector-curvature="0"
     style="fill:#000000;fill-rule:evenodd;stroke:none;stroke-width:1" />
  <path
     d="m 204.79027,69.604607 c -4.49923,3.336736 -8.77707,6.943852 -13.27496,10.280587 -1.42907,1.059329 -1.80614,3.261938 0,4.249041 5.71227,3.122761 10.6919,6.855933 14.72953,11.921428 1.98863,2.496614 5.52709,-1.009421 3.55726,-3.479836 -4.28857,-5.381817 -9.68953,-9.380137 -15.74666,-12.690633 v 4.249041 c 4.49924,-3.336736 8.77706,-6.942586 13.27496,-10.279322 2.54818,-1.888861 0.0429,-6.165492 -2.54013,-4.250306"
     id="Fill-5"
     inkscape:connector-curvature="0"
     style="fill:#000000;fill-rule:evenodd;stroke:none;stroke-width:1" />
  <path
     d="m 108.53567,137.30154 c -4.49923,3.33673 -8.777072,6.94385 -13.274968,10.28058 -1.429077,1.05929 -1.806136,3.2619 0,4.249 5.710928,3.12276 10.690568,6.85594 14.728208,11.92139 1.98996,2.49665 5.52844,-1.00942 3.55859,-3.4798 -4.28857,-5.38181 -9.68953,-9.38009 -15.746668,-12.69059 v 4.249 c 4.497898,-3.33673 8.777078,-6.94254 13.274968,-10.27928 2.54818,-1.89017 0.043,-6.16545 -2.54013,-4.2503"
     id="Fill-7"
     inkscape:connector-curvature="0"
     style="fill:#000000;fill-rule:evenodd;stroke:none;stroke-width:1" />
  <path
     d="m 2.9404637,74.675713 c 1.8363272,1.493649 3.6726546,2.985947 5.5102501,4.479595 0.9688911,0.78705 4.4741452,2.75535 4.7632912,3.996929 0.554196,-1.031063 1.107122,-2.062125 1.661318,-3.09323 1.013278,-0.276328 -0.894069,0.361969 -1.245354,0.64762 -0.877582,0.709299 -1.531964,2.24986 -2.155909,3.185747 -2.0798186,3.124069 -4.159637,6.248137 -6.2394554,9.370856 -1.765309,2.652117 2.356282,5.166112 4.106373,2.538169 2.6745954,-4.015702 5.3491914,-8.032753 8.0237864,-12.048455 -0.686086,0.414282 -1.369636,0.829955 -2.054454,1.244236 0.265051,0.02109 0.573218,-0.01687 0.82939,-0.08986 1.266915,-0.344672 1.964415,-1.788666 1.660051,-3.091922 -0.5301,-2.268633 -2.200296,-3.141492 -3.888246,-4.513134 C 11.054291,74.97997 8.1983456,72.656366 5.3411319,70.334113 2.9151,68.363113 0.54486813,72.72876 2.9404637,74.675629"
     id="Fill-9"
     inkscape:connector-curvature="0"
     style="fill:#000000;fill-rule:evenodd;stroke:none;stroke-width:1" />
  <path
     d="m 145.35113,74.635551 c -3.19177,6.792989 -6.5627,13.468654 -10.11749,20.03227 -1.47803,2.728265 2.34196,5.213995 3.81528,2.49366 3.55596,-6.562307 6.92807,-13.237973 10.11866,-20.030962 1.32126,-2.813906 -2.49165,-5.315456 -3.81645,-2.494968"
     id="Fill-11"
     inkscape:connector-curvature="0"
     style="fill:#000000;fill-rule:evenodd;stroke:none;stroke-width:1" />
  <path
     d="m 72.121938,85.511783 h 14.066325 c 3.084522,0 3.089631,-4.275618 0,-4.275618 H 72.121938 c -3.084517,0 -3.089631,4.275618 0,4.275618"
     id="Fill-13"
     inkscape:connector-curvature="0"
     style="fill:#fc7b69;fill-rule:evenodd;stroke:none;stroke-width:1" />
  <path
     d="m 76.731665,72.917591 c 0.08585,6.982158 0.67203,13.896225 1.698747,20.793291 0.462953,3.113353 4.961837,1.791028 4.500124,-1.305324 -0.962002,-6.461057 -1.45109,-12.949664 -1.531984,-19.487967 -0.03839,-3.156595 -4.705467,-3.164442 -4.666887,0"
     id="Fill-15"
     inkscape:connector-curvature="0"
     style="fill:#fc7b69;fill-rule:evenodd;stroke:none;stroke-width:1" />
  <path
     d="m 33.491418,146.26271 c 2.624231,0 2.628581,-4.25343 0,-4.25343 -2.624232,0 -2.628581,4.25343 0,4.25343"
     id="Fill-22"
     inkscape:connector-curvature="0"
     style="fill:#000000;fill-rule:evenodd;stroke:none;stroke-width:1" />
  <path
     d="m 33.491418,146.26271 c 2.624231,0 2.628581,-4.25343 0,-4.25343 -2.624232,0 -2.628581,4.25343 0,4.25343"
     id="Fill-24"
     inkscape:connector-curvature="0"
     style="fill:#000000;fill-rule:evenodd;stroke:none;stroke-width:1" />
  <path
     d="m 33.491418,155.83294 c 2.624231,0 2.628581,-4.25342 0,-4.25342 -2.624232,0 -2.628581,4.25342 0,4.25342"
     id="Fill-26"
     inkscape:connector-curvature="0"
     style="fill:#000000;fill-rule:evenodd;stroke:none;stroke-width:1" />
  <path
     d="m 33.491418,155.83294 c 2.624231,0 2.628581,-4.25342 0,-4.25342 -2.624232,0 -2.628581,4.25342 0,4.25342"
     id="Fill-28"
     inkscape:connector-curvature="0"
     style="fill:#000000;fill-rule:evenodd;stroke:none;stroke-width:1" />
  <path
     d="m 195.73442,138.73511 c -3.23134,6.05374 -5.70767,12.47033 -7.42046,19.22716 -0.78416,3.09399 3.60524,4.4164 4.3894,1.32372 1.61325,-6.36078 3.91842,-12.33478 6.96162,-18.03503 1.48093,-2.77501 -2.45204,-5.28689 -3.93056,-2.51585"
     id="Fill-30"
     inkscape:connector-curvature="0"
     style="fill:#000000;fill-rule:evenodd;stroke:none;stroke-width:1" />
  <path
     d="m 202.1856,139.18129 c -2.26697,6.06145 -4.44815,12.2237 -6.85137,18.22364 -1.16692,2.9136 3.40865,4.18585 4.5617,1.30499 2.40448,-6.00387 4.58187,-12.15827 6.85137,-18.22369 1.10258,-2.94629 -3.47047,-4.22246 -4.5617,-1.30494"
     id="Fill-32"
     inkscape:connector-curvature="0"
     style="fill:#000000;fill-rule:evenodd;stroke:none;stroke-width:1" />
  <path
     d="m 187.0537,152.48262 c 7.91804,-0.79152 15.88209,-0.52228 23.80011,-1.31245 3.04599,-0.30459 3.07667,-5.38253 0,-5.07402 -7.91802,0.79018 -15.88207,0.52094 -23.80011,1.31246 -3.04597,0.30459 -3.07539,5.38118 0,5.07401"
     id="Fill-34"
     inkscape:connector-curvature="0"
     style="fill:#000000;fill-rule:evenodd;stroke:none;stroke-width:1" />
  <path
     d="m 187.04371,155.32534 c 7.21655,-0.89496 14.43696,-1.4642 21.70858,-1.50719 3.09026,-0.0211 3.09667,-4.90459 0,-4.88514 -7.27162,0.043 -14.4933,0.61235 -21.70858,1.50727 -3.02878,0.37632 -3.06592,5.26543 0,4.88506"
     id="Fill-36"
     inkscape:connector-curvature="0"
     style="fill:#000000;fill-rule:evenodd;stroke:none;stroke-width:1" />
  <path
     d="m 400.41295,7.3468274 c -1.13976,3.5179316 -2.73444,6.7674236 -4.74125,9.8349606 -1.66562,2.544623 2.30642,4.935305 3.95981,2.408484 2.2245,-3.399595 3.94147,-7.079104 5.20352,-10.9749509 0.94532,-2.9161265 -3.48287,-4.1680827 -4.42208,-1.2684937"
     id="Fill-74"
     inkscape:connector-curvature="0"
     style="fill:#000000;fill-rule:evenodd;stroke:none;stroke-width:1" />
  <path
     d="m 411.72281,7.9905664 c 0.004,3.3679126 -1.34693,6.3198986 -3.9164,8.6486056 -2.33271,2.11756 1.21719,5.46653 3.54724,3.352725 3.48703,-3.161826 5.3904,-7.437445 5.38505,-12.0013306 -0.004,-3.050578 -5.01989,-3.0556405 -5.01589,0"
     id="Fill-76"
     inkscape:connector-curvature="0"
     style="fill:#000000;fill-rule:evenodd;stroke:none;stroke-width:1" />
  <path
     d="m 476.93461,72.455006 c -4.49925,3.336735 -8.77706,6.943851 -13.27497,10.280587 -1.4291,1.059328 -1.80613,3.261937 0,4.24904 5.71092,3.122761 10.69057,6.855933 14.7282,11.921428 1.98995,2.496619 5.52842,-1.00942 3.5586,-3.479836 -4.28857,-5.381817 -9.68954,-9.380137 -15.74669,-12.690632 v 4.24904 c 4.4979,-3.336736 8.77707,-6.942585 13.27497,-10.279321 2.54686,-1.888861 0.043,-6.165492 -2.54011,-4.250306"
     id="Fill-78"
     inkscape:connector-curvature="0"
     style="fill:#000000;fill-rule:evenodd;stroke:none;stroke-width:1" />
  <path
     d="m 356.44369,137.30154 c -4.49939,3.33673 -8.77735,6.94385 -13.2754,10.28058 -1.42913,1.05929 -1.8062,3.2619 0,4.249 5.71112,3.12276 10.69091,6.85594 14.72868,11.92139 1.9887,2.49665 5.52728,-1.00942 3.55872,-3.4798 -4.2887,-5.38181 -9.68985,-9.38009 -15.74718,-12.69059 v 4.249 c 4.49804,-3.33673 8.77735,-6.94254 13.2754,-10.27928 2.54693,-1.89017 0.043,-6.16545 -2.54022,-4.2503"
     id="Fill-80"
     inkscape:connector-curvature="0"
     style="fill:#000000;fill-rule:evenodd;stroke:none;stroke-width:1" />
  <path
     d="m 409.87837,74.635551 c -3.19161,6.792989 -6.56237,13.468654 -10.11817,20.03227 -1.47678,2.728265 2.34303,5.213995 3.81627,2.49366 3.5558,-6.562307 6.92656,-13.237973 10.11818,-20.030962 1.32119,-2.813906 -2.49154,-5.315456 -3.81628,-2.494968"
     id="Fill-84"
     inkscape:connector-curvature="0"
     style="fill:#000000;fill-rule:evenodd;stroke:none;stroke-width:1" />
  <path
     d="m 337.34147,85.511783 h 14.06632 c 3.08453,0 3.08964,-4.275618 0,-4.275618 h -14.06632 c -3.08452,0 -3.08964,4.275618 0,4.275618"
     id="Fill-86"
     inkscape:connector-curvature="0"
     style="fill:#000000;fill-rule:evenodd;stroke:none;stroke-width:1" />
  <path
     d="m 341.95119,72.917591 c 0.0859,6.982158 0.67204,13.896225 1.69875,20.793291 0.4642,3.113353 4.96183,1.791028 4.50012,-1.305324 -0.962,-6.461057 -1.45109,-12.949664 -1.53198,-19.487967 -0.0384,-3.156595 -4.70547,-3.164442 -4.66689,0"
     id="Fill-88"
     inkscape:connector-curvature="0"
     style="fill:#000000;fill-rule:evenodd;stroke:none;stroke-width:1" />
  <path
     d="m 267.40107,85.511783 h 14.06633 c 3.08452,0 3.08963,-4.275618 0,-4.275618 h -14.06633 c -3.08452,0 -3.08963,4.275618 0,4.275618"
     id="Fill-90"
     inkscape:connector-curvature="0"
     style="fill:#000000;fill-rule:evenodd;stroke:none;stroke-width:1" />
  <path
     d="m 267.50924,86.221419 c 5.07921,-0.223593 10.15708,-0.447567 15.23493,-0.669979 3.22259,-0.142172 3.24003,-5.168222 0,-5.024869 -5.07785,0.222328 -10.15572,0.446217 -15.23493,0.66998 -3.22259,0.142171 -3.24001,5.166914 0,5.024868"
     id="Fill-92"
     inkscape:connector-curvature="0"
     style="fill:#000000;fill-rule:evenodd;stroke:none;stroke-width:1" />
  <path
     d="m 289.96347,146.26271 c 2.81168,0 2.81635,-4.25343 0,-4.25343 -2.81167,0 -2.81633,4.25343 0,4.25343"
     id="Fill-94"
     inkscape:connector-curvature="0"
     style="fill:#000000;fill-rule:evenodd;stroke:none;stroke-width:1" />
  <path
     d="m 289.96347,146.26271 c 2.81168,0 2.81635,-4.25343 0,-4.25343 -2.81167,0 -2.81633,4.25343 0,4.25343"
     id="Fill-96"
     inkscape:connector-curvature="0"
     style="fill:#000000;fill-rule:evenodd;stroke:none;stroke-width:1" />
  <path
     d="m 288.90822,155.83294 c 2.81168,0 2.81634,-4.25342 0,-4.25342 -2.81167,0 -2.81633,4.25342 0,4.25342"
     id="Fill-98"
     inkscape:connector-curvature="0"
     style="fill:#000000;fill-rule:evenodd;stroke:none;stroke-width:1" />
  <path
     d="m 288.90822,155.83294 c 2.81168,0 2.81634,-4.25342 0,-4.25342 -2.81167,0 -2.81633,4.25342 0,4.25342"
     id="Fill-100"
     inkscape:connector-curvature="0"
     style="fill:#000000;fill-rule:evenodd;stroke:none;stroke-width:1" />
  <path
     style="fill:#ffd600;fill-rule:evenodd;stroke:none;stroke-width:1"
     inkscape:connector-curvature="0"
     id="Fill-102"
     d="m 437.04486,129.47133 c -3.23127,6.05373 -5.70755,12.47033 -7.42032,19.22716 -0.78532,3.09399 3.60517,4.4164 4.38931,1.32372 1.61325,-6.36078 3.91833,-12.33478 6.96149,-18.03503 1.48091,-2.77501 -2.45198,-5.2869 -3.93048,-2.51585" />
  <path
     style="fill:#ffd600;fill-rule:evenodd;stroke:none;stroke-width:1"
     inkscape:connector-curvature="0"
     id="Fill-104"
     d="m 444.8811,129.9175 c -2.26703,6.06146 -4.44829,12.22374 -6.85155,18.22369 -1.16694,2.9136 3.40875,4.1858 4.56182,1.30495 2.40452,-6.00388 4.58199,-12.15827 6.85155,-18.22365 1.10134,-2.94634 -3.47056,-4.22251 -4.56182,-1.30499" />
  <path
     style="fill:#ffd600;fill-rule:evenodd;stroke:none;stroke-width:1"
     inkscape:connector-curvature="0"
     id="Fill-106"
     d="m 428.3641,141.08107 c 7.91813,-0.79156 15.88233,-0.52228 23.8005,-1.31249 3.04602,-0.3046 3.07547,-5.38249 0,-5.07402 -7.91817,0.79021 -15.88237,0.52093 -23.8005,1.3125 -3.04602,0.30459 -3.07547,5.38114 0,5.07401" />
  <path
     style="fill:#ffd600;fill-rule:evenodd;stroke:none;stroke-width:1"
     inkscape:connector-curvature="0"
     id="Fill-108"
     d="m 428.35402,146.77415 c 7.21651,-0.89492 14.43681,-1.4642 21.7096,-1.50719 3.08897,-0.0211 3.09534,-4.90459 0,-4.8851 -7.27279,0.043 -14.49309,0.61231 -21.7096,1.50723 -3.02873,0.37631 -3.06585,5.26546 0,4.88506" />
  <path
     d="m 522.2334,87.64955 h 14.06632 c 3.08454,0 3.08965,-4.275576 0,-4.275576 H 522.2334 c -3.0845,0 -3.0896,4.275576 0,4.275576"
     id="Fill-168"
     inkscape:connector-curvature="0"
     style="fill:#000000;fill-rule:evenodd;stroke:none;stroke-width:1" />
  <path
     d="m 522.34157,88.359186 c 5.0792,-0.223593 10.1571,-0.447525 15.23496,-0.669979 3.22257,-0.142172 3.24,-5.16818 0,-5.024827 -5.07786,0.222328 -10.15576,0.446217 -15.23496,0.66998 -3.22258,0.142172 -3.24,5.166872 0,5.024826"
     id="Fill-170"
     inkscape:connector-curvature="0"
     style="fill:#000000;fill-rule:evenodd;stroke:none;stroke-width:1" />
  <path
     d="m 511.07966,146.26271 c 2.62423,0 2.62861,-4.25343 0,-4.25343 -2.62424,0 -2.62858,4.25343 0,4.25343"
     id="Fill-172"
     inkscape:connector-curvature="0"
     style="fill:#000000;fill-rule:evenodd;stroke:none;stroke-width:1" />
  <path
     d="m 511.07966,146.26271 c 2.62423,0 2.62861,-4.25343 0,-4.25343 -2.62424,0 -2.62858,4.25343 0,4.25343"
     id="Fill-174"
     inkscape:connector-curvature="0"
     style="fill:#000000;fill-rule:evenodd;stroke:none;stroke-width:1" />
  <path
     d="m 511.07966,155.83294 c 2.62423,0 2.62861,-4.25342 0,-4.25342 -2.62424,0 -2.62858,4.25342 0,4.25342"
     id="Fill-176"
     inkscape:connector-curvature="0"
     style="fill:#000000;fill-rule:evenodd;stroke:none;stroke-width:1" />
  <path
     d="m 511.07966,155.83294 c 2.62423,0 2.62861,-4.25342 0,-4.25342 -2.62424,0 -2.62858,4.25342 0,4.25342"
     id="Fill-178"
     inkscape:connector-curvature="0"
     style="fill:#000000;fill-rule:evenodd;stroke:none;stroke-width:1" />
  <path
     d="m 136.21116,379.40159 c -1.05947,3.68546 -2.53912,7.08969 -4.40258,10.30328 -1.54665,2.66583 2.14167,5.17033 3.67582,2.52319 2.06673,-3.56151 3.65993,-7.41622 4.83298,-11.49757 0.87779,-3.055 -3.2341,-4.36657 -4.10622,-1.3289"
     id="path57"
     inkscape:connector-curvature="0"
     style="fill:#000000;fill-rule:evenodd;stroke:none;stroke-width:1" />
  <path
     d="m 147.55375,380.076 c 0.004,3.52826 -1.2508,6.62082 -3.63564,9.06039 -2.16748,2.21843 1.12907,5.72687 3.29281,3.51241 3.23818,-3.31239 5.00569,-7.79161 5.00074,-12.5728 -0.003,-3.19588 -4.6604,-3.20115 -4.65791,0"
     id="path59"
     inkscape:connector-curvature="0"
     style="fill:#000000;fill-rule:evenodd;stroke:none;stroke-width:1" />
  <path
     d="m 29.88071,389.79131 h 14.066324 c 3.084518,0 3.089631,-4.9882 0,-4.9882 H 29.88071 c -3.084518,0 -3.089632,4.9882 0,4.9882"
     id="path61"
     inkscape:connector-curvature="0"
     style="fill:#38d68d;fill-rule:evenodd;stroke:none;stroke-width:1" />
  <path
     d="m 29.21284,398.66849 c 4.904058,-0.19575 9.806822,-0.3915 14.709586,-0.58624 3.111467,-0.12445 3.128296,-4.5222 0,-4.39673 -4.902764,0.19448 -9.805528,0.39065 -14.709586,0.58623 -3.111469,0.12446 -3.128295,4.52103 0,4.39674"
     id="path63"
     inkscape:connector-curvature="0"
     style="fill:#38d68d;fill-rule:evenodd;stroke:none;stroke-width:1" />
  <path
     d="m 266.81837,377.4027 c 1.91618,1.45307 3.83234,2.9074 5.74983,4.36172 1.01102,0.76634 4.66867,2.68153 4.97039,3.89176 0.57829,-1.00394 1.15526,-2.00787 1.73355,-3.01181 1.05733,-0.26873 -0.93294,0.35269 -1.2995,0.63054 -0.91574,0.69065 -1.59858,2.19067 -2.24965,3.10192 -2.17024,3.04184 -4.34049,6.08238 -6.51073,9.12422 -1.84207,2.5823 2.45873,5.03015 4.2849,2.47135 2.79089,-3.91133 5.58177,-7.82135 8.37265,-11.73138 -0.71591,0.40332 -1.42918,0.80815 -2.14377,1.21155 0.27658,0.0211 0.59813,-0.0211 0.86545,-0.0873 1.322,-0.33539 2.04982,-1.74159 1.73223,-3.01054 -0.55315,-2.2089 -2.29464,-3.05881 -4.05731,-4.39565 -2.98143,-2.25985 -5.96155,-4.52229 -8.94299,-6.78345 -2.53152,-1.91911 -5.0048,2.33035 -2.50505,4.22727"
     id="path65"
     inkscape:connector-curvature="0"
     style="fill:#000000;fill-rule:evenodd;stroke:none;stroke-width:1" />
  <path
     d="m 398.66078,379.40159 c -1.05949,3.68546 -2.53913,7.08969 -4.4026,10.30328 -1.54664,2.66583 2.14168,5.17033 3.67583,2.52319 2.06674,-3.56151 3.65994,-7.41622 4.83297,-11.49757 0.8778,-3.055 -3.23408,-4.36657 -4.1062,-1.3289"
     id="path67"
     inkscape:connector-curvature="0"
     style="fill:#000000;fill-rule:evenodd;stroke:none;stroke-width:1" />
  <path
     d="m 410.69583,380.076 c 0.004,3.52826 -1.2508,6.62082 -3.63564,9.06039 -2.16748,2.21843 1.12907,5.72687 3.29406,3.51241 3.23693,-3.31239 5.00445,-7.79161 4.9995,-12.5728 -0.003,-3.19588 -4.6604,-3.20115 -4.65792,0"
     id="path69"
     inkscape:connector-curvature="0"
     style="fill:#000000;fill-rule:evenodd;stroke:none;stroke-width:1" />
  <path
     d="m 522.34317,377.4027 c 1.9162,1.45307 3.83235,2.9074 5.74986,4.36172 1.01102,0.76634 4.66864,2.68153 4.97036,3.89176 0.57831,-1.00394 1.15526,-2.00787 1.73357,-3.01181 1.05865,-0.26873 -0.93293,0.35269 -1.2995,0.63054 -0.91572,0.69065 -1.59857,2.19067 -2.24965,3.10192 -2.17025,3.04184 -4.3405,6.08238 -6.51075,9.12422 -1.84204,2.5823 2.45873,5.03015 4.28494,2.47135 2.79087,-3.91133 5.58174,-7.82135 8.37266,-11.73138 -0.71593,0.40332 -1.42919,0.80815 -2.1438,1.21155 0.27675,0.0211 0.59813,-0.0211 0.86543,-0.0873 1.32203,-0.33539 2.04985,-1.74159 1.73226,-3.01054 -0.55316,-2.2089 -2.29466,-3.05881 -4.05734,-4.39565 -2.98143,-2.25985 -5.96156,-4.52229 -8.94299,-6.78345 -2.5315,-1.91911 -5.00479,2.33035 -2.50505,4.22727"
     id="path71"
     inkscape:connector-curvature="0"
     style="fill:#000000;fill-rule:evenodd;stroke:none;stroke-width:1" />
  <path
     d="m 204.79027,442.29357 c -4.49923,3.33674 -8.77707,6.94385 -13.27496,10.28063 -1.42907,1.05929 -1.80614,3.2619 0,4.249 5.71227,3.1228 10.6919,6.85593 14.72953,11.92143 1.98863,2.49665 5.52709,-1.00942 3.55726,-3.4798 -4.28857,-5.38186 -9.68953,-9.38018 -15.74666,-12.69063 v 4.249 c 4.49924,-3.33674 8.77706,-6.94259 13.27496,-10.27928 2.54818,-1.8889 0.0429,-6.16549 -2.54013,-4.25035"
     id="path73"
     inkscape:connector-curvature="0"
     style="fill:#000000;fill-rule:evenodd;stroke:none;stroke-width:1" />
  <path
     d="m 108.53567,509.9905 c -4.49923,3.33674 -8.777072,6.94385 -13.274968,10.28059 -1.429077,1.05928 -1.806136,3.26189 0,4.249 5.710928,3.12276 10.690568,6.85593 14.728208,11.92138 1.98996,2.49666 5.52844,-1.00942 3.55859,-3.47979 -4.28857,-5.38182 -9.68953,-9.3801 -15.746668,-12.69059 v 4.249 c 4.497898,-3.3367 8.777078,-6.94255 13.274968,-10.27924 2.54818,-1.89021 0.043,-6.16549 -2.54013,-4.25035"
     id="path75"
     inkscape:connector-curvature="0"
     style="fill:#000000;fill-rule:evenodd;stroke:none;stroke-width:1" />
  <path
     d="m 2.9404637,447.36468 c 1.8363272,1.49365 3.6726546,2.98594 5.5102501,4.47959 0.9688911,0.78705 4.4741452,2.75535 4.7632912,3.99697 0.554196,-1.0311 1.107122,-2.06216 1.661318,-3.09323 1.013278,-0.27632 -0.894069,0.36197 -1.245354,0.64758 -0.877582,0.7093 -1.531964,2.2499 -2.155909,3.18575 -2.0798186,3.12407 -4.159637,6.24814 -6.2394554,9.3709 -1.765309,2.65207 2.356282,5.16611 4.106373,2.53812 2.6745954,-4.0157 5.3491914,-8.03275 8.0237864,-12.04845 -0.686086,0.41428 -1.369636,0.82995 -2.054454,1.24428 0.265051,0.0211 0.573218,-0.0169 0.82939,-0.0899 1.266915,-0.34467 1.964415,-1.78863 1.660051,-3.09188 -0.5301,-2.26863 -2.200296,-3.14154 -3.888246,-4.51318 -2.857214,-2.32225 -5.7131594,-4.64585 -8.5703731,-6.96811 -2.4260319,-1.971 -4.79626377,2.39465 -2.4006682,4.34152"
     id="path77"
     inkscape:connector-curvature="0"
     style="fill:#000000;fill-rule:evenodd;stroke:none;stroke-width:1" />
  <path
     d="m 145.35113,447.32456 c -3.19177,6.79294 -6.5627,13.46861 -10.11749,20.03223 -1.47803,2.72826 2.34196,5.21399 3.81528,2.49366 3.55596,-6.56231 6.92807,-13.23798 10.11866,-20.03097 1.32126,-2.8139 -2.49165,-5.31545 -3.81645,-2.49492"
     id="path79"
     inkscape:connector-curvature="0"
     style="fill:#000000;fill-rule:evenodd;stroke:none;stroke-width:1" />
  <path
     d="m 72.121938,458.20075 h 14.066325 c 3.084522,0 3.089631,-4.27558 0,-4.27558 H 72.121938 c -3.084517,0 -3.089631,4.27558 0,4.27558"
     id="path81"
     inkscape:connector-curvature="0"
     style="fill:#000000;fill-rule:evenodd;stroke:none;stroke-width:1" />
  <path
     d="m 76.731665,445.60656 c 0.08585,6.98215 0.67203,13.89622 1.698747,20.79329 0.462953,3.11335 4.961837,1.79102 4.500124,-1.30533 -0.962002,-6.46105 -1.45109,-12.94966 -1.531984,-19.48796 -0.03839,-3.1566 -4.705467,-3.16445 -4.666887,0"
     id="path83"
     inkscape:connector-curvature="0"
     style="fill:#000000;fill-rule:evenodd;stroke:none;stroke-width:1" />
  <path
     d="m 33.491418,518.95167 c 2.624231,0 2.628581,-4.25338 0,-4.25338 -2.624232,0 -2.628581,4.25338 0,4.25338"
     id="path85"
     inkscape:connector-curvature="0"
     style="fill:#000000;fill-rule:evenodd;stroke:none;stroke-width:1" />
  <path
     d="m 33.491418,518.95167 c 2.624231,0 2.628581,-4.25338 0,-4.25338 -2.624232,0 -2.628581,4.25338 0,4.25338"
     id="path87"
     inkscape:connector-curvature="0"
     style="fill:#000000;fill-rule:evenodd;stroke:none;stroke-width:1" />
  <path
     d="m 33.491418,528.52191 c 2.624231,0 2.628581,-4.25343 0,-4.25343 -2.624232,0 -2.628581,4.25343 0,4.25343"
     id="path89"
     inkscape:connector-curvature="0"
     style="fill:#000000;fill-rule:evenodd;stroke:none;stroke-width:1" />
  <path
     d="m 33.491418,528.52191 c 2.624231,0 2.628581,-4.25343 0,-4.25343 -2.624232,0 -2.628581,4.25343 0,4.25343"
     id="path91"
     inkscape:connector-curvature="0"
     style="fill:#000000;fill-rule:evenodd;stroke:none;stroke-width:1" />
  <path
     d="m 195.73442,511.42407 c -3.23134,6.05374 -5.70767,12.47033 -7.42046,19.22717 -0.78416,3.09399 3.60524,4.4164 4.3894,1.32372 1.61325,-6.36078 3.91842,-12.33479 6.96162,-18.03503 1.48093,-2.77501 -2.45204,-5.2869 -3.93056,-2.51586"
     id="path93"
     inkscape:connector-curvature="0"
     style="fill:#000000;fill-rule:evenodd;stroke:none;stroke-width:1" />
  <path
     d="m 202.1856,511.87025 c -2.26697,6.06146 -4.44815,12.22374 -6.85137,18.22369 -1.16692,2.9136 3.40865,4.1858 4.5617,1.30495 2.40448,-6.00388 4.58187,-12.15827 6.85137,-18.2237 1.10258,-2.94629 -3.47047,-4.22246 -4.5617,-1.30494"
     id="path95"
     inkscape:connector-curvature="0"
     style="fill:#000000;fill-rule:evenodd;stroke:none;stroke-width:1" />
  <path
     d="m 187.0537,525.17159 c 7.91804,-0.79152 15.88209,-0.52228 23.80011,-1.31245 3.04599,-0.3046 3.07667,-5.38254 0,-5.07402 -7.91802,0.79017 -15.88207,0.52093 -23.80011,1.31245 -3.04597,0.3046 -3.07539,5.38119 0,5.07402"
     id="path97"
     inkscape:connector-curvature="0"
     style="fill:#000000;fill-rule:evenodd;stroke:none;stroke-width:1" />
  <path
     d="m 187.04371,528.01431 c 7.21655,-0.89497 14.43696,-1.4642 21.70858,-1.50719 3.09026,-0.0211 3.09667,-4.90459 0,-4.8851 -7.27162,0.043 -14.4933,0.61231 -21.70858,1.50723 -3.02878,0.37631 -3.06592,5.26546 0,4.88506"
     id="path99"
     inkscape:connector-curvature="0"
     style="fill:#000000;fill-rule:evenodd;stroke:none;stroke-width:1" />
  <path
     d="m 400.41295,379.3232 c -1.13976,3.51793 -2.73444,6.76743 -4.74125,9.83496 -1.66562,2.54463 2.30642,4.93531 3.95981,2.40849 2.2245,-3.3996 3.94147,-7.07911 5.20352,-10.97495 0.94532,-2.91613 -3.48287,-4.16809 -4.42208,-1.2685"
     id="path101"
     inkscape:connector-curvature="0"
     style="fill:#000000;fill-rule:evenodd;stroke:none;stroke-width:1" />
  <path
     d="m 411.72281,379.96694 c 0.004,3.36791 -1.34693,6.3199 -3.9164,8.64861 -2.33271,2.11756 1.21719,5.46653 3.54724,3.35272 3.48703,-3.16182 5.3904,-7.43744 5.38505,-12.00133 -0.004,-3.05058 -5.01989,-3.05564 -5.01589,0"
     id="path103"
     inkscape:connector-curvature="0"
     style="fill:#000000;fill-rule:evenodd;stroke:none;stroke-width:1" />
  <path
     d="m 476.93461,445.14397 c -4.49925,3.33674 -8.77706,6.94385 -13.27497,10.28059 -1.4291,1.05933 -1.80613,3.26193 0,4.24904 5.71092,3.12276 10.69057,6.85593 14.7282,11.92143 1.98995,2.49665 5.52842,-1.00942 3.5586,-3.47984 -4.28857,-5.38182 -9.68954,-9.38014 -15.74669,-12.69063 v 4.24904 c 4.4979,-3.33674 8.77707,-6.94255 13.27497,-10.27932 2.54686,-1.88886 0.043,-6.16545 -2.54011,-4.25031"
     id="path105"
     inkscape:connector-curvature="0"
     style="fill:#5a4bd1;fill-rule:evenodd;stroke:none;stroke-width:1" />
  <path
     d="m 356.44369,509.9905 c -4.49939,3.33674 -8.77735,6.94385 -13.2754,10.28059 -1.42913,1.05928 -1.8062,3.26189 0,4.249 5.71112,3.12276 10.69091,6.85593 14.72868,11.92138 1.9887,2.49666 5.52728,-1.00942 3.55872,-3.47979 -4.2887,-5.38182 -9.68985,-9.3801 -15.74718,-12.69059 v 4.249 c 4.49804,-3.3367 8.77735,-6.94255 13.2754,-10.27924 2.54693,-1.89021 0.043,-6.16549 -2.54022,-4.25035"
     id="path107"
     inkscape:connector-curvature="0"
     style="fill:#000000;fill-rule:evenodd;stroke:none;stroke-width:1" />
  <path
     d="m 409.87837,447.32456 c -3.19161,6.79294 -6.56237,13.46861 -10.11817,20.03223 -1.47678,2.72826 2.34303,5.21399 3.81627,2.49366 3.5558,-6.56231 6.92656,-13.23798 10.11818,-20.03097 1.32119,-2.8139 -2.49154,-5.31545 -3.81628,-2.49492"
     id="path109"
     inkscape:connector-curvature="0"
     style="fill:#000000;fill-rule:evenodd;stroke:none;stroke-width:1" />
  <path
     d="m 337.34147,458.20075 h 14.06632 c 3.08453,0 3.08964,-4.27558 0,-4.27558 h -14.06632 c -3.08452,0 -3.08964,4.27558 0,4.27558"
     id="path111"
     inkscape:connector-curvature="0"
     style="fill:#000000;fill-rule:evenodd;stroke:none;stroke-width:1" />
  <path
     d="m 341.95119,445.60656 c 0.0859,6.98215 0.67204,13.89622 1.69875,20.79329 0.4642,3.11335 4.96183,1.79102 4.50012,-1.30533 -0.962,-6.46105 -1.45109,-12.94966 -1.53198,-19.48796 -0.0384,-3.1566 -4.70547,-3.16445 -4.66689,0"
     id="path113"
     inkscape:connector-curvature="0"
     style="fill:#000000;fill-rule:evenodd;stroke:none;stroke-width:1" />
  <path
     d="m 267.40107,458.20075 h 14.06633 c 3.08452,0 3.08963,-4.27558 0,-4.27558 h -14.06633 c -3.08452,0 -3.08963,4.27558 0,4.27558"
     id="path115"
     inkscape:connector-curvature="0"
     style="fill:#000000;fill-rule:evenodd;stroke:none;stroke-width:1" />
  <path
     d="m 267.50924,458.91038 c 5.07921,-0.22359 10.15708,-0.44752 15.23493,-0.66998 3.22259,-0.14217 3.24003,-5.16822 0,-5.02482 -5.07785,0.22233 -10.15572,0.44617 -15.23493,0.66998 -3.22259,0.14217 -3.24001,5.16687 0,5.02482"
     id="path117"
     inkscape:connector-curvature="0"
     style="fill:#000000;fill-rule:evenodd;stroke:none;stroke-width:1" />
  <path
     d="m 289.96347,518.95167 c 2.81168,0 2.81635,-4.25338 0,-4.25338 -2.81167,0 -2.81633,4.25338 0,4.25338"
     id="path119"
     inkscape:connector-curvature="0"
     style="fill:#000000;fill-rule:evenodd;stroke:none;stroke-width:1" />
  <path
     d="m 289.96347,518.95167 c 2.81168,0 2.81635,-4.25338 0,-4.25338 -2.81167,0 -2.81633,4.25338 0,4.25338"
     id="path121"
     inkscape:connector-curvature="0"
     style="fill:#000000;fill-rule:evenodd;stroke:none;stroke-width:1" />
  <path
     d="m 288.90822,528.52191 c 2.81168,0 2.81634,-4.25343 0,-4.25343 -2.81167,0 -2.81633,4.25343 0,4.25343"
     id="path123"
     inkscape:connector-curvature="0"
     style="fill:#000000;fill-rule:evenodd;stroke:none;stroke-width:1" />
  <path
     d="m 288.90822,528.52191 c 2.81168,0 2.81634,-4.25343 0,-4.25343 -2.81167,0 -2.81633,4.25343 0,4.25343"
     id="path125"
     inkscape:connector-curvature="0"
     style="fill:#000000;fill-rule:evenodd;stroke:none;stroke-width:1" />
  <path
     d="m 433.94736,511.42407 c -3.2313,6.05374 -5.70754,12.47033 -7.42031,19.22717 -0.78536,3.09399 3.60517,4.4164 4.38931,1.32372 1.61321,-6.36078 3.91833,-12.33479 6.96145,-18.03503 1.4809,-2.77501 -2.45198,-5.2869 -3.93045,-2.51586"
     id="path127"
     inkscape:connector-curvature="0"
     style="fill:#000000;fill-rule:evenodd;stroke:none;stroke-width:1" />
  <path
     d="m 441.78361,511.87025 c -2.26703,6.06146 -4.44829,12.22374 -6.85159,18.22369 -1.16695,2.9136 3.40875,4.1858 4.56182,1.30495 2.40456,-6.00388 4.58203,-12.15827 6.85159,-18.2237 1.10134,-2.94629 -3.4706,-4.22246 -4.56182,-1.30494"
     id="path129"
     inkscape:connector-curvature="0"
     style="fill:#000000;fill-rule:evenodd;stroke:none;stroke-width:1" />
  <path
     d="m 425.95908,525.17159 c 7.91817,-0.79152 15.88233,-0.52228 23.8005,-1.31245 3.04602,-0.3046 3.07542,-5.38254 0,-5.07402 -7.91817,0.79017 -15.88233,0.52093 -23.8005,1.31245 -3.04607,0.3046 -3.07547,5.38119 0,5.07402"
     id="path131"
     inkscape:connector-curvature="0"
     style="fill:#000000;fill-rule:evenodd;stroke:none;stroke-width:1" />
  <path
     d="m 425.94899,528.01431 c 7.21647,-0.89497 14.43678,-1.4642 21.70961,-1.50719 3.08892,-0.0211 3.09534,-4.90459 0,-4.8851 -7.27283,0.043 -14.49314,0.61231 -21.70961,1.50723 -3.02872,0.37631 -3.06589,5.26546 0,4.88506"
     id="path133"
     inkscape:connector-curvature="0"
     style="fill:#000000;fill-rule:evenodd;stroke:none;stroke-width:1" />
  <path
     d="m 522.2334,460.33852 h 14.06632 c 3.08454,0 3.08965,-4.27558 0,-4.27558 H 522.2334 c -3.0845,0 -3.0896,4.27558 0,4.27558"
     id="path135"
     inkscape:connector-curvature="0"
     style="fill:#000000;fill-rule:evenodd;stroke:none;stroke-width:1" />
  <path
     d="m 522.34157,460.3356 c 5.0792,-0.22359 10.1571,-0.44756 15.23496,-0.66998 3.22257,-0.14217 3.24,-5.16822 0,-5.02486 -5.07786,0.22232 -10.15576,0.44621 -15.23496,0.66998 -3.22258,0.14217 -3.24,5.16687 0,5.02486"
     id="path137"
     inkscape:connector-curvature="0"
     style="fill:#000000;fill-rule:evenodd;stroke:none;stroke-width:1" />
  <path
     d="m 511.07966,518.95167 c 2.62423,0 2.62861,-4.25338 0,-4.25338 -2.62424,0 -2.62858,4.25338 0,4.25338"
     id="path139"
     inkscape:connector-curvature="0"
     style="fill:#000000;fill-rule:evenodd;stroke:none;stroke-width:1" />
  <path
     d="m 511.07966,518.95167 c 2.62423,0 2.62861,-4.25338 0,-4.25338 -2.62424,0 -2.62858,4.25338 0,4.25338"
     id="path141"
     inkscape:connector-curvature="0"
     style="fill:#000000;fill-rule:evenodd;stroke:none;stroke-width:1" />
  <path
     d="m 511.07966,528.52191 c 2.62423,0 2.62861,-4.25343 0,-4.25343 -2.62424,0 -2.62858,4.25343 0,4.25343"
     id="path143"
     inkscape:connector-curvature="0"
     style="fill:#000000;fill-rule:evenodd;stroke:none;stroke-width:1" />
  <path
     d="m 511.07966,528.52191 c 2.62423,0 2.62861,-4.25343 0,-4.25343 -2.62424,0 -2.62858,4.25343 0,4.25343"
     id="path145"
     inkscape:connector-curvature="0"
     style="fill:#000000;fill-rule:evenodd;stroke:none;stroke-width:1" />
  <path
     d="m 136.21116,193.4134 c -1.05947,3.68546 -2.53912,7.08969 -4.40258,10.30328 -1.54665,2.66583 2.14167,5.17033 3.67582,2.5232 2.06673,-3.56152 3.65993,-7.41623 4.83298,-11.49757 0.87779,-3.05501 -3.2341,-4.36658 -4.10622,-1.32891"
     id="path147"
     inkscape:connector-curvature="0"
     style="fill:#000000;fill-rule:evenodd;stroke:none;stroke-width:1" />
  <path
     d="m 147.55375,194.08781 c 0.004,3.52827 -1.2508,6.62082 -3.63564,9.0604 -2.16748,2.21843 1.12907,5.72687 3.29281,3.5124 3.23818,-3.31239 5.00569,-7.79161 5.00074,-12.5728 -0.003,-3.19587 -4.6604,-3.20115 -4.65791,0"
     id="path149"
     inkscape:connector-curvature="0"
     style="fill:#000000;fill-rule:evenodd;stroke:none;stroke-width:1" />
  <path
     d="m 29.88071,201.66532 h 14.066324 c 3.084518,0 3.089631,-4.98821 0,-4.98821 H 29.88071 c -3.084518,0 -3.089632,4.98821 0,4.98821"
     id="path151"
     inkscape:connector-curvature="0"
     style="fill:#000000;fill-rule:evenodd;stroke:none;stroke-width:1" />
  <path
     d="m 29.905319,201.66274 c 4.904058,-0.19575 9.806822,-0.3915 14.709585,-0.58623 3.111472,-0.12446 3.128296,-4.52221 0,-4.39674 -4.902763,0.19448 -9.805527,0.39023 -14.709585,0.58623 -3.111469,0.12446 -3.128295,4.52099 0,4.39674"
     id="path153"
     inkscape:connector-curvature="0"
     style="fill:#000000;fill-rule:evenodd;stroke:none;stroke-width:1" />
  <path
     d="m 266.81837,190.70192 c 1.91618,1.45307 3.83234,2.9074 5.74983,4.36173 1.01102,0.76633 4.66867,2.68152 4.97039,3.89175 0.57829,-1.00398 1.15526,-2.00791 1.73355,-3.01185 1.05733,-0.26915 -0.93294,0.35269 -1.2995,0.63058 -0.91574,0.69061 -1.59858,2.19063 -2.24965,3.10188 -2.17024,3.04188 -4.34049,6.08242 -6.51073,9.12423 -1.84207,2.58233 2.45873,5.03018 4.2849,2.47134 2.79089,-3.91129 5.58177,-7.82131 8.37265,-11.73133 -0.71591,0.40331 -1.42918,0.8081 -2.14377,1.21154 0.27658,0.0211 0.59813,-0.0211 0.86545,-0.0877 1.322,-0.33539 2.04982,-1.74154 1.73223,-3.0105 -0.55315,-2.20894 -2.29464,-3.05881 -4.05731,-4.39564 -2.98143,-2.25986 -5.96155,-4.52233 -8.94299,-6.78346 -2.53152,-1.91911 -5.0048,2.33031 -2.50505,4.22723"
     id="path155"
     inkscape:connector-curvature="0"
     style="fill:#000000;fill-rule:evenodd;stroke:none;stroke-width:1" />
  <path
     d="m 398.66078,193.4134 c -1.05949,3.68546 -2.53913,7.08969 -4.4026,10.30328 -1.54664,2.66583 2.14168,5.17033 3.67583,2.5232 2.06674,-3.56152 3.65994,-7.41623 4.83297,-11.49757 0.8778,-3.05501 -3.23408,-4.36658 -4.1062,-1.32891"
     id="path157"
     inkscape:connector-curvature="0"
     style="fill:#000000;fill-rule:evenodd;stroke:none;stroke-width:1" />
  <path
     d="m 410.69583,194.08781 c 0.004,3.52827 -1.2508,6.62082 -3.63564,9.0604 -2.16748,2.21843 1.12907,5.72687 3.29406,3.5124 3.23693,-3.31239 5.00445,-7.79161 4.9995,-12.5728 -0.003,-3.19587 -4.6604,-3.20115 -4.65792,0"
     id="path159"
     inkscape:connector-curvature="0"
     style="fill:#000000;fill-rule:evenodd;stroke:none;stroke-width:1" />
  <path
     d="m 522.34317,190.70192 c 1.9162,1.45307 3.83235,2.9074 5.74986,4.36173 1.01102,0.76633 4.66864,2.68152 4.97036,3.89175 0.57831,-1.00398 1.15526,-2.00791 1.73357,-3.01185 1.05865,-0.26915 -0.93293,0.35269 -1.2995,0.63058 -0.91572,0.69061 -1.59857,2.19063 -2.24965,3.10188 -2.17025,3.04188 -4.3405,6.08242 -6.51075,9.12423 -1.84204,2.58233 2.45873,5.03018 4.28494,2.47134 2.79087,-3.91129 5.58174,-7.82131 8.37266,-11.73133 -0.71593,0.40331 -1.42919,0.8081 -2.1438,1.21154 0.27675,0.0211 0.59813,-0.0211 0.86543,-0.0877 1.32203,-0.33539 2.04985,-1.74154 1.73226,-3.0105 -0.55316,-2.20894 -2.29466,-3.05881 -4.05734,-4.39564 -2.98143,-2.25986 -5.96156,-4.52233 -8.94299,-6.78346 -2.5315,-1.91911 -5.00479,2.33031 -2.50505,4.22723"
     id="path161"
     inkscape:connector-curvature="0"
     style="fill:#000000;fill-rule:evenodd;stroke:none;stroke-width:1" />
  <path
     d="m 204.79027,255.59275 c -4.49923,3.33678 -8.77707,6.9439 -13.27496,10.28063 -1.42907,1.05933 -1.80614,3.26194 0,4.24904 5.71227,3.12276 10.6919,6.85594 14.72953,11.92143 1.98863,2.49661 5.52709,-1.00942 3.55726,-3.47984 -4.28857,-5.38181 -9.68953,-9.38013 -15.74666,-12.69063 v 4.24904 c 4.49924,-3.33673 8.77706,-6.94258 13.27496,-10.27932 2.54818,-1.88886 0.0429,-6.16549 -2.54013,-4.25035"
     id="path163"
     inkscape:connector-curvature="0"
     style="fill:#000000;fill-rule:evenodd;stroke:none;stroke-width:1" />
  <path
     d="m 108.53567,324.00231 c -4.49923,3.33674 -8.777072,6.94386 -13.274968,10.28059 -1.429077,1.05929 -1.806136,3.2619 0,4.249 5.710928,3.12276 10.690568,6.85593 14.728208,11.92138 1.98996,2.49666 5.52844,-1.00942 3.55859,-3.47979 -4.28857,-5.38182 -9.68953,-9.38014 -15.746668,-12.69059 v 4.249 c 4.497898,-3.33674 8.777078,-6.94254 13.274968,-10.27924 2.54818,-1.89021 0.043,-6.16549 -2.54013,-4.25035"
     id="path165"
     inkscape:connector-curvature="0"
     style="fill:#000000;fill-rule:evenodd;stroke:none;stroke-width:1" />
  <path
     d="m 2.9404637,260.6639 c 1.8363272,1.49365 3.6726546,2.98595 5.5102501,4.4796 0.9688911,0.78705 4.4741452,2.75535 4.7632912,3.99692 0.554196,-1.03106 1.107122,-2.06212 1.661318,-3.09318 1.013278,-0.27633 -0.894069,0.36197 -1.245354,0.64757 -0.877582,0.7093 -1.531964,2.24986 -2.155909,3.18575 -2.0798186,3.12407 -4.159637,6.24814 -6.2394554,9.37086 -1.765309,2.65211 2.356282,5.16611 4.106373,2.53817 2.6745954,-4.0157 5.3491914,-8.03276 8.0237864,-12.04846 -0.686086,0.41428 -1.369636,0.82996 -2.054454,1.24424 0.265051,0.0211 0.573218,-0.0211 0.82939,-0.0899 1.266915,-0.34467 1.964415,-1.78862 1.660051,-3.09188 -0.5301,-2.26863 -2.200296,-3.14149 -3.888246,-4.51314 C 11.054291,260.9682 8.1983456,258.6446 5.3411319,256.3223 2.9151,254.35135 0.54486813,258.71699 2.9404637,260.66382"
     id="path167"
     inkscape:connector-curvature="0"
     style="fill:#000000;fill-rule:evenodd;stroke:none;stroke-width:1" />
  <path
     d="m 145.35113,260.62374 c -3.19177,6.79299 -6.5627,13.46865 -10.11749,20.03227 -1.47803,2.72826 2.34196,5.21399 3.81528,2.49366 3.55596,-6.56231 6.92807,-13.23797 10.11866,-20.03096 1.32126,-2.81391 -2.49165,-5.31546 -3.81645,-2.49497"
     id="path169"
     inkscape:connector-curvature="0"
     style="fill:#000000;fill-rule:evenodd;stroke:none;stroke-width:1" />
  <path
     d="m 72.121938,272.21256 h 14.066325 c 3.084522,0 3.089631,-4.27558 0,-4.27558 H 72.121938 c -3.084517,0 -3.089631,4.27558 0,4.27558"
     id="path171"
     inkscape:connector-curvature="0"
     style="fill:#000000;fill-rule:evenodd;stroke:none;stroke-width:1" />
  <path
     d="m 76.731665,259.61837 c 0.08585,6.98216 0.67203,13.89622 1.698747,20.79329 0.462953,3.11335 4.961837,1.79103 4.500124,-1.30533 -0.962002,-6.46105 -1.45109,-12.94966 -1.531984,-19.48796 -0.03839,-3.1566 -4.705467,-3.16444 -4.666887,0"
     id="path173"
     inkscape:connector-curvature="0"
     style="fill:#000000;fill-rule:evenodd;stroke:none;stroke-width:1" />
  <path
     d="m 33.491418,332.2509 c 2.624231,0 2.628581,-4.25343 0,-4.25343 -2.624232,0 -2.628581,4.25343 0,4.25343"
     id="path175"
     inkscape:connector-curvature="0"
     style="fill:#000000;fill-rule:evenodd;stroke:none;stroke-width:1" />
  <path
     d="m 33.491418,332.2509 c 2.624231,0 2.628581,-4.25343 0,-4.25343 -2.624232,0 -2.628581,4.25343 0,4.25343"
     id="path177"
     inkscape:connector-curvature="0"
     style="fill:#000000;fill-rule:evenodd;stroke:none;stroke-width:1" />
  <path
     d="m 33.491418,341.82113 c 2.624231,0 2.628581,-4.25343 0,-4.25343 -2.624232,0 -2.628581,4.25343 0,4.25343"
     id="path179"
     inkscape:connector-curvature="0"
     style="fill:#000000;fill-rule:evenodd;stroke:none;stroke-width:1" />
  <path
     d="m 33.491418,341.82113 c 2.624231,0 2.628581,-4.25343 0,-4.25343 -2.624232,0 -2.628581,4.25343 0,4.25343"
     id="path181"
     inkscape:connector-curvature="0"
     style="fill:#000000;fill-rule:evenodd;stroke:none;stroke-width:1" />
  <path
     d="m 195.73442,325.43589 c -3.23134,6.05373 -5.70767,12.47033 -7.42046,19.22716 -0.78416,3.09399 3.60524,4.4164 4.3894,1.32372 1.61325,-6.36078 3.91842,-12.33478 6.96162,-18.03503 1.48093,-2.77501 -2.45204,-5.2869 -3.93056,-2.51585"
     id="path183"
     inkscape:connector-curvature="0"
     style="fill:#000000;fill-rule:evenodd;stroke:none;stroke-width:1" />
  <path
     d="m 202.1856,325.16947 c -2.26697,6.06146 -4.44815,12.2237 -6.85137,18.22365 -1.16692,2.9136 3.40865,4.18585 4.5617,1.30499 2.40448,-6.00387 4.58187,-12.15827 6.85137,-18.22369 1.10258,-2.94629 -3.47047,-4.22247 -4.5617,-1.30495"
     id="path185"
     inkscape:connector-curvature="0"
     style="fill:#000000;fill-rule:evenodd;stroke:none;stroke-width:1" />
  <path
     d="m 187.0537,338.47081 c 7.91804,-0.79152 15.88209,-0.52228 23.80011,-1.31249 3.04599,-0.3046 3.07667,-5.3825 0,-5.07398 -7.91802,0.79017 -15.88207,0.52093 -23.80011,1.31245 -3.04597,0.3046 -3.07539,5.38119 0,5.07402"
     id="path187"
     inkscape:connector-curvature="0"
     style="fill:#000000;fill-rule:evenodd;stroke:none;stroke-width:1" />
  <path
     d="m 187.04371,342.02612 c 7.21655,-0.89496 14.43696,-1.4642 21.70858,-1.50719 3.09026,-0.0211 3.09667,-4.90459 0,-4.8851 -7.27162,0.043 -14.4933,0.61231 -21.70858,1.50723 -3.02878,0.37631 -3.06592,5.26542 0,4.88506"
     id="path189"
     inkscape:connector-curvature="0"
     style="fill:#000000;fill-rule:evenodd;stroke:none;stroke-width:1" />
  <path
     d="m 400.41295,193.33502 c -1.13976,3.51793 -2.73444,6.76742 -4.74125,9.83496 -1.66562,2.54462 2.30642,4.9353 3.95981,2.40848 2.2245,-3.3996 3.94147,-7.07915 5.20352,-10.97495 0.94532,-2.91613 -3.48287,-4.16808 -4.42208,-1.26849"
     id="path191"
     inkscape:connector-curvature="0"
     style="fill:#000000;fill-rule:evenodd;stroke:none;stroke-width:1" />
  <path
     d="m 411.72281,193.97875 c 0.004,3.36792 -1.34693,6.3199 -3.9164,8.64861 -2.33271,2.11756 1.21719,5.46653 3.54724,3.35273 3.48703,-3.16183 5.3904,-7.43745 5.38505,-12.00134 -0.004,-3.05057 -5.01989,-3.05564 -5.01589,0"
     id="path193"
     inkscape:connector-curvature="0"
     style="fill:#000000;fill-rule:evenodd;stroke:none;stroke-width:1" />
  <path
     d="m 476.93461,259.15578 c -4.49925,3.33674 -8.77706,6.94385 -13.27497,10.28059 -1.4291,1.05933 -1.80613,3.26194 0,4.24904 5.71092,3.12276 10.69057,6.85593 14.7282,11.92143 1.98995,2.49665 5.52842,-1.00942 3.5586,-3.47984 -4.28857,-5.38181 -9.68954,-9.38014 -15.74669,-12.69063 v 4.24904 c 4.4979,-3.33674 8.77707,-6.94259 13.27497,-10.27932 2.54686,-1.88886 0.043,-6.16545 -2.54011,-4.25031"
     id="path195"
     inkscape:connector-curvature="0"
     style="fill:#000000;fill-rule:evenodd;stroke:none;stroke-width:1" />
  <path
     d="m 356.44369,324.00231 c -4.49939,3.33674 -8.77735,6.94386 -13.2754,10.28059 -1.42913,1.05929 -1.8062,3.2619 0,4.249 5.71112,3.12276 10.69091,6.85593 14.72868,11.92138 1.9887,2.49666 5.52728,-1.00942 3.55872,-3.47979 -4.2887,-5.38182 -9.68985,-9.38014 -15.74718,-12.69059 v 4.249 c 4.49804,-3.33674 8.77735,-6.94254 13.2754,-10.27924 2.54693,-1.89021 0.043,-6.16549 -2.54022,-4.25035"
     id="path197"
     inkscape:connector-curvature="0"
     style="fill:#000000;fill-rule:evenodd;stroke:none;stroke-width:1" />
  <path
     d="m 409.87837,260.62374 c -3.19161,6.79299 -6.56237,13.46865 -10.11817,20.03227 -1.47678,2.72826 2.34303,5.21399 3.81627,2.49366 3.5558,-6.56231 6.92656,-13.23797 10.11818,-20.03096 1.32119,-2.81391 -2.49154,-5.31546 -3.81628,-2.49497"
     id="path199"
     inkscape:connector-curvature="0"
     style="fill:#000000;fill-rule:evenodd;stroke:none;stroke-width:1" />
  <path
     d="m 337.34147,272.21256 h 14.06632 c 3.08453,0 3.08964,-4.27558 0,-4.27558 h -14.06632 c -3.08452,0 -3.08964,4.27558 0,4.27558"
     id="path201"
     inkscape:connector-curvature="0"
     style="fill:#000000;fill-rule:evenodd;stroke:none;stroke-width:1" />
  <path
     d="m 341.95119,259.61837 c 0.0859,6.98216 0.67204,13.89622 1.69875,20.79329 0.4642,3.11335 4.96183,1.79103 4.50012,-1.30533 -0.962,-6.46105 -1.45109,-12.94966 -1.53198,-19.48796 -0.0384,-3.1566 -4.70547,-3.16444 -4.66689,0"
     id="path203"
     inkscape:connector-curvature="0"
     style="fill:#000000;fill-rule:evenodd;stroke:none;stroke-width:1" />
  <path
     d="m 267.40107,272.21256 h 14.06633 c 3.08452,0 3.08963,-4.27558 0,-4.27558 h -14.06633 c -3.08452,0 -3.08963,4.27558 0,4.27558"
     id="path205"
     inkscape:connector-curvature="0"
     style="fill:#000000;fill-rule:evenodd;stroke:none;stroke-width:1" />
  <path
     d="m 267.50924,272.20961 c 5.07921,-0.2236 10.15708,-0.44757 15.23493,-0.66998 3.22259,-0.14217 3.24003,-5.16822 0,-5.02487 -5.07785,0.22233 -10.15572,0.44622 -15.23493,0.66998 -3.22259,0.14217 -3.24001,5.16691 0,5.02487"
     id="path207"
     inkscape:connector-curvature="0"
     style="fill:#000000;fill-rule:evenodd;stroke:none;stroke-width:1" />
  <path
     d="m 290.01502,332.07084 c 2.76762,0 2.7722,-4.27562 0,-4.27562 -2.76763,0 -2.77222,4.27562 0,4.27562"
     id="path209"
     inkscape:connector-curvature="0"
     style="fill:#000000;fill-rule:evenodd;stroke:none;stroke-width:1" />
  <path
     d="m 290.01502,332.07084 c 2.76762,0 2.7722,-4.27562 0,-4.27562 -2.76763,0 -2.77222,4.27562 0,4.27562"
     id="path211"
     inkscape:connector-curvature="0"
     style="fill:#000000;fill-rule:evenodd;stroke:none;stroke-width:1" />
  <path
     d="m 288.63005,342.04717 c 2.76763,0 2.77222,-4.27557 0,-4.27557 -2.76761,0 -2.7722,4.27557 0,4.27557"
     id="path213"
     inkscape:connector-curvature="0"
     style="fill:#000000;fill-rule:evenodd;stroke:none;stroke-width:1" />
  <path
     d="m 288.63005,342.04717 c 2.76763,0 2.77222,-4.27557 0,-4.27557 -2.76761,0 -2.7722,4.27557 0,4.27557"
     id="path215"
     inkscape:connector-curvature="0"
     style="fill:#000000;fill-rule:evenodd;stroke:none;stroke-width:1" />
  <path
     d="m 433.94736,325.43589 c -3.2313,6.05373 -5.70754,12.47033 -7.42031,19.22716 -0.78536,3.09399 3.60517,4.4164 4.38931,1.32372 1.61321,-6.36078 3.91833,-12.33478 6.96145,-18.03503 1.4809,-2.77501 -2.45198,-5.2869 -3.93045,-2.51585"
     id="path217"
     inkscape:connector-curvature="0"
     style="fill:#000000;fill-rule:evenodd;stroke:none;stroke-width:1" />
  <path
     d="m 441.78361,325.16947 c -2.26703,6.06146 -4.44829,12.2237 -6.85159,18.22365 -1.16695,2.9136 3.40875,4.18585 4.56182,1.30499 2.40456,-6.00387 4.58203,-12.15827 6.85159,-18.22369 1.10134,-2.94629 -3.4706,-4.22247 -4.56182,-1.30495"
     id="path219"
     inkscape:connector-curvature="0"
     style="fill:#000000;fill-rule:evenodd;stroke:none;stroke-width:1" />
  <path
     d="m 425.95908,338.47081 c 7.91817,-0.79152 15.88233,-0.52228 23.8005,-1.31249 3.04602,-0.3046 3.07542,-5.3825 0,-5.07398 -7.91817,0.79017 -15.88233,0.52093 -23.8005,1.31245 -3.04607,0.3046 -3.07547,5.38119 0,5.07402"
     id="path221"
     inkscape:connector-curvature="0"
     style="fill:#000000;fill-rule:evenodd;stroke:none;stroke-width:1" />
  <path
     d="m 425.94899,342.02612 c 7.21647,-0.89496 14.43678,-1.4642 21.70961,-1.50719 3.08892,-0.0211 3.09534,-4.90459 0,-4.8851 -7.27283,0.043 -14.49314,0.61231 -21.70961,1.50723 -3.02872,0.37631 -3.06589,5.26542 0,4.88506"
     id="path223"
     inkscape:connector-curvature="0"
     style="fill:#000000;fill-rule:evenodd;stroke:none;stroke-width:1" />
  <path
     d="m 522.2334,274.35033 h 14.06632 c 3.08454,0 3.08965,-4.27558 0,-4.27558 H 522.2334 c -3.0845,0 -3.0896,4.27558 0,4.27558"
     id="path225"
     inkscape:connector-curvature="0"
     style="fill:#000000;fill-rule:evenodd;stroke:none;stroke-width:1" />
  <path
     d="m 522.34157,274.34737 c 5.0792,-0.22359 10.1571,-0.44752 15.23496,-0.66998 3.22257,-0.14217 3.24,-5.16822 0,-5.02482 -5.07786,0.22233 -10.15576,0.44622 -15.23496,0.66998 -3.22258,0.14217 -3.24,5.16687 0,5.02482"
     id="path227"
     inkscape:connector-curvature="0"
     style="fill:#000000;fill-rule:evenodd;stroke:none;stroke-width:1" />
  <path
     d="m 510.91588,332.07084 c 2.76763,0 2.77223,-4.27562 0,-4.27562 -2.76762,0 -2.77222,4.27562 0,4.27562"
     id="path229"
     inkscape:connector-curvature="0"
     style="fill:#000000;fill-rule:evenodd;stroke:none;stroke-width:1" />
  <path
     d="m 510.91588,332.07084 c 2.76763,0 2.77223,-4.27562 0,-4.27562 -2.76762,0 -2.77222,4.27562 0,4.27562"
     id="path231"
     inkscape:connector-curvature="0"
     style="fill:#000000;fill-rule:evenodd;stroke:none;stroke-width:1" />
  <path
     d="m 510.91588,342.04717 c 2.76763,0 2.77223,-4.27557 0,-4.27557 -2.76762,0 -2.77222,4.27557 0,4.27557"
     id="path233"
     inkscape:connector-curvature="0"
     style="fill:#000000;fill-rule:evenodd;stroke:none;stroke-width:1" />
  <path
     d="m 510.91588,342.04717 c 2.76763,0 2.77223,-4.27557 0,-4.27557 -2.76762,0 -2.77222,4.27557 0,4.27557"
     id="path235"
     inkscape:connector-curvature="0"
     style="fill:#000000;fill-rule:evenodd;stroke:none;stroke-width:1" />
  <use
     id="Oval-Copy"
     xlink:href="#path-1"
     style="fill:#7d6efa;fill-rule:evenodd;stroke:none;stroke-width:0.99814814;fill-opacity:1"
     x="0"
     y="0"
     width="100%"
     height="100%"
     transform="matrix(1.0018553,0,0,1.0018553,0,-4.12e-5)" />
  <rect
     style="fill:#7d6efa;fill-rule:evenodd;stroke:none;stroke-width:1;fill-opacity:1"
     height="269"
     width="539"
     y="270.5"
     x="0.5"
     id="Rectangle" />
  <text
     style="font-style:normal;font-variant:normal;font-weight:normal;font-stretch:normal;font-size:60px;font-family:'Abril Fatface';-inkscape-font-specification:'Abril Fatface, Normal';font-variant-ligatures:normal;font-variant-caps:normal;font-variant-numeric:normal;font-feature-settings:normal;text-align:center;writing-mode:lr-tb;text-anchor:middle;fill:#ffffff;fill-rule:evenodd;stroke:none;stroke-width:1"
     line-spacing="70"
     font-weight="700"
     font-size="60"
     id="Veri-Analitii-Atly"
     x="269.52844"
     y="251.88">
    <tspan
       sodipodi:role="line"
       id="tspan1944"
       x="269.52844"
       y="251.88">nyz</tspan>
    <tspan
       sodipodi:role="line"
       id="tspan1946"
       x="269.52844"
       y="326.88">Gelitirme</tspan>
  </text>
</svg>
