<?xml version="1.0" encoding="utf-8"?>
<!-- Generator: Adobe Illustrator 22.1.0, SVG Export Plug-In . SVG Version: 6.00 Build 0)  -->
<svg version="1.1" xmlns="http://www.w3.org/2000/svg" xmlns:xlink="http://www.w3.org/1999/xlink" x="0px" y="0px"
	 viewBox="0 0 1000 1000" style="enable-background:new 0 0 1000 1000;" xml:space="preserve">
<style type="text/css">
	.st0{clip-path:url(#SVGID_2_);}
	.st1{opacity:0;fill:#FFFFFF;}
	.st2{opacity:5.882353e-02;fill:#F8F8F8;}
	.st3{opacity:0.1176;fill:#F3F3F3;}
	.st4{opacity:0.1765;fill:#EDEDED;}
	.st5{opacity:0.2353;fill:#E8E8E8;}
	.st6{opacity:0.2941;fill:#E2E2E2;}
	.st7{opacity:0.3529;fill:#DDDDDD;}
	.st8{opacity:0.4118;fill:#D7D7D7;}
	.st9{opacity:0.4706;fill:#D2D2D2;}
	.st10{opacity:0.5294;fill:#CCCCCC;}
	.st11{opacity:0.5882;fill:#C7C7C7;}
	.st12{opacity:0.6471;fill:#C1C1C1;}
	.st13{opacity:0.7059;fill:#BCBCBC;}
	.st14{opacity:0.7647;fill:#B6B6B6;}
	.st15{opacity:0.8235;fill:#B1B1B1;}
	.st16{opacity:0.8824;fill:#ABABAB;}
	.st17{opacity:0.9412;fill:#A6A6A6;}
	.st18{fill:#A0A0A0;}
	.st19{fill:#FFFFFF;}
	.st20{clip-path:url(#SVGID_4_);fill:#9FACAF;}
	.st21{clip-path:url(#SVGID_4_);}
	.st22{opacity:0.2;fill:#D6DDDE;}
	.st23{opacity:0.5;}
	.st24{fill:#D6DDDE;}
	.st25{opacity:0.24;}
	.st26{opacity:0.21;fill:#F5FDFF;}
	.st27{opacity:0.11;fill:#F5FDFF;}
	.st28{fill:url(#SVGID_5_);}
	.st29{opacity:7.000000e-02;fill:#2B2B2B;}
	.st30{fill:#F3AB88;}
	.st31{opacity:0.1;fill:#1E1E1E;}
	.st32{fill:#ECA489;}
	.st33{fill:url(#SVGID_6_);}
	.st34{fill:url(#SVGID_7_);}
	.st35{fill:url(#SVGID_8_);}
	.st36{fill:#BEBDBD;}
	.st37{opacity:0.2;fill:#D5B3B3;}
	.st38{fill:#CDCBCB;}
	.st39{fill:#9F9F9F;}
	.st40{fill:#141313;}
	.st41{opacity:0.3;fill:#FFFFFF;}
	.st42{opacity:0.2;fill:#FFFFFF;}
	.st43{fill:#373737;}
	.st44{clip-path:url(#SVGID_10_);}
	.st45{fill:#EFEFF1;}
	.st46{fill:none;stroke:#EAEAED;stroke-width:2;stroke-miterlimit:10;}
	.st47{fill:#8DA8B1;}
	.st48{fill:#2F3A3F;}
	.st49{fill:#EE2047;}
	.st50{fill:#9A248D;}
	.st51{fill:#0094D7;}
	.st52{fill:#FFD401;}
	.st53{fill:#05C890;}
	.st54{fill:#C6C8C8;}
	.st55{fill:#6B6BD5;}
	.st56{fill:#78C1C4;}
	.st57{fill:#FBEC7E;}
	.st58{fill:#6DB4B4;}
	.st59{fill:#6666CB;}
	.st60{opacity:0.1;fill:#2B2B2B;}
	.st61{clip-path:url(#SVGID_4_);fill:none;}
	.st62{opacity:0.24;clip-path:url(#SVGID_4_);}
	.st63{fill:#279F6E;}
	.st64{opacity:0.83;clip-path:url(#SVGID_4_);fill:#BAC8CB;}
	.st65{clip-path:url(#SVGID_12_);fill:#9FACAF;}
	.st66{opacity:0.83;clip-path:url(#SVGID_12_);fill:#BAC8CB;}
	.st67{clip-path:url(#SVGID_12_);}
	.st68{clip-path:url(#SVGID_12_);fill:none;}
	.st69{fill:#1E1E1E;}
	.st70{fill:#F1C4AC;}
	.st71{fill:#F3C6AD;}
	.st72{clip-path:url(#SVGID_14_);}
	.st73{fill:#7E879A;}
	.st74{fill:#FFAAAD;}
	.st75{fill:#FF4349;}
	.st76{fill:#3089DB;}
	.st77{fill:#84B9E9;}
	.st78{fill:#C7C7CE;}
	.st79{fill:#C5C5C5;}
	.st80{fill:#4C4C4C;}
	.st81{fill:#8A8A8A;}
	.st82{fill:#4D4D4D;}
	.st83{fill:#A4CEE7;}
	.st84{fill:#FFF261;}
	.st85{fill:#BEBEC7;}
	.st86{fill:#FFE08F;}
	.st87{fill:#FF9B2F;}
	.st88{fill:#FFC45E;}
	.st89{fill:#EEC2AA;}
	.st90{fill:#ED509B;}
	.st91{opacity:5.000000e-02;fill:#2B2B2B;}
	.st92{fill:#D74C95;}
	.st93{opacity:0.24;fill:#FFFFFF;}
	.st94{opacity:0.24;fill:#4C4C4C;}
	.st95{fill:#83E6A2;}
	.st96{fill:#E67E74;}
	.st97{clip-path:url(#SVGID_16_);fill:#9FACAF;}
	.st98{clip-path:url(#SVGID_16_);}
	.st99{clip-path:url(#SVGID_16_);fill:none;}
	.st100{opacity:0.24;clip-path:url(#SVGID_16_);}
	.st101{opacity:0.83;clip-path:url(#SVGID_16_);fill:#BAC8CB;}
	.st102{opacity:0.2;clip-path:url(#SVGID_16_);fill:#D6DDDE;}
	.st103{opacity:0.5;clip-path:url(#SVGID_16_);}
	.st104{opacity:0.11;clip-path:url(#SVGID_16_);fill:#F5FDFF;}
	.st105{clip-path:url(#SVGID_18_);}
	.st106{clip-path:url(#SVGID_20_);fill:#9FACAF;}
	.st107{opacity:0.83;clip-path:url(#SVGID_20_);fill:#BAC8CB;}
	.st108{clip-path:url(#SVGID_20_);}
	.st109{clip-path:url(#SVGID_20_);fill:none;}
	.st110{clip-path:url(#SVGID_22_);}
	.st111{fill:#905EB0;}
	.st112{clip-path:url(#SVGID_24_);fill:#9FACAF;}
	.st113{clip-path:url(#SVGID_24_);}
	.st114{clip-path:url(#SVGID_24_);fill:none;}
	.st115{opacity:0.24;clip-path:url(#SVGID_24_);}
	.st116{opacity:0.83;clip-path:url(#SVGID_24_);fill:#BAC8CB;}
	.st117{opacity:0.2;clip-path:url(#SVGID_24_);fill:#D6DDDE;}
	.st118{opacity:0.5;clip-path:url(#SVGID_24_);}
	.st119{opacity:0.11;clip-path:url(#SVGID_24_);fill:#F5FDFF;}
	.st120{clip-path:url(#SVGID_26_);}
	.st121{clip-path:url(#SVGID_28_);fill:#9FACAF;}
	.st122{clip-path:url(#SVGID_28_);}
	.st123{clip-path:url(#SVGID_28_);fill:none;}
	.st124{opacity:0.24;clip-path:url(#SVGID_28_);}
	.st125{opacity:0.83;clip-path:url(#SVGID_28_);fill:#BAC8CB;}
	.st126{opacity:0.2;clip-path:url(#SVGID_28_);fill:#D6DDDE;}
	.st127{opacity:0.5;clip-path:url(#SVGID_28_);}
	.st128{opacity:0.11;clip-path:url(#SVGID_28_);fill:#F5FDFF;}
	.st129{clip-path:url(#SVGID_30_);}
	.st130{fill:#818181;}
	.st131{clip-path:url(#SVGID_32_);fill:#9FACAF;}
	.st132{opacity:0.83;clip-path:url(#SVGID_32_);fill:#BAC8CB;}
	.st133{clip-path:url(#SVGID_32_);}
	.st134{clip-path:url(#SVGID_32_);fill:none;}
	.st135{clip-path:url(#SVGID_34_);}
	.st136{fill:none;stroke:#000000;}
	.st137{fill:none;stroke:#000000;stroke-width:1.5;}
	.st138{fill:none;stroke:#000000;stroke-width:0.5;stroke-miterlimit:10;}
	.st139{fill:#221F20;}
</style>
<g id="BACKGROUND">
</g>
<g id="CHARACTERS">
</g>
<g id="FOREGROUND">
</g>
<g id="NAVIGATION">
</g>
<g id="JUST_x5F_FRAME">
	<g>
		<g>
			<defs>
				<path id="SVGID_15_" d="M131.9,265.4c2.5-7,3.5-15,2.5-24.4c-2.9-25.3-20.8-55.4-3.8-77.5c16.4-21.3,40-37.6,66.8-42.1
					c34.4-5.8,70.2-2.8,102.5-17.9c40.9-19.1,71.6-45.1,118.8-47.2c25.3-1.2,48.9,1.9,72.9,10.1c23.5,8.1,41,23.5,62.8,34.6
					c57.9,29.4,132.4,19.2,195.3,19.1c22.1,0,43.3,0.6,62.2,13.9c19.1,13.4,26.3,37.9,38.3,57c12.3,19.6,26.1,37,43.9,51.9
					c21.5,17.9,44.8,32.7,58.1,58.5c24.7,48.2-4.5,98.7-0.5,148.8c3.9,50.4,55.8,121.3,27.7,170c-12.8,22.2-28.3,34.9-31.3,61.9
					c-3.8,34.6,4.9,70.7-3.1,104.9c-23,98.6-138.6,108.8-219.1,132.9c-32.1,9.6-63.6,23.1-97.6,24c-33.4,0.9-63.6-12.3-95.9-18.3
					c-72.8-13.5-147.6-2.3-220.8-0.1c-65.2,2-142.1-32.1-170-95.7c-29-66.1,27.9-116.5,37.4-178c4.9-31.7-3.2-61.7-33.6-76.7
					c-28.8-14.2-61.9-9.8-91.5-21.4c-30.9-12.1-42.8-38.9-41.6-70.5c1.5-39.3,26.9-68.6,42.4-102.9c12.3-27.2,9.9-54,36.7-72.9
					C108.8,295.1,125.4,283.4,131.9,265.4z"/>
			</defs>
			<clipPath id="SVGID_2_">
				<use xlink:href="#SVGID_15_"  style="overflow:visible;"/>
			</clipPath>
			<path style="clip-path:url(#SVGID_2_);fill:#9FACAF;" d="M131.9,265.4c2.5-7,3.5-15,2.5-24.4c-2.9-25.3-20.8-55.4-3.8-77.5
				c16.4-21.3,40-37.6,66.8-42.1c34.4-5.8,70.2-2.8,102.5-17.9c40.9-19.1,71.6-45.1,118.8-47.2c25.3-1.2,48.9,1.9,72.9,10.1
				c23.5,8.1,41,23.5,62.8,34.6c57.9,29.4,132.4,19.2,195.3,19.1c22.1,0,43.3,0.6,62.2,13.9c19.1,13.4,26.3,37.9,38.3,57
				c12.3,19.6,26.1,37,43.9,51.9c21.5,17.9,44.8,32.7,58.1,58.5c24.7,48.2-4.5,98.7-0.5,148.8c3.9,50.4,55.8,121.3,27.7,170
				c-12.8,22.2-28.3,34.9-31.3,61.9c-3.8,34.6,4.9,70.7-3.1,104.9c-23,98.6-138.6,108.8-219.1,132.9c-32.1,9.6-63.6,23.1-97.6,24
				c-33.4,0.9-63.6-12.3-95.9-18.3c-72.8-13.5-147.6-2.3-220.8-0.1c-65.2,2-142.1-32.1-170-95.7c-29-66.1,27.9-116.5,37.4-178
				c4.9-31.7-3.2-61.7-33.6-76.7c-28.8-14.2-61.9-9.8-91.5-21.4c-30.9-12.1-42.8-38.9-41.6-70.5c1.5-39.3,26.9-68.6,42.4-102.9
				c12.3-27.2,9.9-54,36.7-72.9C108.8,295.1,125.4,283.4,131.9,265.4z"/>
			<g class="st0">
				<g class="st25">
					<path class="st19" d="M690.7,159c-0.8-1-1-2.1-0.5-3.1c0.8-1.9,3-2.4,5.2-1.4c2.6,1.1,3,3.1,2.4,4.4c-0.4,0.9-1.3,1.7-2.7,1.7
						l0,0.1c0.9,0.9,1.4,2.2,0.8,3.6c-0.9,2-3.1,2.6-5.7,1.5c-2.8-1.2-3.4-3.4-2.7-4.8C688.1,159.6,689.3,159,690.7,159L690.7,159z
						 M693.2,163.3c0.4-1-0.1-1.9-0.9-2.6c-0.9-0.1-1.7,0.3-2.1,1.1c-0.4,0.8-0.1,1.8,0.9,2.2C692,164.4,692.9,164.1,693.2,163.3z
						 M692.6,156.8c-0.3,0.7,0.1,1.5,0.9,2.2c0.7,0.1,1.4-0.2,1.7-0.9c0.3-0.7,0.2-1.5-0.7-2C693.6,155.8,692.9,156.2,692.6,156.8z"
						/>
					<path class="st19" d="M706.3,166c-1.5,3.4-3.9,5.1-6.7,3.9c-2.8-1.2-3-4.3-1.6-7.5c1.4-3.2,3.8-5.1,6.7-3.9
						C707.6,159.8,707.7,163,706.3,166z M700.6,163.5c-1.1,2.5-1,4,0,4.4c1,0.4,2.1-0.6,3.2-3.1c1.1-2.4,1.1-3.9,0.1-4.4
						C702.9,160.1,701.7,161,700.6,163.5z"/>
					<path class="st19" d="M714.4,166.7c-1,2.3-3,2.9-4.6,2.2c-1.7-0.7-2.4-2.6-1.5-4.6c0.9-2,2.7-2.9,4.6-2.1
						C714.8,163,715.2,164.8,714.4,166.7z M710.2,165c-0.5,1.1-0.5,2.1,0.3,2.5c0.7,0.3,1.4-0.3,2-1.5c0.5-1.1,0.6-2.1-0.2-2.5
						C711.4,163.2,710.7,163.9,710.2,165z M707.9,173.5l11.3-8.6l1.4,0.6l-11.3,8.6L707.9,173.5z M720.3,174.7c-1,2.3-3,2.9-4.6,2.2
						c-1.7-0.7-2.4-2.6-1.5-4.6c0.9-2,2.7-2.9,4.6-2.1C720.7,171,721.1,172.8,720.3,174.7z M716.2,173c-0.5,1.1-0.5,2.1,0.2,2.5
						c0.7,0.3,1.4-0.3,1.9-1.5c0.5-1.1,0.6-2.1-0.2-2.5C717.4,171.2,716.6,171.9,716.2,173z"/>
				</g>
			</g>
			<polygon style="clip-path:url(#SVGID_2_);fill:none;" points="1002.5,952.2 -5,952.2 -5,144.6 1002.5,144.6 1002.5,144.6 
				1002.5,952.2 			"/>
			<g style="opacity:0.24;clip-path:url(#SVGID_2_);">
				<polygon class="st19" points="622.7,831.3 608.4,814.2 594,831.3 594,855.4 622.7,855.4 				"/>
				<polygon class="st19" points="659.8,744.4 645.4,727.2 631.1,744.4 631.1,855.4 659.8,855.4 				"/>
				<polygon class="st19" points="696.9,773.2 682.5,756 668.2,773.2 668.2,855.4 696.9,855.4 				"/>
				<polygon class="st19" points="734,759 719.6,741.8 705.3,759 705.3,855.4 734,855.4 				"/>
				<polygon class="st19" points="771.1,793 756.7,775.9 742.3,793 742.3,855.4 771.1,855.4 				"/>
				<polygon class="st19" points="808.2,837.1 793.8,819.9 779.4,837.1 779.4,855.4 808.2,855.4 				"/>
				<polygon class="st19" points="802.5,825.5 815.7,812.6 822.7,832.9 				"/>
				<polygon class="st19" points="727.7,729.1 688.1,745.6 646.9,684.3 574,855.4 579.1,855.4 647.8,694 686.4,751.4 726.5,734.6 
					813.5,827.1 816.9,823.9 				"/>
			</g>
			<path style="opacity:0.83;clip-path:url(#SVGID_2_);fill:#BAC8CB;" d="M979.4,620.2c28.1-48.7-23.8-119.6-27.7-170
				c-3.9-50.1,25.3-100.5,0.5-148.8c-13.2-25.8-36.5-40.5-58.1-58.5c-17.8-14.8-31.6-32.3-43.9-51.9c-12-19.1-19.2-43.6-38.3-57
				c-18.9-13.3-40.1-13.9-62.2-13.9c-62.9,0-137.4,10.2-195.3-19.1c-21.9-11.1-39.3-26.5-62.8-34.6c-24-8.2-47.6-11.3-72.9-10.1
				c-47.2,2.2-78,28.1-118.8,47.2c-32.3,15.1-68.1,12.1-102.5,17.9c-26.8,4.5-50.4,20.7-66.8,42.1c-17,22.1,0.9,52.2,3.8,77.5
				c1.1,9.4,0.1,17.4-2.5,24.4c-6.5,18-23.1,29.8-40.5,42c-26.7,18.9-24.3,45.7-36.7,72.9c-15.5,34.2-40.9,63.5-42.4,102.9
				c-1.2,31.7,10.6,58.4,41.6,70.5c29.6,11.6,62.7,7.1,91.5,21.4c30.5,15,38.6,44.9,33.6,76.7c-9.6,61.4-66.4,111.8-37.4,178
				c27.9,63.7,104.7,97.7,170,95.7c73.1-2.2,147.9-13.4,220.8,0.1c32.4,6,62.5,19.2,95.9,18.3c34-0.9,65.5-14.4,97.6-24
				C806.4,895.8,921.9,885.6,945,787c8-34.2-0.7-70.3,3.1-104.9C951.1,655.1,966.6,642.4,979.4,620.2z M944.7,611.5
				c-11.9,20.6-26.3,32.4-29.1,57.4c-3.6,32.1,4.5,65.6-2.9,97.3c-21.4,91.5-128.5,100.9-203.2,123.3c-29.8,8.9-59,21.4-90.5,22.2
				c-31,0.8-59-11.4-89-17c-67.5-12.5-136.9-2.2-204.8-0.1c-60.5,1.8-131.8-29.7-157.6-88.8c-26.9-61.3,25.9-108.1,34.7-165.1
				c4.6-29.4-0.1-72.1-28.3-86.1c-26.7-13.2-50.8-6.3-78.2-17.1c-28.7-11.2-49.2-23.9-48.1-53.2c1.4-36.5,25-63.7,39.4-95.4
				c11.5-25.3,9.2-50.1,34-67.6c16.1-11.4,31.5-22.3,37.5-39c2.4-6.5,3.3-13.9,2.3-22.6c-2.7-23.5-19.3-51.4-3.5-71.9
				c15.2-19.8,37.1-34.8,61.9-39c31.9-5.4,65.1-2.6,95.1-16.6c37.9-17.8,66.5-41.8,110.2-43.8c23.5-1.1,45.4,1.8,67.6,9.4
				c21.8,7.5,38,21.8,58.3,32.1c53.7,27.3,122.8,17.8,181.2,17.8c20.5,0,40.2,0.5,57.7,12.8c17.7,12.4,24.4,35.2,35.5,52.9
				c11.4,18.1,24.2,34.4,40.7,48.1c20,16.6,41.6,30.3,53.9,54.2c22.9,44.7-4.1,91.6-0.5,138C922.6,500.5,970.7,566.3,944.7,611.5z"
				/>
			<polygon style="opacity:0.2;clip-path:url(#SVGID_2_);fill:#D6DDDE;" points="553,354.5 387.9,254.9 553,155.3 			"/>
			<polygon style="opacity:0.2;clip-path:url(#SVGID_2_);fill:#D6DDDE;" points="429.6,880.7 264.5,781.1 429.6,681.5 			"/>
			<g style="opacity:0.5;clip-path:url(#SVGID_2_);">
				<rect x="631.4" y="254.5" class="st24" width="12.7" height="2.6"/>
				<rect x="636.4" y="249.5" class="st24" width="2.6" height="12.7"/>
			</g>
			<g style="opacity:0.5;clip-path:url(#SVGID_2_);">
				
					<rect x="183" y="308.7" transform="matrix(0.7071 -0.7071 0.7071 0.7071 -168.7923 222.6142)" class="st24" width="2.6" height="12.7"/>
				
					<rect x="178" y="313.8" transform="matrix(0.707 -0.7072 0.7072 0.707 -168.8054 222.6644)" class="st24" width="12.7" height="2.6"/>
			</g>
			<g style="opacity:0.24;clip-path:url(#SVGID_2_);">
				<rect x="775.4" y="413.7" class="st19" width="28.3" height="2.6"/>
				<rect x="760.1" y="399.6" class="st19" width="59.1" height="2.6"/>
				<rect x="773.6" y="377" class="st19" width="15.9" height="2.6"/>
				<rect x="773.6" y="361.8" class="st19" width="15.9" height="2.6"/>
				<rect x="781.1" y="383.1" class="st19" width="15.9" height="2.6"/>
				<rect x="773.6" y="389.1" class="st19" width="15.9" height="2.6"/>
				<g>
					
						<rect x="777" y="410" transform="matrix(0.7071 -0.7071 0.7071 0.7071 -61.7318 673.639)" class="st19" width="10.5" height="2.6"/>
					
						<rect x="795.4" y="406.1" transform="matrix(0.7071 -0.7071 0.7071 0.7071 -57.5039 683.846)" class="st19" width="2.6" height="10.5"/>
				</g>
			</g>
			<g class="st0">
				
					<rect x="221.5" y="239.6" transform="matrix(0.7071 -0.7071 0.7071 0.7071 -101.145 237.7393)" class="st26" width="29.7" height="2.6"/>
				
					<rect x="211" y="239.6" transform="matrix(0.7071 -0.7071 0.7071 0.7071 -104.2202 230.2988)" class="st26" width="29.7" height="2.6"/>
				
					<rect x="190" y="239.6" transform="matrix(0.7071 -0.7071 0.7071 0.7071 -110.3709 215.4496)" class="st26" width="29.7" height="2.6"/>
			</g>
			<polygon style="opacity:0.11;clip-path:url(#SVGID_2_);fill:#F5FDFF;" points="1061,500.4 982.1,523.4 751,148.6 735.4,153.1 
				684.4,338.4 591.6,365.4 507.5,290.4 476.2,299.5 453.2,280.4 393.2,297.9 379.1,415.6 308.7,436.1 189.1,370.4 167.3,376.8 
				58,747.3 -6.2,766 -7,763.5 55.9,745.2 165.2,374.7 189.4,367.6 309,433.3 376.7,413.6 390.8,295.9 453.8,277.5 476.8,296.6 
				508.1,287.5 592.3,362.5 682.3,336.3 733.3,151 752.2,145.5 983.2,520.3 1060.3,497.9 			"/>
			
				<rect x="-21.7" y="432.5" transform="matrix(0.9796 0.2008 -0.2008 0.9796 109.4355 -90.0949)" style="opacity:0.11;clip-path:url(#SVGID_2_);fill:#F5FDFF;" width="1040.8" height="123.7"/>
			<g style="opacity:0.24;clip-path:url(#SVGID_2_);">
				<g>
					<path class="st19" d="M850.5,490.1c-10.9,0-19.8-8.9-19.8-19.8s8.9-19.8,19.8-19.8s19.8,8.9,19.8,19.8S861.5,490.1,850.5,490.1
						z M850.5,452.3c-9.9,0-18,8.1-18,18c0,9.9,8.1,18,18,18s18-8.1,18-18C868.6,460.4,860.5,452.3,850.5,452.3z"/>
				</g>
				<g>
					<path class="st19" d="M837.3,468.6c-0.1,0-0.1,0-0.2,0c-0.5-0.1-0.8-0.6-0.7-1.1c1.1-5.7,5.5-10.2,11.2-11.4
						c0.5-0.1,1,0.2,1.1,0.7c0.1,0.5-0.2,1-0.7,1.1c-5,1-8.9,4.9-9.8,10C838.1,468.3,837.7,468.6,837.3,468.6z"/>
				</g>
				<g>
					<path class="st19" d="M883,505.2c-1,0-2-0.4-2.7-1.1l-13.5-13.5c-1.5-1.5-1.5-3.9,0-5.3c1.5-1.5,3.9-1.5,5.3,0l0,0l13.5,13.5
						c1.5,1.5,1.5,3.9,0,5.3C884.9,504.8,884,505.2,883,505.2z M869.5,485.9c-0.5,0-1,0.2-1.4,0.6c-0.8,0.8-0.8,2,0,2.8l13.5,13.5
						c0.8,0.8,2,0.8,2.8,0c0.8-0.8,0.8-2,0-2.8l-13.5-13.5C870.5,486.1,870,485.9,869.5,485.9z"/>
				</g>
				<g>
					
						<rect x="865.1" y="482.4" transform="matrix(0.7071 -0.7071 0.7071 0.7071 -88.8938 754.2418)" class="st19" width="1.8" height="4"/>
				</g>
			</g>
			<g style="opacity:0.24;clip-path:url(#SVGID_2_);">
				<g>
					<path class="st19" d="M778.6,816.3c-10.9,0-19.8-8.9-19.8-19.8s8.9-19.8,19.8-19.8s19.8,8.9,19.8,19.8S789.5,816.3,778.6,816.3
						z M778.6,778.4c-9.9,0-18,8.1-18,18c0,9.9,8.1,18,18,18s18-8.1,18-18C796.6,786.5,788.5,778.4,778.6,778.4z"/>
				</g>
				<g>
					<path class="st19" d="M765.3,794.8c-0.1,0-0.1,0-0.2,0c-0.5-0.1-0.8-0.6-0.7-1.1c1.1-5.7,5.5-10.2,11.2-11.4
						c0.5-0.1,1,0.2,1.1,0.7c0.1,0.5-0.2,1-0.7,1.1c-5,1-8.9,4.9-9.8,10C766.1,794.5,765.7,794.8,765.3,794.8z"/>
				</g>
				<g>
					<path class="st19" d="M811,831.3c-1,0-2-0.4-2.7-1.1l-13.5-13.5c-1.5-1.5-1.5-3.9,0-5.3c1.5-1.5,3.9-1.5,5.3,0l0,0l13.5,13.5
						c1.5,1.5,1.5,3.9,0,5.3C812.9,830.9,812,831.3,811,831.3z M797.5,812c-0.5,0-1,0.2-1.4,0.6c-0.8,0.8-0.8,2,0,2.8l13.5,13.5
						c0.8,0.8,2,0.8,2.8,0c0.8-0.8,0.8-2,0-2.8l-13.5-13.5C798.5,812.2,798,812,797.5,812z"/>
				</g>
				<g>
					
						<rect x="793.1" y="808.5" transform="matrix(0.7071 -0.7071 0.7071 0.7071 -340.5874 798.8654)" class="st19" width="1.8" height="4"/>
				</g>
			</g>
			<g style="opacity:0.24;clip-path:url(#SVGID_2_);">
				<g>
					<path class="st19" d="M304.3,169.5h-5.7c-1.6,0-2.8-1.3-2.8-2.8v-9.9c0-1.6,1.3-2.8,2.8-2.8h5.7c1.6,0,2.8,1.3,2.8,2.8v9.9
						C307.1,168.2,305.9,169.5,304.3,169.5z M298.6,156.7v9.9h5.7v-9.9H298.6z"/>
				</g>
				<g>
					<path class="st19" d="M365.3,169.5c-0.8,0-1.4-0.6-1.4-1.4v-10.6c0-0.4-0.3-0.7-0.7-0.7h-4.3c-0.4,0-0.7,0.3-0.7,0.7v4.3
						c0,0.8-0.6,1.4-1.4,1.4c-0.8,0-1.4-0.6-1.4-1.4v-4.3c0-2,1.6-3.5,3.5-3.5h4.3c2,0,3.5,1.6,3.5,3.5v10.6
						C366.7,168.9,366.1,169.5,365.3,169.5z"/>
				</g>
				<g>
					<path class="st19" d="M327,169.5c-0.8,0-1.4-0.6-1.4-1.4v-10.6c0-2,1.6-3.5,3.5-3.5h4.3c2,0,3.5,1.6,3.5,3.5v4.3
						c0,0.8-0.6,1.4-1.4,1.4c-0.8,0-1.4-0.6-1.4-1.4v-4.3c0-0.4-0.3-0.7-0.7-0.7h-4.3c-0.4,0-0.7,0.3-0.7,0.7v10.6
						C328.4,168.9,327.8,169.5,327,169.5z"/>
				</g>
				<g>
					<path class="st19" d="M316.4,169.5c-0.8,0-1.4-0.6-1.4-1.4v-12.8c0-0.8,0.6-1.4,1.4-1.4c0.8,0,1.4,0.6,1.4,1.4v12.8
						C317.8,168.9,317.1,169.5,316.4,169.5z"/>
				</g>
				<g>
					<path class="st19" d="M346.2,161c-0.8,0-1.4-0.6-1.4-1.4v-4.3c0-0.8,0.6-1.4,1.4-1.4c0.8,0,1.4,0.6,1.4,1.4v4.3
						C347.6,160.3,346.9,161,346.2,161z"/>
				</g>
				<g>
					<path class="st19" d="M280.2,216.3c-0.8,0-1.4-0.6-1.4-1.4v-12.8c0-0.8,0.6-1.4,1.4-1.4c0.8,0,1.4,0.6,1.4,1.4v12.8
						C281.6,215.7,281,216.3,280.2,216.3z"/>
				</g>
				<g>
					<path class="st19" d="M287.3,169.5h-5.7c-1.6,0-2.8-1.3-2.8-2.8v-9.9c0-1.6,1.3-2.8,2.8-2.8h5.7c1.6,0,2.8,1.3,2.8,2.8v9.9
						C290.1,168.2,288.8,169.5,287.3,169.5z M281.6,156.7v9.9h5.7v-9.9H281.6z"/>
				</g>
				<g>
					<path class="st19" d="M287.3,192.9h-5.7c-1.6,0-2.8-1.3-2.8-2.8v-9.9c0-1.6,1.3-2.8,2.8-2.8h5.7c1.6,0,2.8,1.3,2.8,2.8v9.9
						C290.1,191.6,288.8,192.9,287.3,192.9z M281.6,180.1v9.9h5.7v-9.9H281.6z"/>
				</g>
				<g>
					<path class="st19" d="M315,192.9h-5.7c-1.6,0-2.8-1.3-2.8-2.8v-9.9c0-1.6,1.3-2.8,2.8-2.8h5.7c1.6,0,2.8,1.3,2.8,2.8v9.9
						C317.8,191.6,316.5,192.9,315,192.9z M309.3,180.1v9.9h5.7v-9.9H309.3z"/>
				</g>
				<g>
					<path class="st19" d="M297.2,192.9c-0.8,0-1.4-0.6-1.4-1.4v-12.8c0-0.8,0.6-1.4,1.4-1.4c0.8,0,1.4,0.6,1.4,1.4v12.8
						C298.6,192.3,298,192.9,297.2,192.9z"/>
				</g>
				<g>
					<path class="st19" d="M297.9,216.3h-5.7c-1.6,0-2.8-1.3-2.8-2.8v-9.9c0-1.6,1.3-2.8,2.8-2.8h5.7c1.6,0,2.8,1.3,2.8,2.8v9.9
						C300.8,215,299.5,216.3,297.9,216.3z M292.2,203.5v9.9h5.7l0-9.9H292.2z"/>
				</g>
				<g>
					<path class="st19" d="M356.8,216.3h-4.3c-2,0-3.5-1.6-3.5-3.5v-2.1c0-0.8,0.6-1.4,1.4-1.4c0.8,0,1.4,0.6,1.4,1.4v2.1
						c0,0.4,0.3,0.7,0.7,0.7h4.3c0.4,0,0.7-0.3,0.7-0.7v-4.3c0-0.8,0.6-1.4,1.4-1.4s1.4,0.6,1.4,1.4v4.3
						C360.3,214.7,358.8,216.3,356.8,216.3z"/>
				</g>
				<g>
					<path class="st19" d="M337.7,216.3h-4.3c-2,0-3.5-1.6-3.5-3.5v-6.4c0-0.8,0.6-1.4,1.4-1.4c0.8,0,1.4,0.6,1.4,1.4v6.4
						c0,0.4,0.3,0.7,0.7,0.7h4.3c0.4,0,0.7-0.3,0.7-0.7v-2.1c0-0.8,0.6-1.4,1.4-1.4c0.8,0,1.4,0.6,1.4,1.4v2.1
						C341.2,214.7,339.6,216.3,337.7,216.3z"/>
				</g>
				<g>
					<path class="st19" d="M310,216.3c-0.8,0-1.4-0.6-1.4-1.4v-12.8c0-0.8,0.6-1.4,1.4-1.4c0.8,0,1.4,0.6,1.4,1.4v12.8
						C311.4,215.7,310.8,216.3,310,216.3z"/>
				</g>
				<g>
					<path class="st19" d="M320.6,216.3c-0.8,0-1.4-0.6-1.4-1.4v-12.8c0-0.8,0.6-1.4,1.4-1.4s1.4,0.6,1.4,1.4v12.8
						C322,215.7,321.4,216.3,320.6,216.3z"/>
				</g>
				<g>
					<path class="st19" d="M346.2,205.7c-11.3,0-20.6-9.2-20.6-20.6c0-11.3,9.2-20.6,20.6-20.6c11.3,0,20.6,9.2,20.6,20.6
						C366.7,196.4,357.5,205.7,346.2,205.7z M346.2,167.4c-9.8,0-17.7,8-17.7,17.7c0,9.8,8,17.7,17.7,17.7c9.8,0,17.7-8,17.7-17.7
						C363.9,175.3,355.9,167.4,346.2,167.4z"/>
				</g>
				<g>
					<path class="st19" d="M344.8,192.9h-5.7c-1.6,0-2.8-1.3-2.8-2.8v-9.9c0-1.6,1.3-2.8,2.8-2.8h5.7c1.6,0,2.8,1.3,2.8,2.8v9.9
						C347.6,191.6,346.3,192.9,344.8,192.9z M339.1,180.1v9.9h5.7v-9.9H339.1z"/>
				</g>
				<g>
					<path class="st19" d="M354.7,192.9c-0.8,0-1.4-0.6-1.4-1.4v-12.8c0-0.8,0.6-1.4,1.4-1.4c0.8,0,1.4,0.6,1.4,1.4v12.8
						C356.1,192.3,355.5,192.9,354.7,192.9z"/>
				</g>
				<g>
					<path class="st19" d="M376,216.3c-0.4,0-0.7-0.1-1-0.4l-16.3-16.3c-0.6-0.6-0.6-1.4,0-2c0.6-0.6,1.4-0.6,2,0l16.3,16.3
						c0.6,0.6,0.6,1.4,0,2C376.7,216.2,376.3,216.3,376,216.3z"/>
				</g>
			</g>
			<g style="opacity:0.24;clip-path:url(#SVGID_2_);">
				<path class="st19" d="M652.6,319.4l-1.5-2.5l-4.6,2.7l-0.9-1.6l0.1-8.6l3-1.8l3.6,6l1.2-0.7l1.1,1.8l-1.2,0.7l1.5,2.5
					L652.6,319.4z M650.1,315.2l-1.4-2.3c-0.4-0.6-0.7-1.3-1.1-2l0,0c0.1,0.9,0.1,1.6,0.2,2.5l0,3.1l0,0L650.1,315.2z"/>
				<path class="st19" d="M661.6,307c1.9,3.2,1.9,6.1-0.7,7.7c-2.7,1.6-5.3-0.1-7-3c-1.8-3-1.9-6.1,0.7-7.7
					C657.4,302.4,660,304.2,661.6,307z M656.4,310.3c1.4,2.4,2.7,3.1,3.6,2.6c0.9-0.6,0.7-2-0.7-4.4c-1.4-2.3-2.6-3.2-3.5-2.6
					C654.9,306.4,654.9,307.9,656.4,310.3z"/>
				<path class="st19" d="M666.9,300.9c1.3,2.2,0.6,4.1-0.9,5c-1.6,0.9-3.5,0.5-4.7-1.4c-1.1-1.8-0.8-3.9,1-5
					C664.1,298.4,665.9,299.1,666.9,300.9z M663.1,303.3c0.6,1.1,1.5,1.6,2.2,1.2c0.7-0.4,0.6-1.3-0.1-2.5c-0.6-1-1.4-1.7-2.2-1.2
					C662.3,301.2,662.5,302.2,663.1,303.3z M668.7,310.1l-0.4-14.1l1.3-0.8l0.4,14.1L668.7,310.1z M676.9,300.7
					c1.3,2.1,0.6,4.1-0.9,5c-1.5,0.9-3.5,0.5-4.6-1.4c-1.1-1.8-0.8-3.9,0.9-4.9C674.1,298.2,675.8,298.9,676.9,300.7z M673.1,303.1
					c0.6,1.1,1.5,1.6,2.2,1.2c0.7-0.4,0.6-1.3-0.1-2.5c-0.6-1-1.4-1.7-2.1-1.2C672.3,301.1,672.5,302.1,673.1,303.1z"/>
			</g>
			<g style="opacity:0.24;clip-path:url(#SVGID_2_);">
				<path class="st19" d="M349.6,295.1c-0.3,0-0.6,0-1.1,0c-2.5,0.2-3.6,1.5-3.9,2.9h0.1c0.6-0.6,1.4-0.9,2.5-0.9
					c2,0,3.7,1.4,3.7,3.9c0,2.4-1.8,4.3-4.4,4.3c-3.2,0-4.8-2.4-4.8-5.2c0-2.2,0.8-4.1,2.1-5.3c1.2-1.1,2.7-1.7,4.6-1.8
					c0.5-0.1,0.9,0,1.1,0V295.1z M348.1,301.1c0-1.1-0.6-2.1-1.8-2.1c-0.8,0-1.4,0.5-1.6,1.1c-0.1,0.2-0.1,0.4-0.1,0.7
					c0.1,1.3,0.7,2.4,2,2.4C347.5,303.3,348.1,302.3,348.1,301.1z"/>
				<path class="st19" d="M361.1,299.1c0,3.7-1.5,6.2-4.5,6.2c-3.1,0-4.5-2.8-4.5-6.2c0-3.5,1.5-6.2,4.6-6.2
					C359.8,292.9,361.1,295.8,361.1,299.1z M354.9,299.1c0,2.7,0.7,4.1,1.7,4.1c1.1,0,1.7-1.4,1.7-4.1c0-2.7-0.6-4.1-1.7-4.1
					C355.6,295.1,354.9,296.3,354.9,299.1z"/>
				<path class="st19" d="M368.8,296.5c0,2.5-1.6,3.8-3.3,3.8c-1.8,0-3.3-1.4-3.3-3.6c0-2.1,1.3-3.8,3.4-3.8
					C367.6,292.9,368.8,294.4,368.8,296.5z M364.3,296.6c0,1.3,0.4,2.2,1.2,2.2c0.8,0,1.2-0.8,1.2-2.2c0-1.2-0.3-2.2-1.2-2.2
					C364.6,294.5,364.3,295.4,364.3,296.6z M365.6,305.3l6.9-12.4h1.5l-6.9,12.4H365.6z M377.4,301.5c0,2.5-1.6,3.8-3.3,3.8
					c-1.8,0-3.2-1.4-3.2-3.6c0-2.1,1.3-3.8,3.4-3.8C376.2,297.9,377.4,299.4,377.4,301.5z M372.9,301.6c0,1.3,0.4,2.2,1.2,2.2
					c0.8,0,1.2-0.8,1.2-2.2c0-1.2-0.3-2.2-1.2-2.2C373.3,299.4,372.9,300.4,372.9,301.6z"/>
			</g>
			<g style="opacity:0.24;clip-path:url(#SVGID_2_);">
				<path class="st19" d="M789.3,782.1l0.1-1.7l1.6-1.3c2.8-2.1,4.2-3.4,4.3-4.8c0.1-1-0.4-1.8-1.8-1.9c-1-0.1-2,0.4-2.6,0.8l-0.6-2
					c0.9-0.6,2.4-1,4-0.9c2.7,0.2,4.1,1.9,3.9,4.1c-0.2,2-1.7,3.5-3.6,4.9l-1.2,0.8l0,0l4.5,0.4l-0.2,2.3L789.3,782.1z"/>
				<path class="st19" d="M808.8,777.7c-0.3,3.7-2,6.1-5,5.9c-3.1-0.3-4.2-3.1-4-6.5c0.3-3.5,2-6.1,5-5.8
					C808,771.4,809,774.4,808.8,777.7z M802.6,777.2c-0.2,2.7,0.3,4.1,1.4,4.2c1.1,0.1,1.8-1.2,2-3.9c0.2-2.6-0.2-4.1-1.4-4.2
					C803.6,773.2,802.8,774.4,802.6,777.2z"/>
				<path class="st19" d="M816.6,775.7c-0.2,2.5-1.9,3.7-3.6,3.5c-1.8-0.1-3.1-1.6-3-3.9c0.2-2.1,1.6-3.6,3.7-3.5
					C815.8,772.1,816.8,773.7,816.6,775.7z M812.1,775.5c-0.1,1.2,0.2,2.2,1.1,2.2c0.8,0.1,1.2-0.7,1.4-2.1c0.1-1.2-0.2-2.2-1-2.2
					C812.7,773.4,812.2,774.3,812.1,775.5z M812.7,784.3l7.9-11.8l1.5,0.1l-7.9,11.8L812.7,784.3z M824.8,781.4
					c-0.2,2.5-1.9,3.7-3.6,3.5c-1.8-0.1-3.1-1.6-2.9-3.9c0.2-2.1,1.6-3.6,3.6-3.5C824,777.7,825,779.3,824.8,781.4z M820.4,781.2
					c-0.1,1.2,0.2,2.2,1,2.2c0.8,0.1,1.2-0.7,1.4-2.1c0.1-1.2-0.2-2.2-1-2.2C820.9,779,820.5,780,820.4,781.2z"/>
			</g>
			<g style="opacity:0.24;clip-path:url(#SVGID_2_);">
				<g>
					<polygon class="st19" points="360.5,810.7 283.2,810.7 283.2,716.3 360.5,716.3 360.5,736.9 357.6,736.9 357.6,719.1 
						286,719.1 286,807.8 357.6,807.8 357.6,785.8 360.5,785.8 					"/>
				</g>
				<g>
					<rect x="284.6" y="729.1" class="st19" width="74.5" height="2.8"/>
				</g>
				<g>
					<rect x="291" y="722.7" class="st19" width="4.3" height="2.8"/>
				</g>
				<g>
					<rect x="297.3" y="722.7" class="st19" width="4.3" height="2.8"/>
				</g>
				<g>
					<path class="st19" d="M326.4,763.8h-32.6v-24.1h32.6V763.8z M296.6,761h27v-18.5h-27V761z"/>
				</g>
				<g>
					<rect x="293.1" y="771.7" class="st19" width="36.2" height="2.8"/>
				</g>
				<g>
					<rect x="293.1" y="780.2" class="st19" width="40.4" height="2.8"/>
				</g>
				<g>
					<rect x="293.1" y="788.7" class="st19" width="25.5" height="2.8"/>
				</g>
				<g>
					<rect x="293.1" y="797.2" class="st19" width="25.5" height="2.8"/>
				</g>
				<g>
					<rect x="325" y="788.7" class="st19" width="25.5" height="2.8"/>
				</g>
				<g>
					<rect x="325" y="797.2" class="st19" width="25.5" height="2.8"/>
				</g>
				<g>
					<path class="st19" d="M350.5,778.7c-10.2,0-18.4-8.3-18.4-18.4s8.3-18.4,18.4-18.4c10.2,0,18.4,8.3,18.4,18.4
						S360.7,778.7,350.5,778.7z M350.5,744.7c-8.6,0-15.6,7-15.6,15.6s7,15.6,15.6,15.6c8.6,0,15.6-7,15.6-15.6
						S359.2,744.7,350.5,744.7z"/>
				</g>
				<g>
					<path class="st19" d="M342,761.7c-0.8,0-1.4-0.6-1.4-1.4c0-5.5,4.5-9.9,9.9-9.9c0.8,0,1.4,0.6,1.4,1.4s-0.6,1.4-1.4,1.4
						c-3.9,0-7.1,3.2-7.1,7.1C343.4,761.1,342.8,761.7,342,761.7z"/>
				</g>
				<g>
					<path class="st19" d="M376.1,785.1c-0.4,0-0.7-0.1-1-0.4l-12.5-12.5c-0.6-0.6-0.6-1.4,0-2c0.6-0.6,1.4-0.6,2,0l12.5,12.5
						c0.6,0.6,0.6,1.4,0,2C376.8,785,376.4,785.1,376.1,785.1z"/>
				</g>
			</g>
			<g class="st0">
				<g>
					<g>
						<g>
							<path class="st36" d="M230.6,712.2h611.4c11.1,0,20.8-6,25.9-15H204.7C209.9,706.2,219.6,712.2,230.6,712.2z"/>
							<path class="st37" d="M200.7,682.2c0,5.5,1.5,10.6,4,15H868c2.6-4.4,4-9.5,4-15H200.7z"/>
						</g>
						<g>
							<path class="st38" d="M583.1,682.2c-2.3,3.4-6.2,5.6-10.6,5.6h-72.3c-4.4,0-8.3-2.2-10.6-5.6h-289c0,5.5,1.5,10.6,4,15H868
								c2.6-4.4,4-9.5,4-15H583.1z"/>
							<path class="st39" d="M500.2,687.8h72.3c4.4,0,8.3-2.2,10.6-5.6h-93.4C491.9,685.6,495.8,687.8,500.2,687.8z"/>
						</g>
					</g>
					<g>
						<path class="st40" d="M818,669.9c0,6.8-5.5,12.3-12.3,12.3H267.1c-6.8,0-12.3-5.5-12.3-12.3V319.5c0-6.8,5.5-12.3,12.3-12.3
							h538.5c6.8,0,12.3,5.5,12.3,12.3V669.9z"/>
						<g>
							<polygon class="st41" points="413.2,307.1 616.2,682.2 720.4,682.2 452,307.1 							"/>
							<path class="st42" d="M818,669.9V555.7L685.4,307.1h-199l266.4,375.1h52.8C812.4,682.2,818,676.7,818,669.9z"/>
						</g>
						<g>
							<path d="M540.3,320.5c0,2.2-1.8,4-4,4c-2.2,0-4-1.8-4-4c0-2.2,1.8-4,4-4C538.5,316.5,540.3,318.3,540.3,320.5z"/>
							<path class="st42" d="M537.3,320.5c0,0.5-0.4,1-1,1c-0.5,0-1-0.4-1-1c0-0.5,0.4-1,1-1C536.9,319.5,537.3,320,537.3,320.5z"/>
						</g>
					</g>
					<g>
						<g>
							<g>
								<path class="st36" d="M233.2,718.2H840c11,0,20.6-6.1,25.7-15.2H207.4C212.6,712.1,222.1,718.2,233.2,718.2z"/>
								<path class="st37" d="M203.4,687.7c0,5.6,1.5,10.8,4,15.2h658.3c2.5-4.5,4-9.7,4-15.2H203.4z"/>
							</g>
							<g>
								<path class="st38" d="M582.9,687.7c-2.3,3.4-6.1,5.7-10.5,5.7h-71.8c-4.4,0-8.2-2.2-10.5-5.7H203.4c0,5.6,1.5,10.8,4,15.2
									h658.3c2.5-4.5,4-9.7,4-15.2H582.9z"/>
								<path class="st39" d="M500.7,693.4h71.8c4.4,0,8.2-2.2,10.5-5.7h-92.7C492.5,691.2,496.3,693.4,500.7,693.4z"/>
							</g>
						</g>
					</g>
					<g>
						<rect x="288.8" y="335.9" class="st43" width="494.6" height="322.7"/>
						<g>
							<defs>
								<rect id="SVGID_17_" x="288.8" y="335.9" width="494.6" height="322.7"/>
							</defs>
							<clipPath id="SVGID_4_">
								<use xlink:href="#SVGID_17_"  style="overflow:visible;"/>
							</clipPath>
							<g class="st21">
								<rect x="289.4" y="400.2" class="st45" width="491.7" height="253.4"/>
								<rect x="289.2" y="335.9" class="st45" width="491.7" height="322.7"/>
								<path class="st46" d="M353.6,391.9c0,3.1-2.5,5.6-5.6,5.6c-3.1,0-5.6-2.5-5.6-5.6c0-3.1,2.5-5.6,5.6-5.6
									C351.1,386.3,353.6,388.8,353.6,391.9z"/>
								<path class="st46" d="M333.4,391.9c0,3.1-2.5,5.6-5.6,5.6c-3.1,0-5.6-2.5-5.6-5.6c0-3.1,2.5-5.6,5.6-5.6
									C330.9,386.3,333.4,388.8,333.4,391.9z"/>
								<path class="st46" d="M313.2,391.9c0,3.1-2.5,5.6-5.6,5.6c-3.1,0-5.6-2.5-5.6-5.6c0-3.1,2.5-5.6,5.6-5.6
									C310.7,386.3,313.2,388.8,313.2,391.9z"/>
								<g>
									<g>
										<g>
											<rect x="483.8" y="588.8" class="st47" width="2.6" height="1.3"/>
										</g>
										<g>
											<path class="st47" d="M480.2,590.1H475v-1.3h5.3V590.1z M471.5,590.1h-5.3v-1.3h5.3V590.1z M462.7,590.1h-5.3v-1.3h5.3
												V590.1z M453.9,590.1h-5.3v-1.3h5.3V590.1z M445.2,590.1h-5.3v-1.3h5.3V590.1z M436.4,590.1h-5.3v-1.3h5.3V590.1z
												 M427.6,590.1h-5.3v-1.3h5.3V590.1z M418.9,590.1h-5.3v-1.3h5.3V590.1z M410.1,590.1h-5.3v-1.3h5.3V590.1z M401.3,590.1
												h-5.3v-1.3h5.3V590.1z M392.6,590.1h-5.3v-1.3h5.3V590.1z M383.8,590.1h-5.3v-1.3h5.3V590.1z M375,590.1h-5.3v-1.3h5.3
												V590.1z M366.2,590.1H361v-1.3h5.3V590.1z M357.5,590.1h-5.3v-1.3h5.3V590.1z M348.7,590.1h-5.3v-1.3h5.3V590.1z
												 M339.9,590.1h-5.3v-1.3h5.3V590.1z M331.2,590.1h-5.3v-1.3h5.3V590.1z M322.4,590.1h-5.3v-1.3h5.3V590.1z"/>
										</g>
										<g>
											<rect x="311" y="588.8" class="st47" width="2.6" height="1.3"/>
										</g>
									</g>
									<g>
										<g>
											<rect x="483.8" y="600.1" class="st47" width="2.6" height="1.3"/>
										</g>
										<g>
											<path class="st47" d="M480.2,601.5H475v-1.3h5.3V601.5z M471.5,601.5h-5.3v-1.3h5.3V601.5z M462.7,601.5h-5.3v-1.3h5.3
												V601.5z M453.9,601.5h-5.3v-1.3h5.3V601.5z M445.2,601.5h-5.3v-1.3h5.3V601.5z M436.4,601.5h-5.3v-1.3h5.3V601.5z
												 M427.6,601.5h-5.3v-1.3h5.3V601.5z M418.9,601.5h-5.3v-1.3h5.3V601.5z M410.1,601.5h-5.3v-1.3h5.3V601.5z M401.3,601.5
												h-5.3v-1.3h5.3V601.5z M392.6,601.5h-5.3v-1.3h5.3V601.5z M383.8,601.5h-5.3v-1.3h5.3V601.5z M375,601.5h-5.3v-1.3h5.3
												V601.5z M366.2,601.5H361v-1.3h5.3V601.5z M357.5,601.5h-5.3v-1.3h5.3V601.5z M348.7,601.5h-5.3v-1.3h5.3V601.5z
												 M339.9,601.5h-5.3v-1.3h5.3V601.5z M331.2,601.5h-5.3v-1.3h5.3V601.5z M322.4,601.5h-5.3v-1.3h5.3V601.5z"/>
										</g>
										<g>
											<rect x="311" y="600.1" class="st47" width="2.6" height="1.3"/>
										</g>
									</g>
									<g>
										<g>
											<rect x="483.8" y="611.5" class="st47" width="2.6" height="1.3"/>
										</g>
										<g>
											<path class="st47" d="M480.2,612.8H475v-1.3h5.3V612.8z M471.5,612.8h-5.3v-1.3h5.3V612.8z M462.7,612.8h-5.3v-1.3h5.3
												V612.8z M453.9,612.8h-5.3v-1.3h5.3V612.8z M445.2,612.8h-5.3v-1.3h5.3V612.8z M436.4,612.8h-5.3v-1.3h5.3V612.8z
												 M427.6,612.8h-5.3v-1.3h5.3V612.8z M418.9,612.8h-5.3v-1.3h5.3V612.8z M410.1,612.8h-5.3v-1.3h5.3V612.8z M401.3,612.8
												h-5.3v-1.3h5.3V612.8z M392.6,612.8h-5.3v-1.3h5.3V612.8z M383.8,612.8h-5.3v-1.3h5.3V612.8z M375,612.8h-5.3v-1.3h5.3
												V612.8z M366.2,612.8H361v-1.3h5.3V612.8z M357.5,612.8h-5.3v-1.3h5.3V612.8z M348.7,612.8h-5.3v-1.3h5.3V612.8z
												 M339.9,612.8h-5.3v-1.3h5.3V612.8z M331.2,612.8h-5.3v-1.3h5.3V612.8z M322.4,612.8h-5.3v-1.3h5.3V612.8z"/>
										</g>
										<g>
											<rect x="311" y="611.5" class="st47" width="2.6" height="1.3"/>
										</g>
									</g>
									<g>
										<g>
											<rect x="483.8" y="622.9" class="st47" width="2.6" height="1.3"/>
										</g>
										<g>
											<path class="st47" d="M480.2,624.2H475v-1.3h5.3V624.2z M471.5,624.2h-5.3v-1.3h5.3V624.2z M462.7,624.2h-5.3v-1.3h5.3
												V624.2z M453.9,624.2h-5.3v-1.3h5.3V624.2z M445.2,624.2h-5.3v-1.3h5.3V624.2z M436.4,624.2h-5.3v-1.3h5.3V624.2z
												 M427.6,624.2h-5.3v-1.3h5.3V624.2z M418.9,624.2h-5.3v-1.3h5.3V624.2z M410.1,624.2h-5.3v-1.3h5.3V624.2z M401.3,624.2
												h-5.3v-1.3h5.3V624.2z M392.6,624.2h-5.3v-1.3h5.3V624.2z M383.8,624.2h-5.3v-1.3h5.3V624.2z M375,624.2h-5.3v-1.3h5.3
												V624.2z M366.2,624.2H361v-1.3h5.3V624.2z M357.5,624.2h-5.3v-1.3h5.3V624.2z M348.7,624.2h-5.3v-1.3h5.3V624.2z
												 M339.9,624.2h-5.3v-1.3h5.3V624.2z M331.2,624.2h-5.3v-1.3h5.3V624.2z M322.4,624.2h-5.3v-1.3h5.3V624.2z"/>
										</g>
										<g>
											<rect x="311" y="622.9" class="st47" width="2.6" height="1.3"/>
										</g>
									</g>
									<g>
										<g>
											<rect x="483.8" y="634.3" class="st47" width="2.6" height="1.3"/>
										</g>
										<g>
											<path class="st47" d="M480.2,635.6H475v-1.3h5.3V635.6z M471.5,635.6h-5.3v-1.3h5.3V635.6z M462.7,635.6h-5.3v-1.3h5.3
												V635.6z M453.9,635.6h-5.3v-1.3h5.3V635.6z M445.2,635.6h-5.3v-1.3h5.3V635.6z M436.4,635.6h-5.3v-1.3h5.3V635.6z
												 M427.6,635.6h-5.3v-1.3h5.3V635.6z M418.9,635.6h-5.3v-1.3h5.3V635.6z M410.1,635.6h-5.3v-1.3h5.3V635.6z M401.3,635.6
												h-5.3v-1.3h5.3V635.6z M392.6,635.6h-5.3v-1.3h5.3V635.6z M383.8,635.6h-5.3v-1.3h5.3V635.6z M375,635.6h-5.3v-1.3h5.3
												V635.6z M366.2,635.6H361v-1.3h5.3V635.6z M357.5,635.6h-5.3v-1.3h5.3V635.6z M348.7,635.6h-5.3v-1.3h5.3V635.6z
												 M339.9,635.6h-5.3v-1.3h5.3V635.6z M331.2,635.6h-5.3v-1.3h5.3V635.6z M322.4,635.6h-5.3v-1.3h5.3V635.6z"/>
										</g>
										<g>
											<rect x="311" y="634.3" class="st47" width="2.6" height="1.3"/>
										</g>
									</g>
									<g>
										
											<rect x="306.5" y="633.9" transform="matrix(-1 -1.224647e-16 1.224647e-16 -1 617.8181 1269.9155)" class="st48" width="4.8" height="2.2"/>
									</g>
									<g>
										
											<rect x="302" y="645.2" transform="matrix(-1 -1.224647e-16 1.224647e-16 -1 613.2814 1292.6882)" class="st48" width="9.4" height="2.2"/>
									</g>
									<g>
										
											<rect x="306.5" y="611.1" transform="matrix(-1 -1.224647e-16 1.224647e-16 -1 617.8181 1224.37)" class="st48" width="4.8" height="2.2"/>
									</g>
									<g>
										
											<rect x="302" y="599.7" transform="matrix(-1 -1.224647e-16 1.224647e-16 -1 613.2814 1201.5973)" class="st48" width="9.4" height="2.2"/>
									</g>
									<g>
										
											<rect x="302" y="622.5" transform="matrix(-1 -1.224647e-16 1.224647e-16 -1 613.2814 1247.1428)" class="st48" width="9.4" height="2.2"/>
									</g>
									<g>
										
											<rect x="306.5" y="588.3" transform="matrix(-1 -1.224647e-16 1.224647e-16 -1 617.8181 1178.8245)" class="st48" width="4.8" height="2.2"/>
									</g>
									<g>
										
											<rect x="302" y="576.9" transform="matrix(-1 -1.224647e-16 1.224647e-16 -1 613.2814 1156.0518)" class="st48" width="9.4" height="2.2"/>
									</g>
									<g>
										<polygon class="st49" points="486.9,576.8 486.9,640.6 314.8,647.4 336.3,615.7 359.6,598.4 374.7,606.6 388,600.7 
											397.7,605.9 412.5,592.2 424.6,597.1 434.3,580.8 441.2,590.2 460.6,580.4 473.6,585.7 										"/>
									</g>
									<g>
										<polygon class="st50" points="486.9,606.3 486.9,640.6 314.8,647.4 340.2,628.8 352.3,612.8 363.5,627.8 393.7,613.4 
											406.1,631.6 424.9,610.8 429.4,617.4 447.9,604.9 459.1,606.9 471.5,598.4 										"/>
									</g>
									<g>
										<polygon class="st51" points="314.8,647.4 486.9,647.4 486.9,615.7 470.9,618.3 453.9,630.1 440.9,620.6 404.6,638.3 
											398.3,628.2 388.3,627.2 381,622.6 366.5,638 351.4,626.5 336.9,637.6 										"/>
									</g>
								</g>
								<g>
									<g>
										<g class="st23">
											<path class="st49" d="M333.9,381.4c-20.2,0-36.6,16.4-36.6,36.6s16.4,36.6,36.6,36.6c20.2,0,36.6-16.4,36.6-36.6
												S354.1,381.4,333.9,381.4z M333.9,440.5c-12.5,0-22.6-10.1-22.6-22.6c0-12.5,10.1-22.6,22.6-22.6
												c12.5,0,22.6,10.1,22.6,22.6C356.5,430.4,346.4,440.5,333.9,440.5z"/>
										</g>
										<g>
											<path class="st48" d="M320.2,417.8c-1-0.5-1.5-1.4-1.5-2.3c0-1.8,1.6-3,3.7-3c2.5,0,3.5,1.4,3.5,2.7
												c0,0.9-0.5,1.8-1.5,2.3v0c1,0.4,2,1.3,2,2.6c0,1.9-1.6,3.2-4.1,3.2c-2.7,0-3.9-1.5-3.9-2.9
												C318.3,419.3,319,418.4,320.2,417.8L320.2,417.8z M323.8,420.4c0-0.9-0.7-1.5-1.7-1.7c-0.8,0.2-1.3,0.8-1.3,1.6
												c0,0.8,0.6,1.5,1.5,1.5C323.2,421.8,323.8,421.2,323.8,420.4z M321,415.4c0,0.7,0.6,1.2,1.5,1.4c0.6-0.2,1.1-0.7,1.1-1.3
												c0-0.7-0.4-1.3-1.3-1.3C321.4,414.2,321,414.8,321,415.4z"/>
											<path class="st48" d="M335.3,418c0,3.3-1.3,5.5-4,5.5c-2.7,0-3.9-2.5-4-5.4c0-3.1,1.3-5.5,4-5.5
												C334.2,412.5,335.3,415.1,335.3,418z M329.8,418c0,2.4,0.6,3.6,1.5,3.6c1,0,1.5-1.2,1.5-3.6c0-2.3-0.5-3.6-1.5-3.6
												C330.4,414.4,329.8,415.5,329.8,418z"/>
											<path class="st48" d="M342.1,415.7c0,2.2-1.4,3.4-2.9,3.4c-1.6,0-2.9-1.2-2.9-3.2c0-1.9,1.2-3.3,3-3.3
												C341,412.5,342.1,413.9,342.1,415.7z M338.1,415.8c0,1.1,0.4,1.9,1.1,1.9c0.7,0,1-0.7,1-1.9c0-1.1-0.3-1.9-1.1-1.9
												C338.4,413.9,338.1,414.7,338.1,415.8z M339.3,423.5l6.1-10.9h1.3l-6.1,10.9H339.3z M349.7,420.1c0,2.2-1.4,3.4-2.9,3.4
												c-1.6,0-2.9-1.2-2.9-3.2c0-1.9,1.2-3.3,3-3.3C348.7,416.9,349.7,418.3,349.7,420.1z M345.7,420.2c0,1.1,0.4,1.9,1.1,1.9
												c0.7,0,1-0.7,1-1.9c0-1.1-0.3-1.9-1.1-1.9C346,418.3,345.7,419.1,345.7,420.2z"/>
										</g>
										<g>
											<path class="st49" d="M333.9,440.5c-12.5,0-22.6-10.1-22.6-22.6c0-12.5,10.1-22.6,22.6-22.6c12.5,0,22.6,10.1,22.6,22.6
												c0,6.2-2.5,11.9-6.6,16l9.9,9.9c6.6-6.6,10.7-15.8,10.7-25.9c0-20.2-16.4-36.6-36.6-36.6c-20.2,0-36.6,16.4-36.6,36.6
												c0,20.2,16.4,36.6,36.6,36.6V440.5z"/>
										</g>
									</g>
									<g>
										<g class="st23">
											<path class="st50" d="M423.9,381.4c-20.2,0-36.6,16.4-36.6,36.6s16.4,36.6,36.6,36.6c20.2,0,36.6-16.4,36.6-36.6
												S444.1,381.4,423.9,381.4z M423.9,440.5c-12.5,0-22.6-10.1-22.6-22.6c0-12.5,10.1-22.6,22.6-22.6
												c12.5,0,22.6,10.1,22.6,22.6C446.5,430.4,436.4,440.5,423.9,440.5z"/>
										</g>
										<g>
											<path class="st48" d="M415.1,414.5c-0.3,0-0.6,0-1,0c-2.2,0.2-3.2,1.3-3.4,2.5h0c0.5-0.5,1.3-0.8,2.2-0.8
												c1.8,0,3.3,1.3,3.3,3.4c0,2.1-1.6,3.8-3.9,3.8c-2.8,0-4.2-2.1-4.2-4.6c0-2,0.7-3.6,1.9-4.7c1-1,2.4-1.5,4.1-1.5
												c0.5,0,0.8,0,1,0V414.5z M413.8,419.8c0-1-0.5-1.8-1.6-1.8c-0.7,0-1.2,0.4-1.4,0.9c-0.1,0.1-0.1,0.3-0.1,0.6
												c0,1.1,0.6,2.1,1.7,2.1C413.2,421.6,413.8,420.9,413.8,419.8z"/>
											<path class="st48" d="M425.2,418c0,3.3-1.3,5.5-4,5.5c-2.7,0-3.9-2.5-4-5.4c0-3.1,1.3-5.5,4-5.5
												C424.1,412.5,425.2,415.1,425.2,418z M419.7,418c0,2.4,0.6,3.6,1.5,3.6c1,0,1.5-1.2,1.5-3.6c0-2.3-0.5-3.6-1.5-3.6
												C420.4,414.4,419.7,415.5,419.7,418z"/>
											<path class="st48" d="M432,415.7c0,2.2-1.4,3.4-2.9,3.4c-1.6,0-2.9-1.2-2.9-3.2c0-1.9,1.2-3.3,3-3.3
												C431,412.5,432,413.9,432,415.7z M428,415.8c0,1.1,0.4,1.9,1.1,1.9c0.7,0,1-0.7,1-1.9c0-1.1-0.3-1.9-1.1-1.9
												C428.4,413.9,428,414.7,428,415.8z M429.2,423.5l6.1-10.9h1.3l-6.1,10.9H429.2z M439.6,420.1c0,2.2-1.4,3.4-2.9,3.4
												c-1.6,0-2.9-1.2-2.9-3.2c0-1.9,1.2-3.3,3-3.3C438.6,416.9,439.6,418.3,439.6,420.1z M435.7,420.2c0,1.1,0.4,1.9,1.1,1.9
												c0.7,0,1-0.7,1-1.9c0-1.1-0.3-1.9-1.1-1.9C436,418.3,435.7,419.1,435.7,420.2z"/>
										</g>
										<g>
											<path class="st50" d="M423.9,440.5c-12.5,0-22.6-10.1-22.6-22.6s10.1-22.6,22.6-22.6c6.2,0,11.9,2.5,16,6.6l9.9-9.9
												c-6.6-6.6-15.8-10.7-25.9-10.7c-20.2,0-36.6,16.4-36.6,36.6c0,20.2,16.4,36.6,36.6,36.6V440.5z"/>
										</g>
									</g>
									<g>
										<g class="st23">
											<path class="st51" d="M513.8,381.4c-20.2,0-36.6,16.4-36.6,36.6s16.4,36.6,36.6,36.6c20.2,0,36.6-16.4,36.6-36.6
												S534,381.4,513.8,381.4z M513.8,440.5c-12.5,0-22.6-10.1-22.6-22.6c0-12.5,10.1-22.6,22.6-22.6
												c12.5,0,22.6,10.1,22.6,22.6C536.4,430.4,526.3,440.5,513.8,440.5z"/>
										</g>
										<g>
											<path class="st48" d="M502.7,423.3v-2.5H498v-1.6l4-6.4h3v6.2h1.3v1.9H505v2.5H502.7z M502.7,418.9v-2.3
												c0-0.6,0-1.3,0.1-2h0c-0.3,0.7-0.6,1.3-1,2l-1.4,2.3l0,0H502.7z"/>
											<path class="st48" d="M515.1,418c0,3.3-1.3,5.5-4,5.5c-2.7,0-3.9-2.5-4-5.4c0-3.1,1.3-5.5,4-5.5
												C514,412.5,515.1,415.1,515.1,418z M509.7,418c0,2.4,0.6,3.6,1.5,3.6c1,0,1.5-1.2,1.5-3.6c0-2.3-0.5-3.6-1.5-3.6
												C510.3,414.4,509.7,415.5,509.7,418z"/>
											<path class="st48" d="M521.9,415.7c0,2.2-1.4,3.4-2.9,3.4c-1.6,0-2.9-1.2-2.9-3.2c0-1.9,1.2-3.3,3-3.3
												C520.9,412.5,521.9,413.9,521.9,415.7z M518,415.8c0,1.1,0.4,1.9,1.1,1.9c0.7,0,1-0.7,1-1.9c0-1.1-0.3-1.9-1.1-1.9
												C518.3,413.9,518,414.7,518,415.8z M519.1,423.5l6.1-10.9h1.3l-6.1,10.9H519.1z M529.5,420.1c0,2.2-1.4,3.4-2.9,3.4
												c-1.6,0-2.9-1.2-2.9-3.2c0-1.9,1.2-3.3,3-3.3C528.5,416.9,529.5,418.3,529.5,420.1z M525.6,420.2c0,1.1,0.4,1.9,1.1,1.9
												c0.7,0,1-0.7,1-1.9c0-1.1-0.3-1.9-1.1-1.9C525.9,418.3,525.6,419.1,525.6,420.2z"/>
										</g>
										<g>
											<path class="st51" d="M513.8,440.5L513.8,440.5c-12.5,0-22.6-10.1-22.6-22.6c0-6.2,2.5-11.9,6.6-16l-9.9-9.9
												c-6.6,6.6-10.7,15.8-10.7,25.9c0,20.2,16.4,36.6,36.6,36.6h0V440.5z"/>
										</g>
									</g>
									<g>
										<g class="st23">
											<path class="st52" d="M603.7,381.4c-20.2,0-36.6,16.4-36.6,36.6s16.4,36.6,36.6,36.6c20.2,0,36.6-16.4,36.6-36.6
												S623.9,381.4,603.7,381.4z M603.7,440.5c-12.5,0-22.6-10.1-22.6-22.6c0-12.5,10.1-22.6,22.6-22.6
												c12.5,0,22.6,10.1,22.6,22.6C626.3,430.4,616.2,440.5,603.7,440.5z"/>
										</g>
										<g>
											<path class="st48" d="M588.3,423.3v-1.5l1.3-1.2c2.3-2.1,3.4-3.3,3.5-4.5c0-0.9-0.5-1.5-1.7-1.5c-0.9,0-1.7,0.5-2.3,0.9
												l-0.7-1.8c0.8-0.6,2-1.1,3.4-1.1c2.4,0,3.7,1.4,3.7,3.3c0,1.8-1.3,3.2-2.8,4.6l-1,0.8v0h4v2H588.3z"/>
											<path class="st48" d="M605.1,418c0,3.3-1.3,5.5-4,5.5c-2.7,0-3.9-2.5-4-5.4c0-3.1,1.3-5.5,4-5.5
												C604,412.5,605.1,415.1,605.1,418z M599.6,418c0,2.4,0.6,3.6,1.5,3.6c1,0,1.5-1.2,1.5-3.6c0-2.3-0.5-3.6-1.5-3.6
												C600.2,414.4,599.6,415.5,599.6,418z"/>
											<path class="st48" d="M611.9,415.7c0,2.2-1.4,3.4-2.9,3.4c-1.6,0-2.9-1.2-2.9-3.2c0-1.9,1.2-3.3,3-3.3
												C610.8,412.5,611.9,413.9,611.9,415.7z M607.9,415.8c0,1.1,0.4,1.9,1.1,1.9c0.7,0,1-0.7,1-1.9c0-1.1-0.3-1.9-1.1-1.9
												C608.2,413.9,607.9,414.7,607.9,415.8z M609,423.5l6.1-10.9h1.3l-6.1,10.9H609z M619.5,420.1c0,2.2-1.4,3.4-2.9,3.4
												c-1.6,0-2.9-1.2-2.9-3.2c0-1.9,1.2-3.3,3-3.3C618.4,416.9,619.5,418.3,619.5,420.1z M615.5,420.2c0,1.1,0.4,1.9,1.1,1.9
												c0.7,0,1-0.7,1-1.9c0-1.1-0.3-1.9-1.1-1.9C615.8,418.3,615.5,419.1,615.5,420.2z"/>
										</g>
										<g>
											<path class="st52" d="M603.7,440.5L603.7,440.5c-12.5,0-22.6-10.1-22.6-22.6h-14c0,20.2,16.4,36.6,36.6,36.6h0V440.5z"/>
										</g>
									</g>
								</g>
								<g>
									<g>
										<path class="st51" d="M328.2,533.1l-2.5-0.1c0-0.2,1.1-18,18.1-19.6c5.9-0.5,10.4,3.1,15.3,7c9,7.3,18.4,14.8,38.4-5.4
											c8.3-9.2,17.1-14.1,26-14.7c8.9-0.6,17.5,3.2,25.7,11.1l-1.7,1.9c-15.4-15-32.5-13.7-48.2,3.5l0,0
											c-9.6,9.7-17.9,14.2-25.4,13.8c-6.7-0.3-11.8-4.5-16.4-8.1c-4.4-3.6-8.6-6.9-13.5-6.5
											C329.2,517.4,328.2,532.5,328.2,533.1z"/>
									</g>
									<path class="st51" d="M326.9,528.3c-2.3,0-4.2,2-4.2,4.4c0,2.4,1.9,4.4,4.2,4.4s4.2-2,4.2-4.4
										C331.2,530.2,329.3,528.3,326.9,528.3z"/>
									<path class="st52" d="M326.9,508.1c-2.3,0-4.2,2-4.2,4.4c0,2.4,1.9,4.4,4.2,4.4s4.2-2,4.2-4.4
										C331.2,510.1,329.3,508.1,326.9,508.1z"/>
									<path class="st49" d="M326.9,472.6c-2.3,0-4.2,2-4.2,4.4c0,2.4,1.9,4.4,4.2,4.4s4.2-2,4.2-4.4
										C331.2,474.6,329.3,472.6,326.9,472.6z"/>
									<path class="st52" d="M343.3,528.3c-2.3,0-4.2,2-4.2,4.4c0,2.4,1.9,4.4,4.2,4.4c2.3,0,4.2-2,4.2-4.4
										C347.6,530.2,345.7,528.3,343.3,528.3z"/>
									<path class="st52" d="M448.4,487.2c-2.3,0-4.2,2-4.2,4.4c0,2.4,1.9,4.4,4.2,4.4c2.3,0,4.2-2,4.2-4.4
										C452.6,489.2,450.7,487.2,448.4,487.2z"/>
									<path class="st52" d="M428.7,467.3c-2.3,0-4.2,2-4.2,4.4c0,2.4,1.9,4.4,4.2,4.4c2.3,0,4.2-2,4.2-4.4
										C433,469.3,431.1,467.3,428.7,467.3z"/>
									<path class="st52" d="M407.4,518.1c-2.3,0-4.2,2-4.2,4.4c0,2.4,1.9,4.4,4.2,4.4c2.3,0,4.2-2,4.2-4.4
										C411.6,520.1,409.7,518.1,407.4,518.1z"/>
									<path class="st52" d="M390.2,542.4c-2.3,0-4.2,2-4.2,4.4c0,2.4,1.9,4.4,4.2,4.4c2.3,0,4.2-2,4.2-4.4
										C394.4,544.4,392.5,542.4,390.2,542.4z"/>
									<path class="st52" d="M364.2,546.9c-2.3,0-4.2,2-4.2,4.4c0,2.4,1.9,4.4,4.2,4.4c2.3,0,4.2-2,4.2-4.4
										C368.4,548.8,366.5,546.9,364.2,546.9z"/>
									<path class="st52" d="M412.3,487.2c-2.3,0-4.2,2-4.2,4.4c0,2.4,1.9,4.4,4.2,4.4c2.3,0,4.2-2,4.2-4.4
										C416.6,489.2,414.7,487.2,412.3,487.2z"/>
									<path class="st51" d="M345.3,510.4c-2.3,0-4.2,2-4.2,4.4c0,2.4,1.9,4.4,4.2,4.4c2.3,0,4.2-2,4.2-4.4
										C349.5,512.4,347.6,510.4,345.3,510.4z"/>
									<path class="st51" d="M373.4,525.1c-2.3,0-4.2,2-4.2,4.4c0,2.4,1.9,4.4,4.2,4.4c2.3,0,4.2-2,4.2-4.4
										C377.7,527.1,375.8,525.1,373.4,525.1z"/>
									<path class="st51" d="M398,511.3c-2.3,0-4.2,2-4.2,4.4c0,2.4,1.9,4.4,4.2,4.4c2.3,0,4.2-2,4.2-4.4
										C402.2,513.3,400.3,511.3,398,511.3z"/>
									<path class="st49" d="M358,480.6c-2.3,0-4.2,2-4.2,4.4c0,2.4,1.9,4.4,4.2,4.4c2.3,0,4.2-2,4.2-4.4
										C362.2,482.6,360.3,480.6,358,480.6z"/>
									<path class="st51" d="M424.5,497.1c-2.3,0-4.2,2-4.2,4.4c0,2.4,1.9,4.4,4.2,4.4c2.3,0,4.2-2,4.2-4.4
										C428.7,499.1,426.8,497.1,424.5,497.1z"/>
									<ellipse class="st51" cx="448.4" cy="512.5" rx="4.2" ry="4.4"/>
									<path class="st49" d="M422.6,538.5c-2.3,0-4.2,2-4.2,4.4c0,2.4,1.9,4.4,4.2,4.4c2.3,0,4.2-2,4.2-4.4
										C426.9,540.5,425,538.5,422.6,538.5z"/>
									<path class="st49" d="M373.4,508.4c-2.3,0-4.2,2-4.2,4.4c0,2.4,1.9,4.4,4.2,4.4c2.3,0,4.2-2,4.2-4.4
										C377.7,510.4,375.8,508.4,373.4,508.4z"/>
									<path class="st49" d="M393.8,529.5c-2.3,0-4.2,2-4.2,4.4c0,2.4,1.9,4.4,4.2,4.4c2.3,0,4.2-2,4.2-4.4
										C398,531.5,396.1,529.5,393.8,529.5z"/>
									<path class="st49" d="M448.4,549c-2.3,0-4.2,2-4.2,4.4c0,2.4,1.9,4.4,4.2,4.4c2.3,0,4.2-2,4.2-4.4
										C452.6,551,450.7,549,448.4,549z"/>
									<g>
										<path class="st52" d="M370.4,552.6c-13.6,0-23.9-7.3-29.2-21c-4.4-11.4-14.8-17.9-14.9-18l1.3-2.3c0.5,0.3,11.2,7,16,19.3
											c3.8,9.8,12.2,21,30.7,19.1c13.9-1.4,32.9-8.3,36.4-51.8c0.7-9,2.9-16,6.6-20.9c3.3-4.3,7.5-6.7,12.3-6.7
											c0.1,0,0.1,0,0.2,0c8.8,0,18.6,8.2,20,22l-2.5,0.3c-1.3-12.4-9.9-19.7-17.6-19.7c-9,0.1-15.1,9.5-16.4,25.2
											c-1.5,19.4-6.4,33.8-14.3,42.6c-6,6.7-14,10.5-24.3,11.6C373.1,552.5,371.8,552.6,370.4,552.6z"/>
									</g>
									<g>
										<path class="st49" d="M448.3,555.3c-4.1-7.9-12.5-11.5-26.4-11.5l-0.1,0c-36.5-2-51-30.9-59.7-48.1
											c-1.1-2.3-2.2-4.4-3.2-6.2c-8.2-15-31.5-11.4-31.7-11.3l-0.4-2.6c1-0.2,25.3-3.9,34.3,12.6c1,1.9,2.1,4,3.2,6.3
											c9,17.8,22.5,44.7,57.6,46.7c14.9,0,24,4.1,28.6,12.9L448.3,555.3z"/>
									</g>
									<g>
										<rect x="312.1" y="561.5" class="st48" width="149.4" height="2.8"/>
										<polygon class="st48" points="459.1,567.6 459.1,558.3 468.4,562.9 										"/>
										
											<rect x="265" y="514.6" transform="matrix(6.123234e-17 -1 1 6.123234e-17 -202.4455 829.3911)" class="st48" width="96.9" height="2.7"/>
										<polygon class="st48" points="317.9,470.3 309,470.3 313.5,460.5 										"/>
									</g>
								</g>
							</g>
							<g class="st21">
								<g>
									<rect x="504.2" y="618.6" class="st47" width="3.9" height="30.3"/>
								</g>
								<g>
									
										<ellipse transform="matrix(0.2298 -0.9732 0.9732 0.2298 -209.7022 967.1299)" class="st47" cx="506.2" cy="616" rx="7.9" ry="7.9"/>
								</g>
								<g>
									<polygon class="st53" points="533.2,630 579.8,630 579.8,602.1 533.2,602.1 519.1,616 									"/>
								</g>
								<g>
									<path class="st48" d="M534.7,621.8V620l1.6-1.5c2.8-2.5,4.1-3.9,4.2-5.4c0-1-0.6-1.9-2.1-1.9c-1.1,0-2.1,0.5-2.7,1
										l-0.8-2.1c0.9-0.7,2.4-1.3,4.1-1.3c2.9,0,4.5,1.7,4.5,4c0,2.1-1.5,3.8-3.4,5.5l-1.2,1v0h4.8v2.4H534.7z"/>
									<path class="st48" d="M554,611.5h-4.9l-0.3,2c0.3,0,0.5,0,0.8,0c1.2,0,2.5,0.3,3.3,0.9c1,0.6,1.5,1.7,1.5,3.2
										c0,2.4-2,4.5-5.4,4.5c-1.5,0-2.8-0.4-3.5-0.7l0.5-2.2c0.5,0.3,1.7,0.6,2.9,0.6c1.2,0,2.5-0.6,2.5-1.9c0-1.3-1-2.1-3.6-2.1
										c-0.7,0-1.2,0-1.7,0.1l0.8-6.7h7V611.5z"/>
									<path class="st48" d="M563.1,612.6c0,2.7-1.7,4.1-3.5,4.1c-1.9,0-3.5-1.4-3.5-3.8c0-2.3,1.4-4,3.6-4
										C561.8,608.9,563.1,610.5,563.1,612.6z M558.3,612.8c0,1.3,0.4,2.3,1.3,2.3c0.8,0,1.2-0.9,1.2-2.3c0-1.3-0.4-2.3-1.3-2.3
										C558.7,610.5,558.3,611.5,558.3,612.8z M559.7,622l7.3-13.1h1.6l-7.3,13.1H559.7z M572.2,617.9c0,2.6-1.7,4-3.5,4
										c-1.9,0-3.4-1.4-3.4-3.8c0-2.3,1.4-4,3.6-4S572.2,615.7,572.2,617.9z M567.5,618.1c0,1.3,0.4,2.3,1.3,2.3
										c0.8,0,1.2-0.9,1.2-2.3c0-1.3-0.4-2.3-1.3-2.3C567.9,615.8,567.5,616.8,567.5,618.1z"/>
								</g>
								<g>
									<rect x="504.2" y="579" class="st47" width="3.9" height="30.3"/>
								</g>
								<g>
									
										<ellipse transform="matrix(0.7071 -0.7071 0.7071 0.7071 -259.3488 526.7415)" class="st47" cx="506.2" cy="576.4" rx="7.9" ry="7.9"/>
								</g>
								<g>
									<polygon class="st51" points="533.2,590.4 579.8,590.4 579.8,562.4 533.2,562.4 519.1,576.4 									"/>
								</g>
								<g>
									<path class="st48" d="M543.2,571.9h-4.9l-0.3,2c0.3,0,0.5,0,0.8,0c1.2,0,2.5,0.3,3.3,0.9c1,0.6,1.5,1.7,1.5,3.2
										c0,2.4-2,4.5-5.4,4.5c-1.5,0-2.8-0.4-3.5-0.7l0.5-2.2c0.5,0.3,1.7,0.6,2.9,0.6c1.2,0,2.5-0.6,2.5-1.9c0-1.3-1-2.1-3.6-2.1
										c-0.7,0-1.2,0-1.7,0.1l0.8-6.7h7V571.9z"/>
									<path class="st48" d="M554.9,575.8c0,3.9-1.6,6.6-4.8,6.6c-3.3,0-4.7-2.9-4.7-6.5c0-3.7,1.5-6.6,4.8-6.6
										C553.6,569.3,554.9,572.3,554.9,575.8z M548.3,575.8c0,2.9,0.7,4.3,1.8,4.3c1.2,0,1.8-1.4,1.8-4.3c0-2.8-0.6-4.3-1.8-4.3
										C549.1,571.5,548.3,572.9,548.3,575.8z"/>
									<path class="st48" d="M563.1,573c0,2.7-1.7,4.1-3.5,4.1c-1.9,0-3.5-1.4-3.5-3.8c0-2.3,1.4-4,3.6-4
										C561.8,569.3,563.1,570.9,563.1,573z M558.3,573.2c0,1.3,0.4,2.3,1.3,2.3c0.8,0,1.2-0.9,1.2-2.3c0-1.3-0.4-2.3-1.3-2.3
										C558.7,570.9,558.3,571.9,558.3,573.2z M559.7,582.4l7.3-13.1h1.6l-7.3,13.1H559.7z M572.2,578.3c0,2.6-1.7,4-3.5,4
										c-1.9,0-3.4-1.4-3.4-3.8c0-2.3,1.4-4,3.6-4S572.2,576.1,572.2,578.3z M567.5,578.4c0,1.3,0.4,2.3,1.3,2.3
										c0.8,0,1.2-0.9,1.2-2.3c0-1.3-0.4-2.3-1.3-2.3C567.9,576.2,567.5,577.2,567.5,578.4z"/>
								</g>
								<g>
									<rect x="504.2" y="539.4" class="st47" width="3.9" height="30.3"/>
								</g>
								<g>
									
										<ellipse transform="matrix(0.2298 -0.9732 0.9732 0.2298 -132.5868 906.0993)" class="st47" cx="506.2" cy="536.8" rx="7.9" ry="7.9"/>
								</g>
								<g>
									<polygon class="st50" points="533.2,550.8 579.8,550.8 579.8,522.8 533.2,522.8 519.1,536.8 									"/>
								</g>
								<g>
									<path class="st48" d="M543.8,529.9v1.9l-5.2,10.8h-3.1l5.2-10.2v0h-5.8v-2.4H543.8z"/>
									<path class="st48" d="M554,532.3h-4.9l-0.3,2c0.3,0,0.5,0,0.8,0c1.2,0,2.5,0.3,3.3,0.9c1,0.6,1.5,1.7,1.5,3.2
										c0,2.4-2,4.5-5.4,4.5c-1.5,0-2.8-0.4-3.5-0.7l0.5-2.2c0.5,0.3,1.7,0.6,2.9,0.6c1.2,0,2.5-0.6,2.5-1.9c0-1.3-1-2.1-3.6-2.1
										c-0.7,0-1.2,0-1.7,0.1l0.8-6.7h7V532.3z"/>
									<path class="st48" d="M563.1,533.4c0,2.7-1.7,4.1-3.5,4.1c-1.9,0-3.5-1.4-3.5-3.8c0-2.3,1.4-4,3.6-4
										C561.8,529.6,563.1,531.2,563.1,533.4z M558.3,533.6c0,1.3,0.4,2.3,1.3,2.3c0.8,0,1.2-0.9,1.2-2.3c0-1.3-0.4-2.3-1.3-2.3
										C558.7,531.3,558.3,532.3,558.3,533.6z M559.7,542.8l7.3-13.1h1.6l-7.3,13.1H559.7z M572.2,538.7c0,2.6-1.7,4-3.5,4
										c-1.9,0-3.4-1.4-3.4-3.8c0-2.3,1.4-4,3.6-4S572.2,536.5,572.2,538.7z M567.5,538.8c0,1.3,0.4,2.3,1.3,2.3
										c0.8,0,1.2-0.9,1.2-2.3c0-1.3-0.4-2.3-1.3-2.3C567.9,536.5,567.5,537.5,567.5,538.8z"/>
								</g>
								<g>
									<rect x="504.2" y="499.8" class="st47" width="3.9" height="30.3"/>
								</g>
								<g>
									<circle class="st47" cx="506.2" cy="497.2" r="7.9"/>
								</g>
								<g>
									<polygon class="st49" points="533.2,511.2 579.8,511.2 579.8,483.2 533.2,483.2 519.1,497.2 									"/>
								</g>
								<g>
									<path class="st48" d="M532.7,492.9L532.7,492.9l-2.5,1.2l-0.5-2.2l3.4-1.6h2.4v12.7h-2.9V492.9z"/>
									<path class="st48" d="M549.2,496.5c0,3.9-1.6,6.6-4.8,6.6c-3.3,0-4.7-2.9-4.7-6.5c0-3.7,1.5-6.6,4.8-6.6
										C547.8,490,549.2,493,549.2,496.5z M542.6,496.6c0,2.9,0.7,4.3,1.8,4.3c1.2,0,1.8-1.4,1.8-4.3c0-2.8-0.6-4.3-1.8-4.3
										C543.3,492.3,542.6,493.6,542.6,496.6z"/>
									<path class="st48" d="M560,496.5c0,3.9-1.6,6.6-4.8,6.6c-3.3,0-4.7-2.9-4.7-6.5c0-3.7,1.5-6.6,4.8-6.6
										C558.7,490,560,493,560,496.5z M553.4,496.6c0,2.9,0.7,4.3,1.8,4.3c1.2,0,1.8-1.4,1.8-4.3c0-2.8-0.6-4.3-1.8-4.3
										C554.2,492.3,553.4,493.6,553.4,496.6z"/>
									<path class="st48" d="M568.2,493.8c0,2.7-1.7,4.1-3.5,4.1c-1.9,0-3.5-1.4-3.5-3.8c0-2.3,1.4-4,3.6-4
										C566.9,490,568.2,491.6,568.2,493.8z M563.4,493.9c0,1.3,0.4,2.3,1.3,2.3c0.8,0,1.2-0.9,1.2-2.3c0-1.3-0.4-2.3-1.3-2.3
										C563.8,491.6,563.4,492.7,563.4,493.9z M564.8,503.1l7.3-13.1h1.6l-7.3,13.1H564.8z M577.3,499.1c0,2.6-1.7,4-3.5,4
										c-1.9,0-3.4-1.4-3.4-3.8c0-2.3,1.4-4,3.6-4S577.3,496.9,577.3,499.1z M572.5,499.2c0,1.3,0.4,2.3,1.3,2.3
										c0.8,0,1.2-0.9,1.2-2.3c0-1.3-0.4-2.3-1.3-2.3C572.9,496.9,572.5,497.9,572.5,499.2z"/>
								</g>
							</g>
						</g>
						<g>
							<rect x="288.8" y="335.6" class="st54" width="494.6" height="24.1"/>
							<g>
								<path class="st55" d="M308,347.7c0,3.3-2.6,5.9-5.8,5.9c-3.2,0-5.8-2.6-5.8-5.9c0-3.3,2.6-5.9,5.8-5.9
									C305.5,341.8,308,344.4,308,347.7z"/>
								<path class="st56" d="M326.7,347.7c0,3.3-2.6,5.9-5.8,5.9c-3.2,0-5.8-2.6-5.8-5.9c0-3.3,2.6-5.9,5.8-5.9
									C324.1,341.8,326.7,344.4,326.7,347.7z"/>
								<path class="st57" d="M345.3,347.7c0,3.3-2.6,5.9-5.8,5.9c-3.2,0-5.8-2.6-5.8-5.9c0-3.3,2.6-5.9,5.8-5.9
									C342.7,341.8,345.3,344.4,345.3,347.7z"/>
							</g>
						</g>
						<g>
							<rect x="577.6" y="335.9" class="st43" width="205.8" height="322.7"/>
							<g>
								<path class="st19" d="M623,384.7c0,4-1.6,7.2-3.6,7.2h-19.7c-2,0-3.6-3.2-3.6-7.2l0,0c0-4,1.6-7.2,3.6-7.2h19.7
									C621.4,377.6,623,380.8,623,384.7L623,384.7z"/>
								<path class="st58" d="M634,404.2c0,4-1.6,7.2-3.6,7.2h-19.7c-2,0-3.6-3.2-3.6-7.2l0,0c0-4,1.6-7.2,3.6-7.2h19.7
									C632.4,397,634,400.2,634,404.2L634,404.2z"/>
								<path class="st19" d="M700.2,423.6c0,4-1.6,7.2-3.6,7.2h-70.2c-2,0-3.6-3.2-3.6-7.2l0,0c0-4,1.6-7.2,3.6-7.2h70.2
									C698.6,416.4,700.2,419.6,700.2,423.6L700.2,423.6z"/>
								<path class="st59" d="M736.9,443c0,4-1.6,7.2-3.6,7.2H626.4c-2,0-3.6-3.2-3.6-7.2l0,0c0-4,1.6-7.2,3.6-7.2h106.9
									C735.3,435.8,736.9,439,736.9,443L736.9,443z"/>
								<path class="st54" d="M764.4,462.4c0,4-1.6,7.2-3.6,7.2H626.4c-2,0-3.6-3.2-3.6-7.2l0,0c0-4,1.6-7.2,3.6-7.2h134.5
									C762.8,455.3,764.4,458.5,764.4,462.4L764.4,462.4z"/>
								<path class="st58" d="M656.9,481.9c0,4-1.6,7.2-3.6,7.2h-42.7c-2,0-3.6-3.2-3.6-7.2l0,0c0-4,1.6-7.2,3.6-7.2h42.7
									C655.3,474.7,656.9,477.9,656.9,481.9L656.9,481.9z"/>
								<g>
									<path class="st54" d="M649.7,501.3c0,4-1.6,7.2-3.6,7.2h-19.7c-2,0-3.6-3.2-3.6-7.2l0,0c0-4,1.6-7.2,3.6-7.2h19.7
										C648.1,494.1,649.7,497.3,649.7,501.3L649.7,501.3z"/>
									<path class="st19" d="M678.5,501.3c0,4-1.6,7.2-3.6,7.2h-19.7c-2,0-3.6-3.2-3.6-7.2l0,0c0-4,1.6-7.2,3.6-7.2h19.7
										C676.9,494.1,678.5,497.3,678.5,501.3L678.5,501.3z"/>
								</g>
								<path class="st59" d="M668,520.7c0,4-1.6,7.2-3.6,7.2h-38.1c-2,0-3.6-3.2-3.6-7.2l0,0c0-4,1.6-7.2,3.6-7.2h38.1
									C666.4,513.5,668,516.7,668,520.7L668,520.7z"/>
								<path class="st19" d="M686.4,540.1c0,4-1.6,7.2-3.6,7.2h-56.4c-2,0-3.6-3.2-3.6-7.2l0,0c0-4,1.6-7.2,3.6-7.2h56.4
									C684.8,533,686.4,536.2,686.4,540.1L686.4,540.1z"/>
								<path class="st54" d="M649.7,559.6c0,4-1.6,7.2-3.6,7.2h-19.7c-2,0-3.6-3.2-3.6-7.2l0,0c0-4,1.6-7.2,3.6-7.2h19.7
									C648.1,552.4,649.7,555.6,649.7,559.6L649.7,559.6z"/>
								<g>
									<path class="st58" d="M649.7,579c0,4-1.6,7.2-3.6,7.2h-19.7c-2,0-3.6-3.2-3.6-7.2l0,0c0-4,1.6-7.2,3.6-7.2h19.7
										C648.1,571.8,649.7,575,649.7,579L649.7,579z"/>
									<path class="st59" d="M740.4,579c0,4-1.6,7.2-3.6,7.2h-81.7c-2,0-3.6-3.2-3.6-7.2l0,0c0-4,1.6-7.2,3.6-7.2h81.7
										C738.8,571.8,740.4,575,740.4,579L740.4,579z"/>
									<path class="st19" d="M773.7,579c0,4-1.6,7.2-3.6,7.2h-24.3c-2,0-3.6-3.2-3.6-7.2l0,0c0-4,1.6-7.2,3.6-7.2h24.3
										C772.1,571.8,773.7,575,773.7,579L773.7,579z"/>
								</g>
								<path class="st54" d="M634,598.4c0,4-1.6,7.2-3.6,7.2h-19.7c-2,0-3.6-3.2-3.6-7.2l0,0c0-4,1.6-7.2,3.6-7.2h19.7
									C632.4,591.2,634,594.4,634,598.4L634,598.4z"/>
								<path class="st59" d="M649.7,617.8c0,4-1.6,7.2-3.6,7.2h-19.7c-2,0-3.6-3.2-3.6-7.2l0,0c0-4,1.6-7.2,3.6-7.2h19.7
									C648.1,610.7,649.7,613.9,649.7,617.8L649.7,617.8z"/>
								<path class="st54" d="M700.2,637.3c0,4-1.6,7.2-3.6,7.2h-70.2c-2,0-3.6-3.2-3.6-7.2l0,0c0-4,1.6-7.2,3.6-7.2h70.2
									C698.6,630.1,700.2,633.3,700.2,637.3L700.2,637.3z"/>
							</g>
						</g>
					</g>
				</g>
			</g>
		</g>
	</g>
</g>
</svg>
