<?xml version="1.0" encoding="UTF-8" standalone="no"?>
<svg
   xmlns:dc="http://purl.org/dc/elements/1.1/"
   xmlns:cc="http://creativecommons.org/ns#"
   xmlns:rdf="http://www.w3.org/1999/02/22-rdf-syntax-ns#"
   xmlns:svg="http://www.w3.org/2000/svg"
   xmlns="http://www.w3.org/2000/svg"
   xmlns:xlink="http://www.w3.org/1999/xlink"
   xmlns:sodipodi="http://sodipodi.sourceforge.net/DTD/sodipodi-0.dtd"
   xmlns:inkscape="http://www.inkscape.org/namespaces/inkscape"
   width="540"
   height="540"
   viewBox="0 0 540 540"
   version="1.1"
   id="svg255"
   sodipodi:docname="rozet.svg"
   inkscape:version="0.92.3 (2405546, 2018-03-11)">
  <metadata
     id="metadata259">
    <rdf:RDF>
      <cc:Work
         rdf:about="">
        <dc:format>image/svg+xml</dc:format>
        <dc:type
           rdf:resource="http://purl.org/dc/dcmitype/StillImage" />
        <dc:title>yesil_Veri_A_Atolye1</dc:title>
      </cc:Work>
    </rdf:RDF>
  </metadata>
  <sodipodi:namedview
     pagecolor="#ffffff"
     bordercolor="#666666"
     borderopacity="1"
     objecttolerance="10"
     gridtolerance="10"
     guidetolerance="10"
     inkscape:pageopacity="0"
     inkscape:pageshadow="2"
     inkscape:window-width="1366"
     inkscape:window-height="711"
     id="namedview257"
     showgrid="false"
     inkscape:zoom="0.94259259"
     inkscape:cx="270"
     inkscape:cy="270"
     inkscape:window-x="0"
     inkscape:window-y="0"
     inkscape:window-maximized="1"
     inkscape:current-layer="svg255" />
  <!-- Generator: Sketch 56.3 (81716) - https://sketch.com -->
  <title
     id="title2">yesil_Veri_A_Atolye1</title>
  <desc
     id="desc4">Created with Sketch.</desc>
  <defs
     id="defs7">
    <circle
       id="path-1"
       cx="269.5"
       cy="269.5"
       r="269.5" />
    <mask
       id="mask-2"
       fill="white">
      <use
         xlink:href="#path-1"
         id="use238"
         x="0"
         y="0"
         width="100%"
         height="100%" />
    </mask>
  </defs>
  <g
     id="g1093"
     transform="matrix(4.2187499,0,0,4.2187499,0,-1738.125)"
     style="stroke-width:0.23703705">
    <rect
       x="0"
       y="412"
       width="124.39511"
       height="128"
       id="rect9"
       style="fill:#ffffff;fill-rule:evenodd;stroke:none;stroke-width:0.23703705" />
    <path
       style="fill:#000000;fill-rule:evenodd;stroke:none;stroke-width:0.23703705"
       inkscape:connector-curvature="0"
       id="Fill-1"
       d="m 32.287091,413.76006 c -0.251135,0.87359 -0.601867,1.68052 -1.043576,2.44227 -0.366613,0.63189 0.507657,1.22555 0.871307,0.59808 0.489891,-0.84421 0.867539,-1.75792 1.145594,-2.72535 0.208069,-0.72415 -0.766601,-1.03504 -0.973325,-0.315" />
    <path
       style="fill:#000000;fill-rule:evenodd;stroke:none;stroke-width:0.23703705"
       inkscape:connector-curvature="0"
       id="Fill-3"
       d="m 34.975705,413.91992 c 9.21e-4,0.83633 -0.296487,1.56938 -0.861782,2.14766 -0.513772,0.52584 0.267632,1.35747 0.780519,0.83256 0.767567,-0.78516 1.186534,-1.8469 1.185359,-2.98022 -6.91e-4,-0.75753 -1.104686,-0.75879 -1.104096,0" />
    <path
       style="fill:#000000;fill-rule:evenodd;stroke:none;stroke-width:0.23703705"
       inkscape:connector-curvature="0"
       id="Fill-17"
       d="m 7.0828351,415.71607 h 3.3342399 c 0.731145,0 0.732357,-1.18239 0,-1.18239 H 7.0828351 c -0.7311451,0 -0.7323571,1.18239 0,1.18239" />
    <path
       style="fill:#000000;fill-rule:evenodd;stroke:none;stroke-width:0.23703705"
       inkscape:connector-curvature="0"
       id="Fill-20"
       d="m 7.0886683,415.71546 c 1.1624435,-0.0464 2.3245802,-0.0928 3.4867167,-0.13896 0.737534,-0.0295 0.741522,-1.07193 0,-1.04219 -1.1621365,0.0461 -2.3242732,0.0925 -3.4867167,0.13896 -0.7375333,0.0295 -0.7415217,1.07165 0,1.04219" />
    <path
       style="fill:#000000;fill-rule:evenodd;stroke:none;stroke-width:0.23703705"
       inkscape:connector-curvature="0"
       id="Fill-82"
       d="m 63.245838,413.11734 c 0.454204,0.34443 0.908405,0.68916 1.362921,1.03389 0.23965,0.18165 1.106649,0.63562 1.178167,0.92249 0.137077,-0.23797 0.27384,-0.47595 0.410916,-0.71392 0.250627,-0.0637 -0.221142,0.0836 -0.30803,0.14947 -0.217064,0.1637 -0.378921,0.51927 -0.533249,0.73527 -0.514429,0.72103 -1.028858,1.44175 -1.543285,2.16278 -0.436638,0.6121 0.582809,1.19233 1.015681,0.58579 0.661543,-0.92712 1.323085,-1.85394 1.984628,-2.78076 -0.169698,0.0956 -0.33877,0.19155 -0.508154,0.28718 0.06556,0.005 0.14178,-0.005 0.205143,-0.0207 0.313363,-0.0795 0.485885,-0.41281 0.410603,-0.7136 -0.131117,-0.5236 -0.543915,-0.72505 -0.961731,-1.04194 -0.706711,-0.53566 -1.41311,-1.07195 -2.119821,-1.60792 -0.600064,-0.4549 -1.186324,0.55237 -0.593789,1.00201" />
    <path
       style="fill:#000000;fill-rule:evenodd;stroke:none;stroke-width:0.23703705"
       inkscape:connector-curvature="0"
       id="Fill-146"
       d="m 94.497372,413.76006 c -0.251137,0.87359 -0.601867,1.68052 -1.043578,2.44227 -0.366611,0.63189 0.507656,1.22555 0.871307,0.59808 0.489893,-0.84421 0.867541,-1.75792 1.145594,-2.72535 0.208069,-0.72415 -0.766599,-1.03504 -0.973323,-0.315" />
    <path
       style="fill:#000000;fill-rule:evenodd;stroke:none;stroke-width:0.23703705"
       inkscape:connector-curvature="0"
       id="Fill-148"
       d="m 97.350125,413.91992 c 9.22e-4,0.83633 -0.296486,1.56938 -0.861781,2.14766 -0.513773,0.52584 0.267631,1.35747 0.780814,0.83256 0.767273,-0.78516 1.186241,-1.8469 1.185066,-2.98022 -6.91e-4,-0.75753 -1.104686,-0.75879 -1.104099,0" />
    <path
       style="fill:#000000;fill-rule:evenodd;stroke:none;stroke-width:0.23703705"
       inkscape:connector-curvature="0"
       id="Fill-160"
       d="m 123.81468,413.11734 c 0.45421,0.34443 0.90841,0.68916 1.36293,1.03389 0.23965,0.18165 1.10664,0.63562 1.17816,0.92249 0.13708,-0.23797 0.27384,-0.47595 0.41092,-0.71392 0.25094,-0.0637 -0.22114,0.0836 -0.30803,0.14947 -0.21706,0.1637 -0.37892,0.51927 -0.53325,0.73527 -0.51443,0.72103 -1.02886,1.44175 -1.54329,2.16278 -0.43663,0.6121 0.58281,1.19233 1.01569,0.58579 0.66154,-0.92712 1.32308,-1.85394 1.98463,-2.78076 -0.1697,0.0956 -0.33877,0.19155 -0.50816,0.28718 0.0656,0.005 0.14178,-0.005 0.20514,-0.0207 0.31337,-0.0795 0.48589,-0.41281 0.41061,-0.7136 -0.13112,-0.5236 -0.54392,-0.72505 -0.96174,-1.04194 -0.70671,-0.53566 -1.41311,-1.07195 -2.11982,-1.60792 -0.60006,-0.4549 -1.18632,0.55237 -0.59379,1.00201" />
    <path
       style="fill:#000000;fill-rule:evenodd;stroke:none;stroke-width:0.23703705"
       inkscape:connector-curvature="0"
       id="Fill-5"
       d="m 48.54288,428.49888 c -1.066485,0.79093 -2.08049,1.64595 -3.146657,2.43688 -0.338744,0.2511 -0.428122,0.7732 0,1.00718 1.35402,0.74021 2.534375,1.62511 3.491444,2.82582 0.471379,0.59179 1.310126,-0.23927 0.843203,-0.82485 -1.01655,-1.27569 -2.296779,-2.22344 -3.732542,-3.00815 v 1.00718 c 1.066485,-0.79093 2.080489,-1.64565 3.146657,-2.43658 0.604014,-0.44773 0.01018,-1.46145 -0.602105,-1.00748" />
    <path
       style="fill:#000000;fill-rule:evenodd;stroke:none;stroke-width:0.23703705"
       inkscape:connector-curvature="0"
       id="Fill-7"
       d="m 25.726975,444.54556 c -1.066486,0.79093 -2.080492,1.64595 -3.14666,2.43688 -0.338744,0.25109 -0.428121,0.77319 0,1.00717 1.353702,0.74021 2.53406,1.62511 3.49113,2.82581 0.471695,0.5918 1.310445,-0.23927 0.843519,-0.82484 -1.01655,-1.27569 -2.296778,-2.22343 -3.732544,-3.00814 v 1.00717 c 1.066169,-0.79093 2.080492,-1.64564 3.146659,-2.43657 0.604014,-0.44804 0.01018,-1.46144 -0.602104,-1.00748" />
    <path
       style="fill:#000000;fill-rule:evenodd;stroke:none;stroke-width:0.23703705"
       inkscape:connector-curvature="0"
       id="Fill-9"
       d="m 0.69699883,429.70092 c 0.43527757,0.35405 0.87055517,0.70778 1.30613337,1.06183 0.2296631,0.18656 1.0605382,0.65312 1.1290765,0.94742 0.1313649,-0.2444 0.262429,-0.4888 0.3937939,-0.73321 0.2401844,-0.0655 -0.2119274,0.0858 -0.2951951,0.15351 -0.2080195,0.16813 -0.3631322,0.5333 -0.5110303,0.75514 -0.492994,0.74052 -0.985988,1.48104 -1.478982,2.22124 -0.41844363,0.62865 0.5585261,1.22456 0.9733625,0.60164 0.6339782,-0.95187 1.2679564,-1.90406 1.9019347,-2.85593 -0.1626279,0.0982 -0.3246546,0.19673 -0.4869819,0.29493 0.062827,0.005 0.135874,-0.004 0.1965963,-0.0213 0.3003057,-0.0817 0.465639,-0.42398 0.3934935,-0.7329 -0.1256533,-0.53775 -0.5215516,-0.74465 -0.9216583,-1.06978 -0.6772655,-0.55047 -1.3542304,-1.10125 -2.0314959,-1.65171 -0.57505941,-0.4672 -1.13689217,0.56762 -0.56904727,1.0291" />
    <path
       style="fill:#000000;fill-rule:evenodd;stroke:none;stroke-width:0.23703705"
       inkscape:connector-curvature="0"
       id="Fill-11"
       d="m 34.453602,429.6914 c -0.756568,1.61019 -1.555602,3.19257 -2.39822,4.74839 -0.350347,0.6467 0.555132,1.23591 0.904362,0.59109 0.842896,-1.55551 1.642209,-3.13789 2.398499,-4.74808 0.313187,-0.667 -0.590614,-1.25996 -0.904641,-0.5914" />
    <path
       style="fill:#fc7b69;fill-rule:evenodd;stroke:none;stroke-width:0.23703705"
       inkscape:connector-curvature="0"
       id="Fill-13"
       d="m 17.095571,432.26947 h 3.33424 c 0.731146,0 0.732357,-1.01348 0,-1.01348 h -3.33424 c -0.731145,0 -0.732357,1.01348 0,1.01348" />
    <path
       style="fill:#fc7b69;fill-rule:evenodd;stroke:none;stroke-width:0.23703705"
       inkscape:connector-curvature="0"
       id="Fill-15"
       d="m 18.188247,429.28418 c 0.02035,1.65503 0.159296,3.29392 0.402666,4.92878 0.109737,0.73798 1.176139,0.42454 1.066696,-0.30941 -0.22803,-1.53151 -0.343962,-3.06955 -0.363137,-4.61937 -0.0091,-0.74823 -1.11537,-0.75009 -1.106225,0" />
    <path
       style="fill:#000000;fill-rule:evenodd;stroke:none;stroke-width:0.23703705"
       inkscape:connector-curvature="0"
       id="Fill-22"
       d="m 7.9387066,446.66969 c 0.6220401,0 0.6230712,-1.00822 0,-1.00822 -0.62204,0 -0.6230711,1.00822 0,1.00822" />
    <path
       style="fill:#000000;fill-rule:evenodd;stroke:none;stroke-width:0.23703705"
       inkscape:connector-curvature="0"
       id="Fill-24"
       d="m 7.9387066,446.66969 c 0.6220401,0 0.6230712,-1.00822 0,-1.00822 -0.62204,0 -0.6230711,1.00822 0,1.00822" />
    <path
       style="fill:#000000;fill-rule:evenodd;stroke:none;stroke-width:0.23703705"
       inkscape:connector-curvature="0"
       id="Fill-26"
       d="m 7.9387066,448.93819 c 0.6220401,0 0.6230712,-1.00822 0,-1.00822 -0.62204,0 -0.6230711,1.00822 0,1.00822" />
    <path
       style="fill:#000000;fill-rule:evenodd;stroke:none;stroke-width:0.23703705"
       inkscape:connector-curvature="0"
       id="Fill-28"
       d="m 7.9387066,448.93819 c 0.6220401,0 0.6230712,-1.00822 0,-1.00822 -0.62204,0 -0.6230711,1.00822 0,1.00822" />
    <path
       style="fill:#000000;fill-rule:evenodd;stroke:none;stroke-width:0.23703705"
       inkscape:connector-curvature="0"
       id="Fill-30"
       d="m 46.396309,444.88537 c -0.765949,1.43496 -1.35293,2.95593 -1.758924,4.55755 -0.185876,0.73339 0.854574,1.04685 1.04045,0.31377 0.3824,-1.50774 0.92881,-2.9238 1.650161,-4.27497 0.351036,-0.65778 -0.581225,-1.25319 -0.931687,-0.59635" />
    <path
       style="fill:#000000;fill-rule:evenodd;stroke:none;stroke-width:0.23703705"
       inkscape:connector-curvature="0"
       id="Fill-32"
       d="m 47.925477,444.99113 c -0.537357,1.43679 -1.054377,2.89747 -1.624029,4.31968 -0.276604,0.69063 0.807977,0.9922 1.081291,0.30933 0.569951,-1.42314 1.086075,-2.88196 1.624029,-4.31969 0.261352,-0.69838 -0.82263,-1.00088 -1.081291,-0.30932" />
    <path
       style="fill:#000000;fill-rule:evenodd;stroke:none;stroke-width:0.23703705"
       inkscape:connector-curvature="0"
       id="Fill-34"
       d="m 44.338657,448.14404 c 1.876867,-0.18762 3.764643,-0.1238 5.641507,-0.3111 0.722012,-0.0722 0.729285,-1.27586 0,-1.20273 -1.876864,0.1873 -3.76464,0.12348 -5.641507,0.3111 -0.72201,0.0722 -0.728983,1.27554 0,1.20273" />
    <path
       style="fill:#000000;fill-rule:evenodd;stroke:none;stroke-width:0.23703705"
       inkscape:connector-curvature="0"
       id="Fill-36"
       d="m 44.336287,448.81787 c 1.710591,-0.21214 3.422095,-0.34707 5.145739,-0.35726 0.732506,-0.005 0.734024,-1.16257 0,-1.15796 -1.723644,0.0102 -3.435449,0.14515 -5.145739,0.35728 -0.717933,0.0892 -0.726735,1.2481 0,1.15794" />
    <path
       style="fill:#000000;fill-rule:evenodd;stroke:none;stroke-width:0.23703705"
       inkscape:connector-curvature="0"
       id="Fill-74"
       d="m 94.912702,413.74148 c -0.270165,0.83388 -0.648165,1.60413 -1.123852,2.33125 -0.394814,0.60317 0.546707,1.16985 0.938621,0.5709 0.527288,-0.80583 0.934274,-1.67801 1.233428,-2.60147 0.224075,-0.69123 -0.825571,-0.98799 -1.048197,-0.30068" />
    <path
       style="fill:#000000;fill-rule:evenodd;stroke:none;stroke-width:0.23703705"
       inkscape:connector-curvature="0"
       id="Fill-76"
       d="m 97.593557,413.89407 c 9.22e-4,0.79832 -0.319271,1.49805 -0.928331,2.05004 -0.55294,0.50194 0.288519,1.29577 0.840826,0.79472 0.826557,-0.74947 1.277725,-1.76295 1.276458,-2.84476 -9.22e-4,-0.7231 -1.189902,-0.7243 -1.188953,0" />
    <path
       style="fill:#000000;fill-rule:evenodd;stroke:none;stroke-width:0.23703705"
       inkscape:connector-curvature="0"
       id="Fill-78"
       d="m 113.05117,429.17453 c -1.06649,0.79093 -2.08049,1.64595 -3.14666,2.43688 -0.33875,0.2511 -0.42812,0.7732 0,1.00718 1.3537,0.74021 2.53406,1.62511 3.49113,2.82582 0.47169,0.59179 1.31044,-0.23927 0.84352,-0.82485 -1.01655,-1.27569 -2.29678,-2.22344 -3.73255,-3.00815 v 1.00718 c 1.06617,-0.79093 2.08049,-1.64565 3.14666,-2.43658 0.6037,-0.44773 0.0102,-1.46145 -0.6021,-1.00748" />
    <path
       style="fill:#000000;fill-rule:evenodd;stroke:none;stroke-width:0.23703705"
       inkscape:connector-curvature="0"
       id="Fill-80"
       d="m 84.490359,444.54556 c -1.066522,0.79093 -2.080558,1.64595 -3.146763,2.43688 -0.338755,0.25109 -0.428135,0.77319 0,1.00717 1.353748,0.74021 2.534143,1.62511 3.491243,2.82581 0.471396,0.5918 1.310171,-0.23927 0.843549,-0.82484 -1.016582,-1.27569 -2.296854,-2.22343 -3.732666,-3.00814 v 1.00717 c 1.066204,-0.79093 2.080558,-1.64564 3.146763,-2.43657 0.603715,-0.44804 0.01018,-1.46144 -0.602126,-1.00748" />
    <path
       style="fill:#000000;fill-rule:evenodd;stroke:none;stroke-width:0.23703705"
       inkscape:connector-curvature="0"
       id="Fill-84"
       d="m 97.156357,429.6914 c -0.75653,1.61019 -1.555526,3.19257 -2.398382,4.74839 -0.35005,0.6467 0.555385,1.23591 0.904597,0.59109 0.842857,-1.55551 1.641852,-3.13789 2.398384,-4.74808 0.313171,-0.667 -0.590587,-1.25996 -0.904599,-0.5914" />
    <path
       style="fill:#000000;fill-rule:evenodd;stroke:none;stroke-width:0.23703705"
       inkscape:connector-curvature="0"
       id="Fill-86"
       d="m 79.962424,432.26947 h 3.33424 c 0.731146,0 0.732358,-1.01348 0,-1.01348 h -3.33424 c -0.731144,0 -0.732358,1.01348 0,1.01348" />
    <path
       style="fill:#000000;fill-rule:evenodd;stroke:none;stroke-width:0.23703705"
       inkscape:connector-curvature="0"
       id="Fill-88"
       d="m 81.055099,429.28418 c 0.02036,1.65503 0.159297,3.29392 0.402667,4.92878 0.110032,0.73798 1.176137,0.42454 1.066695,-0.30941 -0.22803,-1.53151 -0.343962,-3.06955 -0.363137,-4.61937 -0.0091,-0.74823 -1.115371,-0.75009 -1.106225,0" />
    <path
       style="fill:#000000;fill-rule:evenodd;stroke:none;stroke-width:0.23703705"
       inkscape:connector-curvature="0"
       id="Fill-90"
       d="m 63.383958,432.26947 h 3.334241 c 0.731146,0 0.732357,-1.01348 0,-1.01348 h -3.334241 c -0.731144,0 -0.732355,1.01348 0,1.01348" />
    <path
       style="fill:#000000;fill-rule:evenodd;stroke:none;stroke-width:0.23703705"
       inkscape:connector-curvature="0"
       id="Fill-92"
       d="m 63.4096,432.43768 c 1.20396,-0.053 2.407603,-0.10609 3.611243,-0.15881 0.763873,-0.0337 0.768006,-1.22506 0,-1.19108 -1.20364,0.0527 -2.407283,0.10577 -3.611243,0.15881 -0.763874,0.0337 -0.768004,1.22475 0,1.19108" />
    <path
       style="fill:#000000;fill-rule:evenodd;stroke:none;stroke-width:0.23703705"
       inkscape:connector-curvature="0"
       id="Fill-94"
       d="m 68.732084,446.66969 c 0.666472,0 0.667578,-1.00822 0,-1.00822 -0.66647,0 -0.667576,1.00822 0,1.00822" />
    <path
       style="fill:#000000;fill-rule:evenodd;stroke:none;stroke-width:0.23703705"
       inkscape:connector-curvature="0"
       id="Fill-96"
       d="m 68.732084,446.66969 c 0.666472,0 0.667578,-1.00822 0,-1.00822 -0.66647,0 -0.667576,1.00822 0,1.00822" />
    <path
       style="fill:#000000;fill-rule:evenodd;stroke:none;stroke-width:0.23703705"
       inkscape:connector-curvature="0"
       id="Fill-98"
       d="m 68.481951,448.93819 c 0.666472,0 0.667575,-1.00822 0,-1.00822 -0.666472,0 -0.667576,1.00822 0,1.00822" />
    <path
       style="fill:#000000;fill-rule:evenodd;stroke:none;stroke-width:0.23703705"
       inkscape:connector-curvature="0"
       id="Fill-100"
       d="m 68.481951,448.93819 c 0.666472,0 0.667575,-1.00822 0,-1.00822 -0.666472,0 -0.667576,1.00822 0,1.00822" />
    <path
       d="m 103.59582,442.68951 c -0.76593,1.43496 -1.3529,2.95593 -1.75889,4.55755 -0.18615,0.73339 0.85456,1.04685 1.04043,0.31377 0.3824,-1.50774 0.92879,-2.9238 1.65013,-4.27497 0.35103,-0.65778 -0.58121,-1.25319 -0.93167,-0.59635"
       id="Fill-102"
       inkscape:connector-curvature="0"
       style="fill:#ffd600;fill-rule:evenodd;stroke:none;stroke-width:0.23703705" />
    <path
       d="m 105.4533,442.79527 c -0.53737,1.43679 -1.05441,2.89748 -1.62407,4.31969 -0.27661,0.69063 0.808,0.99219 1.08132,0.30932 0.56996,-1.42314 1.0861,-2.88196 1.62407,-4.31968 0.26106,-0.69839 -0.82265,-1.00089 -1.08132,-0.30933"
       id="Fill-104"
       inkscape:connector-curvature="0"
       style="fill:#ffd600;fill-rule:evenodd;stroke:none;stroke-width:0.23703705" />
    <path
       d="m 101.53816,445.44145 c 1.87689,-0.18763 3.7647,-0.1238 5.6416,-0.31111 0.72202,-0.0722 0.729,-1.27585 0,-1.20273 -1.8769,0.18731 -3.76471,0.12348 -5.6416,0.31111 -0.72202,0.0722 -0.729,1.27553 0,1.20273"
       id="Fill-106"
       inkscape:connector-curvature="0"
       style="fill:#ffd600;fill-rule:evenodd;stroke:none;stroke-width:0.23703705" />
    <path
       d="m 101.53577,446.79092 c 1.71058,-0.21213 3.42206,-0.34707 5.14598,-0.35726 0.7322,-0.005 0.73371,-1.16257 0,-1.15795 -1.72392,0.0102 -3.4354,0.14514 -5.14598,0.35727 -0.71792,0.0892 -0.72672,1.24811 0,1.15794"
       id="Fill-108"
       inkscape:connector-curvature="0"
       style="fill:#ffd600;fill-rule:evenodd;stroke:none;stroke-width:0.23703705" />
    <path
       style="fill:#000000;fill-rule:evenodd;stroke:none;stroke-width:0.23703705"
       inkscape:connector-curvature="0"
       id="Fill-168"
       d="m 123.78866,432.7762 h 3.33424 c 0.73115,0 0.73236,-1.01347 0,-1.01347 h -3.33424 c -0.73114,0 -0.73235,1.01347 0,1.01347" />
    <path
       style="fill:#000000;fill-rule:evenodd;stroke:none;stroke-width:0.23703705"
       inkscape:connector-curvature="0"
       id="Fill-170"
       d="m 123.8143,432.94441 c 1.20396,-0.053 2.40761,-0.10608 3.61125,-0.15881 0.76387,-0.0337 0.768,-1.22505 0,-1.19107 -1.20364,0.0527 -2.40729,0.10577 -3.61125,0.15881 -0.76387,0.0337 -0.768,1.22474 0,1.19107" />
    <path
       style="fill:#000000;fill-rule:evenodd;stroke:none;stroke-width:0.23703705"
       inkscape:connector-curvature="0"
       id="Fill-172"
       d="m 121.14481,446.66969 c 0.62204,0 0.62308,-1.00822 0,-1.00822 -0.62204,0 -0.62307,1.00822 0,1.00822" />
    <path
       style="fill:#000000;fill-rule:evenodd;stroke:none;stroke-width:0.23703705"
       inkscape:connector-curvature="0"
       id="Fill-174"
       d="m 121.14481,446.66969 c 0.62204,0 0.62308,-1.00822 0,-1.00822 -0.62204,0 -0.62307,1.00822 0,1.00822" />
    <path
       style="fill:#000000;fill-rule:evenodd;stroke:none;stroke-width:0.23703705"
       inkscape:connector-curvature="0"
       id="Fill-176"
       d="m 121.14481,448.93819 c 0.62204,0 0.62308,-1.00822 0,-1.00822 -0.62204,0 -0.62307,1.00822 0,1.00822" />
    <path
       style="fill:#000000;fill-rule:evenodd;stroke:none;stroke-width:0.23703705"
       inkscape:connector-curvature="0"
       id="Fill-178"
       d="m 121.14481,448.93819 c 0.62204,0 0.62308,-1.00822 0,-1.00822 -0.62204,0 -0.62307,1.00822 0,1.00822" />
    <path
       style="fill:#000000;fill-rule:evenodd;stroke:none;stroke-width:0.23703705"
       inkscape:connector-curvature="0"
       id="path57"
       d="m 32.287091,501.93224 c -0.251135,0.87359 -0.601867,1.68052 -1.043576,2.44226 -0.366613,0.6319 0.507657,1.22556 0.871307,0.59809 0.489891,-0.84421 0.867539,-1.75792 1.145594,-2.72535 0.208069,-0.72415 -0.766601,-1.03504 -0.973325,-0.315" />
    <path
       style="fill:#000000;fill-rule:evenodd;stroke:none;stroke-width:0.23703705"
       inkscape:connector-curvature="0"
       id="path59"
       d="m 34.975705,502.0921 c 9.21e-4,0.83633 -0.296487,1.56938 -0.861782,2.14765 -0.513772,0.52585 0.267632,1.35748 0.780519,0.83257 0.767567,-0.78516 1.186534,-1.8469 1.185359,-2.98022 -6.91e-4,-0.75754 -1.104686,-0.75879 -1.104096,0" />
    <path
       style="fill:#38d68d;fill-rule:evenodd;stroke:none;stroke-width:0.23703705"
       inkscape:connector-curvature="0"
       id="path61"
       d="m 7.0828351,504.39499 h 3.3342399 c 0.731145,0 0.732357,-1.18239 0,-1.18239 H 7.0828351 c -0.7311451,0 -0.7323571,1.18239 0,1.18239" />
    <path
       style="fill:#38d68d;fill-rule:evenodd;stroke:none;stroke-width:0.23703705"
       inkscape:connector-curvature="0"
       id="path63"
       d="m 6.9245251,506.49921 c 1.1624434,-0.0464 2.3245801,-0.0928 3.4867169,-0.13896 0.737533,-0.0295 0.741522,-1.07193 0,-1.04219 -1.1621368,0.0461 -2.3242735,0.0926 -3.4867169,0.13896 -0.7375333,0.0295 -0.7415216,1.07165 0,1.04219" />
    <path
       style="fill:#000000;fill-rule:evenodd;stroke:none;stroke-width:0.23703705"
       inkscape:connector-curvature="0"
       id="path65"
       d="m 63.245838,501.45843 c 0.454204,0.34443 0.908405,0.68916 1.362921,1.03389 0.23965,0.18165 1.106649,0.63562 1.178167,0.92249 0.137077,-0.23797 0.27384,-0.47594 0.410916,-0.71391 0.250627,-0.0637 -0.221142,0.0836 -0.30803,0.14946 -0.217064,0.16371 -0.378921,0.51927 -0.533249,0.73527 -0.514429,0.72103 -1.028858,1.44175 -1.543285,2.16278 -0.436638,0.6121 0.582809,1.19233 1.015681,0.5858 0.661543,-0.92713 1.323085,-1.85395 1.984628,-2.78077 -0.169698,0.0956 -0.33877,0.19156 -0.508154,0.28718 0.06556,0.005 0.14178,-0.005 0.205143,-0.0207 0.313363,-0.0795 0.485885,-0.41282 0.410603,-0.71361 -0.131117,-0.52359 -0.543915,-0.72505 -0.961731,-1.04193 -0.706711,-0.53567 -1.41311,-1.07195 -2.119821,-1.60793 -0.600064,-0.4549 -1.186324,0.55238 -0.593789,1.00202" />
    <path
       style="fill:#000000;fill-rule:evenodd;stroke:none;stroke-width:0.23703705"
       inkscape:connector-curvature="0"
       id="path67"
       d="m 94.497372,501.93224 c -0.251137,0.87359 -0.601867,1.68052 -1.043578,2.44226 -0.366611,0.6319 0.507656,1.22556 0.871307,0.59809 0.489893,-0.84421 0.867541,-1.75792 1.145594,-2.72535 0.208069,-0.72415 -0.766599,-1.03504 -0.973323,-0.315" />
    <path
       style="fill:#000000;fill-rule:evenodd;stroke:none;stroke-width:0.23703705"
       inkscape:connector-curvature="0"
       id="path69"
       d="m 97.350125,502.0921 c 9.22e-4,0.83633 -0.296486,1.56938 -0.861781,2.14765 -0.513773,0.52585 0.267631,1.35748 0.780814,0.83257 0.767273,-0.78516 1.186241,-1.8469 1.185066,-2.98022 -6.91e-4,-0.75754 -1.104686,-0.75879 -1.104099,0" />
    <path
       style="fill:#000000;fill-rule:evenodd;stroke:none;stroke-width:0.23703705"
       inkscape:connector-curvature="0"
       id="path71"
       d="m 123.81468,501.45843 c 0.45421,0.34443 0.90841,0.68916 1.36293,1.03389 0.23965,0.18165 1.10664,0.63562 1.17816,0.92249 0.13708,-0.23797 0.27384,-0.47594 0.41092,-0.71391 0.25094,-0.0637 -0.22114,0.0836 -0.30803,0.14946 -0.21706,0.16371 -0.37892,0.51927 -0.53325,0.73527 -0.51443,0.72103 -1.02886,1.44175 -1.54329,2.16278 -0.43663,0.6121 0.58281,1.19233 1.01569,0.5858 0.66154,-0.92713 1.32308,-1.85395 1.98463,-2.78077 -0.1697,0.0956 -0.33877,0.19156 -0.50816,0.28718 0.0656,0.005 0.14178,-0.005 0.20514,-0.0207 0.31337,-0.0795 0.48589,-0.41282 0.41061,-0.71361 -0.13112,-0.52359 -0.54392,-0.72505 -0.96174,-1.04193 -0.70671,-0.53567 -1.41311,-1.07195 -2.11982,-1.60793 -0.60006,-0.4549 -1.18632,0.55238 -0.59379,1.00202" />
    <path
       style="fill:#000000;fill-rule:evenodd;stroke:none;stroke-width:0.23703705"
       inkscape:connector-curvature="0"
       id="path73"
       d="m 48.54288,516.83997 c -1.066485,0.79093 -2.08049,1.64595 -3.146657,2.43689 -0.338744,0.25109 -0.428122,0.77319 0,1.00717 1.35402,0.74022 2.534375,1.62511 3.491444,2.82582 0.471379,0.5918 1.310126,-0.23927 0.843203,-0.82484 -1.01655,-1.2757 -2.296779,-2.22345 -3.732542,-3.00815 v 1.00717 c 1.066485,-0.79093 2.080489,-1.64565 3.146657,-2.43657 0.604014,-0.44774 0.01018,-1.46145 -0.602105,-1.00749" />
    <path
       style="fill:#000000;fill-rule:evenodd;stroke:none;stroke-width:0.23703705"
       inkscape:connector-curvature="0"
       id="path75"
       d="m 25.726975,532.88665 c -1.066486,0.79093 -2.080492,1.64595 -3.14666,2.43688 -0.338744,0.25109 -0.428121,0.77319 0,1.00717 1.353702,0.74021 2.53406,1.62511 3.49113,2.82581 0.471695,0.5918 1.310445,-0.23927 0.843519,-0.82484 -1.01655,-1.27569 -2.296778,-2.22343 -3.732544,-3.00814 v 1.00717 c 1.066169,-0.79092 2.080492,-1.64564 3.146659,-2.43656 0.604014,-0.44805 0.01018,-1.46145 -0.602104,-1.00749" />
    <path
       style="fill:#000000;fill-rule:evenodd;stroke:none;stroke-width:0.23703705"
       inkscape:connector-curvature="0"
       id="path77"
       d="m 0.69699883,518.04201 c 0.43527757,0.35405 0.87055517,0.70778 1.30613337,1.06183 0.2296631,0.18656 1.0605382,0.65312 1.1290765,0.94743 0.1313649,-0.24441 0.262429,-0.48881 0.3937939,-0.73321 0.2401844,-0.0655 -0.2119274,0.0858 -0.2951951,0.1535 -0.2080195,0.16813 -0.3631322,0.53331 -0.5110303,0.75514 -0.492994,0.74052 -0.985988,1.48104 -1.478982,2.22125 -0.41844363,0.62864 0.5585261,1.22456 0.9733625,0.60163 0.6339782,-0.95187 1.2679564,-1.90406 1.9019347,-2.85593 -0.1626279,0.0982 -0.3246546,0.19673 -0.4869819,0.29494 0.062827,0.005 0.135874,-0.004 0.1965963,-0.0213 0.3003057,-0.0817 0.465639,-0.42397 0.3934935,-0.73289 -0.1256533,-0.53775 -0.5215516,-0.74466 -0.9216583,-1.06979 -0.6772655,-0.55046 -1.3542304,-1.10124 -2.0314959,-1.6517 -0.57505941,-0.4672 -1.13689217,0.56762 -0.56904727,1.0291" />
    <path
       style="fill:#000000;fill-rule:evenodd;stroke:none;stroke-width:0.23703705"
       inkscape:connector-curvature="0"
       id="path79"
       d="m 34.453602,518.0325 c -0.756568,1.61018 -1.555602,3.19256 -2.39822,4.74838 -0.350347,0.6467 0.555132,1.23591 0.904362,0.59109 0.842896,-1.55551 1.642209,-3.13789 2.398499,-4.74808 0.313187,-0.667 -0.590614,-1.25996 -0.904641,-0.59139" />
    <path
       style="fill:#000000;fill-rule:evenodd;stroke:none;stroke-width:0.23703705"
       inkscape:connector-curvature="0"
       id="path81"
       d="m 17.095571,520.61056 h 3.33424 c 0.731146,0 0.732357,-1.01347 0,-1.01347 h -3.33424 c -0.731145,0 -0.732357,1.01347 0,1.01347" />
    <path
       style="fill:#000000;fill-rule:evenodd;stroke:none;stroke-width:0.23703705"
       inkscape:connector-curvature="0"
       id="path83"
       d="m 18.188247,517.62527 c 0.02035,1.65503 0.159296,3.29392 0.402666,4.92878 0.109737,0.73798 1.176139,0.42454 1.066696,-0.30941 -0.22803,-1.53151 -0.343962,-3.06955 -0.363137,-4.61937 -0.0091,-0.74823 -1.11537,-0.75009 -1.106225,0" />
    <path
       style="fill:#000000;fill-rule:evenodd;stroke:none;stroke-width:0.23703705"
       inkscape:connector-curvature="0"
       id="path85"
       d="m 7.9387066,535.01078 c 0.6220401,0 0.6230712,-1.00821 0,-1.00821 -0.62204,0 -0.6230711,1.00821 0,1.00821" />
    <path
       style="fill:#000000;fill-rule:evenodd;stroke:none;stroke-width:0.23703705"
       inkscape:connector-curvature="0"
       id="path87"
       d="m 7.9387066,535.01078 c 0.6220401,0 0.6230712,-1.00821 0,-1.00821 -0.62204,0 -0.6230711,1.00821 0,1.00821" />
    <path
       style="fill:#000000;fill-rule:evenodd;stroke:none;stroke-width:0.23703705"
       inkscape:connector-curvature="0"
       id="path89"
       d="m 7.9387066,537.27928 c 0.6220401,0 0.6230712,-1.00822 0,-1.00822 -0.62204,0 -0.6230711,1.00822 0,1.00822" />
    <path
       style="fill:#000000;fill-rule:evenodd;stroke:none;stroke-width:0.23703705"
       inkscape:connector-curvature="0"
       id="path91"
       d="m 7.9387066,537.27928 c 0.6220401,0 0.6230712,-1.00822 0,-1.00822 -0.62204,0 -0.6230711,1.00822 0,1.00822" />
    <path
       style="fill:#000000;fill-rule:evenodd;stroke:none;stroke-width:0.23703705"
       inkscape:connector-curvature="0"
       id="path93"
       d="m 46.396309,533.22646 c -0.765949,1.43496 -1.35293,2.95593 -1.758924,4.55755 -0.185876,0.73339 0.854574,1.04685 1.04045,0.31377 0.3824,-1.50774 0.92881,-2.9238 1.650161,-4.27497 0.351036,-0.65778 -0.581225,-1.25319 -0.931687,-0.59635" />
    <path
       style="fill:#000000;fill-rule:evenodd;stroke:none;stroke-width:0.23703705"
       inkscape:connector-curvature="0"
       id="path95"
       d="m 47.925477,533.33222 c -0.537357,1.43679 -1.054377,2.89748 -1.624029,4.31969 -0.276604,0.69063 0.807977,0.99219 1.081291,0.30932 0.569951,-1.42314 1.086075,-2.88196 1.624029,-4.31969 0.261352,-0.69838 -0.82263,-1.00088 -1.081291,-0.30932" />
    <path
       style="fill:#000000;fill-rule:evenodd;stroke:none;stroke-width:0.23703705"
       inkscape:connector-curvature="0"
       id="path97"
       d="m 44.338657,536.48513 c 1.876867,-0.18762 3.764643,-0.1238 5.641507,-0.3111 0.722012,-0.0722 0.729285,-1.27586 0,-1.20273 -1.876864,0.1873 -3.76464,0.12348 -5.641507,0.3111 -0.72201,0.0722 -0.728983,1.27554 0,1.20273" />
    <path
       style="fill:#000000;fill-rule:evenodd;stroke:none;stroke-width:0.23703705"
       inkscape:connector-curvature="0"
       id="path99"
       d="m 44.336287,537.15896 c 1.710591,-0.21214 3.422095,-0.34707 5.145739,-0.35726 0.732506,-0.005 0.734024,-1.16257 0,-1.15795 -1.723644,0.0102 -3.435449,0.14514 -5.145739,0.35727 -0.717933,0.0892 -0.726735,1.24811 0,1.15794" />
    <path
       style="fill:#000000;fill-rule:evenodd;stroke:none;stroke-width:0.23703705"
       inkscape:connector-curvature="0"
       id="path101"
       d="m 94.912702,501.91366 c -0.270165,0.83388 -0.648165,1.60413 -1.123852,2.33125 -0.394814,0.60317 0.546707,1.16985 0.938621,0.5709 0.527288,-0.80583 0.934274,-1.67801 1.233428,-2.60147 0.224075,-0.69123 -0.825571,-0.98799 -1.048197,-0.30068" />
    <path
       style="fill:#000000;fill-rule:evenodd;stroke:none;stroke-width:0.23703705"
       inkscape:connector-curvature="0"
       id="path103"
       d="m 97.593557,502.06625 c 9.22e-4,0.79832 -0.319271,1.49805 -0.928331,2.05004 -0.55294,0.50194 0.288519,1.29577 0.840826,0.79472 0.826557,-0.74947 1.277725,-1.76295 1.276458,-2.84476 -9.22e-4,-0.7231 -1.189902,-0.7243 -1.188953,0" />
    <path
       style="fill:#5a4bd1;fill-rule:evenodd;stroke:none;stroke-width:0.23703705"
       inkscape:connector-curvature="0"
       id="path105"
       d="m 113.05117,517.51562 c -1.06649,0.79093 -2.08049,1.64595 -3.14666,2.43688 -0.33875,0.2511 -0.42812,0.7732 0,1.00718 1.3537,0.74021 2.53406,1.62511 3.49113,2.82582 0.47169,0.5918 1.31044,-0.23927 0.84352,-0.82485 -1.01655,-1.27569 -2.29678,-2.22344 -3.73255,-3.00815 v 1.00718 c 1.06617,-0.79093 2.08049,-1.64564 3.14666,-2.43658 0.6037,-0.44773 0.0102,-1.46144 -0.6021,-1.00748" />
    <path
       style="fill:#000000;fill-rule:evenodd;stroke:none;stroke-width:0.23703705"
       inkscape:connector-curvature="0"
       id="path107"
       d="m 84.490359,532.88665 c -1.066522,0.79093 -2.080558,1.64595 -3.146763,2.43688 -0.338755,0.25109 -0.428135,0.77319 0,1.00717 1.353748,0.74021 2.534143,1.62511 3.491243,2.82581 0.471396,0.5918 1.310171,-0.23927 0.843549,-0.82484 -1.016582,-1.27569 -2.296854,-2.22343 -3.732666,-3.00814 v 1.00717 c 1.066204,-0.79092 2.080558,-1.64564 3.146763,-2.43656 0.603715,-0.44805 0.01018,-1.46145 -0.602126,-1.00749" />
    <path
       style="fill:#000000;fill-rule:evenodd;stroke:none;stroke-width:0.23703705"
       inkscape:connector-curvature="0"
       id="path109"
       d="m 97.156357,518.0325 c -0.75653,1.61018 -1.555526,3.19256 -2.398382,4.74838 -0.35005,0.6467 0.555385,1.23591 0.904597,0.59109 0.842857,-1.55551 1.641852,-3.13789 2.398384,-4.74808 0.313171,-0.667 -0.590587,-1.25996 -0.904599,-0.59139" />
    <path
       style="fill:#000000;fill-rule:evenodd;stroke:none;stroke-width:0.23703705"
       inkscape:connector-curvature="0"
       id="path111"
       d="m 79.962424,520.61056 h 3.33424 c 0.731146,0 0.732358,-1.01347 0,-1.01347 h -3.33424 c -0.731144,0 -0.732358,1.01347 0,1.01347" />
    <path
       style="fill:#000000;fill-rule:evenodd;stroke:none;stroke-width:0.23703705"
       inkscape:connector-curvature="0"
       id="path113"
       d="m 81.055099,517.62527 c 0.02036,1.65503 0.159297,3.29392 0.402667,4.92878 0.110032,0.73798 1.176137,0.42454 1.066695,-0.30941 -0.22803,-1.53151 -0.343962,-3.06955 -0.363137,-4.61937 -0.0091,-0.74823 -1.115371,-0.75009 -1.106225,0" />
    <path
       style="fill:#000000;fill-rule:evenodd;stroke:none;stroke-width:0.23703705"
       inkscape:connector-curvature="0"
       id="path115"
       d="m 63.383958,520.61056 h 3.334241 c 0.731146,0 0.732357,-1.01347 0,-1.01347 h -3.334241 c -0.731144,0 -0.732355,1.01347 0,1.01347" />
    <path
       style="fill:#000000;fill-rule:evenodd;stroke:none;stroke-width:0.23703705"
       inkscape:connector-curvature="0"
       id="path117"
       d="m 63.4096,520.77877 c 1.20396,-0.053 2.407603,-0.10608 3.611243,-0.15881 0.763873,-0.0337 0.768006,-1.22506 0,-1.19107 -1.20364,0.0527 -2.407283,0.10576 -3.611243,0.15881 -0.763874,0.0337 -0.768004,1.22474 0,1.19107" />
    <path
       style="fill:#000000;fill-rule:evenodd;stroke:none;stroke-width:0.23703705"
       inkscape:connector-curvature="0"
       id="path119"
       d="m 68.732084,535.01078 c 0.666472,0 0.667578,-1.00821 0,-1.00821 -0.66647,0 -0.667576,1.00821 0,1.00821" />
    <path
       style="fill:#000000;fill-rule:evenodd;stroke:none;stroke-width:0.23703705"
       inkscape:connector-curvature="0"
       id="path121"
       d="m 68.732084,535.01078 c 0.666472,0 0.667578,-1.00821 0,-1.00821 -0.66647,0 -0.667576,1.00821 0,1.00821" />
    <path
       style="fill:#000000;fill-rule:evenodd;stroke:none;stroke-width:0.23703705"
       inkscape:connector-curvature="0"
       id="path123"
       d="m 68.481951,537.27928 c 0.666472,0 0.667575,-1.00822 0,-1.00822 -0.666472,0 -0.667576,1.00822 0,1.00822" />
    <path
       style="fill:#000000;fill-rule:evenodd;stroke:none;stroke-width:0.23703705"
       inkscape:connector-curvature="0"
       id="path125"
       d="m 68.481951,537.27928 c 0.666472,0 0.667575,-1.00822 0,-1.00822 -0.666472,0 -0.667576,1.00822 0,1.00822" />
    <path
       style="fill:#000000;fill-rule:evenodd;stroke:none;stroke-width:0.23703705"
       inkscape:connector-curvature="0"
       id="path127"
       d="m 102.8616,533.22646 c -0.76594,1.43496 -1.3529,2.95593 -1.75889,4.55755 -0.18616,0.73339 0.85456,1.04685 1.04043,0.31377 0.38239,-1.50774 0.92879,-2.9238 1.65012,-4.27497 0.35103,-0.65778 -0.58121,-1.25319 -0.93166,-0.59635" />
    <path
       style="fill:#000000;fill-rule:evenodd;stroke:none;stroke-width:0.23703705"
       inkscape:connector-curvature="0"
       id="path129"
       d="m 104.71908,533.33222 c -0.53737,1.43679 -1.05441,2.89748 -1.62408,4.31969 -0.27661,0.69063 0.808,0.99219 1.08132,0.30932 0.56997,-1.42314 1.08611,-2.88196 1.62408,-4.31969 0.26106,-0.69838 -0.82266,-1.00088 -1.08132,-0.30932" />
    <path
       style="fill:#000000;fill-rule:evenodd;stroke:none;stroke-width:0.23703705"
       inkscape:connector-curvature="0"
       id="path131"
       d="m 100.96808,536.48513 c 1.8769,-0.18762 3.7647,-0.1238 5.6416,-0.3111 0.72202,-0.0722 0.72899,-1.27586 0,-1.20273 -1.8769,0.1873 -3.7647,0.12348 -5.6416,0.3111 -0.72203,0.0722 -0.729,1.27554 0,1.20273" />
    <path
       style="fill:#000000;fill-rule:evenodd;stroke:none;stroke-width:0.23703705"
       inkscape:connector-curvature="0"
       id="path133"
       d="m 100.96569,537.15896 c 1.71057,-0.21214 3.42205,-0.34707 5.14598,-0.35726 0.73219,-0.005 0.73371,-1.16257 0,-1.15795 -1.72393,0.0102 -3.43541,0.14514 -5.14598,0.35727 -0.71792,0.0892 -0.72673,1.24811 0,1.15794" />
    <path
       style="fill:#000000;fill-rule:evenodd;stroke:none;stroke-width:0.23703705"
       inkscape:connector-curvature="0"
       id="path135"
       d="m 123.78866,521.11729 h 3.33424 c 0.73115,0 0.73236,-1.01347 0,-1.01347 h -3.33424 c -0.73114,0 -0.73235,1.01347 0,1.01347" />
    <path
       style="fill:#000000;fill-rule:evenodd;stroke:none;stroke-width:0.23703705"
       inkscape:connector-curvature="0"
       id="path137"
       d="m 123.8143,521.1166 c 1.20396,-0.053 2.40761,-0.10609 3.61125,-0.15881 0.76387,-0.0337 0.768,-1.22506 0,-1.19108 -1.20364,0.0527 -2.40729,0.10577 -3.61125,0.15881 -0.76387,0.0337 -0.768,1.22474 0,1.19108" />
    <path
       style="fill:#000000;fill-rule:evenodd;stroke:none;stroke-width:0.23703705"
       inkscape:connector-curvature="0"
       id="path139"
       d="m 121.14481,535.01078 c 0.62204,0 0.62308,-1.00821 0,-1.00821 -0.62204,0 -0.62307,1.00821 0,1.00821" />
    <path
       style="fill:#000000;fill-rule:evenodd;stroke:none;stroke-width:0.23703705"
       inkscape:connector-curvature="0"
       id="path141"
       d="m 121.14481,535.01078 c 0.62204,0 0.62308,-1.00821 0,-1.00821 -0.62204,0 -0.62307,1.00821 0,1.00821" />
    <path
       style="fill:#000000;fill-rule:evenodd;stroke:none;stroke-width:0.23703705"
       inkscape:connector-curvature="0"
       id="path143"
       d="m 121.14481,537.27928 c 0.62204,0 0.62308,-1.00822 0,-1.00822 -0.62204,0 -0.62307,1.00822 0,1.00822" />
    <path
       style="fill:#000000;fill-rule:evenodd;stroke:none;stroke-width:0.23703705"
       inkscape:connector-curvature="0"
       id="path145"
       d="m 121.14481,537.27928 c 0.62204,0 0.62308,-1.00822 0,-1.00822 -0.62204,0 -0.62307,1.00822 0,1.00822" />
    <path
       style="fill:#000000;fill-rule:evenodd;stroke:none;stroke-width:0.23703705"
       inkscape:connector-curvature="0"
       id="path147"
       d="m 32.287091,457.84615 c -0.251135,0.87359 -0.601867,1.68052 -1.043576,2.44226 -0.366613,0.6319 0.507657,1.22556 0.871307,0.59809 0.489891,-0.84421 0.867539,-1.75792 1.145594,-2.72535 0.208069,-0.72415 -0.766601,-1.03504 -0.973325,-0.315" />
    <path
       style="fill:#000000;fill-rule:evenodd;stroke:none;stroke-width:0.23703705"
       inkscape:connector-curvature="0"
       id="path149"
       d="m 34.975705,458.00601 c 9.21e-4,0.83633 -0.296487,1.56938 -0.861782,2.14765 -0.513772,0.52585 0.267632,1.35748 0.780519,0.83257 0.767567,-0.78516 1.186534,-1.8469 1.185359,-2.98022 -6.91e-4,-0.75754 -1.104686,-0.75879 -1.104096,0" />
    <path
       style="fill:#000000;fill-rule:evenodd;stroke:none;stroke-width:0.23703705"
       inkscape:connector-curvature="0"
       id="path151"
       d="m 7.0828351,459.80216 h 3.3342399 c 0.731145,0 0.732357,-1.18239 0,-1.18239 H 7.0828351 c -0.7311451,0 -0.7323571,1.18239 0,1.18239" />
    <path
       style="fill:#000000;fill-rule:evenodd;stroke:none;stroke-width:0.23703705"
       inkscape:connector-curvature="0"
       id="path153"
       d="m 7.0886683,459.80155 c 1.1624435,-0.0464 2.3245802,-0.0928 3.4867167,-0.13896 0.737534,-0.0295 0.741522,-1.07193 0,-1.04219 -1.1621365,0.0461 -2.3242732,0.0925 -3.4867167,0.13896 -0.7375333,0.0295 -0.7415217,1.07164 0,1.04219" />
    <path
       style="fill:#000000;fill-rule:evenodd;stroke:none;stroke-width:0.23703705"
       inkscape:connector-curvature="0"
       id="path155"
       d="m 63.245838,457.20343 c 0.454204,0.34443 0.908405,0.68916 1.362921,1.03389 0.23965,0.18165 1.106649,0.63562 1.178167,0.92249 0.137077,-0.23798 0.27384,-0.47595 0.410916,-0.71392 0.250627,-0.0638 -0.221142,0.0836 -0.30803,0.14947 -0.217064,0.1637 -0.378921,0.51926 -0.533249,0.73526 -0.514429,0.72104 -1.028858,1.44176 -1.543285,2.16278 -0.436638,0.61211 0.582809,1.19234 1.015681,0.5858 0.661543,-0.92712 1.323085,-1.85394 1.984628,-2.78076 -0.169698,0.0956 -0.33877,0.19155 -0.508154,0.28718 0.06556,0.005 0.14178,-0.005 0.205143,-0.0208 0.313363,-0.0795 0.485885,-0.41281 0.410603,-0.7136 -0.131117,-0.5236 -0.543915,-0.72505 -0.961731,-1.04193 -0.706711,-0.53567 -1.41311,-1.07196 -2.119821,-1.60793 -0.600064,-0.4549 -1.186324,0.55237 -0.593789,1.00201" />
    <path
       style="fill:#000000;fill-rule:evenodd;stroke:none;stroke-width:0.23703705"
       inkscape:connector-curvature="0"
       id="path157"
       d="m 94.497372,457.84615 c -0.251137,0.87359 -0.601867,1.68052 -1.043578,2.44226 -0.366611,0.6319 0.507656,1.22556 0.871307,0.59809 0.489893,-0.84421 0.867541,-1.75792 1.145594,-2.72535 0.208069,-0.72415 -0.766599,-1.03504 -0.973323,-0.315" />
    <path
       style="fill:#000000;fill-rule:evenodd;stroke:none;stroke-width:0.23703705"
       inkscape:connector-curvature="0"
       id="path159"
       d="m 97.350125,458.00601 c 9.22e-4,0.83633 -0.296486,1.56938 -0.861781,2.14765 -0.513773,0.52585 0.267631,1.35748 0.780814,0.83257 0.767273,-0.78516 1.186241,-1.8469 1.185066,-2.98022 -6.91e-4,-0.75754 -1.104686,-0.75879 -1.104099,0" />
    <path
       style="fill:#000000;fill-rule:evenodd;stroke:none;stroke-width:0.23703705"
       inkscape:connector-curvature="0"
       id="path161"
       d="m 123.81468,457.20343 c 0.45421,0.34443 0.90841,0.68916 1.36293,1.03389 0.23965,0.18165 1.10664,0.63562 1.17816,0.92249 0.13708,-0.23798 0.27384,-0.47595 0.41092,-0.71392 0.25094,-0.0638 -0.22114,0.0836 -0.30803,0.14947 -0.21706,0.1637 -0.37892,0.51926 -0.53325,0.73526 -0.51443,0.72104 -1.02886,1.44176 -1.54329,2.16278 -0.43663,0.61211 0.58281,1.19234 1.01569,0.5858 0.66154,-0.92712 1.32308,-1.85394 1.98463,-2.78076 -0.1697,0.0956 -0.33877,0.19155 -0.50816,0.28718 0.0656,0.005 0.14178,-0.005 0.20514,-0.0208 0.31337,-0.0795 0.48589,-0.41281 0.41061,-0.7136 -0.13112,-0.5236 -0.54392,-0.72505 -0.96174,-1.04193 -0.70671,-0.53567 -1.41311,-1.07196 -2.11982,-1.60793 -0.60006,-0.4549 -1.18632,0.55237 -0.59379,1.00201" />
    <path
       style="fill:#000000;fill-rule:evenodd;stroke:none;stroke-width:0.23703705"
       inkscape:connector-curvature="0"
       id="path163"
       d="m 48.54288,472.58496 c -1.066485,0.79094 -2.08049,1.64596 -3.146657,2.43689 -0.338744,0.2511 -0.428122,0.7732 0,1.00718 1.35402,0.74021 2.534375,1.62511 3.491444,2.82582 0.471379,0.59179 1.310126,-0.23927 0.843203,-0.82485 -1.01655,-1.27569 -2.296779,-2.22344 -3.732542,-3.00815 v 1.00718 c 1.066485,-0.79093 2.080489,-1.64565 3.146657,-2.43658 0.604014,-0.44773 0.01018,-1.46145 -0.602105,-1.00749" />
    <path
       style="fill:#000000;fill-rule:evenodd;stroke:none;stroke-width:0.23703705"
       inkscape:connector-curvature="0"
       id="path165"
       d="m 25.726975,488.80056 c -1.066486,0.79093 -2.080492,1.64595 -3.14666,2.43688 -0.338744,0.25109 -0.428121,0.77319 0,1.00717 1.353702,0.74021 2.53406,1.62511 3.49113,2.82581 0.471695,0.5918 1.310445,-0.23927 0.843519,-0.82484 -1.01655,-1.27569 -2.296778,-2.22344 -3.732544,-3.00814 v 1.00717 c 1.066169,-0.79093 2.080492,-1.64564 3.146659,-2.43656 0.604014,-0.44805 0.01018,-1.46145 -0.602104,-1.00749" />
    <path
       style="fill:#000000;fill-rule:evenodd;stroke:none;stroke-width:0.23703705"
       inkscape:connector-curvature="0"
       id="path167"
       d="m 0.69699883,473.78701 c 0.43527757,0.35405 0.87055517,0.70778 1.30613337,1.06183 0.2296631,0.18656 1.0605382,0.65312 1.1290765,0.94742 0.1313649,-0.2444 0.262429,-0.4888 0.3937939,-0.7332 0.2401844,-0.0655 -0.2119274,0.0858 -0.2951951,0.1535 -0.2080195,0.16813 -0.3631322,0.5333 -0.5110303,0.75514 -0.492994,0.74052 -0.985988,1.48104 -1.478982,2.22124 -0.41844363,0.62865 0.5585261,1.22456 0.9733625,0.60164 0.6339782,-0.95187 1.2679564,-1.90406 1.9019347,-2.85593 -0.1626279,0.0982 -0.3246546,0.19673 -0.4869819,0.29493 0.062827,0.005 0.135874,-0.005 0.1965963,-0.0213 0.3003057,-0.0817 0.465639,-0.42397 0.3934935,-0.73289 -0.1256533,-0.53775 -0.5215516,-0.74465 -0.9216583,-1.06978 -0.6772655,-0.55046 -1.3542304,-1.10124 -2.0314959,-1.65171 -0.57505941,-0.46719 -1.13689217,0.56763 -0.56904727,1.0291" />
    <path
       style="fill:#000000;fill-rule:evenodd;stroke:none;stroke-width:0.23703705"
       inkscape:connector-curvature="0"
       id="path169"
       d="m 34.453602,473.77749 c -0.756568,1.61019 -1.555602,3.19257 -2.39822,4.74839 -0.350347,0.6467 0.555132,1.23591 0.904362,0.59109 0.842896,-1.55551 1.642209,-3.13789 2.398499,-4.74808 0.313187,-0.667 -0.590614,-1.25996 -0.904641,-0.5914" />
    <path
       style="fill:#000000;fill-rule:evenodd;stroke:none;stroke-width:0.23703705"
       inkscape:connector-curvature="0"
       id="path171"
       d="m 17.095571,476.52447 h 3.33424 c 0.731146,0 0.732357,-1.01347 0,-1.01347 h -3.33424 c -0.731145,0 -0.732357,1.01347 0,1.01347" />
    <path
       style="fill:#000000;fill-rule:evenodd;stroke:none;stroke-width:0.23703705"
       inkscape:connector-curvature="0"
       id="path173"
       d="m 18.188247,473.53918 c 0.02035,1.65503 0.159296,3.29392 0.402666,4.92878 0.109737,0.73798 1.176139,0.42454 1.066696,-0.30941 -0.22803,-1.53151 -0.343962,-3.06955 -0.363137,-4.61937 -0.0091,-0.74823 -1.11537,-0.75009 -1.106225,0" />
    <path
       style="fill:#000000;fill-rule:evenodd;stroke:none;stroke-width:0.23703705"
       inkscape:connector-curvature="0"
       id="path175"
       d="m 7.9387066,490.75578 c 0.6220401,0 0.6230712,-1.00822 0,-1.00822 -0.62204,0 -0.6230711,1.00822 0,1.00822" />
    <path
       style="fill:#000000;fill-rule:evenodd;stroke:none;stroke-width:0.23703705"
       inkscape:connector-curvature="0"
       id="path177"
       d="m 7.9387066,490.75578 c 0.6220401,0 0.6230712,-1.00822 0,-1.00822 -0.62204,0 -0.6230711,1.00822 0,1.00822" />
    <path
       style="fill:#000000;fill-rule:evenodd;stroke:none;stroke-width:0.23703705"
       inkscape:connector-curvature="0"
       id="path179"
       d="m 7.9387066,493.02428 c 0.6220401,0 0.6230712,-1.00822 0,-1.00822 -0.62204,0 -0.6230711,1.00822 0,1.00822" />
    <path
       style="fill:#000000;fill-rule:evenodd;stroke:none;stroke-width:0.23703705"
       inkscape:connector-curvature="0"
       id="path181"
       d="m 7.9387066,493.02428 c 0.6220401,0 0.6230712,-1.00822 0,-1.00822 -0.62204,0 -0.6230711,1.00822 0,1.00822" />
    <path
       style="fill:#000000;fill-rule:evenodd;stroke:none;stroke-width:0.23703705"
       inkscape:connector-curvature="0"
       id="path183"
       d="m 46.396309,489.14037 c -0.765949,1.43496 -1.35293,2.95593 -1.758924,4.55755 -0.185876,0.73339 0.854574,1.04685 1.04045,0.31377 0.3824,-1.50774 0.92881,-2.9238 1.650161,-4.27497 0.351036,-0.65778 -0.581225,-1.25319 -0.931687,-0.59635" />
    <path
       style="fill:#000000;fill-rule:evenodd;stroke:none;stroke-width:0.23703705"
       inkscape:connector-curvature="0"
       id="path185"
       d="m 47.925477,489.07722 c -0.537357,1.43679 -1.054377,2.89747 -1.624029,4.31968 -0.276604,0.69063 0.807977,0.9922 1.081291,0.30933 0.569951,-1.42314 1.086075,-2.88196 1.624029,-4.31969 0.261352,-0.69838 -0.82263,-1.00088 -1.081291,-0.30932" />
    <path
       style="fill:#000000;fill-rule:evenodd;stroke:none;stroke-width:0.23703705"
       inkscape:connector-curvature="0"
       id="path187"
       d="m 44.338657,492.23013 c 1.876867,-0.18762 3.764643,-0.1238 5.641507,-0.31111 0.722012,-0.0722 0.729285,-1.27585 0,-1.20272 -1.876864,0.1873 -3.76464,0.12348 -5.641507,0.3111 -0.72201,0.0722 -0.728983,1.27554 0,1.20273" />
    <path
       style="fill:#000000;fill-rule:evenodd;stroke:none;stroke-width:0.23703705"
       inkscape:connector-curvature="0"
       id="path189"
       d="m 44.336287,493.07287 c 1.710591,-0.21214 3.422095,-0.34707 5.145739,-0.35726 0.732506,-0.005 0.734024,-1.16257 0,-1.15795 -1.723644,0.0102 -3.435449,0.14514 -5.145739,0.35727 -0.717933,0.0892 -0.726735,1.2481 0,1.15794" />
    <path
       style="fill:#000000;fill-rule:evenodd;stroke:none;stroke-width:0.23703705"
       inkscape:connector-curvature="0"
       id="path191"
       d="m 94.912702,457.82757 c -0.270165,0.83388 -0.648165,1.60413 -1.123852,2.33125 -0.394814,0.60317 0.546707,1.16985 0.938621,0.5709 0.527288,-0.80583 0.934274,-1.67802 1.233428,-2.60147 0.224075,-0.69123 -0.825571,-0.98799 -1.048197,-0.30068" />
    <path
       style="fill:#000000;fill-rule:evenodd;stroke:none;stroke-width:0.23703705"
       inkscape:connector-curvature="0"
       id="path193"
       d="m 97.593557,457.98016 c 9.22e-4,0.79832 -0.319271,1.49805 -0.928331,2.05004 -0.55294,0.50194 0.288519,1.29577 0.840826,0.79472 0.826557,-0.74947 1.277725,-1.76295 1.276458,-2.84476 -9.22e-4,-0.7231 -1.189902,-0.7243 -1.188953,0" />
    <path
       style="fill:#000000;fill-rule:evenodd;stroke:none;stroke-width:0.23703705"
       inkscape:connector-curvature="0"
       id="path195"
       d="m 113.05117,473.42953 c -1.06649,0.79093 -2.08049,1.64595 -3.14666,2.43688 -0.33875,0.2511 -0.42812,0.7732 0,1.00718 1.3537,0.74021 2.53406,1.62511 3.49113,2.82582 0.47169,0.5918 1.31044,-0.23927 0.84352,-0.82485 -1.01655,-1.27569 -2.29678,-2.22344 -3.73255,-3.00815 v 1.00718 c 1.06617,-0.79093 2.08049,-1.64565 3.14666,-2.43658 0.6037,-0.44773 0.0102,-1.46144 -0.6021,-1.00748" />
    <path
       style="fill:#000000;fill-rule:evenodd;stroke:none;stroke-width:0.23703705"
       inkscape:connector-curvature="0"
       id="path197"
       d="m 84.490359,488.80056 c -1.066522,0.79093 -2.080558,1.64595 -3.146763,2.43688 -0.338755,0.25109 -0.428135,0.77319 0,1.00717 1.353748,0.74021 2.534143,1.62511 3.491243,2.82581 0.471396,0.5918 1.310171,-0.23927 0.843549,-0.82484 -1.016582,-1.27569 -2.296854,-2.22344 -3.732666,-3.00814 v 1.00717 c 1.066204,-0.79093 2.080558,-1.64564 3.146763,-2.43656 0.603715,-0.44805 0.01018,-1.46145 -0.602126,-1.00749" />
    <path
       style="fill:#000000;fill-rule:evenodd;stroke:none;stroke-width:0.23703705"
       inkscape:connector-curvature="0"
       id="path199"
       d="m 97.156357,473.77749 c -0.75653,1.61019 -1.555526,3.19257 -2.398382,4.74839 -0.35005,0.6467 0.555385,1.23591 0.904597,0.59109 0.842857,-1.55551 1.641852,-3.13789 2.398384,-4.74808 0.313171,-0.667 -0.590587,-1.25996 -0.904599,-0.5914" />
    <path
       style="fill:#000000;fill-rule:evenodd;stroke:none;stroke-width:0.23703705"
       inkscape:connector-curvature="0"
       id="path201"
       d="m 79.962424,476.52447 h 3.33424 c 0.731146,0 0.732358,-1.01347 0,-1.01347 h -3.33424 c -0.731144,0 -0.732358,1.01347 0,1.01347" />
    <path
       style="fill:#000000;fill-rule:evenodd;stroke:none;stroke-width:0.23703705"
       inkscape:connector-curvature="0"
       id="path203"
       d="m 81.055099,473.53918 c 0.02036,1.65503 0.159297,3.29392 0.402667,4.92878 0.110032,0.73798 1.176137,0.42454 1.066695,-0.30941 -0.22803,-1.53151 -0.343962,-3.06955 -0.363137,-4.61937 -0.0091,-0.74823 -1.115371,-0.75009 -1.106225,0" />
    <path
       style="fill:#000000;fill-rule:evenodd;stroke:none;stroke-width:0.23703705"
       inkscape:connector-curvature="0"
       id="path205"
       d="m 63.383958,476.52447 h 3.334241 c 0.731146,0 0.732357,-1.01347 0,-1.01347 h -3.334241 c -0.731144,0 -0.732355,1.01347 0,1.01347" />
    <path
       style="fill:#000000;fill-rule:evenodd;stroke:none;stroke-width:0.23703705"
       inkscape:connector-curvature="0"
       id="path207"
       d="m 63.4096,476.52377 c 1.20396,-0.053 2.407603,-0.10609 3.611243,-0.15881 0.763873,-0.0337 0.768006,-1.22506 0,-1.19108 -1.20364,0.0527 -2.407283,0.10577 -3.611243,0.15881 -0.763874,0.0337 -0.768004,1.22475 0,1.19108" />
    <path
       style="fill:#000000;fill-rule:evenodd;stroke:none;stroke-width:0.23703705"
       inkscape:connector-curvature="0"
       id="path209"
       d="m 68.744302,490.7131 c 0.656028,0 0.657115,-1.01348 0,-1.01348 -0.65603,0 -0.657117,1.01348 0,1.01348" />
    <path
       style="fill:#000000;fill-rule:evenodd;stroke:none;stroke-width:0.23703705"
       inkscape:connector-curvature="0"
       id="path211"
       d="m 68.744302,490.7131 c 0.656028,0 0.657115,-1.01348 0,-1.01348 -0.65603,0 -0.657117,1.01348 0,1.01348" />
    <path
       style="fill:#000000;fill-rule:evenodd;stroke:none;stroke-width:0.23703705"
       inkscape:connector-curvature="0"
       id="path213"
       d="m 68.416014,493.07786 c 0.65603,0 0.657118,-1.01347 0,-1.01347 -0.656027,0 -0.657114,1.01347 0,1.01347" />
    <path
       style="fill:#000000;fill-rule:evenodd;stroke:none;stroke-width:0.23703705"
       inkscape:connector-curvature="0"
       id="path215"
       d="m 68.416014,493.07786 c 0.65603,0 0.657118,-1.01347 0,-1.01347 -0.656027,0 -0.657114,1.01347 0,1.01347" />
    <path
       style="fill:#000000;fill-rule:evenodd;stroke:none;stroke-width:0.23703705"
       inkscape:connector-curvature="0"
       id="path217"
       d="m 102.8616,489.14037 c -0.76594,1.43496 -1.3529,2.95593 -1.75889,4.55755 -0.18616,0.73339 0.85456,1.04685 1.04043,0.31377 0.38239,-1.50774 0.92879,-2.9238 1.65012,-4.27497 0.35103,-0.65778 -0.58121,-1.25319 -0.93166,-0.59635" />
    <path
       style="fill:#000000;fill-rule:evenodd;stroke:none;stroke-width:0.23703705"
       inkscape:connector-curvature="0"
       id="path219"
       d="m 104.71908,489.07722 c -0.53737,1.43679 -1.05441,2.89747 -1.62408,4.31968 -0.27661,0.69063 0.808,0.9922 1.08132,0.30933 0.56997,-1.42314 1.08611,-2.88196 1.62408,-4.31969 0.26106,-0.69838 -0.82266,-1.00088 -1.08132,-0.30932" />
    <path
       style="fill:#000000;fill-rule:evenodd;stroke:none;stroke-width:0.23703705"
       inkscape:connector-curvature="0"
       id="path221"
       d="m 100.96808,492.23013 c 1.8769,-0.18762 3.7647,-0.1238 5.6416,-0.31111 0.72202,-0.0722 0.72899,-1.27585 0,-1.20272 -1.8769,0.1873 -3.7647,0.12348 -5.6416,0.3111 -0.72203,0.0722 -0.729,1.27554 0,1.20273" />
    <path
       style="fill:#000000;fill-rule:evenodd;stroke:none;stroke-width:0.23703705"
       inkscape:connector-curvature="0"
       id="path223"
       d="m 100.96569,493.07287 c 1.71057,-0.21214 3.42205,-0.34707 5.14598,-0.35726 0.73219,-0.005 0.73371,-1.16257 0,-1.15795 -1.72393,0.0102 -3.43541,0.14514 -5.14598,0.35727 -0.71792,0.0892 -0.72673,1.2481 0,1.15794" />
    <path
       style="fill:#000000;fill-rule:evenodd;stroke:none;stroke-width:0.23703705"
       inkscape:connector-curvature="0"
       id="path225"
       d="m 123.78866,477.0312 h 3.33424 c 0.73115,0 0.73236,-1.01347 0,-1.01347 h -3.33424 c -0.73114,0 -0.73235,1.01347 0,1.01347" />
    <path
       style="fill:#000000;fill-rule:evenodd;stroke:none;stroke-width:0.23703705"
       inkscape:connector-curvature="0"
       id="path227"
       d="m 123.8143,477.0305 c 1.20396,-0.053 2.40761,-0.10608 3.61125,-0.15881 0.76387,-0.0337 0.768,-1.22506 0,-1.19107 -1.20364,0.0527 -2.40729,0.10577 -3.61125,0.15881 -0.76387,0.0337 -0.768,1.22474 0,1.19107" />
    <path
       style="fill:#000000;fill-rule:evenodd;stroke:none;stroke-width:0.23703705"
       inkscape:connector-curvature="0"
       id="path229"
       d="m 121.10599,490.7131 c 0.65603,0 0.65712,-1.01348 0,-1.01348 -0.65603,0 -0.65712,1.01348 0,1.01348" />
    <path
       style="fill:#000000;fill-rule:evenodd;stroke:none;stroke-width:0.23703705"
       inkscape:connector-curvature="0"
       id="path231"
       d="m 121.10599,490.7131 c 0.65603,0 0.65712,-1.01348 0,-1.01348 -0.65603,0 -0.65712,1.01348 0,1.01348" />
    <path
       style="fill:#000000;fill-rule:evenodd;stroke:none;stroke-width:0.23703705"
       inkscape:connector-curvature="0"
       id="path233"
       d="m 121.10599,493.07786 c 0.65603,0 0.65712,-1.01347 0,-1.01347 -0.65603,0 -0.65712,1.01347 0,1.01347" />
    <path
       style="fill:#000000;fill-rule:evenodd;stroke:none;stroke-width:0.23703705"
       inkscape:connector-curvature="0"
       id="path235"
       d="m 121.10599,493.07786 c 0.65603,0 0.65712,-1.01347 0,-1.01347 -0.65603,0 -0.65712,1.01347 0,1.01347" />
    <use
       transform="matrix(0.23747681,0,0,0.23747681,0,412)"
       height="100%"
       width="100%"
       y="0"
       x="0"
       style="fill:#38d68d;fill-rule:evenodd;stroke:none;stroke-width:0.99814814"
       xlink:href="#path-1"
       id="Oval-Copy" />
  </g>
  <rect
     style="fill:#38d68d;fill-rule:evenodd;stroke:none;stroke-width:1"
     height="269"
     width="539"
     y="270.5"
     x="0.5"
     id="Rectangle" />
  <text
     style="font-style:normal;font-variant:normal;font-weight:normal;font-stretch:normal;font-size:60px;font-family:'Abril Fatface';-inkscape-font-specification:'Abril Fatface, Normal';font-variant-ligatures:normal;font-variant-caps:normal;font-variant-numeric:normal;font-feature-settings:normal;text-align:center;writing-mode:lr-tb;text-anchor:middle;fill:#ffffff;fill-rule:evenodd;stroke:none;stroke-width:1"
     line-spacing="70"
     font-weight="700"
     font-size="60"
     id="Veri-Analitii-Atly"
     x="270.75845"
     y="247.56">
    <tspan
       sodipodi:role="line"
       id="tspan1944"
       x="270.75845"
       y="247.56">Veri Analitii</tspan>
    <tspan
       sodipodi:role="line"
       id="tspan1946"
       x="270.75845"
       y="322.55997">ve Grselletirme</tspan>
  </text>
</svg>
