<?xml version="1.0" encoding="UTF-8" standalone="no"?>
<svg
   xmlns:dc="http://purl.org/dc/elements/1.1/"
   xmlns:cc="http://creativecommons.org/ns#"
   xmlns:rdf="http://www.w3.org/1999/02/22-rdf-syntax-ns#"
   xmlns:svg="http://www.w3.org/2000/svg"
   xmlns="http://www.w3.org/2000/svg"
   xmlns:sodipodi="http://sodipodi.sourceforge.net/DTD/sodipodi-0.dtd"
   xmlns:inkscape="http://www.inkscape.org/namespaces/inkscape"
   width="2880"
   height="1140"
   viewBox="0 0 2880 1140"
   version="1.1"
   id="svg512"
   sodipodi:docname="afis.svg"
   inkscape:version="0.92.3 (2405546, 2018-03-11)"
   inkscape:export-filename="/home/uyar/Projects/KENDIN-ICIN-KODLA/website/content/atolyeler/va-1903/afis.png"
   inkscape:export-xdpi="96"
   inkscape:export-ydpi="96">
  <metadata
     id="metadata518">
    <rdf:RDF>
      <cc:Work
         rdf:about="">
        <dc:format>image/svg+xml</dc:format>
        <dc:type
           rdf:resource="http://purl.org/dc/dcmitype/StillImage" />
        <dc:title>banner 3</dc:title>
      </cc:Work>
    </rdf:RDF>
  </metadata>
  <defs
     id="defs516" />
  <sodipodi:namedview
     pagecolor="#ffffff"
     bordercolor="#666666"
     borderopacity="1"
     objecttolerance="10"
     gridtolerance="10"
     guidetolerance="10"
     inkscape:pageopacity="0"
     inkscape:pageshadow="2"
     inkscape:window-width="1360"
     inkscape:window-height="711"
     id="namedview514"
     showgrid="false"
     inkscape:zoom="0.30520833"
     inkscape:cx="1440"
     inkscape:cy="570"
     inkscape:window-x="0"
     inkscape:window-y="0"
     inkscape:window-maximized="1"
     inkscape:current-layer="svg512" />
  <!-- Generator: Sketch 56.3 (81716) - https://sketch.com -->
  <title
     id="title2">banner 3</title>
  <desc
     id="desc4">Created with Sketch.</desc>
  <g
     id="g3023"
     transform="matrix(1.9407008,0,0,1.9554031,6.4000001e-6,-1096.9811)"
     style="stroke-width:0.51333702">
    <rect
       id="Rectangle"
       x="0"
       y="590"
       width="1440"
       height="554"
       style="fill:#f8f7f5;fill-rule:evenodd;stroke:none;stroke-width:0.51333702" />
    <polygon
       transform="translate(0,590)"
       id="Rectangle-Copy"
       points="1484,525 1283.7187,525 642,-29 1484,-29 "
       style="fill:#1c183e;fill-rule:evenodd;stroke:none;stroke-width:0.51333702" />
  </g>
  <polygon
     id="polygon93"
     points="417.00056,173.24706 371.78109,186.39613 294.95936,144.25496 280.95674,148.36003 210.75094,386.00548 169.51386,398 169,396.39645 209.40206,384.6585 279.60787,147.01305 295.15206,142.45899 371.97378,184.60016 415.45899,171.96422 424.51573,96.469299 464.98202,84.667204 479.75543,96.918292 499.86011,91.081386 553.94363,139.18775 611.75262,122.38259 644.51105,3.5278002 656.65094,0 805.02734,240.40355 854.55038,226.03578 855,227.63932 804.32079,242.39194 655.88015,1.9883964 645.85992,4.8747784 613.1015,123.72957 553.49401,141.04787 499.47472,92.941499 479.37004,98.778404 464.59663,86.527317 426.0573,97.752135 "
     style="opacity:0.11000001;fill:#f5fdff;fill-rule:evenodd;stroke:none;stroke-width:1"
     transform="translate(1694.0845,1184.9374)" />
  <path
     style="fill:#ffffff;fill-rule:nonzero;stroke:none;stroke-width:1"
     d="m 2062.9165,1199.5077 h -3.648 c -1.024,0 -1.792,-0.8328 -1.792,-1.7938 v -6.3421 c 0,-1.025 0.832,-1.7938 1.792,-1.7938 h 3.648 c 1.024,0 1.792,0.8328 1.792,1.7938 v 6.3421 c 0,0.961 -0.768,1.7938 -1.792,1.7938 z m -3.648,-8.2 v 6.3422 h 3.648 v -6.3422 z"
     id="path133"
     inkscape:connector-curvature="0" />
  <path
     style="fill:#ffffff;fill-rule:evenodd;stroke:none;stroke-width:1"
     d="m 2101.9565,1199.5077 c -0.512,0 -0.896,-0.3844 -0.896,-0.8969 v -6.7906 c 0,-0.2563 -0.192,-0.4484 -0.448,-0.4484 h -2.752 c -0.256,0 -0.448,0.1921 -0.448,0.4484 v 2.7547 c 0,0.5125 -0.384,0.8969 -0.896,0.8969 -0.512,0 -0.896,-0.3844 -0.896,-0.8969 v -2.7547 c 0,-1.2813 1.024,-2.2422 2.24,-2.2422 h 2.752 c 1.28,0 2.24,1.025 2.24,2.2422 v 6.7906 c 0,0.5125 -0.384,0.8969 -0.896,0.8969 z"
     id="path137"
     inkscape:connector-curvature="0" />
  <path
     style="fill:#ffffff;fill-rule:evenodd;stroke:none;stroke-width:1"
     d="m 2077.4445,1199.5077 c -0.512,0 -0.896,-0.3844 -0.896,-0.8969 v -6.7906 c 0,-1.2813 1.024,-2.2422 2.24,-2.2422 h 2.752 c 1.28,0 2.24,1.025 2.24,2.2422 v 2.7547 c 0,0.5125 -0.384,0.8969 -0.896,0.8969 -0.512,0 -0.896,-0.3844 -0.896,-0.8969 v -2.7547 c 0,-0.2563 -0.192,-0.4484 -0.448,-0.4484 h -2.752 c -0.256,0 -0.448,0.1921 -0.448,0.4484 v 6.7906 c 0,0.5125 -0.384,0.8969 -0.896,0.8969 z"
     id="path141"
     inkscape:connector-curvature="0" />
  <path
     style="fill:#ffffff;fill-rule:evenodd;stroke:none;stroke-width:1"
     d="m 2070.6605,1199.5077 c -0.512,0 -0.896,-0.3844 -0.896,-0.8969 v -8.2 c 0,-0.5125 0.384,-0.8968 0.896,-0.8968 0.512,0 0.896,0.3843 0.896,0.8968 v 8.2 c 0,0.5125 -0.448,0.8969 -0.896,0.8969 z"
     id="path145"
     inkscape:connector-curvature="0" />
  <path
     style="fill:#ffffff;fill-rule:evenodd;stroke:none;stroke-width:1"
     d="m 2089.7325,1194.0624 c -0.512,0 -0.896,-0.3844 -0.896,-0.8969 v -2.7547 c 0,-0.5125 0.384,-0.8968 0.896,-0.8968 0.512,0 0.896,0.3843 0.896,0.8968 v 2.7547 c 0,0.4485 -0.448,0.8969 -0.896,0.8969 z"
     id="path149"
     inkscape:connector-curvature="0" />
  <path
     style="fill:#ffffff;fill-rule:nonzero;stroke:none;stroke-width:1"
     d="m 2052.0365,1199.5077 h -3.648 c -1.024,0 -1.792,-0.8328 -1.792,-1.7938 v -6.3421 c 0,-1.025 0.832,-1.7938 1.792,-1.7938 h 3.648 c 1.024,0 1.792,0.8328 1.792,1.7938 v 6.3421 c 0,0.961 -0.832,1.7938 -1.792,1.7938 z m -3.648,-8.2 v 6.3422 h 3.648 v -6.3422 z"
     id="path157"
     inkscape:connector-curvature="0" />
  <g
     id="g4053"
     transform="matrix(1.8155988,0,0,1.8155988,-1731.8675,-1997.2069)"
     style="stroke-width:0.5507825">
    <path
       style="fill:#fc7b69;fill-rule:evenodd;stroke:none;stroke-width:0.5507825"
       inkscape:connector-curvature="0"
       id="Path"
       d="m 2102.2717,1320.9137 c 6.0305,-2.7234 11.9329,-6.8148 17.7089,-12.7689 15.4352,-16.1351 26.0981,-42.9487 49.9907,-46.7459 23.0359,-3.6516 46.553,-0.6211 63.8557,10.9087 22.2253,14.7858 39.2905,35.39 66.6386,43.6996 34.616,10.5338 68.4272,11.7071 94.9906,35.3765 14.2884,12.6443 24.7848,26.8749 32.0714,44.2608 7.0872,17.0645 6.0773,35.1806 10.245,53.0809 11.1239,47.4958 57.6726,80.8803 91.2607,113.9808 11.7776,11.6502 22.6728,23.1723 23.8185,40.814 1.1852,17.8049 -11.4215,35.7449 -17.8458,53.0977 -6.6,17.7996 -10.924,35.1198 -11.4385,53.1054 -0.5561,21.668 1.9277,42.4952 -8.3006,64.4014 -19.1873,40.8479 -68.6428,54.6098 -100.1368,85.6424 -31.7487,31.1531 -51.676,99.445 -99.3372,112.7476 -21.7215,6.069 -38.5057,5.2301 -58.2261,19.2364 -25.2476,17.9723 -44.8405,43.4 -72.0579,58.9273 -78.4348,44.7996 -146.8867,-10.251 -205.9623,-38.7737 -23.5501,-11.3794 -49.3981,-20.191 -68.1215,-37.5947 -18.4037,-17.0875 -25.6385,-40.6283 -38.8249,-61.1195 -29.7361,-46.1709 -77.1159,-79.1363 -117.6025,-116.4541 -36.089,-33.216 -54.1838,-93.4412 -26.3659,-144.8668 28.9097,-53.4488 93.0601,-52.5507 139.3999,-83.0483 23.8875,-15.7181 39.706,-37.3078 33.5726,-61.9933 -5.8175,-23.3802 -26.4105,-38.2888 -34.3994,-60.5897 -8.3462,-23.2748 3.2995,-45.0203 25.148,-62.6312 27.1764,-21.8981 60.378,-25.424 91.6595,-37.0553 24.8108,-9.2192 41.5192,-25.9567 68.4867,-22.7403 17.5283,2.0714 34.2276,4.0675 49.7726,-2.8978 z" />
    <path
       style="opacity:0.82999998;fill:#35d189;fill-opacity:1;fill-rule:nonzero;stroke:none;stroke-width:0.5507825"
       inkscape:connector-curvature="0"
       id="Shape"
       d="m 2327.8974,1996.6412 c -22.9168,6.4021 -40.6247,5.5171 -61.4303,20.292 -26.6371,18.9584 -47.3082,45.7814 -76.0235,62.1607 -82.8074,47.2023 -154.9701,-10.8134 -217.2967,-40.9012 -24.8461,-12.0038 -52.1164,-21.2989 -71.8703,-39.6576 -19.4164,-18.0251 -26.9932,-42.802 -40.9615,-64.4732 -31.4286,-48.76 -81.4158,-83.5342 -124.0742,-122.8441 -38.1312,-35.0942 -57.2365,-98.5076 -27.8168,-152.8159 30.5714,-56.4425 98.1959,-55.5508 147.0713,-87.6053 25.3291,-16.5859 41.9473,-39.2994 35.4202,-65.395 -6.0669,-24.724 -27.8639,-40.3899 -36.2925,-63.9144 -8.8617,-24.6075 3.4102,-47.4297 26.5319,-66.0679 28.7429,-23.1606 63.7716,-26.8799 96.7037,-39.0886 26.2325,-9.6695 43.8604,-27.3254 72.2557,-23.9882 18.4221,2.246 36.1111,4.2908 52.5117,-3.0568 6.4186,-2.8172 12.6457,-7.1331 18.6834,-13.4695 16.2846,-17.0204 27.5344,-45.3054 52.7418,-49.311 24.3744,-3.9129 49.1149,-0.6552 67.3697,11.5073 23.4485,15.5971 41.4527,37.3319 70.3059,46.0974 36.4647,11.0562 72.122,12.4104 100.2181,37.3177 15.0747,13.3381 26.1486,28.3496 33.8362,46.6894 7.4772,18.0009 6.3555,37.0554 10.8088,55.9936 11.8068,50.0411 60.9172,85.2575 96.2828,120.2351 12.4258,12.2894 23.9206,24.4438 25.1294,43.0536 1.2503,18.7818 -12.0501,37.7062 -18.8279,56.0112 -6.9633,18.7763 -11.5961,37.1079 -12.068,56.0194 -0.6013,22.9735 2.09,44.8826 -8.7575,67.9352 -20.2578,43.2058 -72.3641,57.662 -105.6475,90.3418 -33.4958,32.8626 -54.5198,104.9018 -104.8039,118.9343 z m -13.4722,-24.0953 c -21.2526,5.9338 -37.6851,5.1116 -56.9392,18.7928 -24.725,17.564 -43.8696,42.4938 -70.4457,57.6987 -76.7327,43.8658 -143.5266,-10.0177 -201.3197,-37.9422 -23.0299,-11.1618 -48.2689,-19.7951 -66.5246,-36.8409 -17.9749,-16.7674 -25.0706,-39.7897 -37.9574,-59.9018 -29.0661,-45.1915 -75.3248,-77.5419 -114.9416,-114.056 -35.2489,-32.578 -53.0109,-91.4668 -25.7003,-141.8541 28.2489,-52.3407 91.0006,-51.4801 136.2567,-81.3284 23.3769,-15.3615 50.9378,-44.007 45.0028,-68.2378 -5.6583,-22.9082 -24.0726,-32.1165 -31.8215,-53.9513 -8.1961,-22.8023 -10.7263,-41.9547 10.6144,-59.2034 26.6014,-21.4707 59.0925,-24.9153 89.5996,-36.224 24.3521,-9.0215 40.6006,-25.4195 66.9051,-22.2832 17.1043,2.0122 33.4619,3.9396 48.6428,-2.9008 5.945,-2.6265 11.6842,-6.6365 17.2758,-12.4965 15.1045,-15.8282 25.515,-42.0755 48.887,-45.7775 22.5399,-3.6093 45.4476,-0.5632 62.3454,10.6806 21.7337,14.4643 38.398,34.6508 65.1472,42.815 33.8734,10.2451 66.9091,11.5342 92.8648,34.6392 13.9752,12.4099 24.2228,26.3676 31.3147,43.3574 6.938,16.7061 5.9218,34.4404 10.0371,52.0185 10.8486,46.532 56.3731,79.2031 89.1696,111.7095 11.5124,11.4106 22.222,22.6808 23.3503,39.9195 1.1699,17.411 -11.1931,35.0389 -17.4782,52.0071 -6.3995,17.3789 -10.7396,34.4399 -11.163,51.9754 -0.509,21.2515 1.9316,41.6258 -8.0646,63.0413 -18.7545,39.9951 -67.0881,53.5562 -97.8835,83.8449 -31.0784,30.5325 -50.6044,97.4166 -97.174,110.498 z" />
    <polygon
       transform="translate(1694.0845,1184.9374)"
       style="opacity:0.12052642;fill:#1c183e;fill-rule:evenodd;stroke:none;stroke-width:0.5507825"
       points="452,185 288,121 452,57 "
       id="polygon34" />
    <polygon
       transform="translate(1694.0845,1184.9374)"
       style="opacity:0.07232606;fill:#000000;fill-rule:evenodd;stroke:none;stroke-width:0.5507825"
       points="192,528 86,464 192,400 "
       id="polygon36" />
    <polygon
       transform="translate(2358.0845,1446.9374)"
       id="polygon38"
       points="31.293173,109.61628 31.293173,94.203488 22.104418,83.267442 12.851406,94.203488 12.851406,109.61628 "
       style="opacity:0.09146764;fill:#1c183e;fill-rule:evenodd;stroke:none;stroke-width:0.5507825" />
    <polygon
       transform="translate(2358.0845,1446.9374)"
       id="polygon40"
       points="55.13253,109.61628 55.13253,38.627907 45.879518,27.627907 36.690763,38.627907 36.690763,109.61628 "
       style="opacity:0.09146764;fill:#1c183e;fill-rule:evenodd;stroke:none;stroke-width:0.5507825" />
    <polygon
       transform="translate(2358.0845,1446.9374)"
       id="polygon42"
       points="78.971888,109.61628 78.971888,57.046512 69.718875,46.046512 60.530121,57.046512 60.530121,109.61628 "
       style="opacity:0.09146764;fill:#1c183e;fill-rule:evenodd;stroke:none;stroke-width:0.5507825" />
    <polygon
       transform="translate(2358.0845,1446.9374)"
       id="polygon44"
       points="102.81124,109.61628 102.81124,47.965116 93.558233,36.965116 84.369478,47.965116 84.369478,109.61628 "
       style="opacity:0.09146764;fill:#1c183e;fill-rule:evenodd;stroke:none;stroke-width:0.5507825" />
    <polygon
       transform="translate(2358.0845,1446.9374)"
       id="polygon46"
       points="126.6506,109.61628 126.6506,69.709302 117.39759,58.773256 108.14458,69.709302 108.14458,109.61628 "
       style="opacity:0.09146764;fill:#1c183e;fill-rule:evenodd;stroke:none;stroke-width:0.5507825" />
    <polygon
       transform="translate(2358.0845,1446.9374)"
       id="polygon48"
       points="150.48996,109.61628 150.48996,97.912791 141.23695,86.912791 131.98394,97.912791 131.98394,109.61628 "
       style="fill:#ffffff;fill-rule:evenodd;stroke:none;stroke-width:0.5507825" />
    <polygon
       transform="translate(2358.0845,1446.9374)"
       id="polygon50"
       points="156.08032,89.47093 98.763052,28.843023 73.317269,39.395349 46.843373,0.19186047 0,109.61628 3.2771084,109.61628 47.421687,6.3953488 72.2249,43.104651 97.991968,32.360465 153.89558,91.517442 "
       style="opacity:0.09146764;fill:#1c183e;fill-rule:evenodd;stroke:none;stroke-width:0.5507825" />
    <rect
       id="rect53"
       x="2273.3416"
       y="1254.4731"
       width="8.1642857"
       height="1.6714286"
       style="fill:#d6ddde;fill-rule:evenodd;stroke:none;stroke-width:0.5507825" />
    <rect
       id="rect55"
       x="2276.5559"
       y="1251.2588"
       width="1.6714286"
       height="8.1642857"
       style="fill:#d6ddde;fill-rule:evenodd;stroke:none;stroke-width:0.5507825" />
    <polygon
       id="polygon59"
       transform="rotate(-45,2551.126,-1744.0739)"
       points="5.0653817,-0.18827607 5.0489979,8.2749451 3.332065,8.2783094 3.3484488,-0.18491177 "
       style="fill:#d6ddde;fill-rule:evenodd;stroke:none;stroke-width:0.5507825" />
    <polygon
       id="polygon61"
       transform="rotate(-45.008103,2550.862,-1743.5953)"
       points="8.4791394,3.1785283 8.4757751,4.8954612 0.012553889,4.911845 0.01591819,3.1949121 "
       style="fill:#d6ddde;fill-rule:evenodd;stroke:none;stroke-width:0.5507825" />
    <rect
       id="rect65"
       x="2364.0945"
       y="1423.8159"
       width="18.395"
       height="1.6714286"
       style="fill:#ffffff;fill-rule:evenodd;stroke:none;stroke-width:0.5507825" />
    <rect
       id="rect67"
       x="2354.1494"
       y="1414.7517"
       width="38.415001"
       height="1.6714286"
       style="fill:#ffffff;fill-rule:evenodd;stroke:none;stroke-width:0.5507825" />
    <rect
       id="rect69"
       x="2362.9246"
       y="1400.2231"
       width="10.335"
       height="1.6714286"
       style="fill:#ffffff;fill-rule:evenodd;stroke:none;stroke-width:0.5507825" />
    <rect
       id="rect71"
       x="2362.9246"
       y="1390.4517"
       width="10.335"
       height="1.6714286"
       style="fill:#ffffff;fill-rule:evenodd;stroke:none;stroke-width:0.5507825" />
    <rect
       id="rect73"
       x="2367.7996"
       y="1404.1445"
       width="10.335"
       height="1.6714286"
       style="fill:#ffffff;fill-rule:evenodd;stroke:none;stroke-width:0.5507825" />
    <rect
       id="rect75"
       x="2362.9246"
       y="1408.0017"
       width="10.335"
       height="1.6714286"
       style="fill:#ffffff;fill-rule:evenodd;stroke:none;stroke-width:0.5507825" />
    <polygon
       id="polygon77"
       points="0.038665049,4.1219787 -0.0005470164,2.5739222 6.7569615,2.7440634 6.7961735,4.29212 "
       transform="rotate(-45,2898.6878,-2142.1039)"
       style="fill:#ffffff;fill-rule:evenodd;stroke:none;stroke-width:0.5507825" />
    <polygon
       id="polygon79"
       points="12.121408,6.8080864 11.951267,0.050577948 13.499323,0.089790014 13.669465,6.8472985 "
       transform="rotate(-45,2908.1004,-2142.088)"
       style="fill:#ffffff;fill-rule:evenodd;stroke:none;stroke-width:0.5507825" />
    <polygon
       id="polygon85"
       transform="rotate(-45,2517.9312,-1778.2171)"
       points="36.851652,7.7282541 36.939224,8.3771308 18.280953,7.2175022 18.193381,6.5686254 "
       style="fill:#f5fdff;fill-rule:evenodd;stroke:none;stroke-width:0.5507825" />
    <polygon
       id="polygon87"
       transform="rotate(-45,2511.2495,-1778.2271)"
       points="30.169993,7.7182853 30.257565,8.3671621 11.599294,7.2075334 11.511722,6.5586567 "
       style="fill:#f5fdff;fill-rule:evenodd;stroke:none;stroke-width:0.5507825" />
    <polygon
       id="polygon89"
       transform="rotate(-45,2497.886,-1778.2272)"
       points="16.806484,7.7182228 16.894056,8.3670996 -1.7642155,7.2074709 -1.8517874,6.5585942 "
       style="fill:#f5fdff;fill-rule:evenodd;stroke:none;stroke-width:0.5507825" />
    <polygon
       style="opacity:0.11000001;fill:#f5fdff;fill-rule:evenodd;stroke:none;stroke-width:0.5507825"
       points="67.10439,516.31159 67.111081,330.9499 785.68483,330.82766 785.67814,516.18935 "
       transform="rotate(27.584116,-1140.1078,4466.6413)"
       id="polygon95" />
    <path
       inkscape:connector-curvature="0"
       id="path97"
       d="m 2413.3915,1405.716 c -7.0754,0 -12.8526,-5.7215 -12.8526,-12.7286 0,-7.0071 5.7772,-12.7286 12.8526,-12.7286 7.0755,0 12.8526,5.7215 12.8526,12.7286 0,7.0071 -5.7122,12.7286 -12.8526,12.7286 z m 0,-24.3 c -6.4263,0 -11.6842,5.2071 -11.6842,11.5714 0,6.3643 5.2579,11.5714 11.6842,11.5714 6.4263,0 11.6842,-5.2071 11.6842,-11.5714 0.065,-6.3643 -5.193,-11.5714 -11.6842,-11.5714 z"
       style="fill:#ffffff;fill-rule:nonzero;stroke:none;stroke-width:0.5507825" />
    <path
       inkscape:connector-curvature="0"
       id="path101"
       d="m 2404.8231,1391.8945 c -0.065,0 -0.065,0 -0.1299,0 -0.3245,-0.064 -0.5193,-0.3857 -0.4544,-0.7071 0.7141,-3.6643 3.5702,-6.5572 7.2702,-7.3286 0.3246,-0.064 0.6491,0.1286 0.7141,0.45 0.065,0.3214 -0.1299,0.6428 -0.4544,0.7071 -3.2456,0.6429 -5.7772,3.15 -6.3614,6.4286 -0.065,0.2571 -0.3246,0.45 -0.5842,0.45 z"
       style="fill:#ffffff;fill-rule:evenodd;stroke:none;stroke-width:0.5507825" />
    <path
       inkscape:connector-curvature="0"
       id="path105"
       d="m 2434.488,1415.4231 c -0.6491,0 -1.2982,-0.2572 -1.7526,-0.7072 l -8.7632,-8.6785 c -0.9737,-0.9643 -0.9737,-2.5072 0,-3.4072 0.9737,-0.9643 2.5316,-0.9643 3.4404,0 v 0 l 8.7631,8.6786 c 0.9737,0.9643 0.9737,2.5071 0,3.4071 -0.4544,0.45 -1.0386,0.7072 -1.6877,0.7072 z m -8.7631,-12.4072 c -0.3246,0 -0.6492,0.1286 -0.9088,0.3857 -0.5193,0.5143 -0.5193,1.2858 0,1.8 l 8.7631,8.6786 c 0.5193,0.5143 1.2983,0.5143 1.8176,0 0.5193,-0.5143 0.5193,-1.2857 0,-1.8 l -8.7632,-8.6786 c -0.2596,-0.2571 -0.5842,-0.3857 -0.9087,-0.3857 z"
       style="fill:#ffffff;fill-rule:nonzero;stroke:none;stroke-width:0.5507825" />
    <polygon
       id="polygon109"
       points="1.4413077,2.8016457 1.3428662,0.2560672 2.4197267,0.30006283 2.5181682,2.8456414 "
       transform="rotate(-45,2903.247,-2221.2106)"
       style="fill:#ffffff;fill-rule:evenodd;stroke:none;stroke-width:0.5507825" />
    <path
       inkscape:connector-curvature="0"
       id="path115"
       d="m 2367.4564,1614.8445 c -7.0754,0 -12.8526,-5.7214 -12.8526,-12.7285 0,-7.0072 5.7772,-12.7286 12.8526,-12.7286 7.0755,0 12.8527,5.7214 12.8527,12.7286 0,7.0071 -5.7772,12.7285 -12.8527,12.7285 z m 0,-24.3642 c -6.4263,0 -11.6842,5.2071 -11.6842,11.5714 0,6.3643 5.2579,11.5714 11.6842,11.5714 6.4263,0 11.6842,-5.2071 11.6842,-11.5714 0,-6.3643 -5.2579,-11.5714 -11.6842,-11.5714 z"
       style="fill:#ffffff;fill-rule:nonzero;stroke:none;stroke-width:0.5507825" />
    <path
       inkscape:connector-curvature="0"
       id="path119"
       d="m 2358.8231,1601.0231 c -0.065,0 -0.065,0 -0.1299,0 -0.3245,-0.064 -0.5193,-0.3857 -0.4544,-0.7072 0.7141,-3.6643 3.5702,-6.5571 7.2702,-7.3285 0.3246,-0.064 0.6491,0.1285 0.7141,0.45 0.065,0.3214 -0.1299,0.6428 -0.4544,0.7071 -3.2456,0.6429 -5.7772,3.15 -6.3614,6.4286 -0.065,0.2571 -0.3246,0.45 -0.5842,0.45 z"
       style="fill:#ffffff;fill-rule:evenodd;stroke:none;stroke-width:0.5507825" />
    <path
       inkscape:connector-curvature="0"
       id="path123"
       d="m 2388.488,1624.4874 c -0.6491,0 -1.2982,-0.2572 -1.7526,-0.7072 l -8.7632,-8.6786 c -0.9737,-0.9642 -0.9737,-2.5071 0,-3.4071 0.9737,-0.9643 2.5316,-0.9643 3.4404,0 v 0 l 8.7631,8.6786 c 0.9737,0.9643 0.9737,2.5071 0,3.4071 -0.4544,0.45 -1.0386,0.7072 -1.6877,0.7072 z m -8.7631,-12.4072 c -0.3246,0 -0.6492,0.1286 -0.9088,0.3857 -0.5193,0.5143 -0.5193,1.2857 0,1.8 l 8.7631,8.6786 c 0.5193,0.5143 1.2983,0.5143 1.8176,0 0.5193,-0.5143 0.5193,-1.2857 0,-1.8 l -8.7632,-8.6786 c -0.2596,-0.2571 -0.5842,-0.3857 -0.9087,-0.3857 z"
       style="fill:#ffffff;fill-rule:nonzero;stroke:none;stroke-width:0.5507825" />
    <polygon
       id="polygon127"
       points="1.4286563,2.8788593 1.3302148,0.33328078 2.4070753,0.3772764 2.5055168,2.9228549 "
       transform="rotate(-45,3132.5197,-2061.1065)"
       style="fill:#ffffff;fill-rule:evenodd;stroke:none;stroke-width:0.5507825" />
    <path
       inkscape:connector-curvature="0"
       id="path153"
       d="m 2047.4925,1229.489 c -0.512,0 -0.896,-0.3844 -0.896,-0.8969 v -8.2 c 0,-0.5125 0.384,-0.8969 0.896,-0.8969 0.512,0 0.896,0.3844 0.896,0.8969 v 8.2 c 0,0.5125 -0.384,0.8969 -0.896,0.8969 z"
       style="fill:#ffffff;fill-rule:evenodd;stroke:none;stroke-width:0.5507825" />
    <path
       inkscape:connector-curvature="0"
       id="path161"
       d="m 2052.0365,1214.4983 h -3.648 c -1.024,0 -1.792,-0.8328 -1.792,-1.7937 v -6.3422 c 0,-1.025 0.832,-1.7937 1.792,-1.7937 h 3.648 c 1.024,0 1.792,0.8328 1.792,1.7937 v 6.3422 c 0,0.9609 -0.832,1.7937 -1.792,1.7937 z m -3.648,-8.2 v 6.3422 h 3.648 v -6.3422 z"
       style="fill:#ffffff;fill-rule:nonzero;stroke:none;stroke-width:0.5507825" />
    <path
       inkscape:connector-curvature="0"
       id="path165"
       d="m 2069.7645,1214.4983 h -3.648 c -1.024,0 -1.792,-0.8328 -1.792,-1.7937 v -6.3422 c 0,-1.025 0.832,-1.7937 1.792,-1.7937 h 3.648 c 1.024,0 1.792,0.8328 1.792,1.7937 v 6.3422 c 0,0.9609 -0.832,1.7937 -1.792,1.7937 z m -3.648,-8.2 v 6.3422 h 3.648 v -6.3422 z"
       style="fill:#ffffff;fill-rule:nonzero;stroke:none;stroke-width:0.5507825" />
    <path
       inkscape:connector-curvature="0"
       id="path169"
       d="m 2058.3725,1214.4983 c -0.512,0 -0.896,-0.3843 -0.896,-0.8968 v -8.2 c 0,-0.5125 0.384,-0.8969 0.896,-0.8969 0.512,0 0.896,0.3844 0.896,0.8969 v 8.2 c 0,0.5125 -0.384,0.8968 -0.896,0.8968 z"
       style="fill:#ffffff;fill-rule:evenodd;stroke:none;stroke-width:0.5507825" />
    <path
       inkscape:connector-curvature="0"
       id="path173"
       d="m 2058.8205,1229.489 h -3.648 c -1.024,0 -1.792,-0.8328 -1.792,-1.7938 v -6.3421 c 0,-1.025 0.832,-1.7938 1.792,-1.7938 h 3.648 c 1.024,0 1.792,0.8328 1.792,1.7938 v 6.3421 c 0.064,0.961 -0.768,1.7938 -1.792,1.7938 z m -3.648,-8.2 v 6.3422 h 3.648 v -6.3422 z"
       style="fill:#ffffff;fill-rule:nonzero;stroke:none;stroke-width:0.5507825" />
    <path
       inkscape:connector-curvature="0"
       id="path177"
       d="m 2096.5165,1229.489 h -2.752 c -1.28,0 -2.24,-1.025 -2.24,-2.2422 v -1.3453 c 0,-0.5125 0.384,-0.8969 0.896,-0.8969 0.512,0 0.896,0.3844 0.896,0.8969 v 1.3453 c 0,0.2563 0.192,0.4485 0.448,0.4485 h 2.752 c 0.256,0 0.448,-0.1922 0.448,-0.4485 v -2.7547 c 0,-0.5125 0.384,-0.8968 0.896,-0.8968 0.512,0 0.896,0.3843 0.896,0.8968 v 2.7547 c 0,1.2172 -0.96,2.2422 -2.24,2.2422 z"
       style="fill:#ffffff;fill-rule:evenodd;stroke:none;stroke-width:0.5507825" />
    <path
       inkscape:connector-curvature="0"
       id="path181"
       d="m 2084.2925,1229.489 h -2.752 c -1.28,0 -2.24,-1.025 -2.24,-2.2422 v -4.1 c 0,-0.5125 0.384,-0.8969 0.896,-0.8969 0.512,0 0.896,0.3844 0.896,0.8969 v 4.1 c 0,0.2562 0.192,0.4484 0.448,0.4484 h 2.752 c 0.256,0 0.448,-0.1922 0.448,-0.4484 v -1.3453 c 0,-0.5125 0.384,-0.8969 0.896,-0.8969 0.512,0 0.896,0.3844 0.896,0.8969 v 1.3453 c 0,1.2172 -1.024,2.2422 -2.24,2.2422 z"
       style="fill:#ffffff;fill-rule:evenodd;stroke:none;stroke-width:0.5507825" />
    <path
       inkscape:connector-curvature="0"
       id="path185"
       d="m 2066.5645,1229.489 c -0.512,0 -0.896,-0.3844 -0.896,-0.8969 v -8.2 c 0,-0.5125 0.384,-0.8969 0.896,-0.8969 0.512,0 0.896,0.3844 0.896,0.8969 v 8.2 c 0,0.5125 -0.384,0.8969 -0.896,0.8969 z"
       style="fill:#ffffff;fill-rule:evenodd;stroke:none;stroke-width:0.5507825" />
    <path
       inkscape:connector-curvature="0"
       id="path189"
       d="m 2073.3485,1229.489 c -0.512,0 -0.896,-0.3844 -0.896,-0.8969 v -8.2 c 0,-0.5125 0.384,-0.8969 0.896,-0.8969 0.512,0 0.896,0.3844 0.896,0.8969 v 8.2 c 0,0.5125 -0.384,0.8969 -0.896,0.8969 z"
       style="fill:#ffffff;fill-rule:evenodd;stroke:none;stroke-width:0.5507825" />
    <path
       inkscape:connector-curvature="0"
       id="path193"
       d="m 2089.7325,1222.6984 c -7.232,0 -13.184,-5.8938 -13.184,-13.1969 0,-7.2391 5.888,-13.1969 13.184,-13.1969 7.232,0 13.184,5.8938 13.184,13.1969 -0.064,7.2391 -5.952,13.1969 -13.184,13.1969 z m 0,-24.536 c -6.272,0 -11.328,5.125 -11.328,11.3391 0,6.2781 5.12,11.3391 11.328,11.3391 6.272,0 11.328,-5.125 11.328,-11.3391 0,-6.2781 -5.12,-11.3391 -11.328,-11.3391 z"
       style="fill:#ffffff;fill-rule:nonzero;stroke:none;stroke-width:0.5507825" />
    <path
       inkscape:connector-curvature="0"
       id="path197"
       d="m 2088.8365,1214.4983 h -3.648 c -1.024,0 -1.792,-0.8328 -1.792,-1.7937 v -6.3422 c 0,-1.025 0.832,-1.7937 1.792,-1.7937 h 3.648 c 1.024,0 1.792,0.8328 1.792,1.7937 v 6.3422 c 0,0.9609 -0.832,1.7937 -1.792,1.7937 z m -3.648,-8.2 v 6.3422 h 3.648 v -6.3422 z"
       style="fill:#ffffff;fill-rule:nonzero;stroke:none;stroke-width:0.5507825" />
    <path
       inkscape:connector-curvature="0"
       id="path201"
       d="m 2095.1725,1214.4983 c -0.512,0 -0.896,-0.3843 -0.896,-0.8968 v -8.2 c 0,-0.5125 0.384,-0.8969 0.896,-0.8969 0.512,0 0.896,0.3844 0.896,0.8969 v 8.2 c 0,0.5125 -0.384,0.8968 -0.896,0.8968 z"
       style="fill:#ffffff;fill-rule:evenodd;stroke:none;stroke-width:0.5507825" />
    <path
       inkscape:connector-curvature="0"
       id="path205"
       d="m 2108.8045,1229.489 c -0.256,0 -0.448,-0.064 -0.64,-0.2563 l -10.432,-10.4422 c -0.384,-0.3843 -0.384,-0.8968 0,-1.2812 0.384,-0.3844 0.896,-0.3844 1.28,0 l 10.432,10.4422 c 0.384,0.3843 0.384,0.8968 0,1.2812 -0.192,0.1922 -0.448,0.2563 -0.64,0.2563 z"
       style="fill:#ffffff;fill-rule:evenodd;stroke:none;stroke-width:0.5507825" />
    <path
       d="m 2286.9209,1295.5534 -0.9546,-1.6 -2.9273,1.728 -0.5727,-1.024 0.064,-5.504 1.909,-1.152 2.291,3.84 0.7636,-0.448 0.7,1.152 -0.7636,0.448 0.9545,1.6 z m -1.5909,-2.688 -0.891,-1.472 c -0.2545,-0.384 -0.4454,-0.832 -0.7,-1.28 v 0 c 0.064,0.576 0.064,1.024 0.1273,1.6 v 1.984 0 z"
       id="path211"
       inkscape:connector-curvature="0"
       style="fill:#ffffff;fill-rule:nonzero;stroke:none;stroke-width:0.5507825" />
    <path
       d="m 2292.6481,1287.6174 c 1.2091,2.048 1.2091,3.904 -0.4454,4.928 -1.7182,1.024 -3.3727,-0.064 -4.4546,-1.92 -1.1454,-1.92 -1.2091,-3.904 0.4455,-4.928 1.7818,-1.024 3.4364,0.128 4.4545,1.92 z m -3.3091,2.112 c 0.891,1.536 1.7182,1.984 2.291,1.664 0.5727,-0.384 0.4454,-1.28 -0.4455,-2.816 -0.8909,-1.472 -1.6545,-2.048 -2.2273,-1.664 -0.5727,0.32 -0.5727,1.28 0.3818,2.816 z"
       id="path213"
       inkscape:connector-curvature="0"
       style="fill:#ffffff;fill-rule:nonzero;stroke:none;stroke-width:0.5507825" />
    <path
       d="m 2296.0209,1283.7134 c 0.8272,1.408 0.3818,2.624 -0.5728,3.2 -1.0181,0.576 -2.2272,0.32 -2.9909,-0.896 -0.7,-1.152 -0.5091,-2.496 0.6364,-3.2 1.1454,-0.704 2.2909,-0.256 2.9273,0.896 z m -2.4182,1.536 c 0.3818,0.704 0.9545,1.024 1.4,0.768 0.4454,-0.256 0.3818,-0.832 -0.064,-1.6 -0.3818,-0.64 -0.8909,-1.088 -1.4,-0.768 -0.4454,0.256 -0.3181,0.896 0.064,1.6 z m 3.5636,4.352 -0.2545,-9.024 0.8272,-0.512 0.2546,9.024 z m 5.2182,-6.016 c 0.8273,1.344 0.3818,2.624 -0.5727,3.2 -0.9546,0.576 -2.2273,0.32 -2.9273,-0.896 -0.7,-1.152 -0.5091,-2.496 0.5727,-3.136 1.1455,-0.768 2.2273,-0.32 2.9273,0.832 z m -2.4182,1.536 c 0.3818,0.704 0.9546,1.024 1.4,0.768 0.4455,-0.256 0.3818,-0.832 -0.064,-1.6 -0.3818,-0.64 -0.8909,-1.088 -1.3364,-0.768 -0.5091,0.32 -0.3818,0.96 0,1.6 z"
       id="path215"
       inkscape:connector-curvature="0"
       style="fill:#ffffff;fill-rule:nonzero;stroke:none;stroke-width:0.5507825" />
    <path
       d="m 2091.6629,1280.9303 c -0.1946,0 -0.3892,0 -0.7135,0 -1.6217,0.1285 -2.3352,0.9642 -2.5298,1.8642 h 0.065 c 0.3892,-0.3857 0.9081,-0.5785 1.6216,-0.5785 1.2973,0 2.4,0.9 2.4,2.5071 0,1.5429 -1.1675,2.7643 -2.854,2.7643 -2.0757,0 -3.1135,-1.5429 -3.1135,-3.3429 0,-1.4142 0.5189,-2.6357 1.3621,-3.4071 0.7784,-0.7071 1.7514,-1.0929 2.9838,-1.1571 0.3243,-0.064 0.5838,0 0.7135,0 v 1.35 z m -0.973,3.8571 c 0,-0.7071 -0.3892,-1.35 -1.1676,-1.35 -0.5189,0 -0.9081,0.3214 -1.0378,0.7071 -0.065,0.1286 -0.065,0.2572 -0.065,0.45 0.065,0.8358 0.4541,1.5429 1.2973,1.5429 0.5838,0.064 0.973,-0.5786 0.973,-1.35 z"
       id="path219"
       inkscape:connector-curvature="0"
       style="fill:#ffffff;fill-rule:nonzero;stroke:none;stroke-width:0.5507825" />
    <path
       d="m 2099.1223,1283.5017 c 0,2.3786 -0.9729,3.9857 -2.9189,3.9857 -2.0108,0 -2.9189,-1.8 -2.9189,-3.9857 0,-2.25 0.973,-3.9857 2.9838,-3.9857 2.0108,0 2.854,1.8643 2.854,3.9857 z m -4.0216,0 c 0,1.7357 0.4541,2.6357 1.1027,2.6357 0.7135,0 1.1027,-0.9 1.1027,-2.6357 0,-1.7357 -0.3892,-2.6357 -1.1027,-2.6357 -0.6486,0.064 -1.1027,0.8357 -1.1027,2.6357 z"
       id="path221"
       inkscape:connector-curvature="0"
       style="fill:#ffffff;fill-rule:nonzero;stroke:none;stroke-width:0.5507825" />
    <path
       d="m 2104.1169,1281.8303 c 0,1.6071 -1.0378,2.4428 -2.1405,2.4428 -1.1676,0 -2.1405,-0.9 -2.1405,-2.3143 0,-1.35 0.8432,-2.4428 2.2054,-2.4428 1.2973,0 2.0756,0.9643 2.0756,2.3143 z m -2.9189,0.064 c 0,0.8358 0.2595,1.4143 0.7784,1.4143 0.5189,0 0.7784,-0.5143 0.7784,-1.4143 0,-0.7714 -0.1946,-1.4142 -0.7784,-1.4142 -0.5838,0.064 -0.7784,0.6428 -0.7784,1.4142 z m 0.8433,5.5929 4.4756,-7.9714 h 0.973 l -4.4757,7.9714 z m 7.654,-2.4429 c 0,1.6072 -1.0378,2.4429 -2.1405,2.4429 -1.1676,0 -2.0757,-0.9 -2.0757,-2.3143 0,-1.35 0.8432,-2.4428 2.2054,-2.4428 1.2324,0 2.0108,0.9642 2.0108,2.3142 z m -2.9189,0.064 c 0,0.8357 0.2595,1.4143 0.7784,1.4143 0.5189,0 0.7783,-0.5143 0.7783,-1.4143 0,-0.7714 -0.1945,-1.4143 -0.7783,-1.4143 -0.5189,0 -0.7784,0.6429 -0.7784,1.4143 z"
       id="path223"
       inkscape:connector-curvature="0"
       style="fill:#ffffff;fill-rule:nonzero;stroke:none;stroke-width:0.5507825" />
    <path
       d="m 2374.2762,1593.0041 0.064,-1.1334 1.0222,-0.8666 c 1.7889,-1.4 2.6833,-2.2667 2.7472,-3.2 0.064,-0.6667 -0.2556,-1.2 -1.15,-1.2667 -0.6389,-0.067 -1.2778,0.2667 -1.6611,0.5333 l -0.3833,-1.3333 c 0.575,-0.4 1.5333,-0.6667 2.5555,-0.6 1.725,0.1333 2.6195,1.2667 2.4917,2.7333 -0.1278,1.3334 -1.0861,2.3334 -2.3,3.2667 l -0.7667,0.5333 v 0 l 2.875,0.2667 -0.1278,1.5333 z"
       id="path227"
       inkscape:connector-curvature="0"
       style="fill:#ffffff;fill-rule:evenodd;stroke:none;stroke-width:0.5507825" />
    <path
       d="m 2386.7345,1590.0707 c -0.1917,2.4667 -1.2778,4.0667 -3.1944,3.9334 -1.9806,-0.2 -2.6834,-2.0667 -2.5556,-4.3334 0.1917,-2.3333 1.2778,-4.0666 3.1944,-3.8666 2.0445,0.067 2.6834,2.0666 2.5556,4.2666 z m -3.9611,-0.3333 c -0.1278,1.8 0.1917,2.7333 0.8944,2.8 0.7028,0.067 1.15,-0.8 1.2778,-2.6 0.1278,-1.7333 -0.1278,-2.7333 -0.8944,-2.8 -0.6389,-0.067 -1.15,0.7333 -1.2778,2.6 z"
       id="path229"
       inkscape:connector-curvature="0"
       style="fill:#ffffff;fill-rule:nonzero;stroke:none;stroke-width:0.5507825" />
    <path
       d="m 2391.7178,1588.7374 c -0.1277,1.6667 -1.2139,2.4667 -2.3,2.3333 -1.15,-0.067 -1.9805,-1.0666 -1.9166,-2.6 0.1277,-1.4 1.0222,-2.4 2.3639,-2.3333 1.3416,0.2 1.9805,1.2667 1.8527,2.6 z m -2.875,-0.1333 c -0.064,0.8 0.1278,1.4666 0.7028,1.4666 0.5111,0.067 0.7667,-0.4666 0.8945,-1.4 0.064,-0.8 -0.1278,-1.4666 -0.6389,-1.4666 -0.575,0 -0.8945,0.6 -0.9584,1.4 z m 0.3834,5.8666 5.0472,-7.8666 0.9583,0.067 -5.0472,7.8667 z m 7.7305,-1.9333 c -0.1278,1.6667 -1.2139,2.4667 -2.3,2.3333 -1.15,-0.067 -1.9805,-1.0666 -1.8528,-2.6 0.1278,-1.4 1.0223,-2.4 2.3,-2.3333 1.3417,0.1333 1.9806,1.2 1.8528,2.6 z m -2.8111,-0.1333 c -0.064,0.8 0.1278,1.4666 0.6389,1.4666 0.5111,0.067 0.7667,-0.4666 0.8944,-1.4 0.064,-0.8 -0.1277,-1.4666 -0.6388,-1.4666 -0.575,-0.067 -0.8306,0.6 -0.8945,1.4 z"
       id="path231"
       inkscape:connector-curvature="0"
       style="fill:#ffffff;fill-rule:nonzero;stroke:none;stroke-width:0.5507825" />
    <polygon
       transform="translate(1802.0845,1626.9374)"
       id="polygon235"
       points="1.9263158,1.9905263 1.9263158,58.945263 47.901053,58.945263 47.901053,44.818947 49.763158,44.818947 49.763158,60.807368 0.12842105,60.807368 0.12842105,0.19263158 49.763158,0.19263158 49.763158,13.42 47.901053,13.42 47.901053,1.9905263 "
       style="fill:#ffffff;fill-rule:evenodd;stroke:none;stroke-width:0.5507825" />
    <rect
       id="rect239"
       height="1.7978947"
       width="47.836842"
       y="1635.349"
       x="1803.1118"
       style="fill:#ffffff;fill-rule:evenodd;stroke:none;stroke-width:0.5507825" />
    <rect
       id="rect243"
       height="1.7978947"
       width="2.7610526"
       y="1631.2395"
       x="1807.2213"
       style="fill:#ffffff;fill-rule:evenodd;stroke:none;stroke-width:0.5507825" />
    <rect
       id="rect247"
       height="1.7978947"
       width="2.7610526"
       y="1631.2395"
       x="1811.2666"
       style="fill:#ffffff;fill-rule:evenodd;stroke:none;stroke-width:0.5507825" />
    <path
       inkscape:connector-curvature="0"
       id="path251"
       d="m 1829.9519,1657.63 h -20.9326 v -15.4747 h 20.9326 z m -19.1347,-1.7979 h 17.3368 v -11.8789 h -17.3368 z"
       style="fill:#ffffff;fill-rule:nonzero;stroke:none;stroke-width:0.5507825" />
    <rect
       id="rect255"
       height="1.7978947"
       width="23.244211"
       y="1662.7026"
       x="1808.5698"
       style="fill:#ffffff;fill-rule:evenodd;stroke:none;stroke-width:0.5507825" />
    <rect
       id="rect259"
       height="1.7978947"
       width="25.941053"
       y="1668.1605"
       x="1808.5698"
       style="fill:#ffffff;fill-rule:evenodd;stroke:none;stroke-width:0.5507825" />
    <rect
       id="rect263"
       height="1.7978947"
       width="16.373684"
       y="1673.6185"
       x="1808.5698"
       style="fill:#ffffff;fill-rule:evenodd;stroke:none;stroke-width:0.5507825" />
    <rect
       id="rect267"
       height="1.7978947"
       width="16.373684"
       y="1679.0763"
       x="1808.5698"
       style="fill:#ffffff;fill-rule:evenodd;stroke:none;stroke-width:0.5507825" />
    <rect
       id="rect271"
       height="1.7978947"
       width="16.373684"
       y="1673.6185"
       x="1829.0529"
       style="fill:#ffffff;fill-rule:evenodd;stroke:none;stroke-width:0.5507825" />
    <rect
       id="rect275"
       height="1.7978947"
       width="16.373684"
       y="1679.0763"
       x="1829.0529"
       style="fill:#ffffff;fill-rule:evenodd;stroke:none;stroke-width:0.5507825" />
    <path
       inkscape:connector-curvature="0"
       id="path279"
       d="m 1845.4266,1667.1974 c -6.5494,0 -11.8147,-5.3295 -11.8147,-11.8148 0,-6.4852 5.3295,-11.8147 11.8147,-11.8147 6.5495,0 11.8148,5.3295 11.8148,11.8147 0,6.4853 -5.2653,11.8148 -11.8148,11.8148 z m 0,-21.8316 c -5.5221,0 -10.0168,4.4947 -10.0168,10.0168 0,5.5221 4.4947,10.0169 10.0168,10.0169 5.5222,0 10.0169,-4.4948 10.0169,-10.0169 0,-5.5221 -4.4305,-10.0168 -10.0169,-10.0168 z"
       style="fill:#ffffff;fill-rule:nonzero;stroke:none;stroke-width:0.5507825" />
    <path
       inkscape:connector-curvature="0"
       id="path283"
       d="m 1839.9687,1656.2816 c -0.5137,0 -0.8989,-0.3852 -0.8989,-0.8989 0,-3.5316 2.8894,-6.3569 6.3568,-6.3569 0.5137,0 0.899,0.3853 0.899,0.899 0,0.5137 -0.3853,0.8989 -0.899,0.8989 -2.5042,0 -4.5589,2.0548 -4.5589,4.559 0,0.5137 -0.3853,0.8989 -0.899,0.8989 z"
       style="fill:#ffffff;fill-rule:evenodd;stroke:none;stroke-width:0.5507825" />
    <path
       inkscape:connector-curvature="0"
       id="path287"
       d="m 1861.8645,1671.3069 c -0.2569,0 -0.4495,-0.064 -0.6421,-0.2568 l -8.0263,-8.0264 c -0.3853,-0.3852 -0.3853,-0.8989 0,-1.2842 0.3852,-0.3852 0.8989,-0.3852 1.2842,0 l 8.0263,8.0263 c 0.3853,0.3853 0.3853,0.899 0,1.2843 -0.1926,0.1926 -0.4495,0.2568 -0.6421,0.2568 z"
       style="fill:#ffffff;fill-rule:evenodd;stroke:none;stroke-width:0.5507825" />
    <g
       transform="translate(1918.0845,1618.1389)"
       id="g297"
       style="fill:none;fill-rule:evenodd;stroke:none;stroke-width:0.5507825">
      <path
         style="fill:#d4d4d4;stroke-width:0.5507825"
         inkscape:connector-curvature="0"
         id="path293"
         d="M 19.642199,19.424757 H 412.10104 c 7.12511,0 13.35156,-3.859223 16.62526,-9.648058 H 3.0169391 c 3.33789,5.788835 9.5643389,9.648058 16.6252599,9.648058 z" />
      <path
         style="opacity:0.2;fill:#d5b3b3;stroke-width:0.5507825"
         inkscape:connector-curvature="0"
         id="path295"
         d="m 0.44933135,0.12864078 c 0,3.53762132 0.96285285,6.81796112 2.56760775,9.64805822 H 428.79049 c 1.66894,-2.8300971 2.56761,-6.1104369 2.56761,-9.64805822 z" />
    </g>
    <g
       transform="translate(1918.0845,1618.1389)"
       id="g303"
       style="fill:none;fill-rule:evenodd;stroke:none;stroke-width:0.5507825">
      <path
         style="fill:#ffffff;stroke-width:0.5507825"
         inkscape:connector-curvature="0"
         id="path299"
         d="M 245.91263,0.12864078 C 244.43626,2.315534 241.93284,3.7305825 239.10847,3.7305825 h -46.40951 c -2.82437,0 -5.32779,-1.4150485 -6.80416,-3.60194172 H 0.38514116 c 0,3.53762132 0.96285294,6.81796112 2.56760774,9.64805822 H 428.79049 c 1.66894,-2.8300971 2.56761,-6.1104369 2.56761,-9.64805822 z" />
      <path
         style="fill:#cecece;stroke-width:0.5507825"
         inkscape:connector-curvature="0"
         id="path301"
         d="m 192.69896,3.7305825 h 46.40951 c 2.82437,0 5.32779,-1.4150485 6.80416,-3.60194172 h -59.95364 c 1.41218,2.18689322 3.9156,3.60194172 6.73997,3.60194172 z" />
    </g>
    <path
       style="fill:#1b163d;fill-rule:evenodd;stroke:none;stroke-width:0.5507825"
       inkscape:connector-curvature="0"
       id="path307"
       d="m 2314.7799,1610.3561 c 0,4.3738 -3.5305,7.9114 -7.8954,7.9114 h -345.7284 c -4.3649,0 -7.8954,-3.5376 -7.8954,-7.9114 v -225.3787 c 0,-4.3737 3.5305,-7.9114 7.8954,-7.9114 h 345.6642 c 4.3649,0 7.8954,3.5377 7.8954,7.9114 v 225.3787 z" />
    <g
       style="fill:#ffffff;fill-rule:evenodd;stroke:none;stroke-width:0.5507825"
       id="g313"
       transform="translate(2054.8096,1376.9374)">
      <polygon
         style="opacity:0.3;stroke-width:0.5507825"
         id="polygon309"
         points="25.034175,0.064320388 0.12838039,0.064320388 130.43447,241.3301 197.32065,241.3301 " />
      <path
         style="opacity:0.2;stroke-width:0.5507825"
         inkscape:connector-curvature="0"
         id="path311"
         d="M 259.97028,233.41869 V 159.96481 L 174.85409,0.06432039 H 47.115602 L 218.11828,241.3301 h 33.89242 c 4.36493,0 7.95958,-3.53762 7.95958,-7.91141 z" />
    </g>
    <g
       id="g319"
       transform="translate(2131.1959,1382.7262)"
       style="fill:none;fill-rule:evenodd;stroke:none;stroke-width:0.5507825">
      <path
         style="fill:#000000;stroke-width:0.5507825"
         inkscape:connector-curvature="0"
         id="path315"
         d="m 5.327786,2.8944175 c 0,1.4150485 -1.1554234,2.5728155 -2.5676077,2.5728155 -1.4121842,0 -2.56760772,-1.157767 -2.56760772,-2.5728155 0,-1.4150486 1.15542352,-2.57281556 2.56760772,-2.57281556 1.4121843,0 2.5676077,1.15776696 2.5676077,2.57281556 z" />
      <path
         style="opacity:0.2;fill:#ffffff;stroke-width:0.5507825"
         inkscape:connector-curvature="0"
         id="path317"
         d="m 3.4020802,2.8944175 c 0,0.3216019 -0.2567607,0.6432039 -0.6419019,0.6432039 -0.320951,0 -0.6419019,-0.2572816 -0.6419019,-0.6432039 0,-0.321602 0.2567607,-0.6432039 0.6419019,-0.6432039 0.3851412,0 0.6419019,0.3216019 0.6419019,0.6432039 z" />
    </g>
    <rect
       style="fill:#373737;fill-rule:evenodd;stroke:none;stroke-width:0.5507825"
       height="207.56189"
       width="317.48468"
       y="1395.526"
       x="1975.0854"
       id="rect323" />
    <rect
       style="fill:#efeff1;fill-rule:evenodd;stroke:none;stroke-width:0.5507825"
       height="162.98787"
       width="315.62317"
       y="1436.884"
       x="1975.4706"
       id="rect325" />
    <rect
       style="fill:#ffffff;fill-rule:evenodd;stroke:none;stroke-width:0.5507825"
       height="207.56189"
       width="315.62317"
       y="1395.526"
       x="1975.3422"
       id="rect327" />
    <rect
       height="1.2542475"
       width="2.1858749"
       y="1534.7092"
       x="2144.3611"
       id="rect329"
       style="fill:#8da8b1;fill-rule:evenodd;stroke:none;stroke-width:0.5507825" />
    <path
       style="fill:#8da8b1;fill-rule:nonzero;stroke:none;stroke-width:0.5507825"
       inkscape:connector-curvature="0"
       id="path331"
       d="m 2141.3345,1536.2092 h -4.3717 v -1.5 h 4.4558 v 1.5 z m -7.3143,0 h -4.4558 v -1.5 h 4.4558 z m -7.3983,0 h -4.4558 v -1.5 h 4.4558 z m -7.3983,0 h -4.4559 v -1.5 h 4.4559 z m -7.3143,0 h -4.4558 v -1.5 h 4.4558 z m -7.3984,0 h -4.4558 v -1.5 h 4.4558 z m -7.3983,0 h -4.4558 v -1.5 h 4.4558 z m -7.3143,0 h -4.4558 v -1.5 h 4.4558 z m -7.3983,0 h -4.4559 v -1.5 h 4.4559 z m -7.3984,0 h -4.4558 v -1.5 h 4.4558 z m -7.3143,0 h -4.4558 v -1.5 h 4.4558 z m -7.3983,0 h -4.4558 v -1.5 h 4.4558 z m -7.3983,0 h -4.4559 v -1.5 h 4.4559 z m -7.3984,0 h -4.3717 v -1.5 h 4.4558 v 1.5 z m -7.3143,0 h -4.4558 v -1.5 h 4.4558 z m -7.3983,0 h -4.4558 v -1.5 h 4.4558 z m -7.3984,0 h -4.4558 v -1.5 h 4.4558 z m -7.3142,0 h -4.4559 v -1.5 h 4.4559 z m -7.3984,0 h -4.4558 v -1.5 h 4.4558 z" />
    <rect
       height="1.2542475"
       width="2.1858749"
       y="1534.7092"
       x="1999.0845"
       id="rect333"
       style="fill:#8da8b1;fill-rule:evenodd;stroke:none;stroke-width:0.5507825" />
    <rect
       height="1.2542475"
       width="2.1858749"
       y="1544.0339"
       x="2144.3611"
       id="rect337"
       style="fill:#8da8b1;fill-rule:evenodd;stroke:none;stroke-width:0.5507825" />
    <path
       style="fill:#8da8b1;fill-rule:nonzero;stroke:none;stroke-width:0.5507825"
       inkscape:connector-curvature="0"
       id="path339"
       d="m 2141.3345,1545.6304 h -4.3717 v -1.5 h 4.4558 v 1.5 z m -7.3143,0 h -4.4558 v -1.5 h 4.4558 z m -7.3983,0 h -4.4558 v -1.5 h 4.4558 z m -7.3983,0 h -4.4559 v -1.5 h 4.4559 z m -7.3143,0 h -4.4558 v -1.5 h 4.4558 z m -7.3984,0 h -4.4558 v -1.5 h 4.4558 z m -7.3983,0 h -4.4558 v -1.5 h 4.4558 z m -7.3143,0 h -4.4558 v -1.5 h 4.4558 z m -7.3983,0 h -4.4559 v -1.5 h 4.4559 z m -7.3984,0 h -4.4558 v -1.5 h 4.4558 z m -7.3143,0 h -4.4558 v -1.5 h 4.4558 z m -7.3983,0 h -4.4558 v -1.5 h 4.4558 z m -7.3983,0 h -4.4559 v -1.5 h 4.4559 z m -7.3984,0 h -4.3717 v -1.5 h 4.4558 v 1.5 z m -7.3143,0 h -4.4558 v -1.5 h 4.4558 z m -7.3983,0 h -4.4558 v -1.5 h 4.4558 z m -7.3984,0 h -4.4558 v -1.5 h 4.4558 z m -7.3142,0 h -4.4559 v -1.5 h 4.4559 z m -7.3984,0 h -4.4558 v -1.5 h 4.4558 z" />
    <rect
       height="1.2542475"
       width="2.1858749"
       y="1544.0339"
       x="1999.0845"
       id="rect341"
       style="fill:#8da8b1;fill-rule:evenodd;stroke:none;stroke-width:0.5507825" />
    <rect
       height="1.2542475"
       width="2.1858749"
       y="1553.4198"
       x="2144.3611"
       id="rect345"
       style="fill:#8da8b1;fill-rule:evenodd;stroke:none;stroke-width:0.5507825" />
    <path
       style="fill:#8da8b1;fill-rule:nonzero;stroke:none;stroke-width:0.5507825"
       inkscape:connector-curvature="0"
       id="path347"
       d="m 2141.3345,1554.9198 h -4.3717 v -1.5 h 4.4558 v 1.5 z m -7.3143,0 h -4.4558 v -1.5 h 4.4558 z m -7.3983,0 h -4.4558 v -1.5 h 4.4558 z m -7.3983,0 h -4.4559 v -1.5 h 4.4559 z m -7.3143,0 h -4.4558 v -1.5 h 4.4558 z m -7.3984,0 h -4.4558 v -1.5 h 4.4558 z m -7.3983,0 h -4.4558 v -1.5 h 4.4558 z m -7.3143,0 h -4.4558 v -1.5 h 4.4558 z m -7.3983,0 h -4.4559 v -1.5 h 4.4559 z m -7.3984,0 h -4.4558 v -1.5 h 4.4558 z m -7.3143,0 h -4.4558 v -1.5 h 4.4558 z m -7.3983,0 h -4.4558 v -1.5 h 4.4558 z m -7.3983,0 h -4.4559 v -1.5 h 4.4559 z m -7.3984,0 h -4.3717 v -1.5 h 4.4558 v 1.5 z m -7.3143,0 h -4.4558 v -1.5 h 4.4558 z m -7.3983,0 h -4.4558 v -1.5 h 4.4558 z m -7.3984,0 h -4.4558 v -1.5 h 4.4558 z m -7.3142,0 h -4.4559 v -1.5 h 4.4559 z m -7.3984,0 h -4.4558 v -1.5 h 4.4558 z" />
    <rect
       height="1.2542475"
       width="2.1858749"
       y="1553.4198"
       x="1999.0845"
       id="rect349"
       style="fill:#8da8b1;fill-rule:evenodd;stroke:none;stroke-width:0.5507825" />
    <rect
       height="1.2542475"
       width="2.1858749"
       y="1562.8058"
       x="2144.3611"
       id="rect353"
       style="fill:#8da8b1;fill-rule:evenodd;stroke:none;stroke-width:0.5507825" />
    <path
       style="fill:#8da8b1;fill-rule:nonzero;stroke:none;stroke-width:0.5507825"
       inkscape:connector-curvature="0"
       id="path355"
       d="m 2141.3345,1564.3057 h -4.3717 v -1.5 h 4.4558 v 1.5 z m -7.3143,0 h -4.4558 v -1.5 h 4.4558 z m -7.3983,0 h -4.4558 v -1.5 h 4.4558 z m -7.3983,0 h -4.4559 v -1.5 h 4.4559 z m -7.3143,0 h -4.4558 v -1.5 h 4.4558 z m -7.3984,0 h -4.4558 v -1.5 h 4.4558 z m -7.3983,0 h -4.4558 v -1.5 h 4.4558 z m -7.3143,0 h -4.4558 v -1.5 h 4.4558 z m -7.3983,0 h -4.4559 v -1.5 h 4.4559 z m -7.3984,0 h -4.4558 v -1.5 h 4.4558 z m -7.3143,0 h -4.4558 v -1.5 h 4.4558 z m -7.3983,0 h -4.4558 v -1.5 h 4.4558 z m -7.3983,0 h -4.4559 v -1.5 h 4.4559 z m -7.3984,0 h -4.3717 v -1.5 h 4.4558 v 1.5 z m -7.3143,0 h -4.4558 v -1.5 h 4.4558 z m -7.3983,0 h -4.4558 v -1.5 h 4.4558 z m -7.3984,0 h -4.4558 v -1.5 h 4.4558 z m -7.3142,0 h -4.4559 v -1.5 h 4.4559 z m -7.3984,0 h -4.4558 v -1.5 h 4.4558 z" />
    <rect
       height="1.2542475"
       width="2.1858749"
       y="1562.8058"
       x="1999.0845"
       id="rect357"
       style="fill:#8da8b1;fill-rule:evenodd;stroke:none;stroke-width:0.5507825" />
    <rect
       height="1.2542475"
       width="2.1858749"
       y="1572.2268"
       x="2144.3611"
       id="rect361"
       style="fill:#8da8b1;fill-rule:evenodd;stroke:none;stroke-width:0.5507825" />
    <path
       style="fill:#8da8b1;fill-rule:nonzero;stroke:none;stroke-width:0.5507825"
       inkscape:connector-curvature="0"
       id="path363"
       d="m 2141.3345,1573.7268 h -4.3717 v -1.5 h 4.4558 v 1.5 z m -7.3143,0 h -4.4558 v -1.5 h 4.4558 z m -7.3983,0 h -4.4558 v -1.5 h 4.4558 z m -7.3983,0 h -4.4559 v -1.5 h 4.4559 z m -7.3143,0 h -4.4558 v -1.5 h 4.4558 z m -7.3984,0 h -4.4558 v -1.5 h 4.4558 z m -7.3983,0 h -4.4558 v -1.5 h 4.4558 z m -7.3143,0 h -4.4558 v -1.5 h 4.4558 z m -7.3983,0 h -4.4559 v -1.5 h 4.4559 z m -7.3984,0 h -4.4558 v -1.5 h 4.4558 z m -7.3143,0 h -4.4558 v -1.5 h 4.4558 z m -7.3983,0 h -4.4558 v -1.5 h 4.4558 z m -7.3983,0 h -4.4559 v -1.5 h 4.4559 z m -7.3984,0 h -4.3717 v -1.5 h 4.4558 v 1.5 z m -7.3143,0 h -4.4558 v -1.5 h 4.4558 z m -7.3983,0 h -4.4558 v -1.5 h 4.4558 z m -7.3984,0 h -4.4558 v -1.5 h 4.4558 z m -7.3142,0 h -4.4559 v -1.5 h 4.4559 z m -7.3984,0 h -4.4558 v -1.5 h 4.4558 z" />
    <rect
       height="1.2542475"
       width="2.1858749"
       y="1572.2268"
       x="1999.0845"
       id="rect365"
       style="fill:#8da8b1;fill-rule:evenodd;stroke:none;stroke-width:0.5507825" />
    <rect
       id="rect369"
       transform="scale(-1)"
       x="-1999.0845"
       y="-1573.9374"
       width="4"
       height="2"
       style="fill:#2f3a3f;fill-rule:evenodd;stroke:none;stroke-width:0.5507825" />
    <rect
       id="rect371"
       transform="scale(-1)"
       x="-2000.0845"
       y="-1583.9374"
       width="8"
       height="2"
       style="fill:#2f3a3f;fill-rule:evenodd;stroke:none;stroke-width:0.5507825" />
    <rect
       id="rect373"
       transform="scale(-1)"
       x="-1999.0845"
       y="-1554.9374"
       width="4"
       height="2"
       style="fill:#2f3a3f;fill-rule:evenodd;stroke:none;stroke-width:0.5507825" />
    <rect
       id="rect375"
       transform="scale(-1)"
       x="-2000.0845"
       y="-1545.9374"
       width="8"
       height="2"
       style="fill:#2f3a3f;fill-rule:evenodd;stroke:none;stroke-width:0.5507825" />
    <rect
       id="rect377"
       transform="scale(-1)"
       x="-2000.0845"
       y="-1564.9374"
       width="8"
       height="2"
       style="fill:#2f3a3f;fill-rule:evenodd;stroke:none;stroke-width:0.5507825" />
    <rect
       id="rect379"
       transform="scale(-1)"
       x="-1999.0845"
       y="-1535.9374"
       width="4"
       height="2"
       style="fill:#2f3a3f;fill-rule:evenodd;stroke:none;stroke-width:0.5507825" />
    <rect
       id="rect381"
       transform="scale(-1)"
       x="-2000.0845"
       y="-1526.9374"
       width="8"
       height="2"
       style="fill:#2f3a3f;fill-rule:evenodd;stroke:none;stroke-width:0.5507825" />
    <polygon
       transform="translate(1991.9166,1523.9592)"
       id="polygon383"
       points="102.67807,17.942745 110.85065,4.3209315 116.66413,12.176456 133.00928,3.9866539 143.96221,8.4158324 155.1679,0.97815534 155.1679,54.295436 10.167905,59.978155 28.282373,33.486654 47.913402,19.029147 60.635656,25.881838 71.841351,20.951243 80.013925,25.296852 92.483419,13.847844 "
       style="fill:#35d189;fill-opacity:1;fill-rule:evenodd;stroke:none;stroke-width:0.5507825" />
    <polygon
       transform="translate(1991.9166,1523.9592)"
       id="polygon385"
       points="131.74548,26.0904 142.19289,18.978155 155.1679,25.588359 155.1679,54.288359 10.167905,59.978155 31.568254,44.41489 41.762908,31.027135 51.199282,43.578155 76.643791,31.529176 87.091205,46.757747 102.93083,29.353666 106.72223,34.876114 122.3091,24.416931 "
       style="fill:#ffffff;fill-rule:evenodd;stroke:none;stroke-width:0.5507825" />
    <polygon
       transform="translate(1991.9166,1523.9592)"
       id="polygon387"
       points="41.004628,42.176893 28.787893,51.631152 10.167905,59.978155 155.1679,59.978155 155.1679,32.978155 141.68737,35.192666 127.3643,45.24314 116.41137,37.151657 85.827405,52.227367 80.519445,43.624843 72.094111,42.773108 65.943617,38.855127 53.726882,51.971846 "
       style="fill:#1c183e;fill-rule:evenodd;stroke:none;stroke-width:0.5507825" />
    <path
       d="m 2007.2249,1441.2322 c -14.8573,0 -26.9197,12.0869 -26.9197,26.9744 0,14.8875 12.0624,26.9743 26.9197,26.9743 14.8574,0 26.9198,-12.0868 26.9198,-26.9743 0,-14.8875 -12.0624,-26.9744 -26.9198,-26.9744 z m 0,43.557 c -9.1939,0 -16.6226,-7.4438 -16.6226,-16.6563 0,-9.2126 7.4287,-16.6563 16.6226,-16.6563 9.1939,0 16.6226,7.4437 16.6226,16.6563 0,9.2125 -7.4287,16.6563 -16.6226,16.6563 z"
       id="path391"
       inkscape:connector-curvature="0"
       style="fill:#ffffff;fill-rule:nonzero;stroke:none;stroke-width:0.5507825" />
    <path
       d="m 1997.1484,1468.0591 c -0.7355,-0.3685 -1.1032,-1.0318 -1.1032,-1.6951 0,-1.3266 1.1768,-2.211 2.7214,-2.211 1.8387,0 2.5742,1.0318 2.5742,1.9899 0,0.6633 -0.3677,1.3266 -1.1032,1.6951 v 0 c 0.7355,0.2948 1.471,0.9581 1.471,1.9162 0,1.4003 -1.1768,2.3585 -3.0156,2.3585 -1.9859,0 -2.8685,-1.1056 -2.8685,-2.1374 -0.073,-0.8107 0.4413,-1.474 1.3239,-1.9162 z m 2.6479,1.9162 c 0,-0.6633 -0.5149,-1.1055 -1.2504,-1.2529 -0.5884,0.1474 -0.9562,0.5896 -0.9562,1.1792 0,0.5896 0.4413,1.1055 1.1033,1.1055 0.662,0 1.1033,-0.4422 1.1033,-1.0318 z m -2.0595,-3.685 c 0,0.5159 0.4413,0.8844 1.1033,1.0318 0.4413,-0.1474 0.8091,-0.5159 0.8091,-0.9581 0,-0.5159 -0.2942,-0.9581 -0.9562,-0.9581 -0.662,0 -0.9562,0.4422 -0.9562,0.8844 z"
       id="path395"
       inkscape:connector-curvature="0"
       style="fill:#2f3a3f;fill-rule:nonzero;stroke:none;stroke-width:0.5507825" />
    <path
       d="m 2008.2547,1468.2065 c 0,2.4321 -0.9562,4.0536 -2.9421,4.0536 -1.9859,0 -2.8685,-1.8426 -2.942,-3.9799 0,-2.2847 0.9561,-4.0535 2.942,-4.0535 2.133,-0.074 2.9421,1.8425 2.9421,3.9798 z m -4.0454,0 c 0,1.7688 0.4414,2.6532 1.1033,2.6532 0.7355,0 1.1033,-0.8844 1.1033,-2.6532 0,-1.6951 -0.3678,-2.6532 -1.1033,-2.6532 -0.6619,0 -1.1033,0.8107 -1.1033,2.6532 z"
       id="path397"
       inkscape:connector-curvature="0"
       style="fill:#2f3a3f;fill-rule:nonzero;stroke:none;stroke-width:0.5507825" />
    <path
       d="m 2013.2562,1466.5114 c 0,1.6214 -1.0298,2.5058 -2.133,2.5058 -1.1769,0 -2.133,-0.8844 -2.133,-2.3584 0,-1.4003 0.8826,-2.4321 2.2065,-2.4321 1.2504,-0.074 2.0595,0.9581 2.0595,2.2847 z m -2.9421,0.074 c 0,0.8107 0.2942,1.4003 0.8091,1.4003 0.5148,0 0.7355,-0.5159 0.7355,-1.4003 0,-0.8107 -0.2207,-1.4003 -0.8091,-1.4003 -0.5148,0 -0.7355,0.5896 -0.7355,1.4003 z m 0.8826,5.675 4.4866,-8.0334 h 0.9562 l -4.4866,8.0334 z m 7.6493,-2.5059 c 0,1.6214 -1.0297,2.5059 -2.1329,2.5059 -1.1769,0 -2.133,-0.8845 -2.133,-2.3585 0,-1.4003 0.8826,-2.4321 2.2065,-2.4321 1.3239,-0.074 2.0594,0.9581 2.0594,2.2847 z m -2.942,0.074 c 0,0.8107 0.2942,1.4003 0.8091,1.4003 0.5148,0 0.7355,-0.5159 0.7355,-1.4003 0,-0.8107 -0.2207,-1.4003 -0.8091,-1.4003 -0.5148,0 -0.7355,0.5896 -0.7355,1.4003 z"
       id="path399"
       inkscape:connector-curvature="0"
       style="fill:#2f3a3f;fill-rule:nonzero;stroke:none;stroke-width:0.5507825" />
    <path
       style="fill:#35d189;fill-opacity:1;fill-rule:evenodd;stroke:none;stroke-width:0.5507825"
       inkscape:connector-curvature="0"
       id="path403"
       d="m 2007.2249,1484.7892 c -9.1939,0 -16.6226,-7.4438 -16.6226,-16.6563 0,-9.2126 7.4287,-16.6563 16.6226,-16.6563 9.1939,0 16.6226,7.4437 16.6226,16.6563 0,4.5694 -1.8388,8.7703 -4.8544,11.792 l 7.2816,7.2964 c 4.8544,-4.8642 7.87,-11.6447 7.87,-19.0884 0,-14.8875 -12.0624,-26.9744 -26.9198,-26.9744 -14.8573,0 -26.9197,12.0869 -26.9197,26.9744 0,14.8875 12.0624,26.9743 26.9197,26.9743 z" />
    <path
       d="m 2073.2249,1441.2322 c -14.8573,0 -26.9197,12.0869 -26.9197,26.9744 0,14.8875 12.0624,26.9743 26.9197,26.9743 14.8574,0 26.9198,-12.0868 26.9198,-26.9743 0,-14.8875 -12.0624,-26.9744 -26.9198,-26.9744 z m 0,43.557 c -9.1939,0 -16.6226,-7.4438 -16.6226,-16.6563 0,-9.2126 7.4287,-16.6563 16.6226,-16.6563 9.1939,0 16.6226,7.4437 16.6226,16.6563 0,9.2125 -7.4287,16.6563 -16.6226,16.6563 z"
       id="path407"
       inkscape:connector-curvature="0"
       style="fill:#ffffff;fill-rule:nonzero;stroke:none;stroke-width:0.5507825" />
    <path
       d="m 2066.7524,1465.627 c -0.2206,0 -0.4413,0 -0.7355,0 -1.6181,0.1474 -2.3536,0.9581 -2.5007,1.8425 v 0 c 0.3677,-0.3685 0.9562,-0.5896 1.6181,-0.5896 1.3239,0 2.4272,0.9581 2.4272,2.5058 0,1.5477 -1.1768,2.8007 -2.8685,2.8007 -2.0594,0 -3.0891,-1.5478 -3.0891,-3.3903 0,-1.474 0.5148,-2.6532 1.3974,-3.4639 0.7355,-0.737 1.7653,-1.1055 3.0156,-1.1055 0.3678,0 0.5884,0 0.7355,0 z m -0.9561,3.9061 c 0,-0.737 -0.3678,-1.3266 -1.1768,-1.3266 -0.5149,0 -0.8827,0.2948 -1.0298,0.6633 -0.073,0.074 -0.073,0.2211 -0.073,0.4422 0,0.8107 0.4413,1.5477 1.2504,1.5477 0.5884,0 1.0297,-0.5159 1.0297,-1.3266 z"
       id="path411"
       inkscape:connector-curvature="0"
       style="fill:#2f3a3f;fill-rule:nonzero;stroke:none;stroke-width:0.5507825" />
    <path
       d="m 2074.1811,1468.2065 c 0,2.4321 -0.9561,4.0536 -2.942,4.0536 -1.9859,0 -2.8685,-1.8426 -2.9421,-3.9799 0,-2.2847 0.9562,-4.0535 2.9421,-4.0535 2.133,-0.074 2.942,1.8425 2.942,3.9798 z m -4.0453,0 c 0,1.7688 0.4413,2.6532 1.1033,2.6532 0.7355,0 1.1032,-0.8844 1.1032,-2.6532 0,-1.6951 -0.3677,-2.6532 -1.1032,-2.6532 -0.5884,0 -1.1033,0.8107 -1.1033,2.6532 z"
       id="path413"
       inkscape:connector-curvature="0"
       style="fill:#2f3a3f;fill-rule:nonzero;stroke:none;stroke-width:0.5507825" />
    <path
       d="m 2079.1826,1466.5114 c 0,1.6214 -1.0297,2.5058 -2.133,2.5058 -1.1768,0 -2.133,-0.8844 -2.133,-2.3584 0,-1.4003 0.8826,-2.4321 2.2066,-2.4321 1.3239,-0.074 2.0594,0.9581 2.0594,2.2847 z m -2.942,0.074 c 0,0.8107 0.2942,1.4003 0.809,1.4003 0.5149,0 0.7355,-0.5159 0.7355,-1.4003 0,-0.8107 -0.2206,-1.4003 -0.809,-1.4003 -0.4413,0 -0.7355,0.5896 -0.7355,1.4003 z m 0.8826,5.675 4.4866,-8.0334 h 0.9562 l -4.4867,8.0334 z m 7.6493,-2.5059 c 0,1.6214 -1.0297,2.5059 -2.133,2.5059 -1.1768,0 -2.133,-0.8845 -2.133,-2.3585 0,-1.4003 0.8826,-2.4321 2.2066,-2.4321 1.3239,-0.074 2.0594,0.9581 2.0594,2.2847 z m -2.8685,0.074 c 0,0.8107 0.2942,1.4003 0.8091,1.4003 0.5148,0 0.7355,-0.5159 0.7355,-1.4003 0,-0.8107 -0.2207,-1.4003 -0.8091,-1.4003 -0.5148,0 -0.7355,0.5896 -0.7355,1.4003 z"
       id="path415"
       inkscape:connector-curvature="0"
       style="fill:#2f3a3f;fill-rule:nonzero;stroke:none;stroke-width:0.5507825" />
    <path
       style="fill:#1c183e;fill-rule:evenodd;stroke:none;stroke-width:0.5507825"
       inkscape:connector-curvature="0"
       id="path419"
       d="m 2073.2249,1484.7892 c -9.1939,0 -16.6226,-7.4438 -16.6226,-16.6563 0,-9.2126 7.4287,-16.6563 16.6226,-16.6563 4.5602,0 8.7526,1.8425 11.7682,4.8642 l 7.2816,-7.2964 c -4.8544,-4.8642 -11.6211,-7.8859 -19.0498,-7.8859 -14.8573,0 -26.9197,12.0869 -26.9197,26.9744 0,14.8875 12.0624,26.9743 26.9197,26.9743 z" />
    <path
       d="m 2139.1514,1441.2322 c -14.8574,0 -26.9198,12.0869 -26.9198,26.9744 0,14.8875 12.0624,26.9743 26.9198,26.9743 14.8573,0 26.9197,-12.0868 26.9197,-26.9743 0,-14.8875 -12.0624,-26.9744 -26.9197,-26.9744 z m 0,43.557 c -9.1939,0 -16.6226,-7.4438 -16.6226,-16.6563 0,-9.2126 7.4287,-16.6563 16.6226,-16.6563 9.1939,0 16.6225,7.4437 16.6225,16.6563 0,9.2125 -7.4286,16.6563 -16.6225,16.6563 z"
       id="path423"
       inkscape:connector-curvature="0"
       style="fill:#ffffff;fill-rule:nonzero;stroke:none;stroke-width:0.5507825" />
    <path
       d="m 2130.9872,1472.1127 v -1.8426 h -3.4569 v -1.1792 l 2.9421,-4.7168 h 2.2065 v 4.5694 h 0.9562 v 1.4003 h -0.9562 v 1.8426 h -1.6917 z m 0,-3.2429 v -1.6951 c 0,-0.4422 0,-0.9581 0.074,-1.474 v 0 c -0.2207,0.5159 -0.4413,0.9581 -0.7356,1.474 l -1.0297,1.6951 v 0 z"
       id="path427"
       inkscape:connector-curvature="0"
       style="fill:#2f3a3f;fill-rule:nonzero;stroke:none;stroke-width:0.5507825" />
    <path
       d="m 2140.1076,1468.2065 c 0,2.4321 -0.9562,4.0536 -2.9421,4.0536 -1.9859,0 -2.8685,-1.8426 -2.942,-3.9799 0,-2.2847 0.9561,-4.0535 2.942,-4.0535 2.133,-0.074 2.9421,1.8425 2.9421,3.9798 z m -3.9718,0 c 0,1.7688 0.4413,2.6532 1.1033,2.6532 0.7355,0 1.1032,-0.8844 1.1032,-2.6532 0,-1.6951 -0.3677,-2.6532 -1.1032,-2.6532 -0.662,0 -1.1033,0.8107 -1.1033,2.6532 z"
       id="path429"
       inkscape:connector-curvature="0"
       style="fill:#2f3a3f;fill-rule:nonzero;stroke:none;stroke-width:0.5507825" />
    <path
       d="m 2145.1091,1466.5114 c 0,1.6214 -1.0298,2.5058 -2.133,2.5058 -1.1769,0 -2.133,-0.8844 -2.133,-2.3584 0,-1.4003 0.8826,-2.4321 2.2065,-2.4321 1.3239,-0.074 2.0595,0.9581 2.0595,2.2847 z m -2.8685,0.074 c 0,0.8107 0.2942,1.4003 0.809,1.4003 0.5149,0 0.7355,-0.5159 0.7355,-1.4003 0,-0.8107 -0.2206,-1.4003 -0.809,-1.4003 -0.5149,0 -0.7355,0.5896 -0.7355,1.4003 z m 0.809,5.675 4.4866,-8.0334 h 0.9562 l -4.4866,8.0334 z m 7.6493,-2.5059 c 0,1.6214 -1.0297,2.5059 -2.1329,2.5059 -1.1769,0 -2.133,-0.8845 -2.133,-2.3585 0,-1.4003 0.8826,-2.4321 2.2065,-2.4321 1.3239,-0.074 2.0594,0.9581 2.0594,2.2847 z m -2.8685,0.074 c 0,0.8107 0.2943,1.4003 0.8091,1.4003 0.5149,0 0.7355,-0.5159 0.7355,-1.4003 0,-0.8107 -0.2206,-1.4003 -0.809,-1.4003 -0.5149,0 -0.7356,0.5896 -0.7356,1.4003 z"
       id="path431"
       inkscape:connector-curvature="0"
       style="fill:#2f3a3f;fill-rule:nonzero;stroke:none;stroke-width:0.5507825" />
    <path
       style="fill:#35d189;fill-opacity:1;fill-rule:evenodd;stroke:none;stroke-width:0.5507825"
       inkscape:connector-curvature="0"
       id="path435"
       d="m 2139.1514,1484.7892 v 0 c -9.1939,0 -16.6226,-7.4438 -16.6226,-16.6563 0,-4.5695 1.8388,-8.7704 4.8544,-11.7921 l -7.2816,-7.2964 c -4.8544,4.8643 -7.87,11.6447 -7.87,19.0885 0,14.8875 12.0624,26.9743 26.9198,26.9743 v 0 z" />
    <g
       transform="translate(1974.5719,1394.9471)"
       id="g455"
       style="fill:none;fill-rule:evenodd;stroke:none;stroke-width:0.5507825">
      <rect
         style="fill:#e7e7e7;stroke-width:0.5507825"
         height="15.501214"
         width="317.48468"
         y="0.38592234"
         x="0.51352155"
         id="rect445" />
      <g
         style="fill:#1c183e;stroke-width:0.5507825"
         id="g453"
         transform="translate(5.135215,3.859223)">
        <path
           inkscape:connector-curvature="0"
           id="path447"
           d="m 7.7028232,4.309466 c 0,2.1225728 -1.668945,3.7949029 -3.7230312,3.7949029 -2.0540862,0 -3.72303123,-1.6723301 -3.72303123,-3.7949029 0,-2.1225728 1.66894503,-3.79490289 3.72303123,-3.79490289 2.1182763,0 3.7230312,1.67233009 3.7230312,3.79490289 z"
           style="stroke-width:0.5507825" />
        <path
           inkscape:connector-curvature="0"
           id="path449"
           d="m 19.706389,4.309466 c 0,2.1225728 -1.668945,3.7949029 -3.723031,3.7949029 -2.054086,0 -3.723031,-1.6723301 -3.723031,-3.7949029 0,-2.1225728 1.668945,-3.79490289 3.723031,-3.79490289 2.054086,0 3.723031,1.67233009 3.723031,3.79490289 z"
           style="stroke-width:0.5507825" />
        <path
           inkscape:connector-curvature="0"
           id="path451"
           d="m 31.645765,4.309466 c 0,2.1225728 -1.668945,3.7949029 -3.723031,3.7949029 -2.054086,0 -3.723031,-1.6723301 -3.723031,-3.7949029 0,-2.1225728 1.668945,-3.79490289 3.723031,-3.79490289 2.054086,0 3.723031,1.67233009 3.723031,3.79490289 z"
           style="stroke-width:0.5507825" />
      </g>
    </g>
    <g
       id="g499"
       transform="translate(2160.0816,1394.9471)"
       style="fill:none;fill-rule:evenodd;stroke:none;stroke-width:0.5507825">
      <rect
         style="fill:#2a2456;stroke-width:0.5507825"
         height="207.56189"
         width="132.10342"
         y="0.57888347"
         x="0.38514116"
         id="rect457" />
      <g
         id="g497"
         transform="translate(12.196137,27.014563)"
         style="stroke-width:0.5507825">
        <path
           style="fill:#ffffff;stroke-width:0.5507825"
           inkscape:connector-curvature="0"
           id="path459"
           d="m 17.331352,4.9526699 c 0,2.5728155 -1.027043,4.631068 -2.310847,4.631068 H 2.3750371 c -1.2838038,0 -2.31084691,-2.0582525 -2.31084691,-4.631068 v 0 c 0,-2.5728155 1.02704311,-4.63106796 2.31084691,-4.63106796 H 15.020505 c 1.283804,0.0643204 2.310847,2.12257286 2.310847,4.63106796 z" />
        <path
           style="fill:#ffa900;stroke-width:0.5507825"
           inkscape:connector-curvature="0"
           id="path461"
           d="m 24.392273,17.495146 c 0,2.572815 -1.027043,4.631068 -2.310847,4.631068 H 9.4359584 c -1.2838039,0 -2.310847,-2.058253 -2.310847,-4.631068 v 0 c 0,-2.572816 1.0270431,-4.631068 2.310847,-4.631068 H 22.081426 c 1.283804,0 2.310847,2.058252 2.310847,4.631068 z" />
        <path
           style="fill:#ffffff;stroke-width:0.5507825"
           inkscape:connector-curvature="0"
           id="path463"
           d="m 66.886181,29.973301 c 0,2.572815 -1.027043,4.631068 -2.310847,4.631068 H 19.513819 c -1.283804,0 -2.310847,-2.058253 -2.310847,-4.631068 v 0 c 0,-2.572816 1.027043,-4.631068 2.310847,-4.631068 h 45.061515 c 1.283804,0 2.310847,2.058252 2.310847,4.631068 z" />
        <path
           style="fill:#ffd600;stroke-width:0.5507825"
           inkscape:connector-curvature="0"
           id="path465"
           d="m 90.443982,42.451456 c 0,2.572816 -1.027043,4.631068 -2.310847,4.631068 H 19.513819 c -1.283804,0 -2.310847,-2.058252 -2.310847,-4.631068 v 0 c 0,-2.572815 1.027043,-4.631068 2.310847,-4.631068 h 68.619316 c 1.283804,0 2.310847,2.058253 2.310847,4.631068 z" />
        <path
           style="fill:#c6c8c8;stroke-width:0.5507825"
           inkscape:connector-curvature="0"
           id="path467"
           d="m 108.09628,54.929612 c 0,2.572815 -1.02704,4.631068 -2.31084,4.631068 H 19.513819 c -1.283804,0 -2.310847,-2.058253 -2.310847,-4.631068 v 0 c 0,-2.572816 1.027043,-4.631068 2.310847,-4.631068 h 86.335811 c 1.21961,0.06432 2.24665,2.122572 2.24665,4.631068 z" />
        <path
           style="fill:#ffa900;stroke-width:0.5507825"
           inkscape:connector-curvature="0"
           id="path469"
           d="m 39.091828,67.472087 c 0,2.572816 -1.027043,4.631068 -2.310847,4.631068 H 9.3717682 c -1.2838039,0 -2.310847,-2.058252 -2.310847,-4.631068 v 0 c 0,-2.572815 1.0270431,-4.631068 2.310847,-4.631068 H 36.780981 c 1.283804,0 2.310847,2.058253 2.310847,4.631068 z" />
        <g
           id="g475"
           transform="translate(16.68945,75.254854)"
           style="stroke-width:0.5507825">
          <path
             style="fill:#c6c8c8;stroke-width:0.5507825"
             inkscape:connector-curvature="0"
             id="path471"
             d="m 17.780683,4.6953883 c 0,2.5728156 -1.027043,4.631068 -2.310846,4.631068 H 2.8243685 c -1.2838039,0 -2.31084695,-2.0582524 -2.31084695,-4.631068 v 0 c 0,-2.5728155 1.02704305,-4.63106791 2.31084695,-4.63106791 H 15.469837 c 1.283803,0 2.310846,2.05825241 2.310846,4.63106791 z" />
          <path
             style="fill:#ffffff;stroke-width:0.5507825"
             inkscape:connector-curvature="0"
             id="path473"
             d="m 36.267459,4.6953883 c 0,2.5728156 -1.027043,4.631068 -2.310847,4.631068 H 21.311144 c -1.283804,0 -2.310847,-2.0582524 -2.310847,-4.631068 v 0 c 0,-2.5728155 1.027043,-4.63106791 2.310847,-4.63106791 h 12.645468 c 1.283804,0 2.310847,2.05825241 2.310847,4.63106791 z" />
        </g>
        <path
           style="fill:#ffd600;stroke-width:0.5507825"
           inkscape:connector-curvature="0"
           id="path477"
           d="m 46.216939,92.428398 c 0,2.572816 -1.027043,4.631068 -2.310847,4.631068 H 19.449628 c -1.283803,0 -2.310846,-2.058252 -2.310846,-4.631068 v 0 c 0,-2.572816 1.027043,-4.631068 2.310846,-4.631068 h 24.456464 c 1.283804,0 2.310847,2.058252 2.310847,4.631068 z" />
        <path
           style="fill:#ffffff;stroke-width:0.5507825"
           inkscape:connector-curvature="0"
           id="path479"
           d="m 58.027935,104.90655 c 0,2.57282 -1.027043,4.63107 -2.310847,4.63107 H 19.513819 c -1.283804,0 -2.310847,-2.05825 -2.310847,-4.63107 v 0 c 0,-2.57281 1.027043,-4.63106 2.310847,-4.63106 h 36.203269 c 1.283804,0.0643 2.310847,2.12257 2.310847,4.63106 z" />
        <path
           style="fill:#c6c8c8;stroke-width:0.5507825"
           inkscape:connector-curvature="0"
           id="path481"
           d="m 34.470134,117.44903 c 0,2.57282 -1.027043,4.63107 -2.310847,4.63107 H 19.513819 c -1.283804,0 -2.310847,-2.05825 -2.310847,-4.63107 v 0 c 0,-2.57282 1.027043,-4.63107 2.310847,-4.63107 h 12.645468 c 1.283804,0 2.310847,2.05825 2.310847,4.63107 z" />
        <g
           id="g489"
           transform="translate(16.68945,124.78155)"
           style="stroke-width:0.5507825">
          <path
             style="fill:#ffa900;stroke-width:0.5507825"
             inkscape:connector-curvature="0"
             id="path483"
             d="m 17.780683,5.1456311 c 0,2.5728155 -1.027043,4.6310679 -2.310846,4.6310679 H 2.8243685 c -1.2838039,0 -2.31084695,-2.0582524 -2.31084695,-4.6310679 v 0 c 0,-2.5728156 1.02704305,-4.63106799 2.31084695,-4.63106799 H 15.469837 c 1.283803,0 2.310846,2.05825239 2.310846,4.63106799 z" />
          <path
             style="fill:#ffd600;stroke-width:0.5507825"
             inkscape:connector-curvature="0"
             id="path485"
             d="m 76.001189,5.1456311 c 0,2.5728155 -1.027043,4.6310679 -2.310847,4.6310679 H 21.246954 c -1.283804,0 -2.310847,-2.0582524 -2.310847,-4.6310679 v 0 c 0,-2.5728156 1.027043,-4.63106799 2.310847,-4.63106799 h 52.443388 c 1.283804,0 2.310847,2.05825239 2.310847,4.63106799 z" />
          <path
             style="fill:#ffffff;stroke-width:0.5507825"
             inkscape:connector-curvature="0"
             id="path487"
             d="m 97.376523,5.1456311 c 0,2.5728155 -1.027043,4.6310679 -2.310847,4.6310679 H 79.467459 c -1.283804,0 -2.310847,-2.0582524 -2.310847,-4.6310679 v 0 c 0,-2.5728156 1.027043,-4.63106799 2.310847,-4.63106799 h 15.598217 c 1.283804,0 2.310847,2.05825239 2.310847,4.63106799 z" />
        </g>
        <path
           style="fill:#c6c8c8;stroke-width:0.5507825"
           inkscape:connector-curvature="0"
           id="path491"
           d="m 24.392273,142.40534 c 0,2.57281 -1.027043,4.63107 -2.310847,4.63107 H 9.4359584 c -1.2838039,0 -2.310847,-2.05826 -2.310847,-4.63107 v 0 c 0,-2.57282 1.0270431,-4.63107 2.310847,-4.63107 H 22.081426 c 1.283804,0 2.310847,2.05825 2.310847,4.63107 z" />
        <path
           style="fill:#ffd600;stroke-width:0.5507825"
           inkscape:connector-curvature="0"
           id="path493"
           d="m 34.470134,154.88349 c 0,2.57282 -1.027043,4.63107 -2.310847,4.63107 H 19.513819 c -1.283804,0 -2.310847,-2.05825 -2.310847,-4.63107 v 0 c 0,-2.57281 1.027043,-4.63106 2.310847,-4.63106 h 12.645468 c 1.283804,0.0643 2.310847,2.12257 2.310847,4.63106 z" />
        <path
           style="fill:#c6c8c8;stroke-width:0.5507825"
           inkscape:connector-curvature="0"
           id="path495"
           d="m 66.886181,167.42597 c 0,2.57282 -1.027043,4.63107 -2.310847,4.63107 H 19.513819 c -1.283804,0 -2.310847,-2.05825 -2.310847,-4.63107 v 0 c 0,-2.57282 1.027043,-4.63107 2.310847,-4.63107 h 45.061515 c 1.283804,0 2.310847,2.05825 2.310847,4.63107 z" />
      </g>
    </g>
  </g>
  <text
     style="font-style:normal;font-variant:normal;font-weight:normal;font-stretch:normal;font-size:128px;font-family:'Abril Fatface';-inkscape-font-specification:'Abril Fatface, Normal';font-variant-ligatures:normal;font-variant-caps:normal;font-variant-numeric:normal;font-feature-settings:normal;text-align:start;writing-mode:lr-tb;text-anchor:start;fill:#1c183e;fill-rule:evenodd;stroke:none;stroke-width:1"
     line-spacing="70"
     font-weight="700"
     font-size="60"
     id="Veri-analitii-ve-G"
     y="451.38232"
     x="127.3959">
    <tspan
       sodipodi:role="line"
       id="tspan3042"
       x="127.3959"
       y="451.38232">Veri Analitii ve</tspan>
    <tspan
       sodipodi:role="line"
       id="tspan3044"
       x="127.3959"
       y="611.38232">Grselletirme Atlyesi</tspan>
  </text>
  <g
     id="g3075"
     transform="translate(-4.1346981,-8)">
    <g
       transform="translate(-12.856487,-530.33009)"
       id="g3055">
      <rect
         style="fill:#38d68d;fill-opacity:1;fill-rule:evenodd;stroke:none;stroke-width:1"
         height="59.999996"
         width="320"
         y="770.41016"
         x="145.05908"
         id="rect26" />
      <text
         style="font-style:normal;font-variant:normal;font-weight:bold;font-stretch:normal;font-size:37.33333206px;font-family:'Source Sans Pro';-inkscape-font-specification:'Source Sans Pro, Bold';font-variant-ligatures:normal;font-variant-caps:normal;font-variant-numeric:normal;font-feature-settings:normal;text-align:start;writing-mode:lr-tb;text-anchor:start;fill:#1c183e;fill-rule:evenodd;stroke:none;stroke-width:1"
         line-spacing="32"
         font-weight="700"
         font-size="16"
         id="#kendinicinkodla"
         y="703.66351"
         x="71.490509">
        <tspan
           id="tspan28"
           y="813.66351"
           x="163.49051"
           style="font-style:normal;font-variant:normal;font-weight:bold;font-stretch:normal;font-size:37.33333206px;font-family:'Source Sans Pro';-inkscape-font-specification:'Source Sans Pro, Bold';font-variant-ligatures:normal;font-variant-caps:normal;font-variant-numeric:normal;font-feature-settings:normal;text-align:start;writing-mode:lr-tb;text-anchor:start">#kendinicinkodla</tspan>
      </text>
    </g>
    <g
       transform="translate(-32.856487,-530.33009)"
       id="g3064">
      <g
         id="g3058">
        <rect
           style="fill:#38d68d;fill-opacity:1;fill-rule:evenodd;stroke:none;stroke-width:1"
           height="59.624996"
           width="318"
           y="770.59766"
           x="504.05908"
           id="rect3046" />
      </g>
      <text
         x="423.84875"
         y="704.34186"
         id="text3050"
         font-size="16"
         font-weight="700"
         line-spacing="32"
         style="font-style:normal;font-variant:normal;font-weight:bold;font-stretch:normal;font-size:37.07939529px;font-family:'Source Sans Pro';-inkscape-font-specification:'Source Sans Pro, Bold';font-variant-ligatures:normal;font-variant-caps:normal;font-variant-numeric:normal;font-feature-settings:normal;text-align:start;writing-mode:lr-tb;text-anchor:start;fill:#1c183e;fill-rule:evenodd;stroke:none;stroke-width:1">
        <tspan
           style="font-style:normal;font-variant:normal;font-weight:bold;font-stretch:normal;font-size:37.07939529px;font-family:'Source Sans Pro';-inkscape-font-specification:'Source Sans Pro, Bold';font-variant-ligatures:normal;font-variant-caps:normal;font-variant-numeric:normal;font-feature-settings:normal;text-align:start;writing-mode:lr-tb;text-anchor:start;stroke-width:1"
           x="515.22296"
           y="813.59369"
           id="tspan3048">@kendinicinkodla</tspan>
      </text>
    </g>
  </g>
  <g
     id="g1039"
     transform="translate(0,-8)">
    <text
       x="131.79236"
       y="757.11456"
       id="Tarih:-1-2-8-Aralk"
       font-size="20"
       font-weight="bold"
       line-spacing="28"
       style="font-style:normal;font-variant:normal;font-weight:bold;font-stretch:normal;font-size:37.33333206px;font-family:'Source Sans Pro';-inkscape-font-specification:'Source Sans Pro, Bold';font-variant-ligatures:normal;font-variant-caps:normal;font-variant-numeric:normal;font-feature-settings:normal;text-align:start;writing-mode:lr-tb;text-anchor:start;fill:#1c183e;fill-rule:evenodd;stroke:none;stroke-width:1">
      <tspan
         id="tspan4069"
         sodipodi:role="line"
         x="131.79236"
         y="757.11456">Tarih:</tspan>
    </text>
    <text
       style="font-style:normal;font-variant:normal;font-weight:normal;font-stretch:normal;font-size:37.33333206px;font-family:'Source Sans Pro';-inkscape-font-specification:'Source Sans Pro, Normal';font-variant-ligatures:normal;font-variant-caps:normal;font-variant-numeric:normal;font-feature-settings:normal;text-align:start;writing-mode:lr-tb;text-anchor:start;fill:#1c183e;fill-rule:evenodd;stroke:none;stroke-width:1"
       line-spacing="28"
       font-weight="bold"
       font-size="20"
       id="text4065"
       y="819.11456"
       x="131.79236">
      <tspan
         y="819.11456"
         x="131.79236"
         id="tspan4067"
         sodipodi:role="line">30 Kasm-1 Aralk (2 gn)</tspan>
    </text>
  </g>
  <g
     id="g1045"
     transform="translate(0,-8)">
    <text
       style="font-style:normal;font-variant:normal;font-weight:bold;font-stretch:normal;font-size:37.33333206px;font-family:'Source Sans Pro';-inkscape-font-specification:'Source Sans Pro, Bold';font-variant-ligatures:normal;font-variant-caps:normal;font-variant-numeric:normal;font-feature-settings:normal;text-align:start;writing-mode:lr-tb;text-anchor:start;fill:#1c183e;fill-rule:evenodd;stroke:none;stroke-width:1"
       line-spacing="28"
       font-weight="bold"
       font-size="20"
       id="text4073"
       y="757.11456"
       x="661.79236">
      <tspan
         y="757.11456"
         x="661.79236"
         sodipodi:role="line"
         id="tspan4071">Yer:</tspan>
    </text>
    <text
       x="661.79236"
       y="819.11456"
       id="text4077"
       font-size="20"
       font-weight="bold"
       line-spacing="28"
       style="font-style:normal;font-variant:normal;font-weight:normal;font-stretch:normal;font-size:37.33333333px;font-family:'Source Sans Pro';-inkscape-font-specification:'Source Sans Pro, Normal';font-variant-ligatures:normal;font-variant-caps:normal;font-variant-numeric:normal;font-feature-settings:normal;text-align:start;writing-mode:lr;text-anchor:start;fill:#1c183e;fill-rule:evenodd;stroke:none;stroke-width:1;">
      <tspan
         sodipodi:role="line"
         id="tspan1007">Krklareli Baheehir Koleji</tspan>
    </text>
  </g>
  <g
     id="g1051"
     transform="translate(0,-8)">
    <text
       style="font-style:normal;font-variant:normal;font-weight:bold;font-stretch:normal;font-size:37.33333206px;font-family:'Source Sans Pro';-inkscape-font-specification:'Source Sans Pro, Bold';font-variant-ligatures:normal;font-variant-caps:normal;font-variant-numeric:normal;font-feature-settings:normal;text-align:start;writing-mode:lr-tb;text-anchor:start;fill:#1c183e;fill-rule:evenodd;stroke:none;stroke-width:1"
       line-spacing="28"
       font-weight="bold"
       font-size="20"
       id="text4081"
       y="907.11456"
       x="131.79236">
      <tspan
         y="907.11456"
         x="131.79236"
         sodipodi:role="line"
         id="tspan4079">Eitmenler:</tspan>
    </text>
    <text
       x="131.79236"
       y="969.11462"
       id="text4085"
       font-size="20"
       font-weight="bold"
       line-spacing="28"
       style="font-style:normal;font-variant:normal;font-weight:normal;font-stretch:normal;font-size:37.33333206px;font-family:'Source Sans Pro';-inkscape-font-specification:'Source Sans Pro, Normal';font-variant-ligatures:normal;font-variant-caps:normal;font-variant-numeric:normal;font-feature-settings:normal;text-align:start;writing-mode:lr-tb;text-anchor:start;fill:#1c183e;fill-rule:evenodd;stroke:none;stroke-width:1">
      <tspan
         y="969.11462"
         x="131.79236"
         id="tspan4087"
         sodipodi:role="line">Aye Tosun, rem lek, Glin Baykal</tspan>
    </text>
  </g>
</svg>
