<?xml version="1.0" encoding="UTF-8" standalone="no"?>
<!-- Created with Inkscape (http://www.inkscape.org/) -->

<svg
   xmlns:dc="http://purl.org/dc/elements/1.1/"
   xmlns:cc="http://creativecommons.org/ns#"
   xmlns:rdf="http://www.w3.org/1999/02/22-rdf-syntax-ns#"
   xmlns:svg="http://www.w3.org/2000/svg"
   xmlns="http://www.w3.org/2000/svg"
   xmlns:xlink="http://www.w3.org/1999/xlink"
   xmlns:sodipodi="http://sodipodi.sourceforge.net/DTD/sodipodi-0.dtd"
   xmlns:inkscape="http://www.inkscape.org/namespaces/inkscape"
   id="svg2"
   sodipodi:modified="TRUE"
   viewBox="0 0 149.99999 119.99999"
   inkscape:export-ydpi="90"
   inkscape:export-xdpi="90"
   version="1.0"
   inkscape:output_extension="org.inkscape.output.svg.inkscape"
   sodipodi:docname="veri-analitigi.svg"
   inkscape:export-filename="/media/disk/gfx/cliparts/released/graphics_rounded.png"
   inkscape:version="0.92.3 (2405546, 2018-03-11)"
   sodipodi:version="0.32"
   width="160"
   height="128">
  <defs
     id="defs4">
    <linearGradient
       id="linearGradient3588">
      <stop
         id="stop3590"
         style="stop-color:#729fcf"
         offset="0" />
      <stop
         id="stop3592"
         style="stop-color:#204a87"
         offset="1" />
    </linearGradient>
    <linearGradient
       id="linearGradient3258">
      <stop
         id="stop3262"
         style="stop-color:#4e9a06"
         offset="0" />
      <stop
         id="stop3264"
         style="stop-color:#8ae234"
         offset="1" />
    </linearGradient>
    <linearGradient
       id="linearGradient3248">
      <stop
         id="stop3284"
         style="stop-color:#c91414"
         offset="0" />
      <stop
         id="stop3252"
         style="stop-color:#ef2929"
         offset="1" />
    </linearGradient>
    <linearGradient
       id="linearGradient2434">
      <stop
         id="stop2436"
         style="stop-color:#f57900"
         offset="0" />
      <stop
         id="stop2438"
         style="stop-color:#fcaf3e"
         offset="1" />
    </linearGradient>
    <linearGradient
       id="linearGradient2480"
       y2="34"
       xlink:href="#linearGradient3248"
       gradientUnits="userSpaceOnUse"
       x2="8"
       gradientTransform="matrix(1,0,0,0.66667,39,15.333)"
       y1="44.5"
       x1="17"
       inkscape:collect="always" />
    <linearGradient
       id="linearGradient2483"
       y2="37"
       xlink:href="#linearGradient3248"
       gradientUnits="userSpaceOnUse"
       x2="11"
       gradientTransform="matrix(-1,0,0,-0.66667,64,75.667)"
       y1="34"
       x1="8"
       inkscape:collect="always" />
    <linearGradient
       id="linearGradient2486"
       y2="44.5"
       xlink:href="#linearGradient2434"
       gradientUnits="userSpaceOnUse"
       x2="17"
       gradientTransform="matrix(-1,0,0,-1.2381,51,95.095)"
       y1="34"
       x1="6"
       inkscape:collect="always" />
    <linearGradient
       id="linearGradient2489"
       y2="34"
       xlink:href="#linearGradient2434"
       gradientUnits="userSpaceOnUse"
       x2="8"
       gradientTransform="matrix(1,0,0,1.2381,26,-20.095)"
       y1="44.5"
       x1="19"
       inkscape:collect="always" />
    <linearGradient
       id="linearGradient2492"
       y2="44.5"
       xlink:href="#linearGradient3258"
       gradientUnits="userSpaceOnUse"
       x2="17"
       gradientTransform="matrix(-1,0,0,-1.7143,38,111.29)"
       y1="34"
       x1="8"
       inkscape:collect="always" />
    <linearGradient
       id="linearGradient2495"
       y2="34"
       xlink:href="#linearGradient3258"
       gradientUnits="userSpaceOnUse"
       x2="8"
       gradientTransform="matrix(1,0,0,1.5238,13,-42.81)"
       y1="44.5"
       x1="17"
       inkscape:collect="always" />
    <linearGradient
       id="linearGradient2498"
       y2="34"
       xlink:href="#linearGradient3588"
       gradientUnits="userSpaceOnUse"
       x2="8"
       gradientTransform="rotate(180,12.5,43.5)"
       y1="44"
       x1="17"
       inkscape:collect="always" />
    <linearGradient
       id="linearGradient2501"
       y2="44"
       xlink:href="#linearGradient3588"
       gradientUnits="userSpaceOnUse"
       x2="17"
       gradientTransform="translate(0,-4)"
       y1="34"
       x1="8"
       inkscape:collect="always" />
    <linearGradient
       id="linearGradient2504"
       y2="11"
       xlink:href="#linearGradient2434"
       gradientUnits="userSpaceOnUse"
       x2="51"
       gradientTransform="translate(-17,11)"
       y1="42"
       x1="60"
       inkscape:collect="always" />
    <linearGradient
       id="linearGradient2508"
       y2="57"
       gradientUnits="userSpaceOnUse"
       x2="17"
       gradientTransform="translate(0,-4)"
       y1="34"
       x1="8"
       inkscape:collect="always">
      <stop
         id="stop3272"
         style="stop-color:#729fcf"
         offset="0" />
      <stop
         id="stop3274"
         style="stop-color:#204a87"
         offset="1" />
    </linearGradient>
    <linearGradient
       id="linearGradient2511"
       y2="48.269001"
       xlink:href="#linearGradient3248"
       gradientUnits="userSpaceOnUse"
       x2="50.657001"
       gradientTransform="translate(0,-4)"
       y1="57"
       x1="56"
       inkscape:collect="always" />
    <linearGradient
       id="linearGradient2516"
       y2="13"
       xlink:href="#linearGradient3258"
       gradientUnits="userSpaceOnUse"
       x2="21"
       gradientTransform="translate(0,-4)"
       y1="57"
       x1="30"
       inkscape:collect="always" />
  </defs>
  <sodipodi:namedview
     id="base"
     inkscape:zoom="4.71875"
     height="30px"
     borderopacity="1.0"
     inkscape:current-layer="layer1"
     inkscape:cx="80"
     inkscape:cy="64"
     inkscape:grid-points="true"
     inkscape:snap-bbox="true"
     showgrid="false"
     width="30px"
     inkscape:snap-nodes="true"
     inkscape:snap-global="true"
     showguides="true"
     bordercolor="#666666"
     inkscape:window-x="0"
     inkscape:window-y="0"
     inkscape:window-width="1600"
     inkscape:pageopacity="0.0"
     inkscape:pageshadow="2"
     guidetolerance="10000"
     pagecolor="#ffffff"
     gridtolerance="10000"
     inkscape:bbox-paths="true"
     inkscape:document-units="px"
     inkscape:bbox-nodes="true"
     inkscape:window-height="845"
     fit-margin-top="0"
     fit-margin-left="0"
     fit-margin-right="0"
     fit-margin-bottom="0"
     inkscape:window-maximized="1">
    <inkscape:grid
       id="grid2395"
       visible="true"
       type="xygrid"
       enabled="true"
       originx="-2.0000002"
       originy="-8.9999946"
       spacingx="1"
       spacingy="1" />
  </sodipodi:namedview>
  <g
     id="layer1"
     inkscape:label="Calque 1"
     inkscape:groupmode="layer"
     transform="translate(-2.0000002,64.999995)">
    <rect
       id="rect3465"
       style="fill:#427bc3"
       ry="0"
       height="0"
       width="6"
       y="12.5"
       x="16" />
    <g
       id="g880"
       transform="matrix(2.4999999,0,0,2.4999999,-2.9999996,-82.499994)">
      <path
         inkscape:connector-curvature="0"
         d="M 6,29.867 C 6,29.867 6,28 7.8571,28 H 17.143 C 19,28 19,29.867 19,29.867 V 53 H 6 Z"
         style="fill:#204a87"
         sodipodi:nodetypes="csssccs"
         id="path2430" />
      <path
         inkscape:connector-curvature="0"
         d="m 45,38.067 c 0,0 0,-1.867 1.857,-1.867 h 9.286 C 58,36.2 58,38.067 58,38.067 V 53 H 45 Z"
         style="fill:#cc0000"
         sodipodi:nodetypes="csssccs"
         id="rect3240" />
      <path
         inkscape:connector-curvature="0"
         d="M 19,8.8667 C 19,8.8667 19,7 20.857,7 h 9.286 C 32,7 32,8.8667 32,8.8667 v 44.133 H 19 Z"
         style="fill:#4e9a06"
         sodipodi:nodetypes="csssccs"
         id="path2428" />
      <path
         inkscape:connector-curvature="0"
         d="m 21,9 h 9 v 44 h -9 z"
         style="fill:url(#linearGradient2516)"
         id="rect3242" />
      <path
         inkscape:connector-curvature="0"
         d="m 32,21.867 c 0,0 0,-1.867 1.857,-1.867 h 9.286 C 45,20 45,21.867 45,21.867 V 53 H 32 Z"
         style="fill:#f57900"
         sodipodi:nodetypes="csssccs"
         id="path2426" />
      <path
         inkscape:connector-curvature="0"
         d="m 34,22 h 9 v 31 h -9 z"
         style="fill:#fcaf3e"
         id="rect3244" />
      <path
         inkscape:connector-curvature="0"
         d="m 47,38 h 9 v 15 h -9 z"
         style="fill:url(#linearGradient2511)"
         id="rect3246" />
      <path
         inkscape:connector-curvature="0"
         d="m 8,30 h 9 V 53 H 8 Z"
         style="fill:url(#linearGradient2508)"
         id="rect3250" />
      <path
         inkscape:connector-curvature="0"
         d="m 3,53 h 58 c 0.554,0 1,0.446 1,1 0,0.554 -0.446,1 -1,1 H 3 C 2.446,55 2,54.554 2,54 2,53.446 2.446,53 3,53 Z"
         style="fill:#555753"
         id="rect3252" />
      <path
         inkscape:connector-curvature="0"
         d="m 34,22 h 9 v 31 h -9 z"
         style="fill:url(#linearGradient2504)"
         id="path2432" />
      <path
         inkscape:connector-curvature="0"
         d="m 8,30 v 3.312 c 0.1887,-0.05 0.3833,-0.083 0.5938,-0.062 0.8251,0.118 1.4672,0.717 1.9682,1.344 0.741,1.028 1.539,2.01 2.438,2.906 1.165,1.186 2.505,2.257 4,3 V 30 Z"
         style="fill:url(#linearGradient2501)"
         id="path3584" />
      <path
         inkscape:connector-curvature="0"
         d="m 17,53 v -3.312 c -0.189,0.05 -0.383,0.083 -0.594,0.062 C 15.581,49.632 14.939,49.033 14.438,48.406 13.697,47.378 12.899,46.396 12,45.5 10.835,44.314 9.4953,43.243 8,42.5 V 53 Z"
         style="fill:url(#linearGradient2498)"
         id="path3600" />
      <path
         inkscape:connector-curvature="0"
         d="m 21,9 v 5.048 c 0.189,-0.077 0.383,-0.128 0.594,-0.096 0.825,0.181 1.467,1.093 1.968,2.048 0.741,1.567 1.539,3.063 2.438,4.429 1.165,1.808 2.505,3.438 4,4.571 V 9 Z"
         style="fill:url(#linearGradient2495)"
         id="path3624" />
      <path
         inkscape:connector-curvature="0"
         d="m 30,53 v -5.679 c -0.189,0.087 -0.383,0.144 -0.594,0.108 -0.825,-0.203 -1.467,-1.23 -1.968,-2.304 C 26.697,43.362 25.899,41.679 25,40.143 23.835,38.109 22.495,36.274 21,35 v 18 z"
         style="fill:url(#linearGradient2492)"
         id="path3662" />
      <path
         inkscape:connector-curvature="0"
         d="m 34,22 v 4.101 c 0.189,-0.062 0.383,-0.104 0.594,-0.077 0.825,0.146 1.467,0.888 1.968,1.664 0.741,1.273 1.539,2.488 2.438,3.598 1.165,1.469 2.505,2.794 4,3.714 V 22 Z"
         style="fill:url(#linearGradient2489)"
         id="path3666" />
      <path
         inkscape:connector-curvature="0"
         d="m 43,53 v -4.101 c -0.189,0.062 -0.383,0.104 -0.594,0.077 C 41.581,48.83 40.939,48.088 40.438,47.312 39.697,46.039 38.899,44.824 38,43.714 36.835,42.245 35.495,40.92 34,40 v 13 z"
         style="fill:url(#linearGradient2486)"
         id="path3670" />
      <path
         inkscape:connector-curvature="0"
         d="m 56,53 v -2.208 c -0.189,0.033 -0.383,0.056 -0.594,0.041 C 54.581,50.754 53.939,50.355 53.438,49.938 52.697,49.252 51.899,48.598 51,48 49.835,47.209 48.495,46.496 47,46 v 7 z"
         style="fill:url(#linearGradient2483)"
         id="path3674" />
      <path
         inkscape:connector-curvature="0"
         d="m 47,38 v 2.208 c 0.189,-0.033 0.383,-0.056 0.594,-0.041 0.825,0.079 1.467,0.478 1.968,0.895 0.741,0.686 1.539,1.34 2.438,1.938 1.165,0.791 2.505,1.504 4,2 v -7 z"
         style="fill:url(#linearGradient2480)"
         id="path3678" />
    </g>
  </g>
  <metadata
     id="metadata51">
    <rdf:RDF>
      <cc:Work>
        <dc:format>image/svg+xml</dc:format>
        <dc:type
           rdf:resource="http://purl.org/dc/dcmitype/StillImage" />
        <cc:license
           rdf:resource="http://creativecommons.org/publicdomain/zero/1.0/" />
        <dc:publisher>
          <cc:Agent
             rdf:about="http://openclipart.org/">
            <dc:title>Openclipart</dc:title>
          </cc:Agent>
        </dc:publisher>
        <dc:title>graphics_rounded</dc:title>
        <dc:date>2009-03-20T19:01:11</dc:date>
        <dc:description />
        <dc:source>https://openclipart.org/detail/22671/graphics_rounded-by-jean_victor_balin</dc:source>
        <dc:creator>
          <cc:Agent>
            <dc:title>jean_victor_balin</dc:title>
          </cc:Agent>
        </dc:creator>
        <dc:subject>
          <rdf:Bag>
            <rdf:li>graphics</rdf:li>
            <rdf:li>icon</rdf:li>
            <rdf:li>math</rdf:li>
            <rdf:li>statistics</rdf:li>
          </rdf:Bag>
        </dc:subject>
      </cc:Work>
      <cc:License
         rdf:about="http://creativecommons.org/publicdomain/zero/1.0/">
        <cc:permits
           rdf:resource="http://creativecommons.org/ns#Reproduction" />
        <cc:permits
           rdf:resource="http://creativecommons.org/ns#Distribution" />
        <cc:permits
           rdf:resource="http://creativecommons.org/ns#DerivativeWorks" />
      </cc:License>
    </rdf:RDF>
  </metadata>
</svg>
